<svg xmlns="http://www.w3.org/2000/svg" viewBox="0 0 550.46 658.87">

      <path
              data-tip="بوشهر"
              id="IR-0701"
              d="M158.91,332.66c-2.21-1.17-5.65-4.87-8.83-9.51-7.67-11.19-8-12.33-5.89-18.54,1-2.86,2.26-5.29,2.83-5.4s2.57,2.71,4.45,6.26c3,5.64,3.8,6.46,6.39,6.46,4,0,6.45-3.72,8.64-12.92,2.37-10,2.18-15.17-.76-21-3.17-6.26-5.9-8.66-10.69-9.44-2.64-.43-4.23-1.4-5.07-3.08-1.85-3.72-3.28-4.21-12.38-4.23-6.91,0-8.87-.39-11.11-2.15-1.5-1.18-2.72-2.93-2.71-3.88,0-2.28,7.95-14.6,9.86-15.34.94-.36,1.49-2,1.49-4.59,0-4.26,1-5,3.1-2.48,1.34,1.62,7.24,2.19,7.24.7,0-.47,1.34-.66,3-.42s3.29-.07,3.68-.7c1.13-1.82,4-1.31,8,1.46,4.42,3,6.17,3.18,9.54,1,2.33-1.52,3-1.36,11.89,3.13,10.87,5.46,12.45,7.53,10.56,13.84-1.65,5.51-1.5,10,.45,13.78l1.66,3.19,8.68-.66,8.69-.67v5.22c0,5.11,2.23,11.33,4.07,11.33,2.08,0,5.23,7.08,5.23,11.75v4.79l-10.08.16c-5.54.09-10.78,0-11.63-.13s-4.86-.51-8.91-.76c-7-.44-7.38-.35-7.88,1.94-3.33,15.25-4,19.46-3.67,22.93.35,3.73.05,4.31-3.69,7A14.72,14.72,0,0,1,158.91,332.66Z"
      />
      <path
              data-tip="تنگستان"
              id="IR-0702"
              d="M225,452.68c-8.34-8.43-13.9-18.21-14.74-25.92-.42-3.87-1.38-6.43-3.08-8.27-6.91-7.48-9.29-17-9.05-36.29l.19-15-4.73-11.77a154.34,154.34,0,0,1-6.33-19.09,71.56,71.56,0,0,0-3-10.52,9.63,9.63,0,0,1-.56-6.72c.48-1.94,1.43-6.21,2.1-9.47,1.21-5.79,1.32-5.95,4.65-5.95,1.88,0,4,.75,4.8,1.66,1.08,1.3,2.27,1.48,5.55.84a105.85,105.85,0,0,1,14-.88l9.82-.07.3-8.92c.25-7.59,0-9.48-1.92-12.66-1.21-2.06-2.61-3.74-3.11-3.74-1.58,0-4.06-6-4.06-9.77,0-3,.39-3.67,2.06-3.67a64,64,0,0,0,9.65-2.09l7.6-2.08,5.08,4.94a104.12,104.12,0,0,0,8.57,7.51c1.92,1.42,4.37,3.33,5.43,4.25,2.47,2.13,8.64,15.43,10.28,22.14.69,2.82,4.18,11.17,7.75,18.56s7.07,15.41,7.76,17.81c1.1,3.82,2.26,5,9.43,9.73,8,5.28,11.15,9,11.15,13.31a10.93,10.93,0,0,0,1.12,4.28c1.51,2.82.49,3.55-2.38,1.69-1.29-.83-7.7-3.53-14.24-6-13.45-5.05-17.26-7.21-23.52-13.29-4.59-4.47-7.61-5.27-11.14-2.93a80.4,80.4,0,0,1-9.79,4.33c-4.26,1.64-8.21,3.31-8.78,3.7-1,.72-8.77,2.41-16.26,3.55-3.48.54-4,1-5,4.94-2.29,8.36.2,38.08,3.75,44.9a13.31,13.31,0,0,1,1.51,4c0,4.14,14.17,32.14,18.73,37.1l4.19,4.54-3.36,4.18c-1.85,2.3-3.4,4.15-3.45,4.1Z"
      />
      <path
              data-tip="دیر"
              id="IR-0706"
              d="M324.81,564.09c-4.54-1.65-10.39-3-13-3-3.91,0-5.24-.57-7.76-3.21-4.43-4.67-8.24-6.33-13.62-5.94-3.65.27-4.87,0-5.57-1.47l-1.78-3.61a4.24,4.24,0,0,0-2.84-2.11c-1.08-.16-2.76-1.68-3.72-3.36-2.25-3.91-7.71-4.45-8.25-.82-.82,5.59-3.88,2.09-5.56-6.34-1.21-6.06-2.5-7.27-7.73-7.27-4.79,0-7.19-1.32-7.19-3.94,0-.79-2.31-6-5.12-11.67-6.4-12.78-7.56-16.7-5.72-19.22,1.26-1.71,1.56-1.44,3.49,3,2.19,5.12,4.23,6.11,7.26,3.52,1-.89,3.23-1.22,6-.93,4.05.43,4.39.7,4.39,3.46,0,2.48.43,3,2.51,3,2.5,0,5.76-2.39,5.76-4.21,0-.53,1.38-1,3.07-1,2.21,0,3.71-.87,5.36-3.1s3.11-3.1,5.73-3.1c2.83,0,4.85-1.32,11.41-7.4,9-8.36,19.15-13.73,28-14.86l5.54-.71,6.87,7.28c3.78,4,8.31,8.13,10.08,9.16,4.68,2.72,14.62,10.41,15.59,12,.46.78,5.49,4.86,11.18,9.08a148.41,148.41,0,0,1,16.59,14.37c3.43,3.68,8.44,9,11.14,11.75l4.91,5.05-3.52,2.18c-5.77,3.58-12.08,9.5-12.08,11.33,0,.94-.42,1.71-.95,1.71s-1.25,1.4-1.63,3.1c-.66,3-.85,3.1-6.74,3.1-3.33,0-6.32.42-6.64.94s-4.18.7-8.59.41c-6.81-.46-9-.15-14.72,2-10.61,4-12.91,4.09-22.23.72Z"
      />
      <path
              data-tip="دیلم"
              id="IR-0707"
              d="M26.07,0c-.41.51-1,1.27-1.74,2.21C21.44,5.9,20.75,7,19.92,8a16.37,16.37,0,0,1-7.38,4.69,47.29,47.29,0,0,1-6.08,7.61L0,27.07l3.74,6.76,3.73,6.76.14,18.06.13,18.06,5,5a55.29,55.29,0,0,0,6.78,6c2.67,1.49,14.16,16,15.82,19.92a27.25,27.25,0,0,0,3.84,6.22c1.3,1.48,2.93,2.71,3.62,2.72s3.71-2,6.72-4.42a125.22,125.22,0,0,1,12.18-8.43C70.69,98.39,74,95.22,75.37,90.5c.65-2.17,1.87-4.51,2.72-5.21s6.54-1.48,15-1.8l2.15-.09A3,3,0,0,0,95,81.85,3.85,3.85,0,0,0,92.73,80c-2.25-.92-4.83-2-5.75-2.54-1.47-.9-2.93-3.14-2.77-9.07,0-.08,0-.16,0-.24-1.78-1-1.88-1.53-1.75-3.31a23.22,23.22,0,0,0-1-6.28c-1-3.64-1-4.18,0-8a30.78,30.78,0,0,0,1.13-5.86c0-1.28,1-2.75,3.39-5,2.68-2.57,3.39-3.71,3.39-5.42,0-3.57-2.26-6.39-6.51-8.11-2.67-1.08-4-2.05-4.46-3.3C77.18,19.8,76.66,13.29,77.1,7.2c-7.73-4-13.59-5.07-30.31-6C37.51.68,29.84.24,29.73.23Z"
      />
      <path
              data-tip="گناوه"
              id="IR-0710"
              d="M89.42,98.3c1.67-1.23,3-3.12,3-4.21s1.43-2,3.18-2c4.14,0,5.17-1.15,3-4.41l-1.88.07c-8.34.23-13.58.82-14.56,1.64s-2.08,3-2.72,5.21c-1.42,4.75-4.59,7.77-14.15,13.52A132.49,132.49,0,0,0,54,115.83c-2.28,1.83-5.31,4.12-6.71,5.09l-2.56,1.77L53,130.53c4.55,4.31,11.52,10.31,15.5,13.34,9,6.88,9.55,7.48,15.1,18,5.21,9.92,7.37,12,13.55,13,5.92,1,9.08,3.15,9.08,6.32,0,1.93-.54,2.56-2.22,2.56-2.17,0-2.18.06-.36,2.06a6.26,6.26,0,0,0,3.76,2.07c1.1,0,3.1,1.86,4.75,4.39,2.67,4.14,2.84,5.09,2.85,16.1v11.71l4.39-.66c3.93-.58,4.39-.43,4.39,1.42a4.81,4.81,0,0,1-1.91,3.42c-1.23.87-2.11,3.15-2.48,6.46s-1.25,5.6-2.42,6.46c-1.68,1.23-1.69,1.35-.1,1.35,2.43,0,2.23,3.65-.35,6.23-1.66,1.66-1.86,2.51-1,4.13,1.64,3.07,3.35,2.48,6-2.1,1.3-2.26,2.83-4.12,3.42-4.12s.81-.42.49-.93.7-2.3,2.26-4a9.14,9.14,0,0,0,2.84-7.08c0-3.67.27-4.08,2.92-4.38a15.79,15.79,0,0,1,5.68.6,11.4,11.4,0,0,0,5.32.3c2.39-.6,2.22-.83-2.75-3.89a27.76,27.76,0,0,1-12.53-17.69c-1.72-7.74-1.55-9.54,1.24-13.65a21.75,21.75,0,0,0,3-8.26,44.75,44.75,0,0,1,2.33-9.28c3.26-8.34,3.56-12.31,1.75-23-1.64-9.69-1.63-10.22.24-13.69,1.07-2,1.51-2.93,1.37-3.73a3.24,3.24,0,0,0-1.14-1.78c-2.08-2.08-1.86-6.22-1.73-8.65.41-7.52,6.91-13.2,7.61-13.8l2.13-3.45-2.39-.46c-12.45-2.4-24.7-5.25-27.45-6.39-2.1-.86-2.9-1.36-3.19-3-5.87-1.07-16.67,7.77-21.27,6C86.83,100.69,86.65,100.33,89.42,98.3Z"
      />
      <path
              data-tip="دشتستان"
              id="IR-0704"
              d="M348.05,338.91c-3.51-19.38-5.46-24.45-9.88-25.61-1.92-.5-3-1.68-2.45-2.61a1.48,1.48,0,0,0-.76-2.31c-1-.34-2-2.54-2.34-4.91A49.85,49.85,0,0,0,329,292.23c-1.73-3.81-3-7.51-2.87-8.23s-.84-1.3-2.18-1.3-4.49-2.43-7-5.39c-3.36-4-4.05-6-2.68-7.62a16.53,16.53,0,0,0,2.59-6.31c.59-3.2,4.37-7.33,9.42-11.17-.37-.45-.72-.89-1-1.3l-.61-.8c-.52.38-1,.75-1.5,1.12-3.46,2.69-7.18,5.4-8.27,6s-6.5-3.7-12.55-10.16h0c-13.72-14.67-21.91-27-25.45-38.22-3.36-10.7-19.64-29.51-24.06-27.82-1.46.56-2.66.27-2.66-.66s-1.41-1.67-3.12-1.67a8.35,8.35,0,0,1-5.13-2,3,3,0,0,0-4.24-.34c-3.68,2.74-11.29,1.62-16.83-2.47-3.9-2.89-6.09-6.87-8.82-16l-3.64-12.2,3.66-5.92c2.73-4.43,3.23-6.73,2-9.12-1.83-3.4-1-5.59,2.73-7.08a38.43,38.43,0,0,1-2.17-3.26c-2.08.8-3.52,1.86-4,3-.84,2.18-2.1,2.61-4.62,1.61h0a35.58,35.58,0,0,0-9.85-1.5c-3.78-.07-12.61-3.15-21.72-7.59L159,108.36l-12.27.39c-3,3.88-4.12,4.91-5.6,7.6a15,15,0,0,0-2.25,7.25,10.54,10.54,0,0,0,.81,3.66,5.12,5.12,0,0,0,.91,1.54c2.81,3.21,3.06,6.24.82,10-2.06,3.49-2.08,3.85-.5,12.11,1.93,10.09,1.4,16.45-2.19,26.41-1.42,3.94-2.58,8.82-2.58,10.85s-.47,4-1,4.33a12.26,12.26,0,0,0-2.56,3.59c-1.37,2.65-1.32,3.51.49,8.76,2.62,7.62,5.51,11.54,11.15,15.12a27.06,27.06,0,0,1,6.08,5c.8,1.14,3.18,2.38,5.3,2.76a24.7,24.7,0,0,1,7,2.57c2.12,1.28,3.61,1.58,4.65.92a11,11,0,0,1,4.74-1c4,0,21.68,8.63,23.12,11.31s1.35,10.26,0,14.27c-.88,2.51-.76,3.84.56,6.4l1.67,3.22,8-.68c6.62-.57,21.94-4,32-7.17,1.91-.6,2.33-.34,2.33,1.44,0,2.22,2.64,4.94,14.32,14.76,5.46,4.59,7.09,6.76,9.63,12.77a104.68,104.68,0,0,1,4.45,12.92c.77,3.12,4,10.8,7.24,17.05s6.55,13.7,7.41,16.54c1.7,5.62,2.85,6.82,12.39,13,6.38,4.13,7.87,6.3,9.07,13.22a16.48,16.48,0,0,0,3.19,6.53c1.42,1.7,2.59,3.5,2.59,4s1.28.73,2.84.49,11.68-.72,22.48-1.05c6-.18,13.24-.65,20.12-1.25-.87-4.71-2-9.19-2.79-10.61C351.59,355.78,349.59,347.44,348.05,338.91Z"
      />
      <path
              data-tip="دشتی"
              id="IR-0705"
              d="M399.19,486.28c-1.46-2.86-3.78-5.9-5.14-6.76-9.37-5.89-18.44-21.09-16.71-28,.52-2.07-2.41-12.06-6.86-23.41-4.27-10.89-8.13-22.92-8.58-26.73a109.56,109.56,0,0,0-2.72-13.87c-1-3.61-2.45-10.66-3.34-16.1-7.43.58-16.61,1.13-25,1.46-24.29,1-26.35.92-31.62-.9a82.89,82.89,0,0,1-8.78-3.56c-3-1.54-6.18-2.79-16.83-6.57-5.15-1.83-11.1-5.68-16.39-10.59-2.27-2.11-3.87-2.9-4.65-2.29a65,65,0,0,1-8.42,3.77,81.54,81.54,0,0,0-8.27,3.59c-1,.71-8,2.28-16.25,3.63-3.47.57-4,1.07-5.06,5-1.7,6.12.22,27.08,3.23,35.36,8,22,15.94,37.91,21.6,43.37,4.47,4.31,5.67,9.24,2.94,12.12-2.2,2.33-7,8.94-7,9.67,0,.38,1.44,2,3.19,3.66,3.06,2.86,3.17,3.27,2.84,10.24-.19,4,0,7.26.46,7.26s1.21,1.07,1.71,2.38c.76,2,1.5,2.32,4.5,2,2-.23,3.9.07,4.27.66s2.68.84,5.8.48c2.95-.36,5.14-.2,5.14.35,0,1.79,7.25.2,8.33-1.83.73-1.36,2.18-1.95,4.77-1.95,3,0,4.58-.86,8.41-4.7,11.69-11.69,22-16.88,35.3-17.74l9.29-.6,3.9,4.09c2.15,2.24,5.24,5.58,6.88,7.42a26.2,26.2,0,0,0,6.2,5,56.2,56.2,0,0,1,7.37,5c3.26,2.6,4.68,3.14,6.72,2.53,4-1.19,12.77-1.09,16.64.2a35.94,35.94,0,0,1,8.08,4.65c6.55,5,10.59,4.81,14-.65a14.58,14.58,0,0,1,3.06-3.55A17.17,17.17,0,0,1,399.19,486.28Z"
      />
      <path
              data-tip="کنگان"
              id="IR-0709"
              d="M471.2,591.12c-1-.23-2.1-.45-3.25-.66-5.39-1-12.11-2.89-14.94-4.25s-5.73-2.23-6.45-2-1.19-.06-1.05-.75-.56-1.19-1.55-1.12-1.54-.27-1.23-.77-.05-.93-.79-.94-5.88-3.61-11.41-8c-8.6-6.82-10.83-9.27-15.34-16.78-5.44-9-8.88-13.44-10.54-13.44-.52,0-3.34,2.11-6.28,4.68a47,47,0,0,1-8.17,5.94c-1.85.81-2.85,2.05-2.85,3.51a13.31,13.31,0,0,1-.62,3.88c-.54,1.41.53,1.63,7.67,1.63,9.55,0,11.56.54,11.56,3.1a2.85,2.85,0,0,0,1.63,2.48c1.21.46,1.46,1.41,1,3.68s-.18,3.46,1.54,4.91c1.21,1,5.86,5.35,10.31,9.61,10.17,9.72,10.94,10.34,12.95,10.34a14,14,0,0,1,4.72,1.59c1.7.87,3.54,1.31,4.09,1s1-.13,1,.48.86,1.09,1.91,1.09c2.7,0,17.27,3.81,19.86,5.2a5.32,5.32,0,0,0,3.69.58c.84-.33,1.25-.14.9.42s.55.77,2.34.41c5.07-1,10.82,1.27,15.78,6.27a36.14,36.14,0,0,0,5.13,4.64c1.26,0,5.8-4.84,6.9-7.31a6.68,6.68,0,0,0,.4-1.22,96.21,96.21,0,0,0-17.79-10.43A38.42,38.42,0,0,1,471.2,591.12Z"
      />
      <path
              data-tip="عسلویه"
              id="IR-0708"
              d="M544.66,651.47c0-.69,2.52-2.56,5.8-4.35a6.58,6.58,0,0,0-1.08-2.19l-1.19.51-.64.25c-8.09,3.26-7.29,3.26-11.35-1.9a31.87,31.87,0,0,1-4.45-7.37,10.24,10.24,0,0,0-2.47-3.2,35.19,35.19,0,0,0-5-4,151.69,151.69,0,0,1-14.92-12.11c-2.64-2.43-5.2-4.6-7.78-6.6a2.36,2.36,0,0,1,.27,1.35,3.05,3.05,0,0,1-.26.79,4.87,4.87,0,0,1-.67,1.12,13.34,13.34,0,0,0-1.19,2l-2.51,2,3.93,6.19c4.89,7.68,6.08,10.3,6.08,13.41a17.09,17.09,0,0,0,1,5.1,4.11,4.11,0,0,0,1.24,2c1.15.87,2.44.66,3.55.7,4.06.18,4.54,4.24,10.72,7.06a8,8,0,0,1,2.62,1.63c1.7,1.64,1.26,2.9,2.38,4,2.08,2,7.05,1.09,10.12-.88,1.89-1.2,1.37-1.71,3.63-3.12a22.73,22.73,0,0,1,2.66-1.39A1.37,1.37,0,0,1,544.66,651.47Z"
      />
      <path
              data-tip="جم"
              id="IR-0703"
              d="M455.48,559a81.13,81.13,0,0,0-3.22-10.08,31.46,31.46,0,0,0-1.68-3.46c-.57-.87-1.21-1.89-1.87-3-5.75-8.33-11.09-8.25-13.43-16.46-1.27-4.43-1.83-11.88-4.5-15.25a17.74,17.74,0,0,1-3.12-4.27c-.36-.78-.43-2.2-1.7-2.68s-1.56-1.48-1.07-2.36c-1.49-1.27-3.11-2.68-4.56-4a37,37,0,0,1-12.48-3h0l-.6-.31a14,14,0,0,0-4.51,4.36c-1.13,1.91-3.21,3.74-4.68,4.11-4.73,1.19-12-.5-16.14-3.73-5.79-4.53-10.68-6.29-15.37-5.49-2.2.37-4,1-4,1.42s4.43,3.94,9.83,7.84c11,7.89,34.7,32.06,38.45,39.14a41.72,41.72,0,0,0,3.55,5.74c2.57,2.93,8.13,11.45,8.13,12.46s10,9.35,11.32,9.35c.43,0,2.54,1.65,4.68,3.67,6.2,5.85,16.94,10.87,28.75,13.58-5.13-6.75-9-15.57-11.48-26.36C455.68,559.79,455.58,559.39,455.48,559Z"
      />
</svg>
