<svg xmlns="http://www.w3.org/2000/svg" viewBox="0 0 319.29 342.97">

  <path d="M157.4,214.56c1.53,1.47,3.47,2.67,4.3,2.67,2.07,0,3.83,4.18,3.82,9.1v4l-7-.62c-6.16-.54-6.94-.42-7,1.11,0,.95-1.47,2.64-3.22,3.75-2.71,1.72-3.18,2.6-3.18,5.95a15,15,0,0,1-1.24,6.09,9.3,9.3,0,0,0-.55,1.14,3.54,3.54,0,0,1,.51,2.37c0,1.74.25,2.43.9,2.43,1.54,0,3-2.94,2.84-5.76-.13-2.5,0-2.66,2.68-4.25,1.8-1.05,3.36-1.55,4.33-1.36a5.77,5.77,0,0,0,3.13-.52c1.18-.58,2.86-.68,6.23-.36,3.72.36,5,.76,6.53,2.05a12.32,12.32,0,0,0,3.13,2c.67.21,1.22.78,1.22,1.26,0,1.4.8,1,2.61-1.26.93-1.17,2.16-2.13,2.73-2.13a6.82,6.82,0,0,0,2.76-1.14c1.72-1.13,1.72-1.15,1.92-8.81.2-7.22.3-7.78,1.78-9.54.87-1,1.43-2.11,1.26-2.39s-1.89-.7-3.8-.93c-5.63-.67-6.84-1.54-11.32-8.16-3.14-4.65-4.77-6.45-7.18-7.93-2.78-1.71-3.44-1.88-6.2-1.54a15,15,0,0,1-6.75-.89c1.38,1.3,1.91,3,1.91,6.34C154.62,211,155.13,212.39,157.4,214.56Z"/>

  <path data-tip="فارسان" id="IR-0906" d="M199.67,135.08,196,131.56c-3-2.91-4-3.51-5.76-3.51-2.8,0-6.11-1.63-7.3-3.58a107.92,107.92,0,0,0-8.81-12.66,12.37,12.37,0,0,1-2.29-3.13c0-.47-19.09-12.11-20.93-12.75a21.1,21.1,0,0,1-6.49-3.56l-1.59-1.47-1.45,1.81a22.88,22.88,0,0,1-5.09,4,45,45,0,0,0-5.4,3.75L129.15,102l1.76,3.68c1.27,2.67,2.43,4.12,4.19,5.24a39.75,39.75,0,0,1,5,4,34.49,34.49,0,0,0,5.27,4c5,2.92,9.54,6.14,9.89,7.06a8.65,8.65,0,0,0,2.87,2.43c4,2.43,20,19.74,23.3,25.27l1,1.6,4.32-4.41a97.47,97.47,0,0,0,11.08-13Z"/>

  <path data-tip="کیار" id="IR-0908" d="M259.56,138.46c.09-2,0-2.08-2.95-2.89-1.67-.47-4.67-1.11-6.68-1.42-2.58-.41-4-1-4.86-2a3.06,3.06,0,0,0-2.31-1.19,6.78,6.78,0,0,1-3.13-.75,16.14,16.14,0,0,0-5.92-1c-3.7,0-4,.11-6.07,2.28a14.86,14.86,0,0,0-2.93,4.66,54.43,54.43,0,0,1-2.52,5.92c-2.11,4.25-3.15,4.47-8,1.73a48.65,48.65,0,0,0-6.78-3,18.52,18.52,0,0,1-4.61-2.17c-1-.87-1.18-.75-2.78,1.47a96.13,96.13,0,0,1-11.21,13.51l-3.7,3.57,4.16,3.36a41.33,41.33,0,0,0,6.44,4.38c3,1.35,2.95,2.87-.18,6.14-2,2.12-2.84,2.55-4.76,2.55-2.6,0-3.93,1.11-5,4.14a3.74,3.74,0,0,1-4.82,2.36c-.66-.17-1.35-.06-1.54.24s-1.53.55-3,.55c-2.71,0-3.37.6-3.37,3.09,0,1.42-2.17,1.55-3.91.23-2-1.52-7.63-1-7.63.63,0,1.06-3.23,2.12-6.46,2.12-2.14,0-2.81-.28-3.63-1.53-1.17-1.78-1.24-1.76-8.59,1.4-.59.26-1.12.49-1.59.71-2.42,1.11-3.18,1.72-2.81,2.17.74.89,6.31,4.07,10.73,6.27,1.6.79,3.06,1.46,4.07,1.84a12.66,12.66,0,0,0,7,.95c3.17-.36,3.69-.23,6.94,1.72,3.6,2.18,4.59,3.27,9.31,10.33,1.51,2.26,3.26,4.38,3.9,4.72a34.13,34.13,0,0,0,5.87,1.53c12.66,2.45,23.35,5.07,25,6.13a22.06,22.06,0,0,1,6.51,6.47c1.52,2.37,2,2.64,8.72,5h0c5.23,1.86,5.58,1.85,4.85-.09s-.75-7.29.11-12.52c.66-4,.63-4.33-.45-4.93-3.09-1.71-12.93-12-15.73-16.45-3.3-5.23-5.14-7-10.49-9.85-3.89-2.1-4.17-2.72-3.53-7.89.27-2.17,1.25-4.6,3.15-7.79,2.41-4,3-4.63,4.49-4.63,1.3,0,2.23.63,3.74,2.51,4.94,6.18,5.7,6.45,10.16,3.62a18.22,18.22,0,0,1,6.87-2.39c3.32-.5,4.8-1.12,7.91-3.34a66.34,66.34,0,0,0,6.19-5c2.26-2.2,2.59-2.31,7.38-2.63,4.26-.28,5.27-.57,6.64-1.85s1.57-1.86,1.27-3.95c-1-6.94-1.07-9.3-.38-13A59.18,59.18,0,0,0,259.56,138.46Z"/>

  <path data-tip="بروجن" id="IR-0902" d="M280.29,259.64c1.45.37,1.54.62,1.54,4.32,0,4.63,2,8.83,4.74,9.82s4.25.81,4.69-.55a3.76,3.76,0,0,1,1.86-1.92c1.69-.77,1.7-.8.75-4.34-.74-2.78-.05-6.35,2.35-12.05.7-1.65.84-3.24.55-6.07-1.12-10.72-1.12-11.8-.11-12.81a8.56,8.56,0,0,1,3.86-1.4,12.08,12.08,0,0,0,7.32-3.31c1.33-1.25,1.35-1.39.38-2.46a6.09,6.09,0,0,0-2.32-1.53,4.29,4.29,0,0,1-3.42-4.2c0-3.76-1.11-5.69-3.73-6.48-4.86-1.45-6.81-7.38-3.93-11.94a13.89,13.89,0,0,1,3.16-3.54c1.44-1,8.12-1.88,14.36-2a3.19,3.19,0,0,0,2.38-.66,4.09,4.09,0,0,0,.81-1.17l0-.06a13,13,0,0,0,.9-4.77,10.29,10.29,0,0,1,1.19-5l1.18-2L317,182.53c-2.25-3.63-2.14-5.67.42-7.39l1.87-1.26-1.37-4.08c-1.74-5.14-3.41-7.51-5.67-8h0c-1.05-.23-1.53-.47-1.63-1.7a32.41,32.41,0,0,1,.34-4.87c0-.27.3-.34.6-.15s.4-.25.21-1-.1-1.17.26-.94.6,0,.6-.49-.23-.72-.5-.54-.51,0-.51-.4a8.14,8.14,0,0,0-1.67-2.79c-1.22-1.51-2.28-2.79-3.25-3.88-4.19-4.7-6.64-5.89-12.17-7-3.8-.72-6.2-1.44-8.28-2.71a16.59,16.59,0,0,1-3-2.33c-.65-.63-1.31-1.33-2-2.15-2-2.27-3.66-4.46-3.66-4.86s-.64.32-1.42,1.61a10.94,10.94,0,0,1-2.68,3,55.54,55.54,0,0,1-6.41,4.19c-3.58,2.1-4.44,3.51-5.37,8.7-.79,4.46-.8,5.31-.18,13.74l.39,5.24-2.1,1.6c-1.81,1.38-2.68,1.59-6.46,1.59s-4.56.19-5.87,1.5c-.82.82-3.7,3.17-6.39,5.22-4.42,3.36-5.3,3.78-9.13,4.35a15.63,15.63,0,0,0-6.8,2.37c-2.14,1.44-3.2,1.73-6.38,1.74-4.1,0-3.92.12-8-4.79l-1.69-2.06-2.25,3.58c-2.34,3.73-3.76,7.73-3.11,8.78a15.47,15.47,0,0,0,3.52,2.19c5.18,2.61,6.42,3.76,10,9.31a64.25,64.25,0,0,0,10.43,11.85c3.84,3.61,7.09,7,7.21,7.54a34.61,34.61,0,0,1-.87,6.6c-1.11,5.61-1.11,5.63.23,9.76,2.28,7.08,2.11,7.59-4.44,13.17-2,1.74-2.33,2.24-1.75,3.16s1.29,1,3,.92c1.29-.1,4-.29,6.09-.41a16.46,16.46,0,0,0,7.29-2.09,12.86,12.86,0,0,1,7.06-1.88,14.41,14.41,0,0,0,6.38-1.37c4-1.88,9.33-1.86,12.4,0,2.27,1.4,6,7,6,9.08a6.4,6.4,0,0,0,1.46,3.34A5.32,5.32,0,0,0,280.29,259.64Z"/>

  <path data-tip="اردل" id="IR-0901" d="M193.61,168.13a16.46,16.46,0,0,0-3-2.52c-6.76-4.8-10.5-8-12-10.18-4.46-6.62-18.37-21.74-22.4-24.36a18.9,18.9,0,0,1-3.85-3.27,11.41,11.41,0,0,0-3.18-2.57,17.6,17.6,0,0,1-3.27-2.2l-1.34-1.22-2.16,1.75c-1.19,1-3.19,2.6-4.43,3.63a33.83,33.83,0,0,1-3.48,2.57c-1.09.61-1,.68.91.72a6.64,6.64,0,0,1,3.3.93,5.39,5.39,0,0,0,2.78.89c3,0,4.73,6.45,2.75,10.29-1.32,2.54-6.25,6.68-9.91,8.32-4.08,1.83-7,1.81-14.48-.08l-2.31-.59a8.6,8.6,0,0,0,2,2c1.31.87,2.39,2.26,2.39,3.09,0,2.37,3.66,9.82,6.46,13.15,1.75,2.08,2.36,3.72,2,5.31-.44,1.8,1,3.83,8.54,11.37l1.1-.5a32.79,32.79,0,0,1,9.33-3c3-.25,3.37-.13,4.56,1.36s1.48,1.58,3.09,1a6.65,6.65,0,0,0,2.61-1.87c.71-1,1.56-1.18,5.86-1.18,4.82,0,5.06-.07,5.75-1.57.61-1.35,1-1.54,3.11-1.39a5.86,5.86,0,0,0,2.82-.26,7.11,7.11,0,0,1,3-.43c2.34,0,2.63-.17,3.25-1.94,1-3,2.39-4.14,4.92-4.14C190.49,171.18,194,169.18,193.61,168.13Z"/>

  <path data-tip="شهرکرد" id="IR-0905" d="M276.2,121.68c-.15-.52-.34-1.13-.58-1.79-2.37-6.42-10.47-13.06-31.25-25.6-6-3.65-7.5-6-7.5-12.05a18.62,18.62,0,0,1,3.82-11.8,18.34,18.34,0,0,0,1.17-1.87c.85-1.59,1-3,1.23-6.83a29.21,29.21,0,0,0-.17-7c-.28-.76-2.1-2.07-4.42-3.19-6.41-3.09-8.61-6.6-9.48-15.12-.49-4.92-.59-5.14-3.47-8.32C223.92,26.36,221.87,24,221,23c-1.39-1.64-2-1.89-4.63-1.89A27.26,27.26,0,0,0,210,22.18l-.4.12c-6.69,2.14-7.37,2.14-10.61,0-2.53-1.69-3.12-1.85-4.43-1.26-2,.93-3.29.87-4.48-.2-.8-.72-1.45-.77-3.35-.25a12.73,12.73,0,0,1-4.57.3c-1.79-.29-2.77,0-5.13,1.5-1.6,1-3.27,1.71-3.71,1.54a1.51,1.51,0,0,0-1.51.57c-.84,1-3.36,1.18-3.93.26s-1.51-.11-1.51,1.26-.94,1.55-1.47.17c-.3-.77-.56-.85-1.1-.31a2.35,2.35,0,0,1-1.2.71c-.83,0-.53-1.63.46-2.45a3.17,3.17,0,0,0,.76-2.66c-.18-1.87-.19-1.87-3.67-1.76-4.19.15-4.16.13-9.21,4.85-3.48,3.25-4,4-4,5.89s.19,2.21,2.28,2.78a21.16,21.16,0,0,0,4.74.64,5.86,5.86,0,0,1,3.19.73c2.24,2.24-1.39,9.73-5.24,10.8a17.15,17.15,0,0,1-3.28.62,7.12,7.12,0,0,0-3,1.72l-.62.5c-.36.27-.73.53-1.11.77a16.51,16.51,0,0,1-5.46,2.11,27.62,27.62,0,0,0-5.35,2.6c-2.37,1.4-3.27,2-3.48,2.74a1.87,1.87,0,0,0,0,1,12.29,12.29,0,0,0,1.77,3.13c.25.35.52.7.79,1a10.33,10.33,0,0,1,1.39,11.73c-1.67,3.56-1.31,5.67,1.21,7.21a24.24,24.24,0,0,1,4.26,3.89,13.3,13.3,0,0,0,3.77,3.22,8.08,8.08,0,0,1,2.78,2.18c1.21,1.45,5.83,4.16,7.07,4.16.26,0,4.59,2.63,9.78,5.94.66.42,1.89,1.11,2.72,1.53,4.57,2.29,8.49,4.9,8.79,5.84a10.64,10.64,0,0,0,2.1,2.86,82.79,82.79,0,0,1,8.34,12,8.48,8.48,0,0,0,7.34,4.07c2.3,0,2.91.35,5.78,3.25a30.35,30.35,0,0,0,4.56,4c.76.4,1.37,1.11,1.37,1.57,0,1.32,2.81,3.21,6.27,4.24a29,29,0,0,1,5.58,2.41h0a14,14,0,0,0,3.07,1.52c.63.06,3.95-6.6,4.83-9.66a12.58,12.58,0,0,1,2.62-3.8l2.18-2.28h5.2c8,0,11.66.78,13.86,3a5.08,5.08,0,0,0,4.08,1.87c2,0,6.21,1,9.69,2.38.82.31,2.06-.12,4.09-1.42,1.6-1,4-2.55,5.41-3.39a11.41,11.41,0,0,0,1.85-1.47,12.9,12.9,0,0,0,2.17-2.63,7.73,7.73,0,0,1,2-2.58C276.52,123.19,276.44,122.59,276.2,121.68Z"/>

  <path data-tip="کوهرنگ" id="IR-0907" d="M108.87,48.38l-.47-.92c-.44-.82-1-1.76-1.49-2.68s-1.21-2.07-1.72-2.86c-1.13-1.77-1.86-3.52-1.62-3.9s.15-.52-.28-.25S101.46,37.24,100,36a40.85,40.85,0,0,0-5.88-3.91c-3.14-1.66-3.41-1.7-5.43-.85a23.26,23.26,0,0,0-4,2.27A12,12,0,0,1,81,35.35a15.62,15.62,0,0,0-4.09,2c-2.15,1.48-2.52,1.53-7.59,1.12-4.87-.39-5.7-.65-9.6-3.07a29.82,29.82,0,0,1-6.22-5.06,10.67,10.67,0,0,0-4.05-3.11c-1.74-.58-2.13-1-2.29-2.63s-.66-2.19-4.54-4.22c-4.21-2.21-9.83-7.65-9.1-8.82.17-.27-.16-.52-.72-.56-2.93-.21-7.48-1.33-8.75-2.16A16.76,16.76,0,0,1,20.59,4C19.48,1.89,18.51.09,18.45,0a21.73,21.73,0,0,0-3.61,1.74C10.5,4.11,5.68,4.62,0,3.38L2.78,5.93,6.06,10.5c1.8,2.52,8.57,10,15,16.64C36.71,43.16,43.55,51,43.55,52.87a2,2,0,0,0,1,1.88c.55.18,1.19,1.3,1.42,2.49.56,2.93,3.41,7.13,5.66,8.33l4.09,7c.78,1.36,2.67,4.3,5.92,9.2,2,3.09,3.72,6.08,3.72,6.66S67,91.91,69,94.91A34.58,34.58,0,0,1,73.37,104c2.16,10.1,7.13,20,10,20,.47,0,3.76,2.22,7.32,5s7.66,5.23,9.13,5.58a13.27,13.27,0,0,1,4.66,2.33,52.9,52.9,0,0,0,5.76,3.95,12.63,12.63,0,0,1,5.29,6.05l0,.07a57.78,57.78,0,0,1,6.85,1.51l6.25,1.57,3.27-1.5c3.58-1.64,7.88-5.21,9.54-7.94,1-1.63,1-1.9.1-3.8-.76-1.59-1.35-2-2.65-2a2.9,2.9,0,0,1-2.05-.61,3.72,3.72,0,0,0-2.42-.61c-3.22,0-4-.51-4-2.77a4.07,4.07,0,0,1,.76-2.65l2.88-2.32c1.17-.94,3.18-2.49,4.46-3.44l2.34-1.72-2.64-2.69a31.15,31.15,0,0,0-5.28-4.24,8.82,8.82,0,0,1-4.07-4.78,13.29,13.29,0,0,0-2.07-3.62c-.35-.22-.63-1.54-.62-2.94,0-2.21.32-2.81,2.37-4.51a54.65,54.65,0,0,1,6.05-4.12c5.33-3.13,5.57-3.89,2.38-7.6a15,15,0,0,0-3.1-3,6,6,0,0,1-2-1.49c-2-2-2.06-6.5-.21-10,1.56-3,1.22-4.83-1.55-8.21a14.94,14.94,0,0,1-1.2-1.72,10,10,0,0,1-1.23-2.69l-.44-2h-5.57C114.39,57,112.57,55.75,108.87,48.38Z"/>

  <path data-tip="لردگان" id="IR-0909" d="M160.7,284.81c1,0,1.44.34,1.44,1.17a1.75,1.75,0,0,0,1.17,1.55,6.65,6.65,0,0,1,2.49,2.61l1.32,2.24,1.43-1.66c1.23-1.43,1.88-1.66,4.73-1.66,2.38,0,3.41-.26,3.66-.91a1.22,1.22,0,0,1,.24-.4,1.64,1.64,0,0,1,1.89-.31,2.34,2.34,0,0,1,1.09.92,7.38,7.38,0,0,0,3.51,1.91,9.87,9.87,0,0,1,4.16,2.37,26.11,26.11,0,0,0,3.48,3.17,15,15,0,0,1,3.55,4.45c1.62,3.25,5,6.83,7.14,7.66a4.61,4.61,0,0,1,2.15,2.06c.73,1.6,3.27,2.78,6,2.78a2.25,2.25,0,0,1,2,.91c.21.56,1.14.91,2.42.91,1.11,0,1.45,0,2,.42l0,0a3.26,3.26,0,0,1,1.06,1.09c1.07,1.63,2.38,1.53,1.75-.13-.41-1.05.46-1.89,2.18-2.31.39.1.79.2,1.22.28,6.78,1.26,7.11,1.1,7.09,3.61q.6.49,1.38,1.2c0-.27,0-.54,0-.84v-2.79l2.54.45c4.2.74,8.31,2.79,8.32,4.15,0,1.89,4.06,6.16,7.44,7.85,2.6,1.29,3.12,1.91,3.6,4.23.3,1.49.7,3.4.87,4.23.4,2,3.06,2,6.73.17,4.3-2.19,5.94-1.61,7.05,2.5.41,1.55.9,1.92,2.59,1.95a8.64,8.64,0,0,1,3.82,1.19c2.18,1.43,6.09,1.48,7.24.1a12.65,12.65,0,0,0,1.41-4.49c.43-2.73,1.07-4.21,2.95-5.91q.42-.37.93-.78c.58-.46,1.26-.95,2.05-1.49,2.62-1.82,3.06-1.93,4-1a7.68,7.68,0,0,1,1.47,3.25c.53,2.6,1.79,3.33,2.31,1.34.41-1.57,3.23-1.85,5.94-.67,0-1.51.07-3.5.07-5.65v-8.21l-2.52-4.15c-3.1-5.09-5.46-10.76-5.46-13.11,0-1.39.4-1.91,2-2.57,2.9-1.22,3-1.46,1.34-4.26a10.84,10.84,0,0,1-1.5-3.78,9.61,9.61,0,0,0-1.82-3.74c-1.62-2.23-2.11-2.52-4.26-2.52s-2.42-.12-2.42-1.7a4.17,4.17,0,0,1,.54-2.28,6.3,6.3,0,0,0,.95-2c.36-1.2.2-1.36-1.36-1.36-5.42,0-8.81-4.11-8.89-10.79,0-2.68-.28-3.8-.84-3.8a1.84,1.84,0,0,1-1-.41,9.11,9.11,0,0,1-3.11-4.65c-.65-3.08-3.91-8.31-6-9.57-2.45-1.49-5.29-1.47-8.28.05a13.07,13.07,0,0,1-6,1.22c-3,0-4.31.36-7.59,2.16s-4.53,2.15-7.16,2.1a40.8,40.8,0,0,0-7,.68c-3.3.65-3.93.62-5.32-.29s-1.57-1.46-1.56-4.21.23-3.36,1.85-4.69c1-.84,2.72-2.32,3.78-3.29l1.93-1.76-4.85-1.35c-8.21-2.28-10.25-3.34-12.89-6.69-4.62-5.85-5.8-6.48-16.87-9-2.34-.54-4.84-1.14-5.56-1.33-1-.26-1.41,0-1.71.92a12.56,12.56,0,0,1-2,3.15c-1.51,1.8-1.57,2.16-1.53,9.28l.05,7.4-2.06,1.35a8.37,8.37,0,0,1-3.14,1.37c-.59,0-1.84,1.1-2.78,2.43-1.73,2.44-2.81,2.82-5.74,2-.75-.2-1.36-.72-1.36-1.16s-.55-1-1.22-1.19a12.2,12.2,0,0,1-3.1-2c-1.5-1.26-2.55-1.59-5.22-1.62-1.84,0-3.47.15-3.62.4a5,5,0,0,1-2.63.46,9.86,9.86,0,0,0-4.15,1c-1.52.87-1.85,1.5-2.08,3.91a12.07,12.07,0,0,1-1.35,4.52L148,255.2l-6.32-.32-.61,0c-1.52,2-4.29,4.42-9,7.93a100.06,100.06,0,0,1-8.65,6c-.25,0-1-.86-1.82-2l-.16.11c-.85.56-1.71,1.2-2.51,1.83a61.82,61.82,0,0,0,11.54,11.89h.2a11.12,11.12,0,0,0,5.77-1.33c2.5-1.53,4.38-1.28,8,1a24.28,24.28,0,0,0,7,2.34c.44.08.84.16,1.22.25a4.56,4.56,0,0,1,4.78.48l.29.2A5.87,5.87,0,0,0,160.7,284.81Z"/>
</svg>
