<svg xmlns="http://www.w3.org/2000/svg" viewBox="0 0 409.21 241">

  <path data-tip="قم" id="IR-1901" class="cls-1" d="M166.26,13.18c-4.58,1-6,1.83-7.76,4.5-1.27,1.92-1.8,2.28-3.41,2.28a10.47,10.47,0,0,0-2.69.3c-.59.23-.72-.16-.55-1.61h0c.17-1.5-.08-2.14-1.64-3.74l-.43-.44c-.27-.26-.51-.51-.73-.75a2.41,2.41,0,0,0-.21-.24l-.37-.44-.2-.27-.24-.35-.16-.26-.14-.28c0-.09-.08-.17-.11-.25s0-.16-.06-.23a2,2,0,0,1-.05-.24c0-.06,0-.12,0-.18a1,1,0,0,1,.18-.52h0c-4.51-3.55-10.7-9-11.4-8.37-1.25,1.13-1.27,1.13-3-.48L131.67,0l-1.84,2.09c-.23.27-.45.55-.66.83a11.56,11.56,0,0,0-1.36,2.37,9.91,9.91,0,0,0,1.15.9,30.4,30.4,0,0,1,4,3.09L134.75,11,133,14c-1.55,2.63-1.66,3.37-.88,6.28.59,2.18.62,3.57.1,4.09s-3.2.8-6.15.8h-5.35L120.48,28a7.64,7.64,0,0,0,1.78,5.59c3.88,5.33,4.07,6.08,2.59,10.2-1.87,5.22-1.67,8.75.74,13,1.65,2.88,2,4.23,1.55,6.75a9.34,9.34,0,0,1-1.24,3.86,25.56,25.56,0,0,1,1.74,6.77c.36.83.72,1.66,1.07,2.49l4.46-.24a33.24,33.24,0,0,0,5.79-.7c1.31-.46,1.34-.38,1.34,4.21,0,5.19.22,5.65,4.91,10.59a33.28,33.28,0,0,1,4.44,6.09c1.54,2.94,1.58,3.24.73,4.76-1.69,3-2.42,3.11-21.69,2.93-9.81-.09-18.15-.36-18.53-.59-1-.65-1.94,1.54-1.93,4.76,0,4.1,1.59,16.28,2.19,16.88.28.28,3.54.21,7.32-.16,7.49-.73,18.92-.23,20.43.9.51.37,1.19,2.08,1.51,3.78a32.14,32.14,0,0,0,5.72,12c1.5,1.78,1.8,1.89,4.34,1.57a6.5,6.5,0,0,1,4.22.52c.81.48,2,1.14,2.67,1.45,4.75,2.3,20.42,15.57,26.15,22.16a10.17,10.17,0,0,0,4.75,3.4,12.46,12.46,0,0,1,3.74,2.13c3-.71,6.4-.73,13.36-.73,9.52,0,11.18-.11,13.18,1.21a8.85,8.85,0,0,1,2.93,3.27c.8-.23,2.28-.76,3.79-1.37.24-.1.47-.17.71-.25,4.63-1.71,8.95-1.62,14.69.33a36.51,36.51,0,0,1,5.32,2.13,22.69,22.69,0,0,0,5,1.45c5,1,7.62,2.24,7.62,3.48s-2.1,3.17-4,3.58c-4.5,1-6.65,3-5.87,5.41.7,2.23,3.3,3,11.94,3.73,14.43,1.16,26.42,2.44,36.23,3.86h0l10,1.45c1.19.17-4.92-5.32-6.55-5.89a5.2,5.2,0,0,1-2.52-2c-.39-.74-2.57-2.51-4.84-3.93-3.13-2-4.11-2.91-4.11-3.94a2.3,2.3,0,0,0-.63-1.74c-.34-.21-.61-1.76-.6-3.45v-.1a46.4,46.4,0,0,0-.33-5.42c-.3-2.22-.13-2.7,1.8-4.83a11.64,11.64,0,0,0,2.13-2.86c0-.27-.7-1.06-1.56-1.74-2.09-1.67-1.6-3,2.72-7.69a53.36,53.36,0,0,0,5.92-8c3.51-6,4.91-6.79,11.4-6.37l5.12.32,2.45-2.91a21.1,21.1,0,0,0,2.46-3.26,16.92,16.92,0,0,1,1.78-2.81,11.72,11.72,0,0,0,1.79-3,18.21,18.21,0,0,1,2.09-3.7c1.8-2.72,2-3.37,1.48-4.74-.83-2.19-.18-5.86,1.81-10.23a54.29,54.29,0,0,0,2.24-5.75c1.25-4.52,6.33-10.48,8.94-10.48a3.43,3.43,0,0,0,.67-.2c-.26-.21-.51-.43-.79-.68-1.17-1-2.41-1.73-2.75-1.51s-.47.13-.25-.23c.51-.81-3.32-3.7-4.19-3.17-.39.24-.52.18-.32-.15s-.4-1.4-1.32-2.43a5.49,5.49,0,0,1-1.66-4.58c0-3-.25-3.2-4.73-4.17-1.82-.4-2.48-.93-3.69-3-.8-1.39-1.95-2.6-2.55-2.7a12.89,12.89,0,0,1-2.89-1.1c-1.53-.79-2.18-.83-4.21-.26-2.26.62-2.63.55-6.32-1.26-2.26-1.1-4.37-2.59-5-3.49a7.6,7.6,0,0,0-3.65-2.48c-1.43-.5-4.56-1.63-7-2.52l-4.15-1.54-.19-.08-5.42-4.94c-3.86-3.88-9.92-9.14-11.41-9.9-2.34-1.19-3.93-2.94-3.93-4.32a3.43,3.43,0,0,0-1.24-2.29c-.68-.54-2.09-1.79-3.14-2.8a7.18,7.18,0,0,0-2.59-1.82,6.6,6.6,0,0,1-2.49-2,6.2,6.2,0,0,0-2.64-2c-1.48,0-3.6-2.81-3.6-4.78,0-2.52-1.37-3.82-5.53-5.29a26,26,0,0,1-6-3.1c-2.37-1.81-2.56-1.85-9.94-2.25-5.21-.28-8.36-.2-10.27.27-6.28,1.53-6.36,1.52-17.43-3-3.49-1.43-7.18-2.57-8.31-2.57-2.16,0-4.21.83-4.9,2-.32.54-.88.56-2.38.11a6,6,0,0,0-4.14.11,4.5,4.5,0,0,1-3.06.23m-5.51,43.75a3.09,3.09,0,0,0-1.56,1.75A1.38,1.38,0,0,1,167.26,59c-.69,0-2.89,1-4.89,2.26a34.48,34.48,0,0,1-3.84,2.22,9.19,9.19,0,0,1-1-.33h0A3.75,3.75,0,0,1,156.18,62a14.76,14.76,0,0,0-3.39-2.47c-5.43-3.1-6-5.57-2.52-11.57.56-1,1.36-2.44,1.78-3.27,1.47-2.89,5.5-3.9,9.18-2.32,1.9.82,2.58,1.45,3.2,2.94,1.39,3.36,4.11,7.4,5.69,8.43C172,54.93,172,55.32,170.38,56.06Zm54.23,113.06c-1.12,1.21-1.62,1.28-3.5.53-2.2-.87-3.55-2.46-3-3.51,1-1.91,2.42-2.16,5.07-.92S226.22,167.39,224.61,169.12Z"/>

  <path class="cls-1" d="M157.4,61.9a7,7,0,0,0,.86.3,33.83,33.83,0,0,0,3.39-2,14,14,0,0,1,4.32-2,1.2,1.2,0,0,0,1.37-1,2.76,2.76,0,0,1,1.39-1.55c1.45-.66,1.41-1-.24-2.08-1.39-.92-3.79-4.48-5-7.45a4.31,4.31,0,0,0-2.82-2.6c-3.26-1.4-6.82-.5-8.11,2-.37.73-1.08,2-1.57,2.89-3.05,5.3-2.58,7.48,2.22,10.22a12.62,12.62,0,0,1,3,2.18,3.42,3.42,0,0,0,1.22,1Z"/>

  <path class="cls-1" d="M223,165.46c-2.34-1.09-3.58-.87-4.48.81-.5.93.7,2.33,2.64,3.11,1.66.66,2.1.59,3.09-.48C225.7,167.38,225.41,166.58,223,165.46Z"/>

  <path class="cls-1" d="M164.3,235.41c3.44-3.27,6.94-6.46,7.77-7.1s1.84-6.18,2.26-12.66-3.33-31-2.86-32.12,4.57-3.68,9.4-6.1c.32-.17.65-.33,1-.48a68.79,68.79,0,0,1,7.44-3.31,8.29,8.29,0,0,0-2.52-1.48c-1.77,0-3.49-1.35-6.44-4.94a31.49,31.49,0,0,0-4.8-4.8,74.89,74.89,0,0,1-6.43-5.62c-4.93-4.72-16.71-12.74-18-12.25a4.74,4.74,0,0,1-1.35.31c-.3,0-.54.35-.54.77s-1.07,1.82-2.38,3.09L144.45,151V163.7l-5.43,5c-5.59,5.1-7.6,8.16-7.62,11.57a5.88,5.88,0,0,1-.89,3c-1.73,2.29-.58,5.68,3.36,9.91s5,5.95,6.29,10.84q3,11.1.87,15.87a16.7,16.7,0,0,0-.79,2.28c-.88,3.16-1.33,7.1-.63,7.1a20.46,20.46,0,0,1,4.14,3c2.75,2.3,4,3,5.6,3,3,0,6.63,1.25,11.28,3.85C161.48,238.09,162.67,237,164.3,235.41Z"/>

  <path class="cls-1" d="M143.77,91.34c-2.59-2.78-3.74-4-4.25-5.47a9.33,9.33,0,0,1-.41-4.25L138.75,77,128,77.79c-.58-1.8-1.17-3.59-1.75-5.38a17.14,17.14,0,0,0-1.06-4.21A10.32,10.32,0,0,1,122.08,70c-4.5,1.88-9.43,1.21-16.82-2.29-2.49-1.19-5.73.62-6.78,3.78-1.34,4-4.36,6-9.34,6.07-4.83.07-9.7,1.51-12,3.55-.93.85-1.57,2.82-1.8,5.57C75.11,90,74.39,91.81,72,95c-1.9,2.58-2.86,3.59-4.14,3.93l1.72,16.19v9.27l3.12,1.88a58.85,58.85,0,0,0,13.52,6.33,23.7,23.7,0,0,0,15.7-.46c3.14-1.27,9.47-3,7.43-5.45-.8-1-2.34-12.69-2.34-17.91a16.66,16.66,0,0,1,.7-5.25c.62-1.35,1-1.51,2.53-1.16,1,.22,9.29.5,18.44.62,17.28.24,18.67.09,20.14-2.26C149.73,99.34,147.68,95.53,143.77,91.34Z"/>

  <path class="cls-1" d="M60.54,97.32c-4.55-2.49-10-7.78-12.27-11.9C45.35,80.14,36.34,76,27.78,76a12.3,12.3,0,0,1-6.4-1.89L20,73.23l-.62,1c-.15.22-.29.44-.41.64-1.77,2.77-1.91,3.47-1.74,6.43A7.89,7.89,0,0,1,17,84.72a4.39,4.39,0,0,1-1.41,1.7c-2.68,2.19-5.14,11-2.48,16.82.41.91,1.9,3.85,1.5,6.05-.08.38.45,1.28-.25,1.75-.31.2.09.89,0,2.62a15.8,15.8,0,0,1-.5,2.75c-.4,1.66-.74,2.74-1,3.63-1.17,4-.68,3.92-1.38,5.5-.94,2.12-1.7,1.91-3.37,4.5s-1.25,3.21-2.63,5.75a13.75,13.75,0,0,1-.77,1.26,9.14,9.14,0,0,1-1,1.17,19,19,0,0,0-2.57,2.58,10.84,10.84,0,0,0-.71,1.11c-.19.34-.35.67-.5,1a9.1,9.1,0,0,1,1.22,3.6c0,2.2,5.31,7.54,10.11,10.16,2.79,1.52,3.39,2.3,3.81,5,.52,3.22,3.91,7.49,7.41,9.32,2.51,1.32,10,1.15,11.89-.26a10.52,10.52,0,0,1,5.09-1.19c2.12,0,4.11-.55,5-1.34a3.15,3.15,0,0,1,1-.62c-2.69-1.74-8.28-3.69-8.33-6.88a4.31,4.31,0,0,1,1.55-3l14.6-2.79c11-2.16,15.65-4.62,18.67-9.79,1.11-1.91,3.45-5.41,5.19-7.77,3.1-4.2,3.72-5.51,2.61-5.51a47.46,47.46,0,0,1-5.94-3.08l-5.39-3.07V115.29a79.51,79.51,0,0,0-2.24-16.18,15.7,15.7,0,0,1-5.64-1.79Z"/>

  <path class="cls-1" d="M74.73,218.39a.91.91,0,0,1,.6.51c0,.07,0,.13.07.2a11.53,11.53,0,0,1-.74,9.51l-1.48,2.93,4.5,3.43c2.48,1.9,5.32,4,6.33,4.78h0c3.24,2.38,5.12,1.56,9.67-4.23,1.74-2.21,8-6.85,12.17-9,3.67-1.89,7.86-2.66,14.56-2.66s6.55-.06,11.06,3a10.61,10.61,0,0,0,3.87,1.27l2.47.3.41-3.35a26.06,26.06,0,0,1,1-4.39,13.42,13.42,0,0,1,.56-1.55c1.33-3.05,1.15-6.6-.73-14-1.25-5-3.34-8.7-5.73-10.27-2-1.34-4.87-6.59-4.85-9a8.65,8.65,0,0,1,.87-3.57,8.17,8.17,0,0,0,.87-3.23c0-3.24,2.33-6.68,7.78-11.65l5.3-4.85V150l2.5-2.55c1.49-1.52,2.15-2.56,1.64-2.57-2.66-.05-8.89-9.84-8.89-14,0-3.39-1.41-4.24-7.91-4.73-4.63-.34-18.84.43-19.06,1-.62,1.73-2.11,2.95-6,4.91-4.2,2.13-5.23,2.4-9.79,2.58a41.46,41.46,0,0,1-12.93-1.44c-.86-.25-1.34-.13-1.34.33a10.54,10.54,0,0,1-2,3.18,91.28,91.28,0,0,0-5.27,7.82c-2.69,4.42-3.75,5.63-6.13,6.94-3.49,1.93-19.46,5.49-25,6.5-3.42.62-4.17,1-4.32,2-.27,1.89,2,4.28,6,6.3a18.71,18.71,0,0,1,4.09,2.5,3.68,3.68,0,0,1,.42,1.7c.17.3.34.61.51.95,2.63,5.07,5.29,7.65,7.9,7.65,3,0,4.81,1.86,5.54,5.82.46,2.46.2,3.57-1.43,6-3,4.55-6.18,11.09-6.18,12.76,0,2.69,3.07,8,5,8.48s1.8.54.28,1.7a5.28,5.28,0,0,1-1.9.84c.51.55,1,1.05,1.45,1.48a11.25,11.25,0,0,0,1.51,1.24C66.19,220.22,72.64,217.68,74.73,218.39Z"/>

  <path data-tip="دریاچه نمک" class="cls-1" d="M293.59,187.89a33.63,33.63,0,0,1,5.14,4.12,4.33,4.33,0,0,0,2.24,1.56c.49,0,2.91,2,5.37,4.5l4.47,4.51,4.38-.41a16.2,16.2,0,0,1,7.25.52,30.44,30.44,0,0,0,5,1.15h0c1.14.13,2.29.27,2.55.33a6.83,6.83,0,0,0,2.31-.85c1.45-.76,2.78-.87,6.47-.54,4.57.4,4.66.39,6.16-1.28,4.27-4.74,3.85-4.53,8.05-4.16a26.67,26.67,0,0,1,5.8,1.09c1.58.61,2.17.61,3.16,0s2.4-.64,5.25-.36c3.6.36,4.13.27,4.86-.77.46-.65,4.64.63,4.64.63,3.6.35,4.13.27,4.86-.78a5.05,5.05,0,0,1,2.24-1.61,2.27,2.27,0,0,0,.4-.18,9.21,9.21,0,0,0,1.36-.93,13,13,0,0,0,1.42-1.35c1-1.11,2.25-2,2.84-2,1.67,0,3-.64,3-1.48,0-1,2.61-2.68,4.2-2.68a12.63,12.63,0,0,0,4-1.43c1.52-.79,3.49-1.72,4.39-2.07a6.14,6.14,0,0,0,.94-.43,1.05,1.05,0,0,0,.52-.58,1.54,1.54,0,0,0-.24-1.16c-.23-.44-.59-1-1.07-1.7-1.71-2.52-1.84-3.47-.59-4.51a2.36,2.36,0,0,0,.89-1.41,23.33,23.33,0,0,1,1.86-4.3c.15-.29.29-.56.41-.83,1.33-2.76,1.54-4.24.41-5.38a8.1,8.1,0,0,0-2.57-1.52c-2.66-1.12-3-1.46-3.6-4a10,10,0,0,0-2.18-4.16s-8.69.89-9.5.14a4.78,4.78,0,0,1-1.46-2c0-2-1.67-3.9-4.58-5.19s-3.14-1.47-3.14-3.76-1.15-4.22-2.57-4.24c-.38,0-1.77-2.21-3.07-4.9-1.93-4-2.44-5.73-2.68-9.34-.28-4.29-.36-4.49-2.15-5.35a12.57,12.57,0,0,1-3.44-2.78,9.55,9.55,0,0,0-3.62-2.57c-3.11-1-4.45-3.34-4.45-7.66,0-2-.21-3.62-.46-3.62s-1-.83-1.56-1.85a10.29,10.29,0,0,0-3-3A5.28,5.28,0,0,1,352.17,95a1.87,1.87,0,0,0-.21-.45l-.12-.15-.21-.18a1.74,1.74,0,0,0-.6-.27c-1.1-.27-2.94.16-5.46,1.31A54,54,0,0,1,340,97.38a10.44,10.44,0,0,0-3.91,2.28,21.54,21.54,0,0,0-2.32,3.22,25.6,25.6,0,0,0-2.5,5.16c-.24.81-1.2,3.24-2.13,5.38-1.72,4-2.07,6.47-1.39,9.92.31,1.6,0,2.47-1.77,5a19.28,19.28,0,0,0-2.15,3.62,14.5,14.5,0,0,1-1.78,3.15,19.59,19.59,0,0,0-1.78,3,23.71,23.71,0,0,1-2.51,3.28l-2.52,3-5.06-.39c-4.67-.37-5.21-.29-7.09,1a21.85,21.85,0,0,0-4.66,5.83,51.12,51.12,0,0,1-5.84,7.83,19.52,19.52,0,0,0-3.21,3.94c0,.31.69,1,1.54,1.58,2,1.29,1.58,3.21-1.28,6.38-2.05,2.27-2.6,4.21-1.39,5,.4.25.52,1.35.3,2.86-.05.36-.08.7-.11,1C288.21,182.93,289.62,185.21,293.59,187.89Z"/>

</svg>
