
<svg version="1.1" id="Layer_1" xmlns="http://www.w3.org/2000/svg">
<path data-tip="علی‌آباد" id="IR-2407" d="M175.4,321.7c1.5,1,3.4,1.4,5.3,1.2c1.5-0.2,3.1-0.4,4.7-0.4c1.5,0,2.3-0.6,3.2-2.2c1.2-2.4,4.6-4.5,7-4.5
	c1.4-0.3,2.7-0.9,3.7-1.9c1.4-1.1,2.9-2,4.6-2.7c1.9-0.7,2.5-1.5,3.2-4.2c0.7-2.4,1.5-3.7,3-4.5c1.3-0.6,2.2-1.9,2.5-3.3
	c0.7-3.7,4.3-5.7,10.9-6.3c3.9-0.4,6.3-0.3,7.4,0.3c1.3,0.7,2.2,0.6,4.8-0.7c1.6-0.8,3.3-1.3,5.1-1.5c1.4-0.2,2.6-0.8,3.6-1.8
	l1.7-1.8l-1.2-1.5l-0.6-0.7c-1.3-1.8-2.4-3.9-3.1-6c-0.7-2.1-1.8-4.3-2.4-4.8c-0.7-0.7-1.1-1.7-1.1-2.7c0-2.7-1.1-4.4-4.1-6.3
	l-2.7-1.7l-6.3,2c-3.4,1.1-6.5,2-6.7,2c-1.3-0.9-2.6-2-3.7-3.2c-1.6-1.6-3.3-3.1-5.1-4.4c-2-1.3-3.6-5.7-3.6-9.6
	c0-1.5,1-3.9,2.7-6.5c3-4.5,3-4.5-1.7-8.8c-2.8-2.5-4.3-6.4-3.6-9.4c0.6-2.5-1-4.2-4.6-4.9c-1.7-0.3-2.7-0.1-3.6,0.9
	c-1,0.9-2.1,1.5-3.4,1.8c-1.1,0.2-2.1,0.8-2.6,1.8c-0.7,2.1-5.7,4-10.4,4c-5.3,0-7.2,0.9-9.3,4.2c-1.8,2.8-2.1,4.5-0.9,5.2
	s0.9,5.4-0.2,5.8c-0.8,0.3-0.8,0.5,0,1.3c0.6,0.6,0.9,1.5,0.9,2.3c0,0.7,1,1.9,2.3,2.7c2.5,1.5,3.6,4.2,2.3,5.7
	c-0.6,0.7-0.3,1.3,1.4,2.3c2.5,1.5,2.8,3.1,1.1,7.6c-0.7,2.4-1.1,4.8-1.1,7.3c-0.2,2.8,0.6,5.6,2.2,7.8c2.7,4.3,2.8,4.8,0.4,7
	c-1,0.8-1.6,2-1.9,3.2c0,0.8-1.2,2.8-2.6,4.4c-2.9,3.3-3.1,3.8-1.5,5.2s1.4,4.7-0.4,8.4c-0.7,1.3-1.2,2.7-1.5,4.1
	c0.1,0.9,0.5,1.8,1,2.6C171.6,318.7,173.4,320.4,175.4,321.7z"/>
<path data-tip="گنبدکاووس" id="IR-2406" d="M151.6,142.6c2.1,1.2,1.8,6.3-0.5,8.6c-0.9,0.9-2,1.6-3.2,1.8c-2.1,0-3.2,1.5-3.2,4.5c0,2.3,0.6,3.3,4,6.5
	s7.6,5.4,10.8,5.4c0.5,0,2.2,1.2,3.8,2.6c1.8,1.6,3.9,2.9,6.2,3.8c4,1.4,10.3,5.3,12.5,7.7c2.6,2.5,3,6.5,1,9.5l-1.7,2.7l2,3
	c1.7,2.4,2,3.5,1.6,5.6c-0.4,2.3-0.2,2.8,1.6,3.9c1.4,0.9,2.8,2,4.1,3.1c1.1,1,2.4,1.9,3.7,2.7c1,0.5,1.7,1.3,2,2.3
	c0.4,2.4,1.6,3.4,4,3.4c1.6,0,2.5,0.6,3.5,2.2s1.5,2,2.2,1.4c1.2-0.8,2.5-1.6,3.8-2.3c1.6-0.8,3.7-2,4.7-2.5c1.5-0.9,2.8-2,4-3.3
	c1.2-1.6,3.1-2.4,5-2.3c2.4,0,3.2-0.4,4.8-2.4s2.4-2.4,5.3-2.5c1.8,0,3.6-0.4,5.3-1.1l1.9-1l-1.6-1.7c-1-1-1.5-2.4-1.3-3.8
	c0.2-1.8,0.6-2.2,2.6-2.4c3.8-0.4,12.9,4.2,15.9,8l2.5,3.1l1.9-3.6c2.2-4.1,2.9-4.7,5.7-4.7c1.2,0.2,2.3-0.6,2.7-1.7
	c0.7-1.3,1.8-2.5,3-3.4c1.7-1.2,2.3-2.3,2.3-3.9c0-3,1.3-6,2.6-6s3.6-4.3,2.6-4.9c-0.4-0.2-0.7-1.4-0.7-2.6
	c-0.1-1.4,0.7-2.8,2.1-3.3c1.5-0.8,1.7-1.1,0.8-1.1s-1.3-0.7-1.3-2.6c0-1.4,0.3-2.8,0.8-3c1.5-0.9,0.7-2.5-1.5-3.3
	c-1.9-0.7-2.2-1.2-2.2-3.3s0.8-3.3,3.8-6.2c2.1-2,3.7-4,3.7-4.3s0.5-0.6,1.1-0.6c2.4,0,2.1-2.3-0.5-4.5l-2.5-2.1l-0.1-7.9
	c-0.1-7.4-0.2-8.1-2.1-10.3c-1.6-1.9-2-3.1-2-6.5c0-3.7,0.3-4.4,2.4-6.3c2.7-2.5,2.8-1.7-2.2-10.7c-2.3-4.1-2.4-4.9-2.4-11.4
	c0-6.7,0.1-7,2.2-9.1c6.4-6.3,6.4-6.3,9.5-6.3c2.3,0,3.4-0.5,4.7-1.9c2.2-2.5,5.9-2.6,6.9-0.1c0.8,2,2.2,2.7,5.2,2.7
	c1,0,2,0.2,2.8,0.8c0.5,0.5,1.1,0.4,1.7-0.4c0.8-0.8,1.9-1.2,3-1.2c1.3-0.1,2.5-0.5,3.6-1.2c1.4-1,1.5-1.5,0.9-3
	c-1.1-3-0.9-7.7,0.8-13.4c1.1-3.1,1.4-6.5,1.1-9.7c-0.3-2.2-0.2-4.5,0.4-6.7c0.7-1.8,0.6-2.4-0.7-3.8c-1.9-2.1-1.9-3.3,0.1-5.4
	c1.2-1.3,2.4-1.7,4.9-1.7s3.7-0.4,5.1-2c1.4-1.4,3.1-2.5,4.8-3.3c1.6-0.7,3-1.8,3-2.4c0-2.1-2.2-11.7-3.4-14.4
	c-0.6-1.3-1-2.7-1.1-4.1c0-1.7-1-1.8-2.2-0.3c-0.7,0.8-2.4,1-6.8,0.9c-5.5-0.1-6,0-8.1,2l-2.2,2.1l-3.1-1.6c-3.7-1.9-5.8-1.5-7,1.4
	c-1.9,4.5-3.6,6-9,8.1c-2.7,1-5.2,2.2-7.7,3.7c-5.2,3.7-11,6.4-13.6,6.4c-3.4,0-8.6,2.9-10.8,6c-1.6,2.2-1.8,2.3-5.9,1.8l-4.3-0.5
	l-4.7,4c-2.6,2.2-6.1,5.2-7.8,6.5c-5.7,4.5-8.9,8-10.3,11.1c-1.1,2.5-2.2,3.6-5.2,5.1c-2.3,1.1-4.2,2.8-5.6,4.8
	c-2.2,3.5-9.1,7.6-12.8,7.6c-2.9,0-4.8,1.4-9.4,7.1c-1.7,2.1-3,4.5-3,5.6c-0.1,1.4-0.7,2.7-1.5,3.8c-0.9,1.3-1.4,2.9-1.5,4.5
	c-0.2,1.9-0.9,3.8-2,5.4c-2.4,3.4-2,5.2,1.6,6.9c2.2,1,2.6,1.6,2.6,3.7c-0.2,2.2-0.7,4.3-1.5,6.4c-0.8,1.9-1.3,3.8-1.5,5.8
	c0,1.2-1,2.7-2.6,4.2c-1.4,1.3-2.6,2.8-2.6,3.4c0,0.5-0.4,1-0.9,1c-1.3,0.2-2.6,0.4-3.8,0.8c-2.2,0.6-3.1,1.4-3.9,3.3
	c-1,2.3-7.6,8.7-9.1,8.7c-2-0.7-4-1.5-5.9-2.5c-5.4-2.6-5.8-2.6-9.4,0.1C150.4,141.7,150.9,142.2,151.6,142.6z"/>
<path data-tip="آغ‌قلا" id="IR-2402" d="M95.1,174.9c0,1.5,0.3,3,0.8,3.2s0.8,1.8,0.8,3.5c0.1,2.1,0.6,4.1,1.5,5.9c0.8,1.5,1.3,3.1,1.5,4.8
	c0.1,1.6,0.5,3.1,1.2,4.6c0.7,1.7,0.9,3.5,0.7,5.3c-0.6,3,0.9,4.2,5.2,4.2c1.4,0,2.9,0.4,3.1,0.8s1.7,0.7,3.8,0.3
	c1.6-0.3,3.2-0.2,4.7,0.3c3.7,2,1.9,9.7-4.2,18.9c-4,6.1-4.8,9.9-2.7,13.6c0.9,1.6,1.6,3.4,2,5.2c0.4,2.4,0.2,2.9-1.8,4.6l-2.3,1.9
	l2.5,1.1c3.3,1.5,7.7,1.5,8.8,0.1c0.9-0.7,2-1.2,3.1-1.1c1.3,0,2.5-0.6,3.4-1.5c1.8-2.2,6.2-1.8,6.2,0.5c0,1.5,1.3,1.3,2.5-0.5
	s5.3-2.8,6.1-1.6s4.6,1,5.6-0.2c0.7-1.1,1.1-2.4,1.3-3.8c0.5-3.3,1.7-3.4,6.2-0.4c1.8,1.3,3.9,2.1,6.1,2.2c1.5,0,3,0.3,3.2,0.8
	c0.9,1.5,1.6,0.7,1.3-1.6c-0.2-1.5,0-2.6,0.7-3c0.8-0.5,0.8-1-0.3-3c-1.7-2.9-1.3-4.7,2-8.6c2.4-2.8,2.8-3,7.7-3.3
	c5.7-0.3,10.5-2.1,11.2-4.1c0.5-0.9,1.4-1.6,2.4-1.8c2.3-0.6,5.4-3.1,5.4-4.5c0-0.5-1.3-1.8-2.8-2.8c-1.4-0.9-2.7-1.9-3.9-3.1
	c-0.9-1-2-1.8-3.2-2.4c-1.9-1-2.1-1.5-2-4.3c0.3-1.9-0.3-3.8-1.5-5.3c-2-2.6-2.1-5.1-0.2-8.2c1.3-2.1,1.3-2.6,0.4-4.7
	c-1.1-2.7-8.2-7.7-13.8-9.8c-2.2-0.9-4.3-2.1-6.1-3.7c-1.6-1.4-3.6-2.4-5.6-2.9c-3.8-0.7-7-2.7-10.3-6.4c-2.4-2.7-2.7-3.4-2.7-7.1
	v-4.1l3.3-1.4c3.4-1.5,4.9-3.3,4.9-6c0-3.7-9.5-2-14.9,2.7c-1.8,1.5-3.9,2.7-6.1,3.6c-1.9,0.7-3.8,1.7-5.4,3c-4.7,4-8,5.1-16.4,5.5
	c-7.6,0.4-8.1,0.5-10.7,2.9c-1,1-2.1,1.8-3.3,2.5c-0.5,0.1-1.1,0.3-1.5,0.6c-0.8,0.5-0.7,1.1,0.6,3.2C94.5,171.1,95,173,95.1,174.9z
	"/>
<path data-tip="گرگان" id="IR-2411" d="M123.6,341.5c1-1.3,2.1-1.2,10.7,0.4c3.9,0.7,4.8,0.6,8.6-0.9s4.3-1.9,4.9-4.7c1-4.9,2.2-6.5,5.3-7.6
	c3.6-1.2,5.5-2.9,6.8-5.9c0.8-1.8,1.8-2.6,4.6-3.5s3.5-1.2,3.5-2.8c0-0.3,0-0.7-0.1-1.2c0-2.3,0.5-4.7,1.4-6.8
	c1.5-3.7,1.5-4.2,0.4-5.7c-1.8-2.5-1.5-4.3,1.4-7.8c1.4-1.8,2.6-3.9,2.6-4.7c0.2-1.1,0.8-2.1,1.7-2.7l1.7-1.2l-2-3.7
	c-1.7-3.1-2.1-4.5-2-9.2c0-2.9,0.4-5.7,1.1-8.5c1-2.9,1-3.1-0.6-4.3c-0.7-0.6-1.4-1-2.2-1.3c-0.9,0-0.7-3.4,0.3-4.3
	c0.7-0.7,0.3-1.2-1.5-2.2c-1.3-0.7-2.4-1.6-2.4-1.9s-0.4-0.6-0.9-0.6c-1.1-0.2-2.2-0.6-3.2-1.2c-1.2-0.6-2.5-0.9-3.8-0.8
	c-1,0.3-2.9-0.5-5.4-2.2l-3.8-2.6l-0.5,2.9c-0.7,4.1-1.9,4.8-7.2,4.3c-4.1-0.4-4.6-0.3-6.3,1.4c-2.3,2.3-4.9,2.5-4.9,0.4
	s-1.4-2.6-3.1-0.9c-1,0.9-2.2,1.5-3.6,1.6c-1.1,0-2.2,0.4-3.1,1.1c-1.2,1.4-8.6,1.5-11.2,0.1c-1.6-0.9-2.2-0.8-4.9,0.8
	c-1.9,1.1-3.9,1.7-6.1,1.8c-1.9,0.1-3.7,0.5-5.3,1.4c-1.5,0.9-3,1.5-4.7,1.9c-2.9,0.7-3.1,2.3-0.3,2.9c5,1,8,6.3,5,8.8
	c-1.5,1.3-1,2.5,1.2,3c2.8,0.7,2.8,3.8-0.1,7c-2.2,2.5-2.3,2.9-1.4,5c0.5,1.5,0.7,3.2,0.5,4.8c-0.3,2.1,0,2.9,1.8,4.7s2.4,2,3.7,1.2
	c1.6-0.7,3.4-1,5.2-0.9c5,0,7.1,2.4,8.4,9.7c1.2,6.5,0.4,8.7-4.2,12c-3.8,2.7-4.1,3.9-1.5,5.7c2.3,1.5,2.4,4.3,0.3,7.3
	c-1.4,1.9-1.4,2.5-0.7,4.4c0.6,1.1,0.7,2.5,0.1,3.7c-1.1,2.1-1.1,2.2,1.3,2.6c1.1,0.2,4.6,0.4,7.8,0.4c3.8,0.1,5.5-0.1,6.3-0.7
	C123.4,341.7,123.6,341.6,123.6,341.5z"/>
<path data-tip="کردکوی" id="IR-2408" d="M108.9,327.5l-2-1.6c-3.2-2.6-2.8-5.8,1.2-8.7c4.6-3.3,5.2-4.9,4.2-10.2s-3.6-8.5-7-8.5
	c-1.3,0-2.7,0.4-3.8,1.1c-2.2,1.7-3.6,1.4-6.3-1.4c-2.2-2.3-2.4-2.9-2-5.3c0.4-1.6,0.2-3.2-0.7-4.6c-1.5-2.3-0.9-4.3,2-7.6
	c2.2-2.6,2.2-3.9,0-3.9c-1.6,0-2.9-1.2-3.1-2.7c0.3-1,0.9-1.8,1.6-2.5c2.5-2.3,0.9-5-3.6-6.2c-2.2-0.6-3.6-1.4-3.8-2.3
	c-0.4-1.7-4.8-1.8-6.3-0.1c-1.7,2-5.7,3.4-8.5,2.8S64,267,60,270.4c-2.7,2.3-3,4.6-1.1,7.6c1.2,1.9,1.2,2-0.6,3.3
	c-4.5,3.4-4.6,3.7-1.8,5.2c2.3,1.2,2.5,4.4,0.4,6.3c-1.1,1-1.3,1.7-0.8,2.7c1.2,2.3,0.8,4.1-1.5,6.7c-1.3,1.5-2.2,3.3-2.2,4.5
	c0,2.1,1.5,4.5,2.8,4.5c0.4,0,1.2,1.2,1.7,2.6c0.6,1.7,1.4,2.7,2.5,3c1.5,0.3,3.2,0.6,10.6,1.8c2.7,0.4,3.1,0.8,3.9,3.5
	c1.8,5.8,1.3,8.3-2,11.9c-3.7,4-4,6.6-0.9,8.3c2.6,1.4,4.7,1.4,6.5,0s3.5-1.4,8,0.2c3,1.1,4,1.1,6.2,0.4c2.7-0.7,5.5-1,8.3-0.9
	c6.4,0,6.2,0.3,5.8-6.5c-0.2-2,0.3-4,1.5-5.5L108.9,327.5z"/>
<path data-tip="مینودشت" id="IR-2414" d="M334.3,221.5c6.7-4.1,9.8-13.6,7.3-22c-2.2,0.6-4.5,1.1-6.8,1.5c-2.5,0.5-5,0.7-7.5,0.7c-5.5,0-7.2-0.3-9-1.5
	c-1-0.7-2.2-1.2-3.4-1.5c-0.6,0-3.2-1.4-5.8-3c-3.6-2.4-5.3-3-8-3c-3.6,0-5.1-0.9-11.4-6.9c-4.1-3.8-6.8-4.1-8.9-0.8
	c-0.9,1.3-1.9,2.4-2.4,2.4c-1.3,0-1.8,1.2-2.4,5.1c-0.4,2.9-0.9,3.8-2.9,5c-1.2,0.7-2.1,1.7-2.6,3c-0.2,0.9-0.9,1.5-1.7,1.7
	c-3.9,0.6-4.6,1.1-6.4,4.3s-1.8,3.5-0.6,4.4c0.7,0.5,3.8,1.2,6.9,1.4c2.7,0.2,5.3,0.7,7.9,1.6c2.4,1.3,3.8,4.7,3.8,9.9
	c0,2.5,0.5,3.8,2.4,6c5.2,6,6.1,6.5,13.5,7.4c11.5,1.4,11.3,1.4,14.5-1.8c3.9-3.9,8.5-6.1,12.6-6.1c1.1,0,2.1-0.1,3.1-0.5
	c0.3-0.1,0.6-0.2,1-0.4c0.4-1,0.9-1.9,1.5-2.7C330.5,224.1,332.3,222.6,334.3,221.5z"/>
<path data-tip="آزادشهر" id="IR-2401" d="M325.6,251.9c1-1.1,2.4-1.8,3.9-2.1c4.1,0,5.2-4.6,2-8c-1.1-1.3-1.7-3.1-1.5-4.8c0.1-1.6-0.3-3.2-1.2-4.5
	c-0.5-0.5-1.2-0.9-1.9-1.1c-3.7-1.1-10.4,1.4-14.8,6c-2.9,3-2.6,3-14.9,1.8c-10-1-10.1-1-15.8-7.6c-2-2.3-2.4-3.5-2.5-6.4
	c-0.1-4.8-1.5-8.6-3.7-9.7c-2.2-0.7-4.5-1.2-6.8-1.4c-6.9-0.7-8.8-1.6-13.9-6.7c-3.4-3.4-5.7-5-9.3-6.3c-5.6-2.1-7.3-1.4-4.7,1.8
	c0.7,0.8,1.3,1.8,1.6,2.8c0,1.3-2.4,3.5-3.9,3.5c-0.8,0-1.5,0.4-1.8,1.1c-0.8,2,1.2,4.1,6,6.4c4.4,2.1,4.9,2.5,5.4,5.1
	c0.5,2.1,1.2,4.1,2.3,5.9c1.1,1.9,1.7,4,1.8,6.1c0,2.9,0.2,3.2,3.9,5.2s3.9,2.1,4.3,6.2c0.5,5.3,1.2,6.5,4.9,7.7
	c2.8,1,3,1.3,3.2,4.2c0.2,2.3-0.3,4.1-1.9,6.9l-2.1,3.8l2.1,1.7c2.7,2.2,2.7,4.8,0,6.9c-1.7,1.3-1.9,1.7-1.1,2.7l0.2,0.3
	c0.9,1.1,1.8,1.2,6,0.8l10.1-1.1c9.9-1.1,16.8-5,21-12.1c0.9-1.4,2.2-2.6,3.8-3.2c3.8-1.1,5.2-1.8,6-3.1c0.2-0.3,0.4-0.7,0.5-1.1
	c0.6-1.7,1.3-2.3,3.3-2.7h0.2C319.8,256.1,323,254.4,325.6,251.9z"/>
<path data-tip="گمیشان" id="IR-2412" d="M38.9,177.9c0.8,3.2,2.8,9.7,4.4,14.5s3,9.9,3,11.2c0.2,2.1,0.7,4.2,1.6,6.1c1.8,4.3,4.4,17.2,4.4,22.1
	c0,3-0.3,3.8-2.2,5.4c-2.6,2.2-2.8,3.1-0.8,4.2c2.2,1.2,3.7,0.9,4.2-0.8c0.5-1.6,0.8-1.6,11.9-1.2c8.5,0.3,12,0.7,13.8,1.6
	s4.5,1.2,10.5,1.3c5.8,0,8.5,0.3,9.5,1.1c1.3,1,3,1,8-0.3c1.8-0.5,1.9-0.7,1.9-6.4s0.1-6.1,3.4-11.2c5.6-8.5,7.3-14.5,4.8-16
	c-1.6-0.4-3.2-0.6-4.8-0.3c-2.2,0.2-3.8,0-4.1-0.5s-1.7-0.8-3.2-0.8c-4.4,0-5.6-1.1-5.5-5.1c-0.1-4.7-1.1-9.3-3.1-13.5
	c-0.8-1.9-1.3-4-1.4-6.1c0-1.6-0.3-3.2-0.8-3.4s-0.8-1.7-0.8-3.2c-0.1-1.8-0.6-3.5-1.4-5.1c-0.8-1.3-1.4-2.7-1.7-4.1
	c-0.2-1.4-0.9-1.9-3.6-2.3c-10.8-1.9-39.2-6.1-47-7c-4.4-0.5-4.7-0.4-5.5,1.3c-0.7,1.4-0.4,2.9,1.2,7.4
	C36.6,169.6,38.2,174.7,38.9,177.9z"/>
<path data-tip="بندرگز" id="IR-2403" d="M53.1,300.9c1.8-2,2.2-2.8,1.6-3.9c-1.2-2.2-0.9-4.1,0.7-5.6c1.9-1.8,1.9-2.2-0.4-3.4
	c-1.2-0.5-1.9-1.7-1.9-2.9c0-2.4,0.6-3.3,2.9-4.5c1.7-0.9,1.7-1,0.5-2.3c-0.7-0.8-1.1-1.9-0.9-2.9c0.2-0.8,0.3-1.5,0.1-1.5
	s-2.5,1-5.2,2.3c-2.5,1.3-5.2,2-8,2.2c-1.8,0-7.2,0.4-12,0.9l-8.8,0.9l-1.2,3.1c-1.5,3.8-1.5,7.9-0.1,9.8c0.6,0.8,1,1.8,1.1,2.8
	c0,0.7,1.5,2.8,3.2,4.6c1.6,1.6,3.1,3.2,4.4,5c1.4,2.1,5.6,3.8,13.4,5.4c3.1,0.6,5.8,1.2,6.1,1.2c1.9,0.3,2.5-0.9,2.3-4.6
	C50.8,303.8,51,303.1,53.1,300.9z"/>
<path data-tip="ترکمن" id="IR-2404" d="M54.6,270.5c0,1.5,0.9,1.2,3.7-1.3c4-3.7,7.8-5.2,12.7-5.2c3.7,0,4.7-0.3,6.2-1.9c1.2-1.3,2.9-2,4.7-1.9
	c4.1-0.1,8-1.2,11.6-3.1c1.6-0.8,3.4-1.3,5.3-1.4c3.8,0,8-2.2,8.3-4.3c0.1-0.9,0.7-1.7,1.3-1.7c1.6,0,3.4-2.2,3.4-4.3
	c0-1.3-0.3-1.8-1-1.5s-3.1,0.8-5.5,1.3c-3.8,0.8-4.8,0.7-6.8-0.3c-1.7-0.9-4.4-1.2-10.1-1.2s-8.3-0.3-10-1.2s-4.8-1.2-12.7-1.3
	l-10.5-0.1v7.8c0,5.3,0.3,8,0.9,8.5c1.2,1,1.2,3.9-0.2,8.4C55.3,267.3,54.9,268.9,54.6,270.5z"/>
<path d="M15.9,263.6c-0.3,0.1-0.5,0.5-0.8,0.5c-2.4-0.1-6.9-0.2-7.1-0.4c-0.8-0.7-0.9-2.3-0.3-2.6c1-0.6,2-0.2,3.2-0.4
	s2.8-0.4,4-0.6c5.9-0.9,11-1.9,12.2-1.5c3,1,9.3,0.4,11.6-1c1-0.7,3.6-1.1,6.5-1.1c5.1,0,6.9-1,6-3.3c-0.4-0.9-1.5-1.2-4.9-1.2
	c-2-0.1-4,0.2-5.8,0.7c-0.8,0.4-4.2,0.3-7.2,0.5c-1,0.1-3.9,1-8,1.9c-3.1,0.7-6.8,2.2-10.3,2.9c-7.5,1.5-14.2,2.2-14.9,2.5v2.9
	c0.1,0.1,0.2,0.2,0.4,0.2c1.3,0.7,6.8,1.1,7.8,1c0.1,0,4.3,0,6.8-0.1c0.6,0,1.4,0.2,1.8,0.2s0.1-1-0.2-1.3
	C16.3,263.5,16.1,263.5,15.9,263.6z"/>
<path data-tip="رامیان" id="IR-2405" d="M252.1,285.7c1.5-1.2,3-1.5,6.9-1.5c5.4,0,6.9-1.1,4.6-3.7c-0.3-0.3-0.6-0.7-0.9-1.2c-0.7-1.3-0.1-2.4,2.1-4.3
	l2.4-2.3l-2-1.5c-2.6-1.9-2.7-4.9-0.1-9.3s2.2-6.3-1.6-7.6s-5.7-4.2-5.1-8c0.5-3.3-0.5-4.7-4.8-6.6c-3.1-1.3-3.2-1.5-3.2-4.6
	c0-2.2-0.7-4.4-1.9-6.2c-0.9-1.4-1.6-3-1.9-4.6c0-3-0.9-4.1-5.3-6.3c-5.3-2.7-6.7-4.1-6.7-6.4c0-2.7-3-2.4-5.1,0.4
	c-1.4,1.8-2.2,2.3-4.6,2.3c-1.9-0.1-3.8,0.7-5,2.3c-1.2,1.3-2.5,2.4-4,3.3l-5.8,3.1c-1.8,0.9-3.6,2.1-5.1,3.4
	c-1.1,1.2-1.1,1.6-0.1,3.5c1.2,1.8,2.6,3.5,4.2,5c3.8,3.5,4,5.9,0.8,9.8c-1.1,1.3-2,2.8-2.7,4.3c-0.8,2.5,1.2,8.1,3.3,9.5
	c1.7,1.3,3.3,2.6,4.7,4.2c3.1,3.2,2.6,3.1,10.8,0.8c2.5-0.7,5.4-1.1,6.4-0.8c3.1,0.8,6.7,4.7,6.7,7.1c0.1,1.4,0.6,2.8,1.4,4
	c1,1.5,1.8,3.1,2.4,4.8c0.8,2.1,1.8,4,3.2,5.8c0.3,0.3,0.5,0.7,0.8,0.9C248.8,287.6,249.7,287.6,252.1,285.7z"/>
<path data-tip="گالیکش" id="IR-2410" d="M395.8,159.8c-0.7-0.9-1.5-1.8-2.4-2.6c-3.2-3-5.3-3.8-13.4-4.9c-5.2-0.8-5.4-0.9-7.5-4.5
	c-2.4-4-6.5-6.7-11.1-7.3c-3.3-0.3-3.6-0.1-8.6,4.6c-2.8,2.7-5.8,4.9-6.5,4.9c-1.5,0.3-2.9,1-4.1,1.9c-1.3,0.9-2.7,1.6-4.2,1.9
	c-1.8,0-4.2,1.2-6.4,3.2c-0.9,0.9-2.2,1.4-3.5,1.1c-1.2-0.3-2.4,0.1-3.2,1.1c-1.5,1.3-3.1,2.3-4.9,3c-3.5,1.5-3.6,1.6-3.6,4.8v3.3
	h-4c-2.7,0-4.4,0.4-5,1.1c-1.3,1.5-7.4,1.5-9.6,0c-1.4-1-2.1-1-4.4-0.3c-1.6,0.5-3.3,0.7-4.9,0.4c-2-0.4-2.3-0.2-3.3,2.2
	c-0.6,1.4-1.6,2.6-2.1,2.6c-0.8,0.1-1.5,0.5-2,1.1c-1.3,1.5,0.3,3.4,2.8,3.4s5.4,1.7,8.9,5.3c3.8,4,6.3,5.3,10.2,5.3
	c2.4,0,4.1,0.7,7.5,3c2.4,1.7,5,3,5.7,3c1.3,0.2,2.5,0.7,3.6,1.5l0,0c1.7,1.1,3.5,1.5,7.5,1.5c2.9,0,5.6-0.3,6-0.7s3.5-1,6.9-1.2
	l0.9-0.1c-0.2-0.8-0.4-1.7-0.5-2.6c-0.1-1.2,0.3-6.4,5-12.1c2.4-2.9,4.8-4.5,9.5-7.5c6.6-4.2,9.4-4.5,10.8-4.5
	c1.4,0,2.9,0.2,4.3,0.6c0.2-0.6,0.3-1.2,0.3-1.8c0-3,0.4-3.5,3-3.5c1.5,0,3.1-0.5,4.3-1.3c1.7-1.1,3.7-1.6,5.7-1.7
	c2.4-0.2,4.8-0.9,6.9-2.2l3.2-1.9l-0.4,3l-0.4,3l0.9,0.3c-0.1,0.3-0.3,0.6-0.4,0.9c0.2-0.2,0.4-0.3,0.5-0.5c0.5-0.5,0.9-1,1.2-1.5
	C396.5,162.4,396.9,161.3,395.8,159.8z"/>
<path data-tip="مراوه تپه" id="IR-2413" d="M407.8,121.4c0-4.3,0.1-4.5,2.4-5.5c3.2-1.3,4.7-3.2,5.7-6.8c0.4-1.5,1.1-3,2-4.3c1.1-1.3,1.1-1.7-0.1-5.5
	c-0.2-0.7-0.4-1.4-0.6-2.1c-1.6-7.1,0.7-12.5,6.9-16.1c4.8-2.8,6.7-5.3,6.8-8.8c0.1-1.9,0.6-3.7,1.7-5.2c1-1.6,1.7-3.4,2.1-5.3
	c0.4-2.7,0.7-3.1,4.2-4.5c4.7-2,10.6-6.1,12-8.3c0.9-1.4,1-2.6,0.4-7.2c-0.2-1.4-0.3-2.5-0.4-3.5c-0.2-1.2-0.1-2.4,0.4-3.6
	c0.5-1,1.6-1.5,3.4-2c2.3-0.6,3.1-1,3.5-2.2c0.1-0.3,0.2-0.5,0.2-0.8c0.1-0.8,0-1.6-0.2-2.4c-1.4-3.7-3.8-6.9-7-9.1l-0.2-0.2
	c-1.5-1-2.6-2.1-2.6-2.5c-0.5-1-1.2-1.9-2.1-2.7c-1.6-1.5-2.5-1.8-4.3-1.5c-4.7,1-10.9,1.2-10.9,0.4c0-0.4-1.4-1.7-3-2.8l-3-2
	l-6.9,0.9c-3.8,0.5-9.1,1.4-11.7,2c-2.8,0.6-5.6,1-8.4,1.1c-3.2,0-4.1-0.4-6.6-2.6c-2.9-2.6-6.9-3.6-8-1.9c-0.6,1-6.1,0.9-8.1-0.1
	c-1.7-1.1-3.2-2.4-4.6-3.8l-3-2.9l-6.8,0.4c-4.1,0.2-8.2,1-12.1,2.3c-4.8,1.7-5.8,1.8-10.1,1.1c-2.6-0.4-4.9-0.6-5.1-0.4
	s0.3,1.8,1,3.5c2,4.8,4.2,17.3,3.3,18.3c-0.9,0.8-2,1.4-3.1,1.8c-1.7,0.8-3.2,1.8-4.4,3.1c-1.6,1.7-2.7,2.1-5.3,2.1
	c-2.4,0-3.7,0.4-4.7,1.5c-1.3,1.5-1.3,1.6,0,3c1.1,1.2,1.2,2.1,0.8,4.3c-0.4,2.7-0.5,5.4-0.4,8.1c0.1,3.5-0.4,7.1-1.4,10.5
	c-1.6,5.5-1.9,9.1-0.9,10.7c0.5,0.7,2.4,0.8,8.9,0.1c3.8-0.5,7.7-0.6,11.6-0.3c4.2,0.6,7.9,2.8,9.1,5.4c0.8,1.8,0.7,2.1-1.5,3.9
	c-1.9,1.6-2.3,2.3-1.9,3.8c0.6,2.2-1.3,3.8-4.3,3.8c-2.7,0-4.3,1.9-3.1,3.8c1.8,2.8,1.1,5.2-2.5,8.5c-3.2,3-3.4,3.3-3.4,7.4
	c0,2.9,0.3,4.3,0.9,4.3c1.3,0.3,2.6,0.8,3.7,1.5c3.4,1.8,4.8,1.9,8.3,0.4c3.3-1.4,6.9-1.4,10.3-0.3c2.2,0.8,2.6,0.7,3.9-0.8
	c1.7-2,3.9-1.7,7.2,1.1c2.6,2.2,3.7,2.3,7.2,0.6c2.9-1.4,4.8-1,5.4,1c1.2,3.8,4,9,5,9.4c1.4,0.5,3.5,9.2,3.5,14.4v4.2h3.1
	c1.8,0,3.5,0.5,5,1.5c2,1.6,3.1,1,3.2-1.6c0.4-1.4,1.1-2.6,2-3.8c0.3-0.4,0.5-0.8,0.8-1.1C405.7,131.4,407.8,126.5,407.8,121.4z"/>
<path data-tip="کلاله" id="IR-2409" d="M399.6,154.6c-0.1-1-0.5-2-1.1-2.8c-0.3-0.4-0.6-0.9-0.8-1.5c-0.2-0.5-0.3-1.1-0.4-1.7c0-0.9-0.4-1.7-1-1.7
	c-1-0.3-2-0.8-2.8-1.5c-1.5-1-3.3-1.5-5.1-1.5h-3.2v-4.6c0-5.4-1.9-12.6-3.7-14.2c-1.3-1.1-4-6.4-4.9-9.5l-0.5-1.7l-3,1.5
	c-3.6,1.8-5.8,1.5-9.5-1.5l-2.6-2.1l-1.6,1.8c-1.6,1.8-1.6,1.8-5.7,0.6c-3.8-1.1-4.4-1.1-7.6,0c-1.9,0.7-4,1.1-6,1.2
	c-3,0-10.8-3.7-10.7-5c0-0.5,0.1-2.8,0.2-5.2c0.1-4,0.3-4.4,3.7-7.5c3.2-2.9,3.4-3.4,2.6-4.8c-1.2-1.9-1.2-5.4,0-6.6
	c0.7-0.6,1.6-0.9,2.6-0.9c3,0,4-0.8,4-3.2c0-1.6,0.8-3.1,2.1-4l2.1-1.7l-2.1-1.9c-3.3-3-7.2-3.7-16.1-2.8c-7.3,0.7-7.9,0.9-9.9,3.1
	c-1.5,1.6-2.9,2.3-4.4,2.3c-1.2,0-2.3,0.4-3.2,1.1c-1.1,1.3-4.2,1.5-4.9,0.4c-0.3-0.4-1.5-0.8-2.9-0.8c-2.8,0-3.7-0.5-4.9-2.8
	s-2-2.1-4.1,0.2c-1.2,1.3-2.9,2-4.6,1.9c-2.5,0-3.6,0.6-7.2,4l-4.3,4v6c0,3.3,0.3,6.3,0.7,6.7c1.4,1.5,6.1,11.4,6.1,12.9
	c0,0.8-1,2.5-2.3,3.8c-1.5,1.3-2.4,3.2-2.3,5.2c0,1.8,0.5,3.4,1.2,3.9c2.4,2,2.9,4.2,2.9,11.4v7.3l2.9,2.7c3.1,2.9,3.4,5.2,1,6.6
	c-1.4,1-2.6,2.1-3.8,3.4c-1.3,1.4-3.1,3.3-4,4.1c-2.3,2-2.1,3.4,0.6,4.3s3.7,3.8,1.9,5.9c-0.7,0.8-1,1.8-0.7,2.3s1.1,0.2,2.2-1.2
	c1.5-1.9,1.9-2,3.6-1.2c1.2,0.6,2.6,0.7,3.9,0.2c2.7-1,5.7-0.9,7.4,0.4c1.9,1.4,5.2,1.4,6.4,0c0.6-0.7,2.3-1.1,5-1.1h4v-3.3
	c0-3.1,0.1-3.3,3.2-4.7c1.9-0.9,3.7-1.9,5.4-3.2c1-1,2.5-1.5,3.9-1.5c0.9,0.2,1.9-0.1,2.6-0.7c1.8-1.7,4-2.9,6.5-3.2
	c1.5-0.3,3-1,4.2-1.9c1.4-1,2.9-1.6,4.6-1.9c1,0,1.8-0.3,1.8-0.6s2.3-2.6,5-5l5-4.4l4.6,0.4c5.6,0.5,9.2,2.6,12.3,7.6
	c2.2,3.5,2.9,3.8,8.6,4.5c6.7,0.8,8.6,1.4,10.2,3.1c1,1,2.4,1.7,3.8,1.8C398.3,156.2,399.6,155.8,399.6,154.6z"/>
</svg>
