<svg xmlns="http://www.w3.org/2000/svg" viewBox="0 0 427.3 463.04">

  <path data-tip="مهران" id="IR-0610" class="cls-1" d="M138.77,255.74c-1.43-.8-3.32-2-4.19-2.57s-4.87-2.72-8.9-4.66c-5.91-2.86-8-3.63-11.07-4-2.07-.26-5.47-.73-7.57-1s-9.08-.75-15.52-1c-12.69-.48-14.24-.78-20.43-4a20.39,20.39,0,0,0-3.44-1.58,7.51,7.51,0,0,1-2.17-1.3c-1.58-1.21-1.68-1.45-1.38-3.43.64-4.2,1.28-5,5.68-7.37,5.62-3,7.24-4.56,7.23-7.06,0-1.9-.09-2-3.18-3.41-1.75-.81-4.44-1.88-6-2.38-4.34-1.42-8.56-3.3-9.68-4.31-1.28-1.17-1.35-4.31-.12-5.79l.89-1.07L64,202c9.15,2.28,10.59,1.9,17-4.56l4.81-4.83.21-3.32c.33-5.12-.29-6.07-8.4-12.83-3.52-2.93-6.08-8.81-6.77-15.54-1.11-10.84-2.23-12.4-12.81-17.73-5-2.51-12.31-8-15-11.11a34.62,34.62,0,0,1-3.51-6.87c-2.21-5.55-2.88-6.66-4.88-8.2l-1.31-1,3.89-.09c4.55-.11,11.49-2.18,13.48-4a4,4,0,0,0,1.27-2.35,7.09,7.09,0,0,1,1-2.85c1.15-1.89,1.06-1.89,6.39.21a18.56,18.56,0,0,0,4.08,1.22c1.39,0,3.12-1.32,4-3,.61-1.17,5.94-8.89,6.65-9.62a7,7,0,0,1,2.21,1.42c2.61,2.06,9.93,5.5,12.66,5.93,3.53.57,4.56,0,6.11-3.2s3-4.27,6.73-5.27c2-.55,2.57-.49,5,.55s3.37,2,7.6,7.25a58,58,0,0,0,5.55,6.33,11.83,11.83,0,0,1,2.46,2.75,22.84,22.84,0,0,0,5.43,4.91l4.93,3.28,1.29.87-1.5.53a17.53,17.53,0,0,0-2.51,1.15c-.56.33-2.19,1.25-3.61,2a26.39,26.39,0,0,0-5.25,4.22,29.81,29.81,0,0,1-2.85,2.8c-.49,0-5.34,3.46-7.88,5.62a31.71,31.71,0,0,1-4.41,3.21c-3.81,1.95-5,6.7-3.47,14.1a32.28,32.28,0,0,0,1.77,6.08,17.7,17.7,0,0,1,1.23,3.32c.65,3,5.82,5.84,12.65,6.92,4.46.71,6.26,1.72,9.12,5.14,2.13,2.55,2.19,2.73,2.35,6.72a15.19,15.19,0,0,1-1.14,7.55c-1.86,4.89-1.73,6.22,1,10.26a24.66,24.66,0,0,1,2.29,3.85c0,1.11,3.33,2.64,7.23,3.32,6.82,1.2,9.28,2.43,11.57,5.8a27.15,27.15,0,0,0,2.7,3.5,15.12,15.12,0,0,0,4.64,1.11,21.76,21.76,0,0,1,5.38,1.27,23,23,0,0,1,4.58,4.72c2.54,3.25,3,4,2.35,4.48a45.69,45.69,0,0,0-6.58,6.54,12,12,0,0,1-4.81,3.42,23,23,0,0,0-10,9.85c-1.92,3.79-6,9.38-6.88,9.39a12.79,12.79,0,0,1-3.38-1.43Z"/>

  <path data-tip="ملکشاهی" id="IR-0609" class="cls-1" d="M173,225.44a47.08,47.08,0,0,0-3.34-4.49c-3.34-4.14-5.72-5.48-9.74-5.48-3.36,0-4.75-.84-6.85-4.14-2.34-3.67-4.68-4.92-11.69-6.22-4.92-.91-6.42-1.64-7.72-3.77-.46-.76-1.59-2.55-2.5-4l-1.65-2.59,1.09-2.76c.92-2.32,1.09-3.81,1.1-9.38V176l-2.29-2.68c-3-3.48-4.67-4.48-8.4-4.92-6.43-.77-12.61-4-13.26-7a9.67,9.67,0,0,0-1.06-2.68c-1-1.57-2.62-9.4-2.33-11.44a7.39,7.39,0,0,1,3.83-5.4,43.38,43.38,0,0,0,5.32-4,46.53,46.53,0,0,1,5.59-4.12,16.64,16.64,0,0,0,3.67-3c3.1-3.45,3.51-3.73,11.22-7.75,1.26-.65,2.67-1.47,3.14-1.8.69-.49,1.73-.33,5.34.84,6.37,2.05,8.87,3.43,11.07,6.11s5.69,4.58,17.08,9.55c7.43,3.24,10.19,4.25,13,4.72,2.57.44,4.41,1.39,7.91,4.09a21.18,21.18,0,0,0,9.14,4.6,13,13,0,0,1,6.23,3.62c1.84,1.69,3.39,2.7,4.16,2.7,1,0,1.28.33,1.53,1.66a20,20,0,0,0,3.11,5.37c2.6,3.46,2.8,3.92,2.8,6.52s-.75,5.8-2.42,10.11c-.53,1.37-.87,4.46-1,9.42-.17,5.4-.42,7.59-1,8.2-.73.83-3,1.6-9.55,3.27-3.27.83-3.81,1.18-7.4,4.76a67,67,0,0,0-6.88,8.37c-2,3-3.72,5-5.07,5.8a37.84,37.84,0,0,0-3.73,2.74,5.19,5.19,0,0,1-3.31,1.46,13.85,13.85,0,0,0-3.25.46c-1.17.33-1.69.29-1.86-.16Z"/>

  <path data-tip="ایوان" id="IR-0603" class="cls-1" d="M107.19,12.3l.15,4.24-2.8.23c-3.61.3-9.63-1.69-13.54-4.47a14.76,14.76,0,0,0-6.37-2.56c-2.52-.28-3.48-.77-4.07-2.06a4.55,4.55,0,0,0-2.41-2.21,27.09,27.09,0,0,1-5.1-3c-3.39-2.43-5.5-3-7-1.92a19.28,19.28,0,0,0-2.54,4.11C61,9.7,58.19,12.49,55.64,12.5a24.53,24.53,0,0,0-5.52,1c-4.07,1.24-9.08.32-10.26-1.88S34,9.8,31.55,12.09a5.83,5.83,0,0,0-1.95,3c0,1-.44,1.12-2,.72a11.52,11.52,0,0,1-2.24-.77,8.77,8.77,0,0,0,.24,2.18,7.89,7.89,0,0,0,2.53.41c.77,0,1.54.86,1.94,2.17.76,2.48,9.75,10.77,13.36,12.3a40.47,40.47,0,0,0,6.08,1.81,17.9,17.9,0,0,1,3.12.92c2.22-.45,4-1,4.75-.05.33.42.29,1,1,1.59a4.5,4.5,0,0,0,1.84.91c2.48.74,4.46.34,4.8-1,.29-1.1,2.27-2,4.4-2,1.46,0,4.9,1.62,10.45,4.92,2.91,1.73,3.89,2.3,8.65,5a30.49,30.49,0,0,0,4.84,2,37.25,37.25,0,0,1,7.22,3.91,44.39,44.39,0,0,0,7.7,4.21c4.39,1.59,5.13,2,6.17,3.6a8.63,8.63,0,0,0,3.25,2.37,32.56,32.56,0,0,1,5.17,3.12,75,75,0,0,1,7.61,6.42A14.73,14.73,0,0,0,133,72c.6,0,6.05,4.46,7.38,6,1.68,2,2.6,2,3,.06.49-2.22-.08-4.15-2.21-7.48-2.89-4.54-3.25-5.64-3.52-10.92-.23-4.5-.16-5,.88-6.51.86-1.2,1.14-2.31,1.14-4.51,0-5.13-.8-7-4.08-9.42-1.59-1.2-3.58-2.78-4.42-3.53s-3.39-3-5.66-4.92c-3.1-2.68-4.47-4.28-5.47-6.39a31.82,31.82,0,0,1-1.34-3.23c-1.84-4.91-3-8-3.93-9.82a40.1,40.1,0,0,0-5.9-2.82C107.07,8.07,107.05,8.11,107.19,12.3Z"/>

  <path data-tip="چرداول" id="IR-0605" class="cls-1" d="M312.29,20.37a7.6,7.6,0,0,1-1.78-4.94,6,6,0,0,1-3.75-.44c-3.86-1.59-6.33-1.32-7.47.82-1.27,2.38-4.22,2.41-6.44.07-3.42-3.61-10.51-5.55-10.51-2.88,0,.69,3.15,4.45,7,8.37,4.45,4.52,7,7.7,7,8.7,0,1.61-2.36,4.53-3.67,4.53-.4,0-1.18,1.08-1.73,2.39-.95,2.28-1.93,3-6.57,4.87a2.65,2.65,0,0,0-2,3c0,3.62-2.16,4.14-5.91,1.42-2.8-2-3.52-2.22-6.62-1.81-2.63.35-3.7.19-4.4-.66s-2.35-1.12-5.81-1.12c-5.06,0-9.24-1.67-10.15-4.05-.62-1.61-2.3-1.35-2.87.44-.39,1.23-.89,1.46-2.44,1.1-6.27-1.43-6.6-1.4-8.41.55a10,10,0,0,1-5.3,2.68,20.39,20.39,0,0,0-2,3c.5.41.82.78.82,1,0,1.31-1.75,6.14-3,8.44-.12.23-.25.45-.36.62l-1.1,1.68-3.4-2.59a21.45,21.45,0,0,0-2.22-1.53c-2.92-1.73-4.5-1.14-6.63,1.84a16.58,16.58,0,0,1-1.07,1.36c-2.9,3.32-5.68,3-12.7-.58h0c-3.13-1.62-6.66-3-7.84-3-2,0-5.15,2.37-5.15,3.91,0,2-9.2-4.31-10.68-7.36a5.9,5.9,0,0,0-2.48-2.78,9.57,9.57,0,0,1-3.07-2.26l-1.73-1.84.57-.56c-.69-.58-1.39-1.18-2.06-1.77-.37-.07-.71-.4-1.16-.94h0a16.47,16.47,0,0,0-4.89-2.57,52.71,52.71,0,0,1-16.4-9.33,88.25,88.25,0,0,0-13-8.17c-3.88-2-9.2-4.83-12.7-6.8,0,.11,0,.2,0,.31,0,2.27.22,2.95,1.27,3.94a4.53,4.53,0,0,1,1.28,1.65A18.83,18.83,0,0,0,122,22.31c.92,2,2.28,3.59,5.47,6.34,2.34,2,4.93,4.29,5.77,5.06s2.85,2.39,4.45,3.61c3.26,2.46,3.69,3.42,4.26,9.58.31,3.32.43,3.62,1.25,3.18a8.29,8.29,0,0,1,5.82.11c.73.33,2.91,2.72,4.85,5.31s4,4.86,4.67,5.06c1.59.49,8.67,4.51,12.18,6.91a16.14,16.14,0,0,0,3.41,2c.89,0,6,5.32,7.83,8.2a52.53,52.53,0,0,0,11.55,11.61,94.19,94.19,0,0,0,9.32,5,53.52,53.52,0,0,1,7.61,4.26,5.65,5.65,0,0,0,.14-.91c.28-8.25-.16-7.79,7.13-7.5,6.18.25,6.35.3,10.16,2.93,3.09,2.13,4.42,2.67,6.63,2.67,3.53,0,5.38-2.06,5.38-6a7.8,7.8,0,0,1,.93-3.87,5.2,5.2,0,0,0,.95-2.57,8.34,8.34,0,0,1,1.85-3.63,16.42,16.42,0,0,0,2.55-5.21l.73-2.91,4,.43c3.9.42,4.1.37,6.09-1.53s2.45-2,6.06-2,4.23-.2,6.35-2.06l2.34-2.06,12.88-.19,12.88-.2,3.33-3.88c1.84-2.14,4.93-5.47,6.89-7.41A18,18,0,0,0,312.39,46c1.66-4.76,1.89-5.06,4.22-5.28a4.41,4.41,0,0,0,2.62-1c.68-1.07.6-4.72-.11-5.16-.32-.2-.78-1.71-1-3.36a17.34,17.34,0,0,0-1.66-5.14l-1.23-2.15Z"/>

  <path data-tip="سیروان" id="IR-0608" class="cls-1" d="M245.36,149.77a1.7,1.7,0,0,1,.34-.45,2,2,0,0,0,.62-.84h0a1.33,1.33,0,0,0,.07-.45.75.75,0,0,0,0-.15,3,3,0,0,0,0-.39,1,1,0,0,1,0-.17,5.21,5.21,0,0,0-.22-.62h0a7,7,0,0,0-.37-.71c0-.08-.09-.16-.14-.24l-.39-.63-.18-.26c-.21-.31-.43-.63-.69-1-1.19-1.61-2.42-3.39-2.72-3.95a17.9,17.9,0,0,0-3.31-3.17c-1.51-1.18-3.9-3.07-5.29-4.19s-3.69-2.87-5.09-3.9a100.39,100.39,0,0,1-7.51-6.75c-4-3.94-5-5.17-5-6.35a2.85,2.85,0,0,1,.83-2.08c.76-.55.76-.72,0-1.84a27.58,27.58,0,0,1-1.83-4,13.79,13.79,0,0,0-4.86-6.12A56.38,56.38,0,0,0,200.3,96c-3.92-1.94-8.15-4.23-9.39-5.08a53.7,53.7,0,0,1-11.26-11.7c-2.62-3.79-5.43-6.33-10.79-9.72-4.4-2.79-11-6.49-12.33-6.9-.63-.2-2.66-2.42-4.53-4.93s-4-4.91-4.83-5.32c-1.34-.69-1.58-.64-4,.84a11.37,11.37,0,0,0-3.07,2.52c-1.32,2.48,0,8,3.2,13.06,1.85,2.94,2.16,3.85,2.33,6.84a17.18,17.18,0,0,1-.33,5c-.47,1.35-.34,1.76,1.24,3.78,2.18,2.8,6.29,5.72,12.21,8.68,4.62,2.32,7.29,4.66,9.05,8a21,21,0,0,0,2.58,3.56,78.28,78.28,0,0,1,7.49,10.18c1.75,3,5.77,6.87,8.09,7.84a55.24,55.24,0,0,0,7.7,1.76c1.93.33,4,.8,5.58,1.25a13.93,13.93,0,0,1,2.43.85,49.93,49.93,0,0,1,7.9,5.31c.28.3,2.07,1.69,4,3.09,6,4.4,8.64,6.48,12.53,9.84a31.61,31.61,0,0,0,5.44,4,6.48,6.48,0,0,1,2.45,1.85,14.16,14.16,0,0,0,2.71,2.53,6.65,6.65,0,0,0,4.47,1.4c1.75,0,2.74-.2,3.27-.82a3,3,0,0,0,.52-2A4.08,4.08,0,0,1,245.36,149.77Z"/>

  <path data-tip="ایلام" id="IR-0602" class="cls-1" d="M203.84,133.37c.22-2,.12-2.24-1.6-3.44a17.55,17.55,0,0,0-4.18-2.18,27,27,0,0,0-5.79-1.28c-6.22-.78-9.16-1.92-12.31-4.8a21,21,0,0,1-3.56-4.1c-1-2-7.33-10.48-8.52-11.47a13,13,0,0,1-2.07-3c-1.72-3.37-4.44-5.7-10-8.59-6.56-3.4-9.55-5.71-12.39-9.59-1.3-1.77-2.63-3.23-2.95-3.23a10.56,10.56,0,0,1-2.88-2.41,34.34,34.34,0,0,0-4.8-4.07,62.77,62.77,0,0,1-5.86-4.65c-4.82-4.32-8-6.63-10.65-7.77a14.35,14.35,0,0,1-4.13-2.93A12.38,12.38,0,0,0,107.8,57a37.11,37.11,0,0,1-10.18-5.29,29.2,29.2,0,0,0-6.36-3.37,72.83,72.83,0,0,1-9.52-4.76C78,41.41,73.92,39,72.58,38.28c-3.06-1.75-4.6-1.81-5.21-.21a2.79,2.79,0,0,1-1.64,1.52c-3.11.83-9.12-.15-10.23-1.67-.42-.58-1.2-.79-3.45-.83a17.82,17.82,0,0,1-3.47,2.61l-2.74,1.63L41,39.71c-3.76-1.28-5.34-1.48-7.2-.93-2.51.73-2.51.72-1.58,6.29.42,2.52.17,3-3.25,6.64-2,2.15-3.95,4.9-4.25,6.11-.73,3-2.36,5.37-4,5.9a6.45,6.45,0,0,0-2.64,3.06c-1.22,2.58-1.29,2.61-5,2.25-3.22-.32-4.17-.08-6.81,1.7L3.18,72.79,1,70.83H1C.69,70.53.38,70.24.1,70a2.73,2.73,0,0,0,0,1.25c.3,1.57,2.1,3,7.17,5.66,4.63,2.44,5.4,3.68,5,8.16a9.13,9.13,0,0,0,.87,5.63c1.49,3.2,7,11.51,10.46,15.8.69.87,1.95,2.53,2.79,3.7,2.14,3,3.53,3.55,8.5,3.55,7.71,0,15.16-3,15.17-6a7.09,7.09,0,0,1,1-3C52,103.2,52.32,103,54.35,103a20.4,20.4,0,0,1,5.7,1.29c3.83,1.44,3.94,1.4,6-2,.6-1,2.34-3.64,3.88-5.88,3.35-4.87,4.5-5.23,7.68-2.34s12.4,7.17,13.73,6.35a10.86,10.86,0,0,0,2-3.14c1.64-3.45,4.65-5.12,9.81-5.41a9.71,9.71,0,0,1,6.2,1.16,14.38,14.38,0,0,1,4.09,3l5.14,6.34a34.77,34.77,0,0,0,4.2,4.71,8.15,8.15,0,0,1,2,2.26,16.72,16.72,0,0,0,3.79,3.68c1.2.78,3.36,2.28,4.78,3.33a9.6,9.6,0,0,0,3.88,1.92c1.86,0,12.18,3.25,14.55,4.59a17.25,17.25,0,0,1,3.89,3.37c1.38,1.65,3.25,2.93,7,4.82,10.22,5.14,19.05,8.7,23.14,9.35,2,.32,7.74,3.55,8.51,4.8.56.9,4.78,2.85,8.77,4,2.52.75,4,1.52,4.71,2.44a17.07,17.07,0,0,0,2.67,2.53c1.79,1.33,2.64,1,3.18-1.15.4-1.6-1.42-4.92-4.71-8.58a24.56,24.56,0,0,1-3-4.14C204.46,137.77,203.63,135.15,203.84,133.37Z"/>

  <path data-tip="آبدانان" id="IR-0601" class="cls-1" d="M408.52,296.68a10.75,10.75,0,0,1-4.76,1.22c-3.23,0-10-2.85-12.92-5.45a22,22,0,0,0-4.8-3.24,32.82,32.82,0,0,1-8.21-5.43,26.4,26.4,0,0,0-3.17-2.5,4.2,4.2,0,0,1-2.3-3.15c-.61-3.61-1.25-5.56-2-6.21a16.49,16.49,0,0,1-2.28-3.6c-1.73-3.42-3.74-5-10.43-8-2.5-1.15-5.23-2.47-6.07-2.92-5.53-3-9.9-5.58-15-8.89a53.48,53.48,0,0,0-7.89-4.44c-1.12-.36-2.72-1-3.56-1.34L319,240c-2.52-1.11-8-3.74-12.21-5.84-6.18-3.09-8.26-3.88-10.94-4.18-5.6-.62-7-1.73-14.94-11.58-3.43-4.27-14.08-14.2-17-15.82-.52-.29-1.42-.09-2.64.58a22.62,22.62,0,0,1-4.62,1.66c-3.19.74-6.86,3.79-9,7.51-1.9,3.24-2.37,8.34-1,11,.86,1.72,1,2.63.7,6.14L247,233.6l1.65,1.56a15.76,15.76,0,0,0,2.92,2.2,24.23,24.23,0,0,1,3,2,69.81,69.81,0,0,0,7.36,4.28,47.55,47.55,0,0,1,7.77,4.92c2.73,2.52,3.73,2.9,8.79,3.32l4.07.34,2.8,3.42c4.5,5.49,4.57,5.83,4.58,20.86,0,8.3.2,13.31.54,13.9,1.31,2.19,6.87,6.39,9.5,7.16a33.4,33.4,0,0,1,6.47,3.16c4.71,2.93,6.64,3.27,9.71,1.66a10.78,10.78,0,0,1,5.85-1.2c3.14,0,3.87.19,6.1,1.62a38.11,38.11,0,0,0,10.22,4.2c2.53.65,3.26,1.47,4.77,5.26a8,8,0,0,0,3.22,4.33c3.14,2.11,4.68,3.88,5.69,6.53a43.26,43.26,0,0,0,5.82,10.06,13.81,13.81,0,0,0,3.87,2.61c2.66,1.2,9.09,7.72,13.17,13.37a20.9,20.9,0,0,0,4.56,4.41c1.43.94,3.48,2.35,4.54,3.13,1.5,1.09,3.11,1.61,7.13,2.27l2.34.39c4.3.7,4.38.59,8.41-.18,4.4-.84,7.19-2.49,7.71-4.54.45-1.82-.59-3.34-2.29-3.34a19.23,19.23,0,0,1-3-.31c-1.39-.28-1.59-.53-1.59-2s.11-1.68,2.3-2l2.3-.34-.33-2.51c-.22-1.64-.14-2.51.21-2.51s2.32-.24,4.51-.52c8.52-1.1,8.36-1,5.21-4.21-2-2.1-2.08-2.21-1.83-5.05.31-3.67-1.18-7.61-5.07-13.32-3.62-5.32-3.61-6.31.09-9.76l2.82-2.62,4.63-.35c3.85-.29,5.5-.68,6.46-1.95a6.26,6.26,0,0,0,.93-2c.11-.35.2-.66.28-1-.61-.09-1.27-.16-2-.2C414.7,300.33,410.62,299.23,408.52,296.68Z"/>

  <path data-tip="بدره" id="IR-0604" class="cls-1" d="M281.82,183.19a2.81,2.81,0,0,1-2.06-2.66c-.52-2.84-1-3.56-2.73-3.9a2,2,0,0,1-1.86-1.61,3.9,3.9,0,0,0-1.29-2,10.28,10.28,0,0,1-2.14-2.92l-1.18-2.24-4.48-.25c-4.33-.25-4.51-.31-5.9-2A11.87,11.87,0,0,0,256.8,163c-.22-.11-.49-.26-.78-.44a21.25,21.25,0,0,1-1.86-1.29,23.46,23.46,0,0,1-1.81-1.53c-1.74-1.61-2.43-2.26-4.24-2.58a52.26,52.26,0,0,0-5.77-.4c-4.81-.21-5.62-.38-7.48-1.61a12,12,0,0,1-2.88-2.6,8.76,8.76,0,0,0-2.86-2.26,39.28,39.28,0,0,1-5.72-4.24c-2-1.75-6.32-5.15-9.57-7.56a73.24,73.24,0,0,1-6.27-4.93c-.61-1-1.3-.58-1.3.78,0,1.61,2.88,6.49,5.06,8.57a14.09,14.09,0,0,1,1.56,1.73c2.79,3.55,3.75,7.9,2.35,11.33-.86,2.13-.71,2.57,2.13,6a25.25,25.25,0,0,1,2.95,4.39c1.15,2.74,4.18,6.36,10.28,12.28,6.39,6.21,5.32,5.56,26.21,16,4.94,2.46,6.06,3.23,12.22,8.45,1.73,1.46,3.52,2.66,4,2.67.9,0,4.84-4.14,5.54-5.84a19.27,19.27,0,0,0,.74-3.49c.27-2,.72-2.84,2.56-4.69l.1-.11c2-2,2.34-2.62,2.34-4.44C284.29,184.6,284,184.09,281.82,183.19Z"/>

  <path data-tip="دره شهر" id="IR-0606" class="cls-1" d="M400.79,293.44c-2.08,1.73-4.42-.51-4.42-4.23,0-2.23-.37-2.82-1.48-2.39s-1.49-.09-1.49-1.68c0-3.33,1.87-4.63,6.64-4.63s5.38-1.31,2.89-6.09c-1.27-2.44-1.2-2.7,1-3.71a7.37,7.37,0,0,0,.87-.48c-1.58-2.38-2.69-3.2-4.8-3.58h0c-1.33-.24-2.94-1.26-5.34-3.41-.69-.62-1.52-1.31-2.36-2-1.47-1.17-3-2.3-4-3-1.63-1-3.89-2.56-5-3.4-4.29-3.15-6.61-4.31-9.58-4.79A46.52,46.52,0,0,1,360.93,245a32.35,32.35,0,0,0-4.1-2.15,30.34,30.34,0,0,1-5.22-3.08c-3.64-2.78-10-8.64-10-9.23,0-.28-1.32-1.13-2.93-1.88-4.09-1.9-6.4-4.2-7.76-7.68-1.17-3-2.12-4-6-5.91a7,7,0,0,1-3.39-3.53c-1.94-3.84-9.85-10.73-13.15-11.68a2.58,2.58,0,0,0-.67-.11,3,3,0,0,1-.39,0,2.62,2.62,0,0,1-1.36-.72,9.8,9.8,0,0,0-3.5-1.6,20.27,20.27,0,0,1-4.63-2,7.27,7.27,0,0,0-2.43-1.2c-1.55,0-4.7-2.1-5-3.33-.22-.89-.66-1.2-1.53-.89a14.8,14.8,0,0,0-3.64,2.55c-.14.11-.26.23-.39.34-2.8,2.4-3.22,3.19-3.62,6.27-.31,2.46-3.21,7.12-5.19,8.36-.79.49-.54.9,2.22,3.68a63.1,63.1,0,0,1,5.33,6.17c3,4.19,7,8.26,9.17,9.38a18,18,0,0,0,5.08,1.3c2.73.3,4.8,1.11,11.71,4.56,8.86,4.43,18.79,8.91,22,9.94a54.52,54.52,0,0,1,7.89,4.54c6.46,4.27,15.37,9.37,17.39,10a71.37,71.37,0,0,1,10.32,5.45,11.8,11.8,0,0,1,2.74,3.63,34.79,34.79,0,0,0,2.49,4.15,10.58,10.58,0,0,1,1.52,4.07c.3,2.15.73,2.9,2.71,4.77a41.06,41.06,0,0,0,10.5,7.73,34.47,34.47,0,0,1,5.88,3.87,16.3,16.3,0,0,0,2.77,1.89,29.69,29.69,0,0,0,3.08,1.56,32.6,32.6,0,0,0,4.7,1.77,6,6,0,0,0,3-1.34C404.59,292.61,402.35,292.14,400.79,293.44Z"/>

  <path data-tip="دهلران" id="IR-0607" class="cls-1" d="M413.4,411.51a21.18,21.18,0,0,1,1.4-6,12.9,12.9,0,0,1,8.28-5.42c4.72-.93,5.26-2.59,2.73-8.35-.7-1.57-1-4.27-1.32-11.95-.55-13.18-1.51-19.32-3.29-21.1-1-1-1.44-1-2.31.06-1.33,1.6-3.9,2.25-8.73,2.18a45.8,45.8,0,0,0-7.43.49c-3.67.74-6,.76-12.16-.25-1.3-.22-2.75-.47-4.43-.78-3.27-.6-10.6-5.76-13.3-9.35-4.4-5.88-10.57-12.07-13.3-13.37-3.45-1.63-5.12-3.69-8.36-10.3-2.63-5.35-4.18-7.63-5.2-7.63-1.27,0-4.24-3.48-5.16-6s-2.71-4.63-4.12-4.63-7.19-2.22-10-3.92c-3.51-2.12-5.41-2.28-8.57-.7-2,1-2.95,1.14-6.1,1-3.4-.18-4.07-.41-7.06-2.37a23.62,23.62,0,0,0-4.58-2.47,6.36,6.36,0,0,1-1.78-.68,13.06,13.06,0,0,0-2.29-1,19.06,19.06,0,0,1-4.92-3.55c-3.89-3.68-4-4.2-3.53-17.57.46-13-.36-16.1-5.68-21.74-1.64-1.74-2-1.87-5.87-2.21-4.56-.4-7.2-1.47-9.08-3.71-1.24-1.47-2.44-2.2-8.83-5.32A70.42,70.42,0,0,1,246.53,237l-1.71-1.37.23-4.35c.18-3.58,0-4.75-.79-6.64-.94-2.1-1-2.7-.47-7.26.63-5.78,1.71-8,5.6-11.66a9.45,9.45,0,0,1,5.28-2.92c2.84-.59,6.4-2.4,5.83-3S251,194.71,243.41,191c-3.5-1.72-7.28-3.75-8.4-4.53-2.21-1.53-10.83-9.86-13.1-12.65l-1.4-1.72v2.08a11.24,11.24,0,0,1-.46,3.25c-2.2,5.56-2.75,8.47-2.82,15-.1,8.57-.25,8.83-6,10.34-8.14,2.14-8.6,2.37-12.17,6a63.2,63.2,0,0,0-5.82,7c-3.38,4.93-4.7,6.47-6.54,7.56a21.69,21.69,0,0,0-3,2.25c-1.06,1-2.19,1.41-4.75,1.72a10.55,10.55,0,0,0-5.88,2.21c-3.29,2.37-6.55,5.44-6.55,6.19,0,1-2.84,3.08-6.06,4.52-3.47,1.56-7.86,6.24-10.21,10.9a31.71,31.71,0,0,1-3.28,5.06c-1,1.2-1.7,2.38-1.55,2.62a26.69,26.69,0,0,0,3.31,2.57,12.27,12.27,0,0,1,3,2.59c0,.71,4.55,5.4,6.3,6.49a36.64,36.64,0,0,1,4.29,3.54,27.09,27.09,0,0,0,5.69,4,9.22,9.22,0,0,1,3.49,2.51,12.91,12.91,0,0,0,3.72,3c4.78,2.91,13.57,11.86,15.92,16.24a15,15,0,0,0,3.91,5,22.11,22.11,0,0,1,4.29,5c2.51,3.87,10.07,11.69,13.51,14,3.95,2.61,7.78,5.93,13.18,11.39,2.95,3,7,6.94,8.91,8.79s3.89,3.75,4.31,4.22a60.61,60.61,0,0,0,7.24,6.23,9.68,9.68,0,0,1,2.43,2.2,9.36,9.36,0,0,0,2.67,2.09,42.26,42.26,0,0,1,4.78,3.59c3,2.72,5,3.12,12.21,2.45a42.75,42.75,0,0,0,7.58-1.22,18.81,18.81,0,0,0,4.19-3.27c1.44-1.44,3-2.61,3.39-2.61a9.23,9.23,0,0,1,3.1,1.77,25.47,25.47,0,0,0,9.32,4.38c2.15.48,5.67,2.53,8.14,4.74a17.14,17.14,0,0,1,2.7,4.37c1.62,3.57,3.42,5.77,5.67,6.95a7.09,7.09,0,0,1,3.41,5.72,6.12,6.12,0,0,1-1.78,3.91,9.59,9.59,0,0,0-1.78,2.73c0,.78,3.47,7.77,4.24,8.55a27.36,27.36,0,0,0,4.93,2.39c4.66,1.91,5.44,2.9,3.58,4.59-1.3,1.18-1.27,2.69.14,6.89,1,3,1.36,3.47,3.65,4.89,4.29,2.67,5.34,3.91,5.34,6.33,0,3-1.6,5.52-4.86,7.58-2.7,1.71-2.77,1.81-2.76,4.07,0,2.79,1.5,6.28,3.13,7.33a17.36,17.36,0,0,0,4.73,1.39c3.26.56,3.79.84,6.44,3.37a17.56,17.56,0,0,1,3.41,4.12c.28.76,1.05,2.82,1.7,4.59a17.22,17.22,0,0,0,2.1,4.19h0a2,2,0,0,0,1.9.72l.39-.06c2.13-.52,6.55-2.55,6.94-3.19s6.73-3.72,8.94-4.39A100.51,100.51,0,0,0,380,448.83c2.84-1.91,15.42-14,24-22.75.83-.85,1.63-1.66,2.37-2.43a60.75,60.75,0,0,0,5.87-6.56A25.29,25.29,0,0,0,413.4,411.51Z"/>

</svg>
