<svg>

<path
      data-tip="فهرج"
      id="IR-2117"
      d="M2964.77,2540.27a14.81,14.81,0,0,0-.26-3.26c-2.64-.91-3.82-3.32-3.82-7.61,0-4.86-10-33.8-12.67-36.79-2.35-2.6-2.34-3.2.16-6.6,1.5-2.06,4.57-6.27,6.8-9.35,6.13-8.44,5.32-14.41-4.23-31-4.56-7.94-8.7-16.29-9.2-18.55a90.9,90.9,0,0,0-3.12-10.05,80.91,80.91,0,0,1-2.63-10.78c-9.12-1.56-22.24-7.5-45.54-20.61-6.69-3.76-14-6.87-16.32-6.89-3.76,0-4,1.09-2.5,11.58,4.33,30.19,1.43,39.64-22.46,73.33-9.43,13.3-14.4,18.23-20.95,20.81-10.07,3.95-10.54,5.93-3.06,12.86a16.25,16.25,0,0,1,5.53,11.82c0,3.68,2,10,4.42,13.94s4.42,9.48,4.43,12.22c0,4.31-1.15,5-8.58,5-4.72,0-9.76,1.42-11.2,3.15-2.13,2.58-.78,4.22,7.34,9,5.47,3.21,11.75,5.69,14,5.52,15.41-1.18,23.58,0,28,4a35.33,35.33,0,0,0,8.11,5.64h0c5.08,2,18.05-.63,25.46-5.09,6.46-3.9,30.29-10.33,57.89-15.64l2.89-.55a14,14,0,0,1,1.42-4.62C2964.7,2541.23,2964.75,2540.76,2964.77,2540.27Z"/>
<path
      data-tip="بم"
      id="IR-2105"
      d="M2768.52,2615.6c2.49,1.62,4.51.72,8-3.6,7-8.56,9.68-20.17,9.68-41.58,0-11.69,1.25-22.16,3.19-26.81,3.75-9,.75-12.42-4.22-4.82-1.9,2.89-7.5,6.6-12.45,8.23-7.68,2.54-9.29,2.5-11.06-.21a10.42,10.42,0,0,1-.76-7.6c4-13.46,3.9-13.84-4.36-16.83-8-2.9-10.24-8.25-6.11-14.76,1-1.55,18.15-8.33,38.15-15.07s38.51-13.65,41.14-15.36c5.14-3.36,27.18-34.26,34.12-47.87,4.66-9.13,5.2-15.87,3-36.87l-1.48-13.95-6.92,1.38c-20.57,4.1-34.3,8.47-44.37,14.11a178.84,178.84,0,0,1-22.31,10.28c-6.09,2.19-13.06,5.69-15.5,7.78a69.83,69.83,0,0,1-11.6,7.42c-3.94,2-12.19,8.08-18.33,13.54-8.32,7.38-13,9.91-18.29,9.91-9.88,0-20.3-7-28.74-19.19-13.78-20-18.88-24.61-28.8-26.24-5.13-.84-14.32-3.89-20.41-6.78l-11.06-5.25-1.11,14.91c-1,13.7-2,16.05-11.88,28.9-5.92,7.7-12.15,14.52-13.83,15.17-4.23,1.62-3.87,3.19,2.16,9.7,7,7.51,10.27,14,10.27,20.09,0,3.14,3.75,8.48,10,14.18,8.75,8,10,10.26,10,18.38,0,5.08-1.24,11.24-2.77,13.7-3.8,6.13,1,8.9,12.68,7.35,8.46-1.12,9.57-.54,22.19,11.73,7.31,7.11,17.9,15.56,23.54,18.8,9.54,5.47,19.23,16,40.25,43.8,7.46,9.86,9.44,11.19,16.61,11.22C2761.54,2613.41,2766.7,2614.4,2768.52,2615.6Z"/>
<path
      data-tip="نرماشیر"
      id="IR-2123"
      d="M2796.17,2537.55c0,6.57.57,7.19,6.85,7.19,4.06,0,8.51-1.81,10.88-4.42,2.68-3,6.82-4.43,12.52-4.43,9.66,0,10.16-1.09,4.08-8.86-2.38-3-4.36-9-4.4-13.28-.06-5.85-1.92-9.54-7.64-15.09l-7.56-7.34-25.73,8.18c-14.16,4.49-27.22,9.65-29,11.45-2.9,2.9-2.44,3.71,4,6.92,6.81,3.4,7.25,4.32,6.91,14.24s-.05,10.5,4.43,9.14c2.63-.8,6.82-3.92,9.29-6.94,3.09-3.77,6.22-5.25,10-4.72C2795.26,2530.22,2796.19,2531.58,2796.17,2537.55Z"/>
<path
      data-tip="رابر"
      id="IR-2107"
      d="M2469.39,2551.11c.42-2.87,4.11-8.92,8.2-13.44,12.71-14.07,17.22-25.24,18.57-46,1.21-18.45,1.34-18.82,9-23.87,13-8.63,15.49-11.36,15.49-17.14,0-5.4-.42-5.55-15.46-5.55-10.12,0-19.51-1.54-27.12-4.43-19.74-7.5-35.05-5.07-47.27,7.51l-7.46,7.68,6.6,12.55c3.63,6.9,6.61,13.86,6.61,15.46s4.05,6.73,9,11.4c8.85,8.33,9,8.69,7.6,20-1.49,12.15,3.41,27.59,11.69,36.79h0C2468.52,2556.23,2468.63,2556.21,2469.39,2551.11Z"/>
<path
      data-tip="جیرفت"
      id="IR-2106"
      d="M2465,2640.84c1.23.77,4.24-.75,6.69-3.37,2.91-3.13,7.33-4.86,12.85-5,7.43-.23,8.79.56,11.5,6.71,2.09,4.76,5.06,7.38,9.32,8.23,3.43.69,10,4.58,14.63,8.66,10.13,8.95,25.9,18.09,34.95,20.26,9.78,2.35,14.39,7.51,14.39,16.13,0,12.31,3.25,16.1,13.91,16.17,5.13,0,15.8,2.42,23.71,5.31h0c7.91,2.9,14.49,5.36,14.62,5.48.65.59,16.36-26.18,16.36-27.87,0-1.08-2-5.87-4.42-10.65-5.25-10.3-5.55-20-1.11-36.52,1.8-6.7,3.28-15,3.29-18.37,0-8,9.19-16.54,19.67-18.29,17.5-2.91,18.84-3.91,23.79-17.74l4.7-13.11,11.9-1.89c6.55-1,12.33-2.3,12.85-2.79,1.39-1.32-6.2-6.87-17.54-12.84-5.48-2.88-14.64-10.31-20.35-16.52-9.22-10-11.15-11.12-17.08-9.94a33.51,33.51,0,0,1-12.29-.07c-4.65-1.17-5.62-2.72-5.62-9,0-4.16,1-8.18,2.21-8.94,5.45-3.36,2.05-13-7.74-22-6.21-5.7-10-11-10-14.18,0-5.83-2.6-11.1-11.47-23.35l-6.35-8.78L2591.63,2458c-11.83,12.6-19.58,14.61-31.82,8.22-3.4-1.77-12.32-4.34-19.82-5.7-11.1-2-14.06-1.91-15.95.55-1.27,1.66-6.93,5.91-12.58,9.44l-10.26,6.42-.95,19c-1.06,21.09-4,28.51-17.5,44.81-8.57,10.31-8.61,10.47-8.61,29.81,0,12.83-1.26,22.75-3.7,29.13-3,7.92-3.22,11-1.1,16.83,3.57,9.87,3.28,12.45-2,18.09C2464.57,2637.5,2463.64,2640,2465,2640.84Z"/>
<path
      data-tip="بردسیر"
      id="IR-2104"
      d="M2428.25,2443c7.84-11.18,31.85-14.18,53.63-6.68,17.19,5.91,35.72,6,37.56.2a9.75,9.75,0,0,1,4.82-5.56c3.13-1.2,3.11-1.88-.19-6.92-2.42-3.69-3.44-9.1-3-15.93l.66-10.34-15.49-10.63c-21.73-14.91-25.46-22.39-25.46-51.1v-22.1l-33.75,1.54c-59.4,2.71-117.91-8-128.79-23.5-2.47-3.53-3.89-3.9-7.54-1.94-6.29,3.37-7,3.09-7-2.76,0-2.84-.56-5.72-1.23-6.4-2.2-2.2-30,10.1-32.23,14.25-2.79,5.21-1.23,7.53,6.31,9.42,12.93,3.24,14.76,9,6.12,19.28-4.41,5.25-5.53,9-5.53,18.58,0,10.61.52,12,4.51,12,2.49,0,7.22-1.92,10.52-4.27,3.87-2.76,10.63-4.53,19.07-5l13.08-.71,3.15,9.41c1.74,5.17,4.19,9.4,5.44,9.4s6,4,10.57,8.79,10.91,9.79,14.13,11c5.25,2,5.85,3.36,5.85,13.28,0,10.74.47,11.54,16.17,27.71,14,14.43,17.58,16.92,26.67,18.62,5.77,1.07,11.11,2.57,11.86,3.33h0C2420.81,2448.63,2425.21,2447.31,2428.25,2443Z"/>
<path
      data-tip="عنبرآباد"
      id="IR-2115"
      d="M2733.26,2602.35c-19.7-25.76-19.49-25.63-36.4-22.61-8.11,1.44-8.84,2.26-13.28,14.81-5,14.21-4.23,13.68-27.1,17.89-10.62,2-14.13,7.8-18.89,31.45l-4.58,22.79,5.23,10.17c4.56,8.85,6.56,10.51,15.35,12.74a98.68,98.68,0,0,1,21,8.95,138.07,138.07,0,0,0,23.08,10.28h0c16,5.11,31.94,5,56.94-.24,19.54-4.12,38.26-11.52,38.26-15.13,0-.94-5.47-4.39-12.17-7.68l-12.17-6V2669C2768.53,2654.72,2757.8,2634.44,2733.26,2602.35Z"/>
<path
      data-tip="کهنوج"
      id="IR-2121"
      d="M2658,2764.77c-7-8-7.11-8.42-5.6-23.46,1.27-12.65.68-18-3.38-30.62l-4.92-15.3-5.59,8.23a234.51,234.51,0,0,0-11.81,20.41c-3.42,6.7-8.28,13.44-10.8,15-5.15,3.16-35.26,9.36-45.47,9.36-2.13,0-8.06,1.94-15.56,4.9-5.85,3.66-10.92,8.65-13.44,13.32-1.72,3.18-4.28,7.29-6.6,10.65-1,1.46-2,2.79-2.8,3.82-.29.36-.55.7-.8,1-3,4-3.33,5.91-1.5,7.74,2,2,4.76,1.64,11.59-1.44,5.26-2.38,7.92-3.15,10-2.55a6.47,6.47,0,0,1,2.36,1.33c4.59,3.81,4.34,5.31-2.19,13.07-5.76,6.84-7.31,14.76-3.36,17.2.62.39,1.19,2,1.6,4.16,3.19-5.21,7.8-11.91,15.31-16.29,1.47-.86,2.32-1.21,7.38-4,10.35-5.77,11.16-6.77,14.77-7.83,1.13-.33,11.53-3.28,14.57,1,.87,1.24.76,2.63.76,4.58a15.75,15.75,0,0,1-4.42,10.21c-3.53,3.19-4.43,6.82-4.43,17.83,0,13.43-.2,13.9-6.76,16.18-6.34,2.22-6.66,2.86-5.29,10.73.81,4.61,3,9.63,5,11.15h0c4.76,3.77,7.87,3.5,20-1.7,6.41-2.77,12.45-7.52,15.81-12.43a106.43,106.43,0,0,1,12.92-14.9l7.49-6.94-1.38-15.79c-1.55-17.94.59-24.79,9.47-30.3C2665.86,2773.75,2665.86,2773.76,2658,2764.77Z"/>
<path
      data-tip="ارزوئیه"
      id="IR-2101"
      d="M2491.44,2642.9c-4-8.22-6.76-8.55-14.85-1.74-5.17,4.35-8.39,5.49-12.55,4.45-8.21-2.06-9.07-7.26-2.36-14.26,5.1-5.32,5.45-6.58,2.84-10.16-1.81-2.47-4.09-3.41-5.76-2.38-4.13,2.56-38.38,14.46-41.6,14.46-2.08,0-2.78-6.48-2.78-25.45v-25.46h-42.12l-5.92,12.73c-3.8,8.17-6,16.86-6.18,24.25-.37,16.35-4.74,20.57-21.28,20.57-7.06,0-15.12.92-17.92,2.05s-9.71,3.31-15.38,4.85c-1.7.46-3.12.86-4.32,1.26-5.53,1.85-6.3,3.54-7.33,10-1.72,10.78,7.8,40.59,16.09,50.37,3.45,4.07,6.34,6.11,12.9,8,2.78.8,6.23,1.57,10.66,2.45,9.75,1.93,20.2,4.85,23.25,6.47h0c3.52,1.87,13.61,3,27.71,3,16.43.07,21.3-.25,26.61-3.13,2.84.88,4.43,2.82,7.05,7.05a52.29,52.29,0,0,1,6.09,16.23c.72,4.67,2.23,9.67,3.35,11.11h0c1.49,1.9,5.37.36,14.16-5.6,11-7.48,12.11-9,12.19-16.72.12-11.36,4.59-19.4,16.81-30.15l2.67-8.62c.55-.87.67-2.56.67-5.45,0-3.43,2.62-10.75,6.79-19.26,1-2.07,2.13-4.22,3.31-6.4C2493.59,2650.28,2494.13,2648.43,2491.44,2642.9Z"/>
<path
      data-tip="فاریاب"
      id="IR-2116"
      d="M2597.09,2716c-6.15-1.64-14.34-3-18.21-3-9.4,0-14-5.12-14-15.52,0-6.58-1.34-9.58-5.83-13.12-3.21-2.52-7.23-4.59-8.93-4.59-5.29,0-24.85-10.86-33.46-18.6-14.67-13.15-15.66-12.77-28.15,11-8.75,16.64-10.43,21.43-8.05,22.92l.25.18a6.25,6.25,0,0,1,1.55,1.93,29.57,29.57,0,0,1,2.7,8.16c1.43,6.77,2.3,16.34,2.38,27.57.2,26.66-.46,25.81,28.84,36.76h0c5,1.86,7.83,2.84,10.08,2.42,2.66-.51,4.5-3,8.18-8.3,4.73-6.84,12-12,22.88-16,7.53-2.75,16.78-4.93,28.07-6.66C2624.35,2735.1,2629.26,2724.55,2597.09,2716Z"/>
<path
      data-tip="بافت"
      id="IR-2103"
      d="M2280.18,2632l6.26,7.51a18.87,18.87,0,0,0,11.66,3.6,12.74,12.74,0,0,0,3.92-.76c13.7-5.18,21.88-6.89,33.05-6.89,15.22,0,18.64-3.39,20.11-19.92.6-6.7,3.78-17.9,7.07-24.9l6-12.73h50.58v24.35c0,15.26.86,24.35,2.29,24.35,4.55,0,37.51-13.64,39.14-16.2,4.73-7.43,9.48-26,9.48-37.13,0-10.44-.7-12.74-4.17-13.65-2.3-.6-7-6-10.52-11.88-5.26-8.95-6.38-13.49-6.63-26.67-.27-15.34-.56-16.13-8.3-22.92-4.4-3.87-8-8.2-8-9.62s-3-8.55-6.57-15.82-6.6-14.61-6.64-16.3c-.1-4.55-6.94-9-14.05-9-9.3-.11-14.55-3.54-29.18-19.11-14.78-15.72-21.05-17-25.2-5.09-1.23,3.53-3.8,6.42-5.7,6.42-7.12,0-12.24,13.22-12.25,31.61,0,21.07-2.88,28.37-17.49,44.5-13,14.35-13.74,18.62-6.34,36.48l5,12-10.42,9.18-10.42,9.17L2279.56,2587q.49,13.78.62,28.17Q2280.26,2623.67,2280.18,2632Z"/>
<path
      data-tip="رفسنجان"
      id="IR-2109"
      d="M2148.6,2095.43a78.8,78.8,0,0,0-12.1,3.57c2.17,3.61,4.5,7.72,6.7,11.86,10,18.87,10.94,19.87,24,26.14,13.39,6.41,41.29,28,41.29,32,0,5.57-16.44,15-26.16,15-5.07,0-8.2,2.24-14.58,10.43-7.73,9.92-7.91,10.52-3.62,12.1,6.41,2.38,5.66,5.57-3.79,16.14-11.54,12.9-22.69,27.88-22.69,30.48,0,.38,4.08.3,9-.18a37.19,37.19,0,0,1,17.6,3c8,3.61,9.28,3.63,19.6.25,17.61-5.76,21.25-5,29.49,6.46,4,5.53,11.07,15,15.71,21.13,9.76,12.82,10.09,19.71,1.06,22.11-11,2.94-19.46,10.59-19.46,17.67,0,3.57.54,6.49,1.21,6.49s5.88-2.49,11.6-5.53,13.18-5.53,16.59-5.53c7.52,0,21,6.62,27,13.25h0l4.41,4.88,1.42-7a28.8,28.8,0,0,1,5.52-11.47c4-4.42,4-4.62-.16-7.66a17.15,17.15,0,0,0-8.34-3.12c-5.36,0-7.18-5.27-4.75-13.73,1.69-5.9,4.38-7.87,19.6-14.26,9.7-4.08,18.39-7.42,19.3-7.42s2.28,2.43,3,5.4c1.33,5.32,1.47,5.35,9.45,1.95,35.76-15.22,44.71-21.21,51.51-34.47,4.27-8.32,8.84-10.18,15.19-6.16,2.65,1.67,4.21-.78,8.1-12.76,2.65-8.16,4.41-15.25,3.91-15.76s-3.21,1.23-6,3.87c-6.39,6-12.55,6.11-18.76.33-4.24-4-4.64-6-3.45-17.4,1.48-14.14-1.22-18.9-5.82-10.29-3.77,7-13.68,10.9-23.87,9.3-6.18-1-10.5-3.85-17.12-11.37-8.52-9.7-14.83-12.48-17.7-7.82-2.17,3.51-24.5,2.72-27.57-1-1.45-1.75-4.49-9.28-6.74-16.72-5.23-17.25-15.45-30.53-31.55-40.95-7-4.53-12.72-8.92-12.72-9.74s-5.11-6.94-11.36-13.59c-4.93-5.25-12.76-13.77-19.31-21C2186.52,2082.09,2167.92,2091.12,2148.6,2095.43Z"/>
<path
      data-tip="انار"
      id="IR-2102"
      d="M2087.06,2122.17l-15.82,4.81-5.15,1.57c3.86,6,29,24.23,49.28,35.69,10,5.64,10.17,6,10.81,18.08.73,13.54,2.26,15.67,13.73,18.94,12,3.43,12.17,3.36,22.13-9.56,7.59-9.83,10.64-12.17,15.86-12.17,3.55,0,10.58-2.11,15.63-4.68l9.17-4.68-10.92-9.67c-6-5.32-18.12-13.34-26.91-17.82-15.6-7.95-16.22-8.59-25.18-26-2.6-5.06-5.74-10.47-8.67-15.07-4.33,2.34-7.85,4.87-15,7.79-10.45,4.29-19.25,7.72-25.55,10.14Z"/>
<path
      data-tip="شهربابک"
      id="IR-2114"
      d="M2012.28,2137.66c-10.61-4.41-19.49-5.35-29.19-2.74.34,1.4.73,2.92,1.15,4.51,1.49,5.62,3.45,12.15,5.41,17.88,7.64,22.38,7.89,34.3,1.1,52.1-5,13.12-11.11,19.51-33.63,35.25l-6.11,4.27,22.77,21.75,22.76,21.75-1.55,26c-.52,8.78-.31,21.27.34,34.32,5.75,1.3,16.75,2.42,25.57,2.55,24.48.38,27.46,1.73,42.61,19.42,7,8.23,15.61,18.93,19,23.77,3.59,5.1,10.86,12,17.33,16.31,1.82,1.23,3.57,2.53,5.28,3.92l-1.24-13.21,11.6-13.39c7.92-9.14,13.21-13.38,16.7-13.38,2.8,0,12.42-2.48,21.36-5.52s16.42-5.52,16.6-5.53,5.34-6.74,11.44-15,14.17-16.74,17.92-18.94c5.72-3.35,6.82-5.35,6.82-12.42,0-7.27,1.17-9.24,8.42-14.27,4.63-3.21,9.94-5.83,11.8-5.83,6.41,0,6.16-2.8-1.05-11.91-4-5-10.66-14.32-14.86-20.68s-8.75-11.59-10.12-11.62-6.72,1.43-11.9,3.26c-12,4.23-20.64,4.21-28.91-.07-4.79-2.48-9.63-3-17.92-1.89l-11.36,1.51,1.6-6.42c1.54-6.17,14-24.32,25.2-36.69l5.37-5.94-8.57-1.47c-26.7-4.57-31.18-7.9-32.22-24-.63-9.75-1.45-11.18-8.87-15.48-4.5-2.61-12.21-7.49-17.15-10.83s-13-8.76-18-12c-8.65-5.7-14.24-11.11-17.2-16.8-5.74,1.78-11.16,3.48-14.21,4.46C2022.59,2142.4,2023.48,2142.32,2012.28,2137.66Z"/>
<path
      data-tip="زرند"
      id="IR-2112"
      d="M2424.65,2131.28c21.7-1.26,23.41-14.31,3.61-27.59-5.93-4-14.44-7.08-23.24-8.46-19.63-3.07-28.16-10.28-31.44-26.56-.64-3.15-3.31-8.47-5.94-11.81-5.74-7.29-8.51-4.64-8.56,8.2,0,5.37-1.22,8.82-3.36,9.64s-3.32,4.22-3.32,9.45c0,9.61-3.16,13.5-11,13.46-10-.06-14.75-2.36-18.69-9-2.12-3.59-8.79-9-14.82-12.08-9.22-4.67-11.94-7.59-17-18.23l-6-12.66-25.46-1.4c-14-.77-30.43-1.64-36.52-1.93-1,0-2-.06-3,0a36.39,36.39,0,0,0-4.87,3.16c-3.72,2.85-6.25,6.25-11.17,12.92-3.58,4.86-6.4,8.63-7.51,10.56,22.09,25.82,45,48.67,49,48.67,5.65,0,23,23.2,26.49,35.41,5.13,18,8.38,22.14,17.32,22.14,4.16,0,8.18-1,8.94-2.22,1.52-2.46,12.06-3,17.6-.84,2,.76,5,4.1,6.71,7.42s6.41,7.66,10.43,9.64,9.1,3.63,11.29,3.65c5,.07,12-7.22,19.78-20.57,3.33-5.73,8.68-11.62,11.89-13.09,5.29-2.41,6.31-2.07,10.82,3.59,3.54,4.44,5.48,5.46,6.67,3.53s5.28-2.3,13.83-1.29c7.87.92,13.21.53,15.19-1.11,4-3.32,3.9-6.42-.21-6.42-5.11,0-10.39-10-9.61-18.11C2413.26,2132.12,2413.54,2131.93,2424.65,2131.28Z"/>
<path
      data-tip="کوهبنان"
      id="IR-2120"
      d="M2283,1968.72c-4.08,2.79-8.18-.06-13.39,4.22h0c-2.61,2.15-4.77,4.41-5.76,8.71-.07.3-.13.6-.18.91-2,11.34-5.36,18.49-12.46,26.83a147.55,147.55,0,0,0-10.27,13.68c-2.16,3.44-8.06,8-13.12,10.15l-9.19,3.9,14.07,1,6.68.48.28,0c2.46.17,5.12.34,7.85.49,9.87.56,20.65,1,26.64,1h14l6.69,13.25c5.6,11.11,8.48,14.16,17.73,18.85,6.08,3.08,11.06,6.34,11.06,7.25s2.52,4.37,5.62,7.71h0c6.2,6.68,15.28,8,17.38,2.56.74-1.93,1.34-6.82,1.34-10.88s1.25-7.8,2.77-8.31,2.85-3.82,3-7.37a60.14,60.14,0,0,1,1.72-12c1.28-4.59.46-6.15-4.81-9.11-5.75-3.23-6.49-5-7.77-18.71-1.5-16.09,1.63-25.31,8.61-25.31,1.86,0,5.65-2.27,8.42-5,4.68-4.68,4.9-6,3-18.26a236.79,236.79,0,0,1-2.38-24.61c-.19-6.63-.39-9.35-1.46-9.89-.05-1.55-.08-3.12-.09-4.7,0-2.28,0-4.52,0-6.76a266.34,266.34,0,0,1,3.05-36,179,179,0,0,1-22.67,2.33c-12.85.49-16.72-.79-24.33,2-4.14,1.52-6.41,3.15-11.33,3.67a79.57,79.57,0,0,1-12.14-.11c-1.2-.1-2.19-.2-2.86-.27v7.51a174.3,174.3,0,0,0-2,22.53C2286.16,1951.47,2289.67,1964.16,2283,1968.72Z"/>
<path
      data-tip="راور"
      id="IR-2108"
      d="M2529.31,1892.62c-2-.31-3.88-.55-5.49-.71-4.64-.21-8.88.52-10.23-1.46-1.63-.31-3.2-.64-4.66-1a39.19,39.19,0,0,1-7.65-2.43,49.33,49.33,0,0,0-10.39-3c-4.44-.92-9.61-1.73-14.51-2.23-4.27-.43-8.88-1.11-13.13-1.9-5.75-1.07-10.26,9.53-12.89,8.43-13.37-5.6-32.63-6.34-57-2.18-12.15,2.07-22.73,4.16-23.5,4.64-.95.58-3,22-4.19,39.62-.63,9.38-1,17.66-.8,21.1.17,3,1.41,12.22,2.74,20.39,3,18.46.86,25.15-9.56,29.5-9.86,4.12-11.37,7.13-10.43,20.89.72,10.44,1.46,11.77,9.42,16.8,9.64,6.08,21.9,21.62,21.9,27.75,0,12.76,9.93,20.55,30.4,23.85,21.64,3.49,38.22,17.16,38.22,31.53,0,8.56-6.2,13-18.12,13-12.5,0-15.37,3.59-9.74,12.19,3,4.51,5.41,5.51,13.47,5.51,8.71,0,10.25.78,13.28,6.64,3.42,6.62,8.47,8.64,11.07,4.43,2.16-3.49,13.91-2.58,17.07,1.32,1.57,1.94,5.05,5.92,7.73,8.85s6.36,5.33,8.17,5.33,14.11-5.23,27.32-11.63,27.1-12.89,30.84-14.45c7.49-3.11,12.71-13.81,15.35-31.47,1.72-11.56,5.65-20.1,14.26-31.07,11.21-14.26,14.27-23,11.38-32.5-3.41-11.22-7-52.13-6.77-78.09.08-11.57-.69-30.46-1.73-42l-2-27.06-30.84-9.49C2541,1896.23,2534.52,1893.71,2529.31,1892.62Z"/>
<path
      data-tip="سیرجان"
      id="IR-2113"
      d="M2353.93,2387.75c-7.95-3-29.45-24.93-31.11-31.7-1.34-5.48-2.46-6.09-11.11-6.09-6.27,0-11.58,1.54-15.25,4.42-3.82,3-9,4.43-16.07,4.43-10.43,0-10.44,0-9.11-6.66,1.14-5.67.12-7.77-6.91-14.26a76.81,76.81,0,0,0-16.53-11.38c-8.13-3.7-8.48-3.66-19.57,2.09-6.21,3.23-13,5.86-15,5.86-6.17,0-17.31,9.19-28,23.09-11.12,14.45-19.61,19.36-41.21,23.82-7.93,1.64-15.09,4.62-17.47,7.26-18,20-18,20-16.39,33.85,0,.29.06.56.09.84a107.79,107.79,0,0,1,11.14,13.08c21.95,29.74,25.37,43.45,19.08,76.58-.45,2.37-.85,5.23-1.17,8.21a123.76,123.76,0,0,0-.79,15.41l.33,11.49,1.42,1.17.6.5a13.23,13.23,0,0,1,1.35-.56c.45-.16.92-.3,1.39-.42,3.29-.81,7.07-.51,11.83.85a57.55,57.55,0,0,1,13.08,6c.48.32,1,.61,1.45.89,11.25,6.54,24,4.19,49-8.7,12.92-6.67,28.54-15.13,34.71-18.8a132.81,132.81,0,0,1,24.15-10.63l12.92-4-1.48,50.79a39.38,39.38,0,0,0,9.4-6.06l8.37-7.24-3.85-8.09c-2.12-4.45-3.86-13.1-3.86-19.22,0-10.3.81-12,11-22.77,14.09-14.89,17.76-23.87,17.76-43.42,0-18.59,4.22-30.18,12.07-33.16,3.1-1.18,5.64-3.45,5.64-5s3-5.51,6.64-8.71C2361.07,2403.91,2361.92,2390.78,2353.93,2387.75Z"/>
<path
      data-tip="کرمان"
      id="IR-2119"
      d="M2931.74,2382.42c-2.34-3.79-5.65-29.72-5.75-45.08-.07-10-.82-22.19-1.66-27.17s-2.21-19.07-3-31.29c-1.05-15.36-2.61-25.3-5.05-32.12s-3.81-15.54-4.45-28.82c-.8-16.37-.43-20.69,2.73-31.91,2.64-9.37,3.5-16.22,3.1-24.61l-.56-11.63,6.45-4.12c-2.28-1.84-5.52-4.76-8.87-8-14-13.75-23.67-25.1-27.81-32.67-6.11-11.16-12.59-17.83-23.44-24.08-11.45-6.6-12.79-8.63-12.79-19.29,0-9.32-3-12.11-19-17.48-11.83-4-35.36-18.26-51.53-31.27-4.89-3.93-11.58-8.81-14.87-10.84-9-5.56-12.35-8.45-14.5-12.53-1.72-3.29-13.95-14-20-17.49-1.61-.94-1.8-1.64.24-5.3l-2.25-1.49c-1.23-.8-2.5-1.65-3.78-2.51-1.36,2.09-2.38,3.45-2.62,3.45-.42,0-2.51-1.37-4.64-3h0c-13.86-10.77-37-24.22-41.65-24.17-.63,0-8-3.31-16.38-7.37-3.8-1.84-6.73-3.24-8.93-4.42l-1.34,2.69L2644,1928h0c-2.94-1-12.28-2.73-20.75-3.79-13.59-1.7-22.86-4.2-38.25-10.48.09,9.75.4,21.43.92,27.35,1,11.27,2.08,35.42,2.43,53.68s1.76,39.18,3.13,46.48c6.16,32.87,6.53,31.13-12.87,60-4,6-7.78,13.32-8.4,16.37-3.86,19.09-8.45,33.3-11.63,36-2,1.72-17.92,10-35.33,18.31l-31.67,15.18-7.9-4.26c-4.34-2.34-8.9-6.46-10.14-9.17-3-6.64-7.67-8-13.37-4-7.46,5.22-12.38,4-17.33-4.43s-13-10.67-13-3.59c0,7.28-5.7,9.84-18.83,8.49-6.65-.69-12.67-.33-13.37.8-2.18,3.53-9.5,2.24-13.86-2.44-2.33-2.5-5.66-3.91-7.53-3.19-4.79,1.83-8.42,10.72-5.94,14.53,1.11,1.71,1.85,8.86,1.64,15.88-.31,10.3.43,13.37,3.85,15.89,3.71,2.73,4.79,2.62,8.66-.87,4.41-4,13-9,15.35-9,5.25,0-5.75,41.48-11.59,43.72-1.78.69-4.95.17-7-1.13-3.21-2-5-.6-11.33,8.91-5.72,8.58-11,13.1-21.91,18.89-7.91,4.19-17.84,8.6-22.07,9.8l-7.68,2.18,7,6.28q22.8,20.37,114.58,20.73l44.27.18,1.17,23.24c1.48,29.4,4.1,34.48,24.9,48.25l16,10.58.06,11.16c0,6.76,1.56,13.46,3.87,17,5,7.59,4.85,8.72-1.57,14.3-4.81,4.19-5.12,5.41-2.89,11.32s3.9,6.82,13.69,8.16a105.34,105.34,0,0,1,21.15,5.56h0c13,5.25,19.3,5.31,20.92.2,1.85-5.82,11.12-14,21.76-19.15,5.49-2.66,13.35-9.76,19.62-17.72,10.07-12.78,10.47-13.84,10.61-28.22.13-14,.45-14.94,5.13-14.94,2.75,0,9.68,2.49,15.4,5.53s12.46,5.53,15,5.53c10.29,0,19.58,6.34,28.46,19.42,10.05,14.79,20.17,24.19,28.22,26.21,4.25,1.06,7.43-.52,14.91-7.41a140.1,140.1,0,0,1,20.44-15.12c6-3.49,12.16-7.54,13.67-9s6.49-3.89,11.07-5.39,15.79-6.52,24.92-11.14c17.66-9,42.76-15.26,60.76-15.26,9,0,14.27,1.89,30,10.83,11.78,6.7,24.84,12.79,33.53,15.85-.2-1.24-.38-2.47-.55-3.67C2933.28,2389.74,2932.13,2383,2931.74,2382.42Z"/>
<path
      data-tip="رودبار"
      id="IR-2110"
      d="M2848.88,2822c1-1.82,2-9.72,2.37-17.55s1.07-21.28,1.64-29.89c.9-13.55.58-16.81-2.39-24.35-4-10.24-4.43-21.66-1-28.35,1.44-2.79,2.33-8.24,2.12-13.07a36.44,36.44,0,0,1,.14-5.4c-4.15-1.32-9.18-2.62-15.17-3.92-33.88-7.41-35.21-7.53-37.51-3.43-6.12,10.93-52.79,22.49-83.48,20.68-16.92-1-20.67-2.14-41.63-12.64-12.67-6.34-23.41-11.16-23.86-10.71s1.21,6.78,3.69,14.07c3.58,10.52,4.28,16.79,3.38,30.3-1.13,17-1.11,17.07,6.3,24.7,4.1,4.21,10.94,8.82,15.22,10.23,6.16,2,8.22,4.2,9.94,10.42,2.75,10,8.35,16.19,14.57,16.19,2.67,0,9.19,2.91,14.5,6.47,7.13,4.8,10.63,5.95,13.46,4.43,6.82-3.65,18.35-2.21,26.45,3.29a67.39,67.39,0,0,0,17,7.8,31.78,31.78,0,0,1,15.35,9.85c7.73,9.21,14,12.6,29.44,16h0a154.68,154.68,0,0,0,25.05,2.86c.18-2,.37-4,.59-6C2846.19,2833.73,2847.9,2823.84,2848.88,2822Z"/>
<path
      data-tip="ریگان"
      id="IR-2111"
      d="M2860.23,2692.77c0-.48,1.54-3,3.41-5.65,3.19-4.48,4.12-4.79,14.62-4.79,13.38,0,15-1.41,14.61-12.52a57.91,57.91,0,0,1,1-13.16c1.17-4.66.77-5.4-4.6-8.56-3.25-1.92-2.53-2.23-4.75-3.69-3.9-2.57-5.65-2.52-5.87-3.78-.32-1.86,3.34-2.36,5.11-6.12,1.54-3.26.7-7.25-.85-10.21a11.93,11.93,0,0,0-3.45-3.63l-4.67-3.73,5.92-4.88c3.26-2.68,11.66-6.68,18.67-8.88,11.59-3.64,15-4,37.84-3.49l25.09.51,2.82-5.91c2.67-5.59,2.66-6.37-.09-14.51-2.32-6.89-3.07-19.16-2.43-28.12-12.69,2.38-31.35,6.57-41.69,9.61-5.68,1.68-12.82,4.68-15.87,6.68s-10.87,4.17-17.35,4.82c-10.13,1-12.95.39-20-4.45-9.65-6.61-11.88-7.16-19.9-4.9-7.09,2-23.91-3.73-29.66-10.08-4.17-4.61-16.21-5.59-23.15-1.88-3.76,2-4.28,4.79-4.28,22.91,0,21.67-2.23,31.55-9.49,42-3.14,4.51-5.71,6-9.06,5.21-2.58-.59-8.16-1.85-12.41-2.79L2752,2617l3.92,5.37c8.14,11.13,15.88,30.13,17,41.71,1.16,12,1.2,12,13.29,18.26,6.67,3.44,15.14,6.25,18.81,6.24,7.86,0,31.89,5.4,48,10.2Z"/>
<path
      data-tip="منوجان"
      id="IR-2122"
      d="M2655,2977.76h0a3.48,3.48,0,0,0,4.47,2,28.62,28.62,0,0,1,8.33-1.23c3.45,0,5.53-1.62,6.38-5,2.25-8.79,13.92-20.64,23-23.37,6-1.78,8.49-3.56,11.41-9.08.61-1.17,1.25-2.5,1.94-4a86.62,86.62,0,0,0,5.92-19.4l1.2-8.85-19.09-8.8c-10.49-4.84-27.17-11.4-37.06-14.58l-18-5.79-.2-19.17c-.1-10.55-.79-19.79-1.52-20.52-1.49-1.49-8.5,5.43-17.66,17.47-6.09,8-18.93,13.84-29.62,14.3a24.35,24.35,0,0,1-7.78-.8,13.42,13.42,0,0,1-5.87-2.91c-1.56-1.5-2.49-3.59-3.3-6.85-3.85-15.43-3.21-18.52,4.52-21.92,6.9-3,7.19-3.68,7.19-15.75,0-9.23,1.19-14.08,4.43-18.21,2.44-3.1,4.43-6.22,4.43-6.94,0-3.47-14.39-.71-20.62,4-3.88,2.91-9.32,6-12.09,6.81s-9.38,8.12-15.13,16.84h0c-5.54,8.42-11,15.88-12.1,16.56-3.15,1.95-2.38,7.63,1,7.63,1.68,0,4.48-2.15,6.22-4.77,1.21-1.82,2.06-3.25,3.57-3.4,0,0,0,0,.06,0a3.58,3.58,0,0,1,2.26.76,3.87,3.87,0,0,1,1.35,2.25c.4,1.68-.46,2.3-.3,3.45.33,2.34,4.21,1.93,5.85,4.65,1.13,1.87.47,4.52-.85,9.83-.48,2-.65,2.11-.94,3.11l-.1.37c0,.05,0,.11,0,.17l-.13.53c0,.12,0,.25-.07.37-.13.6-.25,1.21-.35,1.81,0,.19-.07.37-.09.55-.12.75-.21,1.51-.28,2.26,0,.15,0,.31,0,.46-.05.63-.08,1.25-.1,1.87,0,.21,0,.42,0,.63,0,.76,0,1.52,0,2.28a39.52,39.52,0,0,0,.72,6c3.16,16,15.89,30.37,34.13,36.12,6.86,2.16,12.47,4.69,12.47,5.61s1.84,3.65,4.07,6a26.82,26.82,0,0,1,5.45,9.88c.93,3.71,8,10.07,21.53,19.47l.66.46c2.62,1.83,5.15,3.65,7.49,5.39C2649,2971.81,2654.44,2976.42,2655,2977.76Z"/>
<path
      data-tip="قلعه گنج"
      id="IR-2118"
      d="M2701.22,2954.88c-9.27,3.08-24.78,19.74-22.22,23.88.68,1.11,5.26,2,10.16,2,7.4,0,10.07,1.31,15.77,7.75,3.77,4.25,8.14,7.74,9.7,7.74s6.23,3,10.39,6.64c5.56,4.88,9.84,6.66,16.13,6.72,11.62.11,33.6,5,42,9.42,3.8,2,15.06,11.09,25,20.25,12.42,11.39,20.88,17.35,26.85,18.9,21.57,5.6,25.52,6.82,28.64,8.87h0a13.78,13.78,0,0,0,11.77,1.29,19.5,19.5,0,0,0-2.49-.34c-7.4-.63-10.37-3.76-7.93-8.34,2.81-5.26,2.11-8-3.54-13.75l-5.31-5.41,4.32-.5a13.39,13.39,0,0,0,7.2-3.71,8.75,8.75,0,0,1,1-.87l.15-.11a9.31,9.31,0,0,1,1.11-.74h0a11,11,0,0,1,1.85-.83l.19-.06a5.34,5.34,0,0,1,.53-.16l.22-.06a5,5,0,0,1,.53-.12l.17,0c.32-.06.63-.11.94-.14l.31,0,.38,0h.71l.4,0,.29,0a3,3,0,0,1,.54.11l.15,0a4.12,4.12,0,0,1,.53.18l.18.09.36.19.17.11a2.48,2.48,0,0,1,.3.25l.13.12a2.44,2.44,0,0,1,.35.43c1.55,2.51,9,2,9-.62a6.89,6.89,0,0,1,2.47-4.32c3.47-2.87,3.07-8.67-.92-13.76-3.29-4.18-3.31-4.48-.5-9.23s2.81-5-.72-8.77a14.31,14.31,0,0,1-3.64-9.52c0-3.11-.69-6.69-1.49-7.95-.93-1.48.41-3.77,3-6-.64-1.56-1.15-2.93-1.71-4.13a22.1,22.1,0,0,0-2.34,1.8c-3.38,3.17-3.48,3.16-15.25-2.48l-11.86-5.69v-8a33,33,0,0,1,4.12-15.8c5.52-10.37,5.43-16.62-.26-19.42-12.67-6.21-17.86-29.32-15.05-66.27h-1c-15.21-.09-37.45-4.3-45.49-8.61-2.88-1.55-8.2-6.19-11.82-10.31a34.47,34.47,0,0,0-15.53-9.92,73.18,73.18,0,0,1-17.65-8.16c-8-5.26-9.37-5.52-16.32-3-8.66,3.13-13.61,2-24.72-5.51-4.31-2.92-10-5.31-12.71-5.31-6.32,0-11.78-6.15-13.62-15.33-1.07-5.37-3.26-8.05-8.27-10.16-6.34-2.67-7.33-2.42-14.14,3.56-4,3.54-8.26,6.43-9.4,6.43-3.48,0-9,12.92-7.79,18.24.62,2.75,1.51,19.44,2,37.09l.85,32.08,15.53,4.72c8.53,2.6,25.2,9.37,37,15l21.52,10.33-1.42,12.63a93,93,0,0,1-6.12,23.07c-.47,1-.91,2-1.34,2.83C2710.45,2950.66,2707.89,2952.66,2701.22,2954.88Z"/>

    </svg>
