<svg xmlns="http://www.w3.org/2000/svg" viewBox="0 0 458.77 331.02">

  <path data-tip="روانسر" id="IR-2209" class="cls-1" d="M237.25,112.29a12.36,12.36,0,0,1-3.2-.43c-3.94.59-6.73,1.21-7.18,1.66-1.6,1.6-4.11.75-6-2-1-1.53-2.7-3.91-3.7-5.29-2.31-3.17-2.3-5,0-8.2A10.42,10.42,0,0,0,219,93.81a5.11,5.11,0,0,0,.06-.63c0-.18,0-.35,0-.51s0-.09,0-.14l0-.31,0-.14a2.29,2.29,0,0,0-.07-.28l0-.11a1.75,1.75,0,0,0-.15-.34h0a2.6,2.6,0,0,0-.71-.79l-.37-.14c-.87-.34-1.62-.65-2.08-.89-1-.51-1.95-1-2.9-1.56-1.63-.64-3.48-1.3-5.06-1.81-5.16-1.67-8-3.66-18.1-12.54a31.07,31.07,0,0,1-3.4-3.55,23.53,23.53,0,0,1-1.83-2.48,7.49,7.49,0,0,1-.42-.75c-.63-1.26-1.19-2.51-1.71-3.75-.89.25-1.84.48-2.74.64-6.1,1.13-8.29,2.6-9.22,6.18s-2.36,4.8-5.79,4.81a42.94,42.94,0,0,0-5.35.46l-2.74.46,1.33,2.58c1,1.91,2.53,3.17,6,4.89,3.72,1.82,5.05,2.94,6.24,5.25l1.53,2.94,6.58.21c6.15.2,6.68.35,8.18,2.21s2.07,2,6.25,2h4.65l1.35,2.85c1.72,3.63,1.28,4.69-2.2,5.25-6.19,1-6.31,1.06-5.75,2.8a16.59,16.59,0,0,1,.63,3.45c.09,1.61-.19,1.82-2.49,1.84-2.82,0-8.28,3.89-11.12,7.88-1.67,2.34-4.95,4.3-7.21,4.3a9.59,9.59,0,0,0-3.24.8l-1.77.81,3.61,6,3.61,6,4.2.56a70.57,70.57,0,0,0,8,.51l3.83-.05,1.69,3.49c2.17,4.47,5.25,6.17,11.26,6.2,4.84,0,7,1.11,7,3.5a8.89,8.89,0,0,0,.45,2.68h0c.59,1.52,1.18,1.47,3.44-.31a8.1,8.1,0,0,1,4.75-1.47,8.48,8.48,0,0,0,4.3-1.09c1.84-1.39,2.54-1.4,2.54,0,0,3,5.92,5.49,6.93,2.87.32-.84,1-1.05,2.26-.73,1.51.38,2,.05,3.08-1.95a14.13,14.13,0,0,0,1.18-6.31c-.09-4.38,1.14-8,3.44-10,2.05-1.85,1.93-3.81-.31-5.28a3.84,3.84,0,0,1-1.84-2.91c0-2.07,3.35-6.23,5-6.24.84,0,.47-.6-1.18-1.89-1.86-1.48-2.39-2.45-2.39-4.42,0-.36,0-.66,0-.93C240.14,112.34,239.72,112.29,237.25,112.29Z"/>

  <path data-tip="سرپلذهاب" id="IR-2206" class="cls-1" d="M105.75,216.19a11.38,11.38,0,0,0-3.49-.69c-1.81-.05-2-.26-1.58-2.16.65-3.28-1.4-6.3-6.33-9.29-3.49-2.13-4.81-3.47-6.3-6.45-2-3.9-16.09-19.75-17.57-19.71A22.33,22.33,0,0,0,66,179.7a22.14,22.14,0,0,1-3.8,1.64,14.22,14.22,0,0,1-.37-4.26,9.8,9.8,0,0,1,2.29-3.63c3.14-3.52,3-6.28-.37-7.69-2.4-1-2.58-1.3-2.58-4.4,0-2.94-.34-3.65-3-6.07-2-1.86-2.72-3-2.21-3.49.9-.91,1-4.88.13-4.88-1.19,0-2.43-3.78-1.57-4.81a4.82,4.82,0,0,0,.57-3c-.18-1.72.21-2.28,2.36-3.35a13,13,0,0,1,4-1.31,19.35,19.35,0,0,0,5.34-2.06c3.22-1.69,4.09-1.88,5.17-1.12,3.77,2.65,5.63,3.32,7,2.5a6.3,6.3,0,0,1,2.84-.83,3.74,3.74,0,0,0,2.72-2.1c1.08-1.88,1.41-2,3.22-1.34,2.44.93,7.42-.36,9.51-2.46.8-.79,3.39-1.75,6-2.22s5.36-1,6.24-1.21c1.55-.37,1.56-.3.58,2.45-1.23,3.47-1.31,6.43-.27,11.25.71,3.34.64,3.93-.79,5.93a4.43,4.43,0,0,1-3.4,2.22,7.55,7.55,0,0,0-3.45,1.06c-1.93,1.25-9.62,1.13-12.08-.19a12.85,12.85,0,0,0-4.86-.87c-2.76,0-3.37.28-4.1,1.88a11,11,0,0,0-.17,8c.5,1.29,1.77,2.17,4.42,3,3.11,1,3.74,1.54,3.74,3A2,2,0,0,0,91,163.56c1.53.39,1.85.91,1.87,3.15,0,3.76,3.69,7.89,8.08,9.15,3.13.91,3.32,1.11,3.55,3.87a10,10,0,0,0,.83,3.65,26.23,26.23,0,0,1,1.81,5,13.07,13.07,0,0,0,4.25,7c6.87,6.23,8.43,8.65,8.84,13.78.2,2.43,0,3-1.23,3.21a16.21,16.21,0,0,0-4.38,2.42c-2.95,2.16-6,2.64-8.88,1.39Z"/>

  <path data-tip="دالاهو" id="IR-2205" class="cls-1" d="M151.06,237.09a17.53,17.53,0,0,0-4.28-1c-2.43-.06-6.66-3.52-7.89-6.45a18.23,18.23,0,0,0-4-5.16c-1.64-1.47-3-3.13-3-3.7,0-1.51-6.41-7.57-8-7.57-1.12,0-1.46-.78-1.86-4.17-.63-5.39-2.1-8.39-5.79-11.83l-4.68-4.37c-.93-.87-2.24-3.53-2.92-5.9a27.28,27.28,0,0,0-1.83-5.06,9.76,9.76,0,0,1-.83-3.65c-.23-2.76-.42-3-3.56-3.87-4.22-1.21-8-5.41-8.08-8.88,0-1.84-.46-2.61-1.87-3.25a2.8,2.8,0,0,1-1.84-2.47c0-1.3-.78-1.92-3.85-3-4.56-1.64-5.82-3.86-4.28-7.57,1.06-2.57,3.14-3,6.51-1.28a24.13,24.13,0,0,0,6.68,1.42c3.81.33,5.12.14,7-1a10.21,10.21,0,0,1,4.33-1.41c1.54,0,2.48-.71,4-3,1.83-2.77,2.07-2.91,3-1.7a5.1,5.1,0,0,1,1,1.91c0,.33,1.8.6,4,.6,3.83,0,5.75.89,6.45,3,.15.44,1.4.86,2.78.93,2.91.15,3.52-1.06,3.64-7.31a24.44,24.44,0,0,1,.89-6.11l.82-2.34,2.45,1.86a9.26,9.26,0,0,0,4.68,1.87,7.67,7.67,0,0,1,4.73,2.19c2.74,2.41,5.61,3.71,8.18,3.71a6.9,6.9,0,0,1,3.68,1.84c2.52,2.34,4.6,2.34,6.76,0a5.82,5.82,0,0,1,3.49-1.84,7.17,7.17,0,0,0,3.65-1.48q3.47-2.72,2.11-.17c-.39.71-.91,4.27-1.17,7.92l-.46,6.62L175,158c2.15,1.64,3.55,3.35,3.82,4.67.41,2,2.09,3.16,6.31,4.47,1.21.37,1.2.55-.18,2.81-1.87,3.06-1.87,5,0,8.5a8.13,8.13,0,0,1,1,5.8c-.37,2.48-.1,3.59,1.46,6.07,3.18,5,2.49,8.21-1.79,8.21-2.36,0-3.59.68-7.66,4.19-4.39,3.8-4.85,4.46-4.85,7,0,2.32.26,2.81,1.47,2.81a1.3,1.3,0,0,1,1.48,1.45c0,2.29-2.9,7.26-5.17,8.88a14.75,14.75,0,0,0-3.67,4.77c-3.08,6.36-11.39,11.23-16.22,9.49Z"/>

  <path data-tip="جوانرود" id="IR-2204" class="cls-1" d="M154.68,126.1a60.76,60.76,0,0,1-4.15-6.81,57,57,0,0,0-3.21-5.59L146,111.79l3.28-3.22c2.14-2.1,3.29-3.87,3.3-5.09a6.54,6.54,0,0,1,1.11-3.3c1.65-2.19,1.32-3.36-.95-3.37s-6.18-1.83-7-3.36c-.7-1.25-4.71-1.39-7.65-.27-1.77.68-2.24.56-3.36-.82a8.35,8.35,0,0,1-1.3-5c0-3-.28-3.6-2.4-5a16.25,16.25,0,0,0-5.43-2.07,9.09,9.09,0,0,1-5.06-2.6c-1.94-2-2.23-2.1-7-1.69l-5,.42L108,73.52c-.55-3.3-2.35-8.34-3.46-9.68a4.43,4.43,0,0,0-2.93-.92c-3.25,0-4.8-1.15-5.32-3.94-.35-1.88-1.26-3-3.59-4.59-6-4-6.43-4.59-6.41-9.1,0-3.42.16-3.86.85-2.63.45.81.91,1.58,1,1.7s.85-.17,1.66-.68c1.29-.81,1.95-.56,5.23,1.94C97.41,47.46,98.75,49,98.75,50c0,2.13,6.22,10.79,8.68,12.08,1.16.61,5.55,1.27,10.48,1.58,4.66.29,9.4.9,10.55,1.35a13.58,13.58,0,0,0,4.24.83c1.44,0,3.09.83,4.87,2.47l2.7,2.47-1.65,2.67a8.62,8.62,0,0,0-1.42,4.71c.21,1.8.58,2.07,3.13,2.28a13.7,13.7,0,0,0,5.53-.91,36,36,0,0,1,5.69-1.8c3-.64,3.12-.58,4.79,2a17.36,17.36,0,0,0,6.15,4.92c3.3,1.72,4.8,3,5.94,5.22l1.52,2.9,6.71.37c6.28.35,6.81.5,8.34,2.46s1.94,2.07,6.12,1.84,4.53-.16,5.49,1.84c.56,1.14.84,2.25.64,2.45a12.59,12.59,0,0,1-3.57.78c-4.41.57-5.26,1.42-4.81,4.79.35,2.65.27,2.79-1.67,2.79q-3.57,0-11.49,8.52c-3.19,3.43-4.12,4-6.4,4-2,0-4,.88-7.51,3.31L157,129.23l-2.28-3.13Z"/>

  <path data-tip="گیلانغرب" id="IR-2212" class="cls-1" d="M188,286.47a52.57,52.57,0,0,0,16.39,9.33,16.77,16.77,0,0,1,4.9,2.58h0c.45.54.78.86,1.16.94.69.13,1.53-.62,3.51-2.59,2.74-2.74,3.89-5.29,3.2-7.09-.21-.54-3.31-1.92-6.9-3.08-9-2.91-16.53-6.13-18.49-7.94a19.71,19.71,0,0,1-3.28-5.11c-1.29-2.86-2.41-4-5.53-5.83-6.11-3.49-6.36-3.89-5.82-9.21s.43-5.54-5.8-6.27c-2.42-.29-4.5-.8-4.61-1.13-.58-1.72-3.27-5.49-4.07-5.71-5.59-1.57-7.57-2.51-9.57-4.56a9,9,0,0,0-6.07-2.92c-4.23-.58-9.23-4-9.23-6.31,0-.79-1.44-2.84-3.21-4.56a27.15,27.15,0,0,1-4.38-5.39c-1.59-3.06-5.81-6.66-8.52-7.25-2.18-.48-4.75.62-7.42,3.17-.77.74-2.24.89-5.52.57-12.33-1.24-12.4-1.26-10.44-4.34,1.61-2.56.29-4.6-5.38-8.27-3.92-2.53-5.32-3.91-6-5.85-.46-1.39-3-5-5.68-7.92s-5.84-6.61-7.05-8.1A13.21,13.21,0,0,0,71,180.5c-1.55-.59-5.67,1.33-7.31,3.43a12.29,12.29,0,0,1-3.05,2.68c-1.26.68-1.53,1.32-1.22,2.9a3.17,3.17,0,0,1-1.12,3.41c-1.32,1.2-2.3,1.32-7.34.93-3.19-.24-6.24-.54-6.77-.66s-1.43.73-2,1.89c-1.52,3,.05,4.34,5.79,4.76,4.1.29,4.63.53,5.91,2.62,1.91,3.14,1.77,5.82-.45,8.45-1.65,2-1.78,2.55-1.19,5.19a26.32,26.32,0,0,0,4.07,7.5c1.87,2.49,3.4,5,3.4,5.54s-1.85,2.93-4.1,5.27c-9.46,9.81-11.08,19.48-3.77,22.59a28.19,28.19,0,0,1,5.66,3.87,35.65,35.65,0,0,0,5.25,3.85,6.19,6.19,0,0,1,2.79,3.86,7,7,0,0,0,3.9,4.71,11.39,11.39,0,0,0,2.25.77c1.59.39,2,.24,2-.72a6,6,0,0,1,2-3c2.47-2.28,7.19-2.53,8.32-.43s6.18,3.13,10.26,1.89a25.11,25.11,0,0,1,5.52-1c2.54,0,5.34-2.8,7.89-7.85a19,19,0,0,1,2.54-4.12c1.48-1.09,3.58-.5,7,1.93a26.68,26.68,0,0,0,5.11,3,4.62,4.62,0,0,1,2.41,2.21c.59,1.3,1.55,1.78,4.06,2.07a14.54,14.54,0,0,1,6.37,2.56c3.91,2.78,9.93,4.77,13.54,4.47l2.8-.23-.14-4.24c-.14-4.19-.12-4.24,1.71-3.78a41.66,41.66,0,0,1,5.9,2.83c.66.36,1.34.73,2,1.11.43.25.91.53,1.44.82,3.5,2,8.82,4.82,12.69,6.8A87.89,87.89,0,0,1,188,286.47Z"/>

  <path data-tip="قصرشیرین" id="IR-2213" class="cls-1" d="M87.49,290.35c-3.6-1.54-12.6-9.82-13.36-12.31-.39-1.3-1.16-2.16-1.93-2.16a7.89,7.89,0,0,1-2.53-.41,9.3,9.3,0,0,1-5.45-5.4c-1-2.36-2.18-3.85-3.24-4.18a19.56,19.56,0,0,1-4.84-3.43,25.26,25.26,0,0,0-5.69-4c-3.15-1.31-4.77-4.35-4.76-8.93,0-5.46,3.07-11,10.13-18.44a6.9,6.9,0,0,0,1.66-2.32A28.13,28.13,0,0,0,54.21,224c-2.62-3.37-3.37-5-3.77-8.27-.44-3.46-.29-4.31.94-5.69,2.38-2.64,2.5-3.23,1.18-6-1.19-2.5-1.43-2.63-5-2.64a15.39,15.39,0,0,1-5.58-.95c-1.55-.8-1.83-1.45-1.77-4.09.1-5,1.11-5.51,8.59-4.42s8.66.53,8.66-3.53c0-2,.4-2.68,1.85-3.35,1.29-.58,1.74-1.25,1.47-2.19l-.8-2.84c-.68-2.4.34-5.52,2.67-8.13a10.7,10.7,0,0,0,2.18-3.08c0-.35-1.17-1.13-2.58-1.72-2.46-1-2.58-1.25-2.58-4.72,0-4.23-1.06-5.18-5.79-5.18-2.56,0-3.14-.33-4.53-2.58a10.17,10.17,0,0,0-1.93-2.58,11.15,11.15,0,0,0-2.22,1.24c-1.56,1-2.29,1.09-4.13.4s-2.54-.63-3.77.23A8.77,8.77,0,0,1,33.06,155c-2.13,0-3.13-.49-4.62-2.27a7.91,7.91,0,0,1-1.91-3.63c0-1.21-4.75-5.89-6-5.89-.26,0-.64,1.08-.84,2.4a24.21,24.21,0,0,1-1.3,4.67c-.84,2-.76,2.68.64,5.58,1.8,3.72,2.1,9.51.64,12.4a9.84,9.84,0,0,1-3.63,3.3l-2.7,1.46-1.82-1.7c-1.75-1.65-1.88-1.66-3.74-.44-1.68,1.1-1.87,1.6-1.45,3.93a10.79,10.79,0,0,0,1.27,3.65,15.75,15.75,0,0,1,1.28,5.23c.53,4.48,4.79,14.5,6.44,15.14.58.22,1.27-.5,1.73-1.83.64-1.83,1.17-2.21,3.11-2.21a5,5,0,0,1,3.51,1.36,17.05,17.05,0,0,0,2.63,2.39,14.6,14.6,0,0,1,3.16,4.34c1.53,3,1.64,4,1.24,10.53s-.63,7.49-2.85,10.58c-2.36,3.28-2.38,3.39-1,4.41s3.3,5.93,3.32,8.52c0,.78-1.2,1.69-3.33,2.5a14.69,14.69,0,0,0-5.06,3.32,7,7,0,0,1-3.41,2.28c-1.19.17-1.95,1-2.55,2.83a6.06,6.06,0,0,1-2.44,3.3c-2.11,1-2.6,2.45-1.25,3.81s1.34,1.95.35,5.54c-.74,2.64-5,7.24-6.79,7.24-1,0-5.72,4.4-5.72,5.31,0,.32.66.59,1.47.59,1.3,0,1.48.49,1.48,4,0,3.26.27,4.17,1.46,4.81a2.71,2.71,0,0,0,3.14-.26,18.87,18.87,0,0,1,6.27-1.43c4.52-.37,4.62-.34,5,1.58a24.23,24.23,0,0,0,4.78,10.06A25.4,25.4,0,0,1,26.8,297,13,13,0,0,0,30,300.86c3.92,2.94,4.06,3.15,3.65,5.66-.34,2.08-.16,2.46,1.21,2.66,1,.15,1.86,1,2.34,2.51a12.57,12.57,0,0,0,1.66,3.39A15.32,15.32,0,0,1,40.51,320c.79,4.14,1.6,6.06,3.69,8.18.28.28.58.57.92.87h0l2.16,2L50.35,329c2.65-1.77,3.59-2,6.82-1.69,3.7.36,3.76.33,5-2.25A6.49,6.49,0,0,1,64.79,322c1.68-.53,3.31-2.91,4-5.9.3-1.21,2.21-4,4.25-6.12,3.42-3.61,3.66-4.12,3.24-6.64-.92-5.57-.93-5.55,1.58-6.29,1.87-.54,3.44-.34,7.2.93l4.82,1.63,2.75-1.64a17.82,17.82,0,0,0,3.47-2.6,3.22,3.22,0,0,0,1.12-1.83c0-.11-.22-.25-.58-.41a17.37,17.37,0,0,0-3.12-.92A42.05,42.05,0,0,1,87.49,290.35Z"/>

  <path data-tip="ثلاث باباجانی" id="IR-2203" class="cls-1" d="M126.75,146.24c0-1.81-2.49-3-6.27-3-3.29,0-4-.24-4.41-1.45a5.19,5.19,0,0,0-2.45-2.41c-1.66-.79-2.08-1.62-2.6-5.09s-.39-4.69.93-7.68c1.08-2.42,1.33-3.76.81-4.29-1-1-15.47,1.47-16.54,2.88-1.39,1.84-6.18,3.43-7.76,2.58-2.37-1.26-4-.84-5.27,1.35a5.51,5.51,0,0,1-8.16,1.6c-2.66-2-5-1.88-9.59.35a20.43,20.43,0,0,1-5,1.86,17.06,17.06,0,0,0-4.28,1.44l-3.13,1.42-.46-2.91c-.34-2.15-.82-2.91-1.8-2.91-2,0-2.47-1.38-1-3,1.21-1.34,1.16-1.49-1.16-3.45a23.61,23.61,0,0,0-4.7-3c-2-.84-2.11-1.08-1.1-1.84a8.89,8.89,0,0,0,2-3.42,14.69,14.69,0,0,1,2.19-4,15.76,15.76,0,0,0,2.27-4.36c.89-2.61.84-3-.55-4.36L47.23,101l3.61-3.56c4-3.93,4.81-4.25,5.38-2.08s5,2,7.84-.43a5.13,5.13,0,0,0,2.26-4.86,9.26,9.26,0,0,0-1.56-5.15c-1.32-1.85-1.43-2.49-.72-4.06s1-1.7,1.92-1a2.56,2.56,0,0,0,2.27.44c.76-.3,1.7.19,2.61,1.34,2.85,3.62,6.54,3,6.54-1.1,0-2.93,1.28-6,3.07-7.2,1.37-1,1.48-1.56,1.07-5.53-.31-3-1-5-1.94-6-1.66-1.77-1.76-2.6-.74-6.26,1.1-3.94,2.91-4.7,7-2.94,5.33,2.28,8.37,5,8.91,7.82s2.07,4,5.69,4c2.34,0,2.66.29,4.1,3.64a19.78,19.78,0,0,1,1.57,5c0,4.24.57,4.65,6.21,4.65,4.68,0,5.52.21,7,1.79a9,9,0,0,0,4.73,2.28,16.24,16.24,0,0,1,5.44,2.08c2.13,1.41,2.4,2,2.4,5a8.16,8.16,0,0,0,1.38,5.12c1.32,1.63,1.52,1.66,5.59.75,3.91-.88,4.34-.84,5.81.5,2.2,2,4.51,3.11,6.48,3.11,1.3,0,1.48.2.79.89a4.81,4.81,0,0,0-.89,2.93c0,1.48-.91,2.89-3.31,5.1-1.83,1.68-3.32,3.63-3.32,4.33,0,1.39,3.08,7,7.74,14.25,3.46,5.35,5.15,6,8.87,3.11l2.53-1.93,2.59,4.05c4.23,6.61,4.62,7.78,3,9a6.1,6.1,0,0,1-3,1c-1.66,0-4,1.74-4,3s-1.28.76-3.55-1.16a8,8,0,0,0-4.16-1.84c-2.37,0-4.54-1.05-7.1-3.43a10.63,10.63,0,0,0-4.75-2.24,18.49,18.49,0,0,1-5.93-2.55,20.67,20.67,0,0,0-3.53-2.1c-.94,0-2.67,5.5-2.67,8.48,0,5.2-.75,7.74-2.3,7.74-.76,0-1.38-.31-1.38-.69Z"/>

  <path data-tip="پاوه" id="IR-2202" class="cls-1" d="M174.78,41.87a5.4,5.4,0,0,1-1.94.55,10.56,10.56,0,0,1-3.36-.76c-1.42-.57-2.95-2.93-6.21-9.63-2.39-4.89-5.47-10.59-6.84-12.66-2.77-4.17-9.69-10.09-19.72-16.88C135.56,1.71,134.4.87,133.25,0L121.67,8.36c-4.17,4.07-4.18,4.09-2.45,5a20.17,20.17,0,0,0,6.23,1.08c3.58.14,4.84.53,6.21,1.89,2.45,2.46,2.17,6.81-.45,6.81-1.17,0-3.58,2.13-4.73,4.18a4,4,0,0,0,.38,2.78c.63,1.39.65,2.14.07,2.73s-.26,1.27,1.16,2.51c1.88,1.64,1.92,1.81.84,3.78a7,7,0,0,1-3.5,2.85,10.36,10.36,0,0,0-3.26,1.65c-1.06,1.07-5.74,1.19-5.74.15s-2.33-.86-3.81.48c-1.65,1.49-1.81,4.68-.25,4.68s1.42,2.53-.05,4-4,1.5-4,0c0-.68-.69-1.1-1.82-1.1A4.64,4.64,0,0,1,103,49.64c-1.41-1.9-1.74-2-2.31-1-.88,1.58,5.58,11.17,8.27,12.27,1,.43,5.74,1,10.43,1.32s9.23.9,10.08,1.36a10,10,0,0,0,3.93.83c2.61,0,8.78,4.45,8.78,6.33a12,12,0,0,1-1.91,4c-1.06,1.59-1.7,3.24-1.43,3.67a2,2,0,0,0,1.52.78c1.55,0,10.72-2.92,13-4.14a24.26,24.26,0,0,1,7-1.51c6.45-.58,7.19-1,8.27-4.88s3.05-5.21,9.11-6.33a27.89,27.89,0,0,0,3.58-.91c-1.39-3.52-2.26-6.62-2.26-8.26,0-2.71-2-8.31-3-8.31a.61.61,0,0,1-.65-.56Z"/>

  <path data-tip="اسلام آباد غرب" id="IR-2201" class="cls-1" d="M213.68,303.48a9.47,9.47,0,0,0,3.07,2.27,5.81,5.81,0,0,1,2.48,2.78c1.48,3.05,10.68,9.39,10.68,7.35,0-1.54,3.11-3.9,5.15-3.9,1.17,0,4.7,1.33,7.83,2.95h0c7,3.63,9.8,3.9,12.71.58.35-.41.7-.85,1.07-1.36,2.13-3,3.7-3.57,6.63-1.84a22.56,22.56,0,0,1,2.21,1.53l3.4,2.59,1.1-1.68c.12-.18.24-.39.37-.62,1.25-2.3,3-7.13,3-8.44,0-.24-.31-.61-.81-1a12.71,12.71,0,0,0-2.39-1.48c-3.9-1.88-4.9-3.9-4.9-9.85,0-3.81-.31-4.93-1.84-6.71a8.25,8.25,0,0,1-1-8.92c.71-1.56.64-2.65-.39-5.75a52,52,0,0,1-1.79-7.88l-.54-4.05L255,257.71c-4-2-4.86-2.74-5.7-5.16a18.86,18.86,0,0,1-1-4c0-1.52-2.58-3.82-6.37-5.72-3.3-1.66-3.95-2.68-4-6.25a12.87,12.87,0,0,0-1.66-5.21c-1.5-2.62-2.26-3.08-8.64-5.25-3.85-1.31-8.83-3.24-11.06-4.31a23.76,23.76,0,0,0-5-1.93c-1.45,0-1.08-2.59.59-4.09a3.87,3.87,0,0,0,1.29-3.25c-.18-1.52-.67-1.92-2.57-2.11s-2.39-.58-2.58-2.21c-.16-1.34-.59-1.88-1.33-1.68-5.83,1.59-8.84,0-10.31-5.62-.94-3.54-3-6.1-4.88-6.1-.57,0-1,.63-1,1.41,0,2.91-.82,3.75-3.7,3.75-2.35,0-3.59.67-7.66,4.19-4.88,4.22-6.18,6.86-3.37,6.86,1.21,0,1.47.49,1.47,2.79a14.06,14.06,0,0,1-4.77,9.85,23.44,23.44,0,0,0-4.24,5.6,17.85,17.85,0,0,1-6.7,6.91c-2.43,1.57-4.86,2.85-5.41,2.85s-1,.29-1,.65c0,1.19,2.27,2.54,5.76,3.41,2.62.66,3.85,1.48,5.1,3.38,2.7,4.12,3.06,4.35,6.72,4.35a10.59,10.59,0,0,1,4.91,1c1.37,1,1.41,1.31.9,8.45-.16,2.3.14,2.65,4.61,5.37,4.16,2.52,5.07,3.48,6.87,7.28,1.92,4.07,2.42,4.54,7,6.73a132.34,132.34,0,0,0,13,5c8.06,2.63,8.11,2.66,8.35,5.13.36,3.83-.31,5.44-3.68,8.77l-2.54,2.52-.56.56Z"/>

  <path data-tip="سنقروکلیایی" id="IR-2207" class="cls-1" d="M423.62,133l.11,0,.84.34h0l1.39.59.41.17.07,0,.34.12.09,0,.34.09h.05l.29,0h0a1.35,1.35,0,0,0,.28,0l.06,0a1.08,1.08,0,0,0,.28-.11,1.83,1.83,0,0,0,.36-.26l0,0a2.76,2.76,0,0,0,.71-1.37v0a4.27,4.27,0,0,0,.11-.56.51.51,0,0,0,0-.13c0-.21.06-.44.08-.67.33-4.53.17-6.1-.77-7.53a7.91,7.91,0,0,1-1.19-3.59,3.82,3.82,0,0,0-1-2.59,10.87,10.87,0,0,1-1.93-4,17.78,17.78,0,0,0-3.07-5.56c-1.16-1.33-2.12-3-2.12-3.63,0-1.88,2.25-3.9,4.35-3.91a.35.35,0,0,0,.13,0c3.34-1,8.2-10.52,5.27-15.18-.07-.11-.12-.23-.19-.34-2.54-3.4-8.73-2.24-9-4.37-.07-.48.23-.62,2.52-3.47,2.46-3.06,3.21-4.27,2.87-5.41a2.16,2.16,0,0,0-.69-1h0c-.71-.59-2-.66-5.66-.66a26.33,26.33,0,0,1-4.62-.21c-1.4-.29-2-1-3.51-2.56s-3.17-2.76-3.95-2.76a3.73,3.73,0,0,1-2.29-.88c-1.24-1.24-1.11-4.65.22-5.75a2.83,2.83,0,0,0,.93-1.29c.41-1.23-.39-2.65-2.4-4.19-1.42-1.08-2.58-2.46-2.58-3.07s-1.25-1.6-2.77-2.21-4-1.75-5.46-2.55c-2.4-1.29-3.08-1.36-6.05-.56s-3.67.73-7.19-.91c-3.2-1.5-4.77-1.77-9.37-1.59a26,26,0,0,0-8,1.39,10.55,10.55,0,0,1-6,.76c-2.9-.35-4-.11-6.41,1.35-3.32,2-5.72,2.25-8.59.75a9.16,9.16,0,0,0-4.91-.63,16.57,16.57,0,0,0-1.65.26,18.91,18.91,0,0,0-3,.85c-2.2.83-2.44,1.34-1.22,2.56a3.44,3.44,0,0,1,.55,2.55c-.2,1.43-.71,1.75-2.83,1.83l-1,0c-.83,0-1.47.07-2,.13a7.71,7.71,0,0,0,1.15,2.47l1.73,2.42-2.28.8-.65.24-.16.08-.36.17-.16.11a2.07,2.07,0,0,0-.24.17l-.12.13a1.8,1.8,0,0,0-.19.21s0,0,0,0a4.49,4.49,0,0,0-.36,2.34,9.69,9.69,0,0,0,.45,2.48,14.47,14.47,0,0,0,1.4,3.18c.19.3.36.6.52.9a12.72,12.72,0,0,1,.79,1.87,6.54,6.54,0,0,1,.19,4.45c-.06.16-.11.31-.18.46l-.12.24a4.86,4.86,0,0,1-.33.54s0,.07-.07.1l-.05.06A5.11,5.11,0,0,1,323,78.45c-2.58.65-5.55-.88-7.22-3.72-1.78-3-3.62-3.31-6.93-1.12l-.5.31a7.82,7.82,0,0,1-3,1.16c-1.68,0-3.55-2.8-3.55-5.32s-2.6-3.48-4.76-2a6.12,6.12,0,0,0-.5.39c-1.7,1.54-1.59,2.6.86,8.16.25.58.47,1.1.65,1.58,1.48,3.86.58,4.58-3.79,4.14a30.41,30.41,0,0,1-5.85-1.13c-1.65-.62-2.46-.36-5.43,1.72-3.77,2.66-5.57,5.89-5.57,10,0,2.13.76,3.34,4.73,7.47.27-.13.55-.27.89-.42,4.57-2,7,2.11,12.49.64,2.53-.68,3.71-2,5.58-1.5.5.14,2.19.74,3.12,0a2.12,2.12,0,0,1,.47-.32,2.59,2.59,0,0,1,2,.3c1.28.59,2.16.49,3.69-.4,1.68-1,2.43-1,4.48-.28A18.06,18.06,0,0,0,320,99c2.85,0,3.48.47,5.7,4.21a12.43,12.43,0,0,0,4.36,3.87,15.53,15.53,0,0,1,4.59,3.72,4.35,4.35,0,0,0,4.13,2.2c2.11,0,2.64.36,3.34,2.21.46,1.22,1.24,2.21,1.73,2.21s1.1.67,1.36,1.48c.56,1.77,2.59,1.89,5.61.32,1.79-.92,3.1-1,6.73-.46,4,.6,4.91.49,8.29-1.06a40,40,0,0,1,13.37-3.22c1.35,0,1.74.4,1.74,1.79s-.59,2-2.58,2.73c-1.42.51-2.58,1.11-2.58,1.34s3.24,2.1,7.19,4.18c6.71,3.52,11.67,5.1,17.87,5.69,3.65.34,5.44.42,7,0,1.09-.31,1.42-.94,3-1.49a6,6,0,0,1,3.54-.53c1.46.38,1.48,1.44,3.13,2.66,1.26.94,1.68.63,4.42,1.52l.7.23Z"/>

  <path data-tip="صحنه" id="IR-2208" class="cls-1" d="M386.81,181.33c1.78-1.78,4.28-1.26,11.4,2.35,1.05.53,2.09,1.11,3.12,1.75l1.72-1.62c2.33-2.18,2.87-3.24,3.19-6.28.5-4.86,2.54-6.62,6.95-6,2.91.4,3.17.29,3.61-1.47.75-3-2.15-5.38-7.12-5.87-6.12-.61-7.34-1-7.34-2.19a1.94,1.94,0,0,0-1.29-1.58,19,19,0,0,1-3.36-1.9c-1.84-1.27-2.06-1.84-1.87-4.79s0-3.46-1.43-4.08c-2.54-1.14-2.22-4.58.52-5.53l2.14-.75L396,140.2a9.28,9.28,0,0,1-.39-5.9l.69-2.72-3.3-.83a81.11,81.11,0,0,1-11-4.63c-6.73-3.34-7.66-4-7.66-5.69,0-1.46.63-2.15,2.77-3.11l2.76-1.24-3.32.41a48.46,48.46,0,0,0-8.9,2.58c-5.07,2-6,2.11-9.57,1.45-3.1-.56-4.42-.49-6,.31-2.85,1.48-8,1.39-8-.13a1.89,1.89,0,0,0-1.48-1.56,2,2,0,0,1-1.47-2.07c0-1.93-1.57-2.76-4.06-2.13-1.4.35-2.06-.06-3.39-2.09a15.94,15.94,0,0,0-5-4.31,11.82,11.82,0,0,1-5.08-4.91c-1.64-3-1.88-3.13-5.16-3.14a12.22,12.22,0,0,1-4.49-.67,2.39,2.39,0,0,0-2.59.34c-1,.68-3.22.94-6.66.78a20.66,20.66,0,0,0-7.43.73,7,7,0,0,1-6.78-.63c-.62-.48-.92-.45-.92.09,0,1.2,2.93,2.82,6.12,3.38,3.95.7,5.94,2.87,5.44,6-.35,2.16-.17,2.52,1.65,3.16s5.95,6.41,5.95,8.43c0,.41-1.5,2.35-3.32,4.3-2.34,2.5-3.31,4.17-3.31,5.66,0,2.22-3.94,8.86-5.65,9.51-1.24.48-1.29,4.21-.07,5.23a26.52,26.52,0,0,0,5.11,2.16c4.73,1.6,6.75,1.07,9-2.34,1.38-2.11,3.15-2.33,8.05-1,2.64.7,3.8.64,6.77-.37,4.53-1.55,6.9-1.55,8.61,0,.74.67,1.34.86,1.34.42s1.07-1.33,2.38-2c4.63-2.32,9.22.62,7.12,4.55-.87,1.61-.81,1.95.43,2.86a5.32,5.32,0,0,0,2.45,1,12.56,12.56,0,0,1,3.54,1.19c3.44,1.63,3.27,3.55-.49,5.47-3.51,1.79-3.64,3.66-.31,4.65,4.85,1.45,5.52,1.91,5.52,3.74,0,1.58.41,1.87,3.37,2.32,1.87.28,3.56,1,3.78,1.56.73,1.89-1.19,4.7-4,5.88-3.94,1.64-5,3.47-2.45,4.28a7.8,7.8,0,0,0,4.14-.69c3.17-1.32,9.18-1.53,9.18-.32,0,.5.7.64,1.79.37,2.3-.58,5.58.66,5.58,2.11,0,.76.72,1.13,2.19,1.13,1.75,0,2.3.39,2.68,1.89a6.71,6.71,0,0,1-.38,3.77c-.91,2-.3,3.32,2.23,4.62a9.5,9.5,0,0,0,1.38-4.48C385.48,183.48,385.65,182.49,386.81,181.33Z"/>

  <path data-tip="کرمانشاه" id="IR-2210" class="cls-1" d="M354.41,269.77c-.18-4.84-.48-6.64-1.13-6.89a31.57,31.57,0,0,1-4.68-5.06c-2.74-3.4-3.79-5.25-3.79-6.61a10.83,10.83,0,0,1,.06-1.09c-1-1.42-1.12-4.14,0-4.82,1.86-1.16.2-5.81-3.5-9.8-1.11-1.2-1.17-2.12-.17-2.74a.88.88,0,0,0,.28-1.21c-.31-.5-.72-.49-1.26,0-1.19,1.19-1.75,1-2.34-.86-.45-1.4-.59-1.46-.88-.37-.56,2.1-1.71,1.48-1.71-.92,0-1.86-.28-2.21-1.84-2.21-2,0-2.38-1.3-1.07-3.74.59-1.11.51-1.54-.37-1.87a1.65,1.65,0,0,1,.66-3.23c2.25,0,2.58-.55,3.13-5.14.38-3.27.85-4.06,3.91-6.72l3.48-3-1.74-1.74c-2.29-2.29-2.45-6.91-.26-7.48,1.76-.46,1.86-1.18.35-2.44-.77-.64-1-1.65-.68-3.27.62-3.32-1.05-4.62-3.36-2.61-1.19,1-2.76,1.47-5.22,1.47-3.89,0-5.54-1.12-6.3-4.29-.93-3.87-3.2-7.5-4.69-7.5a28.57,28.57,0,0,0-6.32,2c-4.68,1.92-4.92,1.94-5.87.65a15.46,15.46,0,0,1-1.43-5.5c-.63-5.83-1.59-7.15-7.8-10.7-5.05-2.88-5.47-3.31-5.37-5.42a14,14,0,0,1,1.29-4.68c1.13-2.26,1.11-2.43-.29-3.41-1.87-1.31-2.15-7.9-.37-8.59s5.53-7.16,5.53-9.47c0-1.41,1-3.13,3-5.33l3-3.24-1.53-3a8.12,8.12,0,0,0-4.09-4.07c-2.74-1.14-3-1.85-1.78-4.19,1.09-2-.16-3.34-4.51-4.63-4.66-1.39-6.6-2.47-6.6-3.69s-2.83-1.85-5.12-1.42c2.31,2.49,3.93,4.7,3.69,5.1a1.65,1.65,0,0,1-1.15.7,4.57,4.57,0,0,1-3.36-1c-1.75-1.32-4.89-1.45-6.09-.24s-1.07,2.76.72,3.94a8.78,8.78,0,0,0,1,.59c1.79.85,2.56,1.67,2.38,2.54-.27,1.36-1.47,1.45-7,.51-2.51-.42-3.5-.23-5.29,1-2.7,1.92-2.92,1.92-5.65-.12-.19-.14-.36-.26-.54-.37l-.1-.07-.34-.2-.57-.28c-1.32-.57-2.94-.74-6-.78-3.2,0-5.79-.44-6.48-1a3.22,3.22,0,0,0-1.51-.57,17.51,17.51,0,0,1-3.16.78c-.84,0-1.5,1-1.7,2.27a4.2,4.2,0,0,0,.11,2,6.46,6.46,0,0,0,2.63,2.62c2.65,1.58,2.84,3.23.46,4.14a9.76,9.76,0,0,0-3.36,2.72l-1.62,2,1.89,1.38c1.48,1.08,1.89,2,1.89,4.29,0,1.83-.39,3.05-1,3.31-1.81.69-3.53,5.47-3.68,10.21-.18,5.67-2.26,9.71-4.85,9.41a4.19,4.19,0,0,0-2.89.88c-1.51,1.36-6.56.39-8-1.53-1.26-1.72-7.15-1.4-9.87.54a8,8,0,0,1-3.86,1.41c-1.59,0-2-.43-2.4-2.76-.69-3.69-2-4.56-7.18-4.59-5.73,0-9.48-2.11-11.48-6.34-1.46-3.11-1.49-3.13-5.36-3.08a27.4,27.4,0,0,1-5.84-.51c-1.75-.49-2-.29-2.72,1.92a43.68,43.68,0,0,0-1.2,7.25l-.43,4.79,2.9,2.21a16.63,16.63,0,0,1,4.25,5.15c1.09,2.37,1.92,3.09,4.3,3.75,3.63,1,4,2.37,1.75,6.6-1.69,3.18-1.69,3.21-.25,4.8,1.07,1.18,1.47,2.72,1.51,5.93.09,5.83,2,9.29,5.94,11,2.71,1.18,3.2,1.8,4.46,5.58,1.81,5.43,4.05,7.3,7.3,6.07,3-1.12,4.71-.41,4.71,1.95,0,1.66.23,1.82,1.93,1.4,2.4-.61,3.21.54,3.22,4.6,0,1.88-.43,3.41-1.15,4-1,.83-.54,1.25,3.5,3.1,4.26,2,6.28,2.73,15.92,6.18a9.73,9.73,0,0,1,6.06,9.12c0,3.35,1.11,4.91,4.61,6.46,4,1.75,4.66,2.63,6.33,7.92,1.33,4.19,1.49,4.37,6.08,6.56l4.72,2.25.57,4.69a35.24,35.24,0,0,0,1.66,7.27,12.59,12.59,0,0,1,.21,9.5c-.78,2.16-.67,2.68,1.11,5.25,1.59,2.29,2,3.7,2,7.23,0,4.83,1.11,7.44,3.66,8.8a6.57,6.57,0,0,0,4.09.35,10,10,0,0,0,5.3-2.68c1.81-2,2.14-2,8.4-.55,1.56.35,2.06.13,2.45-1.1.57-1.79,2.25-2.05,2.87-.45.91,2.39,5.08,4.06,10.14,4.06,3.46,0,5.16.33,5.81,1.12s1.77,1,4.41.66c3.1-.42,3.82-.22,6.61,1.8,3.76,2.72,5.92,2.2,5.92-1.41a2.65,2.65,0,0,1,2-3c4.63-1.86,5.61-2.59,6.57-4.87.55-1.32,1.33-2.4,1.73-2.4,1.3,0,3.67-2.91,3.67-4.52,0-1-2.56-4.18-7-8.7-3.85-3.92-7-7.69-7-8.37,0-2.67,7.09-.73,10.51,2.88,2.22,2.34,5.16,2.31,6.44-.08,1.14-2.13,3.61-2.4,7.46-.82a6.06,6.06,0,0,0,3.76.45C354.53,272.66,354.47,271.42,354.41,269.77Z"/>

  <path data-tip="هریس" id="IR-2214" class="cls-1" d="M351,239.62c3.75-.22,3.8-.26,3.58-2.43-.94-9.26-.95-10.82-.12-11.82,1.06-1.28,8.16-1.49,10.37-.3a3.24,3.24,0,0,0,4.75-1.63,18,18,0,0,1,3.07-4.39c2.05-2.27,3.12-2.86,5.12-2.86s2.74-.41,3.78-2.4a31,31,0,0,1,4.74-5.8c6-5.87,6.08-9.32.24-11a16.23,16.23,0,0,1-3.52-1.41c-3.43-1.88-4.58-4.62-2.84-7.38,1.05-1.65.08-3-2.14-3-1.43,0-2.17-.45-2.43-1.48-.32-1.2-1-1.47-3.73-1.47-1.84,0-3.55-.33-3.8-.74-.9-1.45-5.58-.26-9.41,2.41-.94.65-1.47.68-1.85.1a7,7,0,0,0-2.19-1.69c-3.15-1.66-1.63-4.84,3.5-7.31,2.55-1.23,4-3.82,2.08-3.83a21.87,21.87,0,0,1-3.77-.78c-2.26-.63-2.76-1.08-2.58-2.37s-.3-1.74-2-2.25c-5.22-1.58-5.53-1.83-5.53-4.41,0-2.08.42-2.7,2.58-3.87,1.42-.76,2.58-1.6,2.58-1.87,0-.55-3.11-1.8-6.1-2.46-2.65-.58-4.16-3.57-2.86-5.65.5-.8.74-1.73.52-2.07-.55-.9-3.35-1.51-3.35-.72,0,.36-.51.67-1.13.67a1.8,1.8,0,0,0-1.55,1.1c-.56,1.45-3.13,1.41-4.78-.08-1.2-1.09-1.59-1.09-4.79,0a17.28,17.28,0,0,1-11.27.36c-2.23-.78-2.51-.67-4.77,1.8-3.06,3.34-5.69,4-9.11,2.4-1.43-.68-2.88-1-3.22-.63-1,1-3.47,6.43-3.15,6.95a34.49,34.49,0,0,0,4.91,3.08c6.32,3.53,7.63,5.17,8.19,10.19.79,7.17,1.35,7.62,6.16,5a14.58,14.58,0,0,1,5.76-1.48c2.71,0,3.15.27,4.52,2.77a24.49,24.49,0,0,1,2,4.73,7.86,7.86,0,0,0,1.62,3.14c1.65,1.64,5.7,1.47,7.32-.32s4-1.93,5.38-.59a6.64,6.64,0,0,1,.88,3.68c0,2,.42,3.06,1.47,3.71,2.16,1.35,1.82,3.25-.73,4.14s-2.81,2.53-.37,5,2.32,4-.84,6.57c-4.26,3.5-4.76,4.13-4.36,5.41.5,1.62-1.38,6.93-2.64,7.44-.57.23-1,1.6-1.09,3.17-.07,2.24.18,2.77,1.29,2.77.76,0,1.38.41,1.38.92,0,.84,1.69,1.79,5.39,3,1,.32,1.29,1.05,1.13,2.56s.45,3,1.85,4.83h0c1.16,1.53,1.74,2.19,2.76,2.44A11.82,11.82,0,0,0,351,239.62Z"/>

  <path data-tip="کنگاور" id="IR-2211" class="cls-1" d="M438.78,180.79a3,3,0,0,1-.92-2.48c.27-1.93,3.86-2.51,5.63-.91a12.84,12.84,0,0,0,3.35,1.92c1.87.71,2.37.58,4.05-1,1.06-1,3-2.7,4.32-3.77,2.09-1.69,2.4-2.38,2.4-5.41,0-1.91.36-3.83.8-4.27s.47-1.43-.37-3.06c-1.38-2.67-1.47-4.54-.34-7a5.4,5.4,0,0,0,.25-.67.29.29,0,0,0,0-.09,5.36,5.36,0,0,0,.16-2.22l-.44.45a9.31,9.31,0,0,0-1.41-.83c-.47-.21-.28-.07-1.92-.62a1.92,1.92,0,0,0-1.4-.09l-.09,0c-.39.18-.93,0-1.69-.39-1.06-.57-1.4-.58-1.57-.06-.35,1-3,.77-4.05-.37a5.21,5.21,0,0,0-2.36-1.33,3.42,3.42,0,0,1-2.25-2c-.56-1.17-1.42-1.87-3.65-2.5a55.92,55.92,0,0,0-6.28-1.24q-8.14-1.31-9.29-4.35c-1.14-3.06-1.16-3.47-.16-5.34l0-.09c-3.27-.44-4.74-1.18-6.33-2.76-1.08-1.08-1.41-1-3.93.45s-3.43,1.57-8,1.19l-5.23-.44L397.4,134a7.61,7.61,0,0,0,.24,5.33c1.5,4.31,1.29,5.42-1.19,6.28q-4.08,1.42-.29,2.87c1.79.68,1.89,1,1.44,4s-.29,3.37,1.49,4.77a7.18,7.18,0,0,0,3,1.56c.56,0,1.32.78,1.68,1.73.59,1.55,1.25,1.79,5.92,2.12,6.46.46,8.86,2.22,8.86,6.5,0,3.55-1.41,4.7-5.05,4.12s-5.31,1.1-5.79,5.94c-.28,2.9-.81,3.94-3,5.83a10.76,10.76,0,0,0-1.6,1.64c-1.11,1.52-.1,2.37,3.51,3.91a20.56,20.56,0,0,1,5.2,3.28,15.68,15.68,0,0,1,1.42,1.39,5.16,5.16,0,0,1,1.59,3,4.25,4.25,0,0,0,.72,1.75,17.34,17.34,0,0,0,2.22,2.86c1.63,1.69,2.95,3.41,2.95,3.83h0c0,1.42,1.23.78,2.08-1.07.46-1,1.15-1.84,1.53-1.84s.7-.6,1.1-1.45a11.69,11.69,0,0,0,.46-1.16,8.24,8.24,0,0,1,2.64-3.77c1-.64,1.77-1.59,1.77-2.11,0-1.75,1.85-4.72,4.06-6.87a14.16,14.16,0,0,1,1.26-1.1l.45-.34c.19-.13.37-.25.56-.36a11.92,11.92,0,0,0,2-1.48C440.28,183.51,440.33,182.07,438.78,180.79Z"/>

</svg>
