<?xml version="1.0" encoding="utf-8"?>
<!-- Generator: Adobe Illustrator 22.1.0, SVG Export Plug-In . SVG Version: 6.00 Build 0)  -->
<svg version="1.1" id="Layer_1" xmlns="http://www.w3.org/2000/svg" xmlns:xlink="http://www.w3.org/1999/xlink" x="0px" y="0px"
	 viewBox="0 0 472.4 394.5" style="enable-background:new 0 0 472.4 394.5;" xml:space="preserve">
<path data-tip="بجنورد" id="IR-1202" d="M315.6,238.7c-0.7-0.4-1.5-0.6-2.3-0.5c-0.3,0.2-0.3-0.1-0.2-0.5c0.3-0.8-2.2-2-4.5-2.1
	c-0.8-0.1-1-0.6-1.1-2.3c-0.1-1.5-0.3-2.9-0.6-4.3c-0.4-1.8-0.8-2.2-2.7-2.9c-0.9-0.4-1.9-0.7-2.9-0.9c-0.4,0-0.5-0.3-0.4-0.5
	c0.3-0.5-0.9-2.7-1.5-2.7c-0.7,0.4-1.3,0.9-1.7,1.5c-1.2,1.3-1.6,1.4-3.9,1.2c-3-0.3-6.7,0.9-7.1,2.4c-0.6,1.1-1.5,2-2.4,2.7
	c-1,0.7-1.9,1.7-2.5,2.8c-0.6,1.9-3.4,2.8-9.8,3.3c-3.4,0.3-7.8,0.7-9.8,1.1c-2.7,0.4-4,0.4-4.8,0c-0.5-0.3-1.2-0.4-1.7-0.2
	c-0.4,0.3-0.5,0.1-0.2-0.3s0.2-0.6-0.5-0.4s-0.8,0.1-0.6-0.2s-0.7-1-1.9-1.6c-2.3-1.2-8.8-1.6-8.8-0.6c0,0.3-0.7,0.5-1.6,0.5
	c-0.7,0.1-1.4-0.1-1.9-0.5c-0.5-0.8-2.3-0.7-2.6,0.1c-0.1,0.4-1.2,0.7-2.5,0.7s-2.1-0.2-1.9-0.5s-0.1-0.4-0.6-0.2s-0.9,0.1-0.8-0.3
	s-0.4-0.7-1.1-0.6s-1.1-0.2-0.9-0.4s-0.5-0.5-1.4-0.5c-1.4,0-1.7-0.3-2-1.5c-0.2-0.8-1.1-3.6-1.9-6.2c-0.7-1.9-1.2-3.8-1.6-5.8
	c-0.2-1.1-0.7-2-1.4-2.9c-0.9-1.4-1.7-2.9-2.2-4.5c-0.3-1.1-0.8-2.2-1.5-3.1c-1.3-0.8-2.6-3.5-3.1-6.3c-0.6-3.3,0.1-9.7,1.8-14.9
	c1.3-4.1,1.3-4.7-0.1-7l-1.1-1.9l1.6-3.5c1.4-3,1.6-4.1,1.7-8.2c0-3.6-0.3-5.3-1.1-7.3l-1.1-2.6l1.8-1.9c1.7-1.7,2-1.9,5.3-1.9h3.4
	l0.8-2c0.7-1.8,2.2-3.4,3-3.5c0.5,0.4,1,1,1.3,1.6c0.5,0.9,1.3,1.6,2.2,1.9c1.7,0.4,6.1-0.6,9.3-2.2c1-0.5,2-1,3.1-1.3
	c0.6,0,1.4,2.7,1.9,5.9c0.1,1.4,0.9,2.8,2.1,3.5c1,0.7,2.2,1.7,2.8,2.2c1.4,1.3,2.3,1.2,3.4-0.4c0.4-0.7,1.1-1.2,1.9-1.4
	c1.3,0,4.9-3.8,4.9-5.2c-0.1-1.1-0.4-2.2-0.8-3.3c-0.4-1.2-1.6-4.7-2.5-7.8l-1.8-5.6l1.9-3.2c1-1.7,2.3-3.3,3.6-4.8
	c1.5-1.5,1.7-1.9,1.6-4.7c0-1.7,0.1-3.5,0.3-5.2c0.6-3.8-0.1-4.4-14.2-11c-2-1-4.1-1.8-6.3-2.6c-4.4-1.2-16.8-3.7-18.2-3.7
	c-0.8,0-1.5-0.2-1.5-0.5s-1.7-1.9-3.8-3.6c-2.9-2.3-4.5-3.2-6.6-3.6c-3-0.6-5.8-1.9-10.4-4.8c-2.8-1.8-3-1.8-3.7-0.9
	c-0.3,0.4-0.6,0.9-0.7,1.5c0,0.3-0.6,0.3-1.2,0.1s-4-1-7.4-1.7c-2.3-0.4-4.5-1-6.7-1.6c-1.8-0.4-3.7-0.7-5.6-0.9
	c-2.9-0.3-5.7-0.9-8.6-1.6c-2.4-0.7-5-1-7.5-1.1c-4.6,0-8.4-1.2-8.4-2.7c0.1-0.7,0.4-1.4,0.8-2c1.3-1.7,1-3.3-1-5.7l-1.9-2.3
	l1.9-2.8c1-1.5,1.8-3.1,2.2-4.9c0.3-1.5,1.1-2.8,3-4.7c4.7-4.6,3.8-5.5-6.4-6.2c-19.8-1.4-21.8-1.7-22.5-2.8c-1-0.9-2.1-1.5-3.4-1.9
	c-2-0.8-4-1.7-5.8-2.8c-3.7-2.2-6-2.4-9.4-0.8l-2.3,1.1l-2.1-1.2c-1.1-0.6-2.2-1.3-3.2-2.1c-1.9-1.5-5.2-3.3-6.3-3.3
	c-0.8,0.1-1.5,0.3-2.2,0.7c-0.9,0.6-1.3,0.5-2.4-0.7c-0.9-1.1-1.7-2.4-2.3-3.7c-0.6-1.3-1.2-2.3-1.5-2.3c-0.8,0-0.5-2,0.4-2.7
	s1.1-2.7,0.3-2.7c-0.3,0-0.6-0.5-0.6-1.1s0.4-1.1,0.8-1.1s1.3-0.8,1.9-1.9c1.3-2.1,6.3-6.3,7.5-6.3c0.4,0,0.8-0.4,0.8-0.8
	c0,0,0,0,0,0c0-2.3,9.4-8.5,11.4-7.5c1.3,0.3,2.7,0.5,4.1,0.4c2,0,3.4,0.2,3.8,0.6c0.8,1,3.4,0.9,4.3-0.1c0.6-0.6,1.5-0.8,2.3-0.5
	c0.8,0.2,1.6,0.1,2.3-0.3c0.7-0.5,2.1-0.4,5.6,0.7c1,0.3,2,1.5,4.1,5.2l1,1.6c0.1,0.1,0.6-0.2,1.1-0.7c0.6-0.5,1.4-0.8,2.2-0.9
	c2.1,0,5-1.8,5-3.1c0-0.9,0.3-1.2,1.3-1.2c0.9,0,1.7-0.6,1.9-1.4l0.6-1.4l5.3,0.4l5.3,0.4l2.8-1.9c3.2-2.1,4.1-2.1,4.1,0.2
	c0,1.3,0.2,1.6,1.1,1.6c0.6,0,2.2,1.1,3.6,2.5c0.8,1,1.8,1.8,2.9,2.5c0.5,0.2,0.9,0.5,1.2,0.9c1,1.2,4.8,2.9,6.5,2.9
	c1.3,0.2,2.5,0.8,3.5,1.5c2,1.4,2.6,1.5,8,1.5c3.6,0,6.3,0.3,7.1,0.7c1.2,0.7,2.7,0.6,5.4-0.2c1.1-0.3,1.2-0.2,1.2,1
	c0,0.7,0.2,1.4,0.8,1.8c0.5,0.4,0.9,1.1,1,1.8c0.3,2,1.9,2.8,2.8,1.4c0.8-1,0.8-1,2.1,0.5s2.6,1.5,2.6,0c0-0.6,0.3-0.7,1.2-0.4
	c0.5,0.1,1,0.4,1.4,0.8c0.2,0.6,1.5,0.6,2.7-0.1c0.8-0.4,1.6-0.8,2.4-1.1c0.9-0.3,2.4-2,4-4.3c1.2-1.9,2.7-3.7,4.3-5.3
	c3.5-2.8,4.2-3.7,4.2-5s1.1-4.1,1.6-4.1c0.4,0.1,0.7,0.3,1,0.7c0.5,0.5,0.8,0.5,1.3-0.2c1-0.9,2.1-1.6,3.3-2.1l2.6-1.3l0.9,1.2
	c0.8,1.1,1.3,1.2,3.1,0.9C257,4,257.7,4.8,257,8c-1,5-0.9,5.2,2.9,7c1.5,0.8,3.1,1.4,4.6,2c1.2,0.3,1.7,1.4,0.7,1.4
	c-0.9,0-0.6,1.5,0.3,1.8c1.1,0.4,1,2.5-0.3,4.5s-1.4,3.4,0,3.8c0.8,0.2,1.1,0.8,1.1,1.9c0,1.4,0.3,1.6,2.4,2.1
	c1.2,0.3,2.4,0.8,3.5,1.6c1.1,1,3.4,6,3.4,7.5c0,0.5,1.1,1.9,2.5,3.1c1.7,1.6,2.3,2.5,1.9,2.9c-0.7,0.7-0.7,3.4,0,4.8
	c0.5,0.9,0.4,1.2-1.1,1.7s-1.7,0.8-1.7,3.1c0,1.5,0.2,2.9,0.7,4.3c0.5,1.4,0.5,2.1,0,2.9c-0.4,0.7-0.6,1.6-0.7,2.4
	c0.1,0.7-0.4,1.4-1.1,1.7c-0.6,0.2-1.1,0.6-1.1,0.8c0,0.9,3.2,2.7,4.7,2.7c1.1,0,2.1,0.6,2.8,1.5c1,1.2,1.4,1.4,1.9,0.8
	c1-1,1.6-0.8,1.6,0.4c0,0.6,0.3,1.1,0.8,1.4c0.4,0.2,0.8,0.5,0.8,1c0,1.1,4.4,3.1,7.1,3.3c1.1,0,2.3,0.2,3.4,0.5
	c0.8,0.2,1.6,0.3,2.5,0.2c1.4-0.2,1.6,0,1.8,1.6c0.1,1.3,0.5,1.9,1.5,2.3c2,0.8,3.9,0.6,4.2-0.3c0.2-0.4,1.7-1.1,3.5-1.4
	c1.6-0.3,3.2-0.9,4.7-1.7c1.9-1.3,2.5-1.3,2.9,0.1c0.3,0.9,0.7,1.1,1.6,0.8c0.8-0.2,1.4,0,1.5,0.4s0.4,0.5,1.1,0s0.9-0.5,1.2,0.3
	s0.8,1,5,0.8c4-0.2,4.6-0.1,4.6,0.6c0,0.5,0.6,1,1.4,1.2s1.4,0.5,1.4,0.7c0,1.1-2.1,5.7-3.7,7.9c-0.7,1-1.3,2-1.8,3.1
	c0,0.9-4.6,4.5-5.5,4.2c-4.7-1.5-6.4-2.3-7.2-2.9c-1.7-1.5-5.6-0.5-7.7,1.8c-0.7,1.2-1.1,2.7-1.1,4.1c-0.2,2.1-0.8,4.2-1.6,6.2
	c-1.3,3-1.4,3.1-3.6,3.1s-2.3,0-3.2,2.9c-0.5,1.5-1.2,3-2,4.4c-2.1,2.9-0.2,10.2,2.7,10.2c1.6,0,2.2,2,1.8,5.8
	c-0.2,2.1-0.5,4.5-0.7,5.4c-0.3,1.5-0.1,1.9,1.6,3.2c1.1,0.8,2,1.9,2.8,3.1c1.5,2.1,3.2,4.1,5,5.9c1.9,1.9,3.7,4,5.2,6.2
	c1.4,2.8,7.2,7.1,11.1,8.3s4.6,1.7,5.6,4.2c0.8,2,0.7,2.9-0.6,2.9s-0.9,1.1,0.9,2.1c1.8,1.2,3.4,2.5,4.9,4c3.9,3.6,4,4.7,1.6,9
	c-1.5,2.6-1.7,3.3-1.6,7c0.1,3.5,0,4.3-1,5.3c-1.3,1.4-2.9,4.6-2.9,5.7c-0.3,1.3-0.6,2.5-1.1,3.7c-0.8,2.2-1.5,3.2-2.7,3.7
	c-1.3,0.6-1.6,1.1-1.9,3.3c-0.3,1.9-0.8,2.9-1.8,3.8c-1.4,1.1-1.5,1.5-1.8,6.9s-0.4,5.9-1.8,7.1c-1.8,1.5-6,1.7-9,0.4L315.6,238.7z"
	/>
<path data-tip="شیروان" id="IR-1205" d="M373.2,265.8c-0.8-0.5-1.5-1.2-1.9-2.2c-0.5-1.2-1.1-1.7-2-1.7c-0.8,0-1.5-0.2-2.3-0.5
	c-0.6-0.3-1.2-0.6-1.9-0.8c-1.3-0.4-3.2-4.3-3.2-6.5c0-1.6-0.3-2-1.8-2.6c-1.2-0.5-2.4-1.2-3.5-2c-0.8-0.6-1.6-1.1-2.6-1.3
	c-0.5-0.1-0.9-0.5-0.9-1.1c0-0.8-1.2-1.6-4.9-3.4c-2.7-1.3-4.9-2.5-4.9-2.8s-0.9-0.4-1.9-0.3c-0.8,0.1-1.6,0.1-2.3-0.2
	c-0.8-0.3-1.6-0.5-2.4-0.4c-1.2,0-2.4-0.4-3.4-1.1c-1.6-1.2-4-1.5-4.4-0.4c-0.2,0.5-0.4,0.5-0.8,0.1s-0.4-2.8-0.2-6
	c0.3-5,0.5-5.6,1.8-6.9c1-1.1,1.6-2.4,1.8-3.8c0.3-1.9,0.8-2.7,2.1-3.5s2-2,3.5-6.2c1.1-3.4,2.3-5.7,3.4-6.9
	c1.7-1.8,2.2-3.8,1.1-4.5s-0.3-5.9,1.6-8.5c1.6-2.3,1.7-2.7,1.4-5.6s-0.5-3.3-2.1-4.3c-1.1-0.7-2-1.6-2.7-2.7
	c-0.5-0.8-1.2-1.4-2-1.8c-0.8-0.3-1.1-0.8-1.1-2.2c0-2.5-1.4-5.6-2.9-6.5c-1.4-0.7-2.8-1.2-4.2-1.7c-3.6-1.1-9.4-5.5-10.7-8.2
	c-1.4-2.1-3-4.1-4.9-5.9c-1.8-1.7-3.4-3.7-4.9-5.8c-0.6-1.1-1.5-2.1-2.5-2.9c-1.2-0.8-1.6-1.5-1.4-2.4c0.1-0.7,0.4-3.2,0.6-5.7
	c0.4-4.9,0.5-4.5-3.4-7.6c-2.4-1.8-2.7-4-1.1-6.9c0.8-1.4,1.4-2.9,1.9-4.4c0.6-1.9,0.8-2,2.9-2s2.3,0,3.6-3.2c0.8-2,1.3-4.1,1.6-6.2
	c0.3-3.3,0.8-4.1,3-5.5c1.5-0.9,1.6-0.9,3.6,0c6.5,3.1,9,3.5,11.7,1.5c2-1.5,6.5-8.1,7.5-11.1c0.6-1.6,1.3-3.1,2.1-4.6
	c1.3-2.3,1.5-2.4,3.4-2.1c3.9,0.5,5,1.3,5,3.3c0,0.9,0.2,1.7,0.7,2.5c0.8,0.8,4.1,0.9,4.4,0c0.4-1.2,4.2,0,4.9,1.5
	c0.3,0.7,0.8,1.2,0.9,1.1s0.3,0.6,0.2,1.5c-0.3,2.5,0.4,3.2,3.4,3.5c2,0.2,2.8,0.1,3.2-0.5s1.8-0.9,3.3-1.1c1.8-0.3,3.6,0.1,5.1,1.1
	c1.5,0.9,2.8,1.2,3.6,1c1-0.3,1.4-0.1,1.6,0.8s0.6,1.1,1.9,0.9c0.9-0.1,1.5-0.1,1.4,0.2c-0.4,0.6,1.8,1.2,3,0.8
	c0.9-0.3,1.1-0.1,1.1,1c0,1.4,1.3,3.1,2.4,3.1c1.1,0.4,2.1,0.9,3.1,1.6c1.2,0.8,2.5,1.4,3.9,1.6c1,0,1.9,0.5,2.5,1.3
	c0.9,1.2,1.5,1.4,5.6,1.6c2.7,0.1,4.7,0.5,4.8,0.9s0.8,0.6,1.5,0.6c0.7,0,1.3,0.3,1.7,0.8c0.4,1,2.4,1.1,3.4,0.2
	c0.5-0.5,0.6-0.4,0.6,0.4c0,0.6,0.2,1.3,0.7,1.8c0.9,0.9,4.4,0.8,5.7-0.2s3.5-1.1,3.5,0c0,0.6,0.6,0.8,1.8,0.8c2,0,4.2,1.3,4.2,2.5
	s1.2,3.5,1.7,3.2s1,0.6,1.3,2.3c0,0.6,0.5,1,1.1,0.9c0.1,0,0.1,0,0.2,0c0.6-0.1,1.1,0.2,1.4,0.7c0.3,0.7-0.3,1-1.4,0.9
	c-0.7-0.1-0.5,4.2,0.2,4.6c0.4,0.3,0.4,0.6-0.3,1.1s-0.9,1.5-0.8,5c0.1,2.4-0.1,6.7-0.3,9.6c-0.5,5.8-0.5,5.9,3.9,10.5
	c1.7,1.8,2.1,2.8,3.7,9.6c0.5,2.3,0.6,3.8,0.3,4.5c-0.9,1.7-0.6,4.5,0.9,7.5c0.8,1.6,1.3,3.3,1.1,3.8c-0.3,0.9-1.8,1.9-6.4,4.3
	c-1.1,0.5-2,1.1-2.9,1.8c-0.4,0.4-1,0.6-1.5,0.5c-2,0-8.3,3.5-9,4.9c-0.5,0.9-0.7,4.3-0.7,10.4c0,7-0.2,9.5-0.8,10.7
	c-1.1,2.2-1.1,9.9,0,11.2c0.8,0.8,0.7,1-0.6,1.8c-2.1,1.4-4.3,1.7-5.2,0.7c-1.4-1.7-3.4-1-8.7,2.8c-3.1,2.3-5.1,4-5.1,4.6
	s-0.7,1.3-1.5,1.8c-1.8,1-4,2.8-4,3.3c-0.5,0.9-1.2,1.8-1.9,2.5c-0.8,0.8-1.4,1.6-1.9,2.6c0,0.3-0.6,0.6-1.4,0.8
	c-1.1,0.3-1.4,0.7-1.4,1.9s-0.4,1.7-2.2,2.6c-1.6,0.8-2.2,1.4-2.2,2.3c-0.2,1-0.7,1.9-1.5,2.6c-3.3,3-4.5,4.4-4.5,5.3
	c0,2.3-5.3,4-8.5,2.7L373.2,265.8z"/>
<path data-tip="مانه و سلمقان" id="IR-1208" d="M253.3,109.5c-4.8-2.1-9.5-4.1-10.6-4.4c-5.6-1.4-11.3-2.6-17-3.4c-0.8,0-1.5-0.4-2-1.1
	c-1.3-2.1-7.9-6.6-9.7-6.6c-1.6,0-6.6-2.1-9.8-4.2c-1.4-0.9-1.5-0.9-2.3,0.1s-1,1-3.2,0.4c-1.3-0.4-4.6-1.2-7.3-1.8l-8.5-1.9
	c-2-0.5-5.3-1-7.4-1.3c-2.3-0.3-4.6-0.8-6.8-1.4c-2.3-0.6-4.6-0.9-7-0.9c-2.1,0-4.2-0.3-6.1-0.9c-2.1-0.8-2.2-1-2.2-3.3
	c0-1.2,0.2-2.4,0.6-3.5c0.5-0.9,0.3-1.4-1.1-3c-2.2-2.5-2.2-4.5,0-7.4c1.1-1.5,1.9-3.2,2.5-5c0.6-1.8,1.5-3.4,2.8-4.8
	c1.1-1.1,1.9-2.2,1.8-2.3c-2.6-0.4-5.3-0.7-7.9-0.8c-21.6-1.6-21.5-1.6-22.9-3c-1-0.9-2.2-1.5-3.5-1.9c-1.8-0.6-3.5-1.4-5-2.5
	c-3.3-2.2-3.5-2.2-6.3-0.8c-3.3,1.7-5.4,1.4-9.5-1.3c-6-3.9-6.6-4.3-6.6-3.7c0,0.3-0.5,0.6-1.1,0.6c-1.5,0-4,4.4-4.3,7.7
	c-0.2,2.1-0.5,2.7-1.4,2.9c-2,0.5-3.7,0.4-4.5-0.5c-1.3-1.3-1.8-1-1,0.7c0.4,0.7,0.7,1.6,0.8,2.4c0,0.5,0.8,1.4,1.9,1.9
	c0.4,0.4,0.7,0.9,0.8,1.5l0.2,0.2c3.2,2.3,5.6,5.4,7,9.1c0.3,0.8,0.4,1.6,0.2,2.4c-0.1,0.3-0.1,0.6-0.2,0.8
	c-0.4,1.2-1.3,1.6-3.5,2.2c-1.9,0.5-2.9,0.9-3.4,2c0,1.2-0.2,2.4-0.4,3.6c0.1,1,0.2,2.1,0.4,3.5c0.6,4.5,0.6,5.8-0.4,7.2
	c-1.5,2.3-7.3,6.3-12,8.3c-3.4,1.5-3.8,1.9-4.2,4.5c-0.3,1.9-1,3.7-2.1,5.3c-1,1.5-1.6,3.3-1.7,5.2c0,3.5-2,6-6.8,8.8
	c-6.2,3.6-8.5,8.9-6.9,16.1c0.1,0.7,0.3,1.4,0.6,2.1c1.2,3.9,1.2,4.2,0.1,5.5c-0.9,1.3-1.6,2.7-2,4.3c-1,3.6-2.5,5.4-5.7,6.8
	c-2.4,1-2.4,1.2-2.4,5.5c0,5-2.1,9.9-6.9,16.1c-0.3,0.4-0.6,0.7-0.8,1.1c-0.2,3.1-0.7,6.1-1.6,9.1c-0.3,0.9-0.6,1.7-0.8,2.6
	c0.2,0.5,0.4,1,0.8,1.5c0.6,0.8,1,1.8,1.1,2.8c0,1.2-1.3,1.6-2.9,1.4c-0.2,1.2-0.4,2.3-0.8,3.5l-0.1,0.3c1.1,1.5,0.7,2.7-0.7,5
	c-0.3,0.5-0.7,1.1-1.2,1.5c-0.8,3.2-1.4,6.4-1.8,9.7l-0.3,4.4l3.4,0.4c1.7,0.1,3.3,0.6,4.8,1.3c2.8,2.1,5.9,3.8,9.1,5.1
	c1.6,0.7,3.4,0.9,5.2,0.7c2.7-0.3,6.6-2.1,7.3-3.3s3.4-2.4,5.2-2.4c1.1-0.1,2.1-0.5,3-1.1c0.7-0.6,1.5-0.9,2.4-1.1
	c3.8,0,12.4-2.9,13.8-4.6c0.9-1,3.4-1.2,4.9-0.3c0.8,0.5,1.5,0.4,3.6-0.8c3.1-1.8,3.9-1.8,4.8-0.3c0.7,1.2,8,4.9,9.7,4.9
	c0.6-0.1,1.2-0.3,1.6-0.8c0.8-0.6,1.8-0.9,2.8-0.8c2.4,0,4.6-1,7.6-3.4c2.8-2.2,4.9-2.1,6.1,0.3c1,2.1,1.3,2.3,2.9,1.2
	c1-0.6,2.1-1.1,3.3-1.4c1.8-0.7,3.6-1.4,5.3-2.3c1.6-0.8,3.3-1.4,5.1-1.6c1.5-0.1,3-0.6,4.3-1.3c3.9-2.1,8.1-3.4,12.4-3.8
	c3.3-0.3,3.7-0.3,5.1,1c0.9,0.8,1.9,1.4,3,1.7c0.8,0.2,2.6,0.7,3.9,1.1c1.1,0.4,2.3,0.7,3.4,0.8c1.5,0,8.5-2.6,10.6-3.9
	c1.8-1.1,2.4-1.2,14.9-1l13,0.2l-0.3-2.6c-0.3-3,0.6-9.5,1.9-14.3c0.8-3,0.8-3.3,0-4.7c-1.3-2.2-1.1-4.4,0.7-8.3
	c2-3.8,2.2-8.3,0.6-12.2c-1.6-3.7-1.4-5.6,0.7-7.8c1.6-1.7,2-1.8,5.2-1.8c3.4,0,3.5,0,4.2-1.8c0.9-2.2,3.3-4.2,5-4.2
	c0.9,0,1.6,0.6,2.5,2c1.1,1.8,1.4,2,3.2,1.7c2-0.5,3.9-1.1,5.7-2c1.5-0.8,3.1-1.3,4.7-1.7c1.3,0,2.5,2.6,3,6.1
	c0.3,2.2,0.7,2.9,2.6,4.3s2.3,1.7,2.9,0.9c0.5-0.6,1.2-1,2-1.2c1-0.4,1.9-1.1,2.6-2c1.2-1.5,1.2-1.7,0.4-4.5c-2-7.3-2.4-8.5-3-9.6
	c-1.6-3,0.3-8.5,4.5-13.2c1.4-1.5,1.6-2.2,1.5-4.5c-0.1-1.3,0-2.6,0.4-3.8C265.1,115.5,262.7,113.6,253.3,109.5z"/>
<path data-tip="گرمه" id="IR-1207" d="M31.2,203.3l0.4-3l0.4-3l-3.2,1.9c-2.1,1.3-4.5,2.1-6.9,2.2c-2,0.1-4,0.7-5.7,1.7c-1.3,0.9-2.8,1.4-4.3,1.3
	c-2.6,0-3,0.5-3,3.5c0,0.6-0.1,1.2-0.3,1.8c-0.2,0.7-0.4,1.4-0.7,2.1c-0.6,1.2-4.9,20.8-5.2,22.1c-0.5,2.1-0.3,2.6,1.4,5.8
	c3.1,5.7,5.6,9.2,7,9.8c0.7,0.3,2.5,1,3.9,1.7c1.8,0.8,3.7,1.3,5.6,1.6c7.6,1.1,10.2,2.3,11.6,5.5c1,2.3,1.1,3.1,0.8,10
	c-0.2,4.5-0.7,8.2-1.1,9.4c-0.7,1.8-0.7,2,0.3,3.2c0.5,0.5,0.8,1.1,1.1,1.7c0,1.5,1.1,2,0.9,2.4s-1,0.1-1.6,0.5
	c-0.3,0.2-1.3,1,0,6.4c1.1,4.6,2.1,5.1,1.8,7.2c-0.1,0.9-0.6,0.3-2.1,4.5c-0.7,2.1-1.6,4.2-2.6,6.2c-1.3,2.5-1.4,3.5-1.3,6.6
	c0.1,2,0.3,3.6,0.5,3.5s0.8,0.5,1.3,1.3c0.5,0.8,1.1,1.5,1.7,2.2c0.4,0.4,0.6,1,0.4,1.2s0.1,0.3,0.6,0.1c0.7-0.3,0.8-0.2,0.5,0.4
	s-0.2,0.6,0.1,0.4s3,0.3,5.9,1s5.4,1.4,5.6,1.4H45c0.1,0.1-0.1,0.4-0.1,0.5c0.1,0.3,3.1,0.3,6.1-0.8c4.1-1.7,5.2-4.7,11.6-12.5
	c0.9-1.1,1.8-2.3,2.6-3.5c1.2-2.2,2.5-4.2,4.1-6.1c3.4-4,9.9-8.9,13.7-10.2c4.1-1.4,6-2.9,7.2-5.5c0.6-1.3,2.1-4.2,3.3-6.3
	c1.2-2.1,2.1-4.4,2.8-6.7c1.3-6.4,3.2-10.4,6.4-13.6c1.7-1.7,3.6-3.6,4.1-4.3c1.7-1.8,6-2.9,12.8-3.1l6.2-0.2l2.5-2.2
	c2.8-2.5,5.3-3.1,8.8-2.3c1.4,0.4,3,0.4,4.4,0c1.3-0.4,2.7-0.3,3.9,0.1c2.5,0.8,4.7,0.5,4.5-0.5c-0.8-3.5-0.7-4.5,0.5-5.8l1.3-1.3
	l-1.9-0.8c-1.2-0.5-2.5-0.9-3.8-1.1c-4.7-0.9-6.6-2.7-6.6-6.3c0.1-0.7-0.2-1.4-0.6-2c-0.6-0.4-0.4-2.9,0.5-7.1
	c0.3-1.2,0.7-3,0.9-3.9l0.4-1.8l-3.1,0.3l-3.1,0.3v-2.1c0-1.3,0.3-2.5,0.8-3.7c0.3-0.6,0.6-1.2,0.8-1.8c0-0.6-3.3,0.6-5.6,2.1
	c-3.5,2.1-5.1,2.1-6.2-0.2c-0.5-1-1-1.9-1.1-2c-1.2,0.5-2.3,1-3.4,1.8c-2.3,1.4-3.8,2-5.4,2c-1.3,0-2.6,0.4-3.7,1.2
	c-1.2,1-1.9,1.1-3.9,0.8c-1.4-0.2-2.7-0.6-3.9-1.1c-0.8-0.4-2.6-1.3-4.1-1.9s-2.6-1.3-2.6-1.6s-1.5,0-3.3,0.7
	c-2.8,1-3.4,1.1-4.4,0.5s-1.3-0.6-2.1,0.1c-1.4,1.3-6,2.9-10.5,3.7c-1.7,0.2-3.4,0.7-5,1.4c-1.2,0.7-2.5,1.1-3.8,1.3
	c-1.7,0.3-3.3,1-4.6,2.1c-3,2.8-5,3.5-10.4,3.6c-1.6,0.1-3.2,0-4.8-0.3c-1.7-0.4-3.3-1.1-4.8-2c-0.7-0.4-1.4-0.8-2-1.3
	c-1.8-1.4-3.1-2.5-3.5-2.8c-1.2-1-3.3-2.2-7.2-2.5h-0.4c0-0.1,0-0.2,0-0.3c0.1-0.6,0.2-1.4,0.3-2.3c0.5-3.8,0.4-5.1,0.8-7
	c0.4-2.3,1.8-3,1.4-4.6C31.6,204,31.4,203.6,31.2,203.3z"/>
<path data-tip="جاجرم" id="IR-1203" d="M76.5,323.3c5.3,11.8,9.2,23.7,10.1,30.5c1.5,11.5,9.5,15.3,17.3,8.1c2.1-2,4.2-3.5,4.6-3.5s3,2.1,5.7,4.6
	c0.4,0.4,0.8,0.8,1.2,1.1l0,0c0.4,0.3,0.7,0.6,1.1,0.9l0,0c0.4,0.3,0.7,0.5,1,0.7l0,0c0.3,0.2,0.7,0.4,1.1,0.6l0,0l0.5,0.2
	c1.8,0.7,3.7,1,5.7,1.1c2.5,0,5,0.1,7.5,0.4c3.2,0.2,6.3,0.2,9.5,0c5.9-0.5,8.1-2.5,12.1-8.7c-1.1-0.1-2.1-0.5-3-1.1
	c-1.1-0.9-2.4-1.3-3-1s-1.1,0.2-1.1-0.4s-1-1-2.3-1c-3,0-4.7-1.7-4.7-4.7c0-1.8,1.1-3.2,4.1-5.2c2.3-1.5,4.7-3.3,5.4-4
	c0.8-0.7,1.8-1.1,2.8-1.2c0.8,0,3.1-1.9,5.2-4.2c2.9-3.3,4.4-4.2,6.6-4.2c2.1,0,4.2-1.1,7.2-3.8c2.9-2.5,6-4.8,9.3-6.8
	c2.4-1.4,4.8-2.9,7-4.6c1.9-1.4,3.9-2.6,6-3.6c0.6-0.3,1.2-0.6,1.6-0.8c-0.2-1.3-0.5-2.5-1-3.7c-0.7-1.8-1.1-3.6-1.4-5.5
	c-0.2-1.6-0.6-3.2-1.2-4.8c-1.2-2.8-1-3.5,0.9-4.5c1.6-0.8,4.5-0.9,8.4-0.2c0.8,0.1,1.3-0.3,2.1-2c2-4.5,2.4-5,5.1-6.3
	s5-4.3,3.6-4.8c-1.1-0.4-0.9-1.3,1.3-8.3c0.4-1.5,1.2-2.9,2.3-4.1c0.9-0.8,1.6-2.3,2.3-5.2c0.9-3.9,0.9-4.3,0-7.3
	c-0.4-1.4-1-2.8-1.7-4.1c-1.7-2-2.1-4.3-1.7-9.4c0.4-4.7,0.5-5.2,2.2-7s2.2-2,5-2.2c3-0.3,3.2-0.4,3.4-1.8c-0.1-1.7-0.5-3.4-1.2-5
	c-0.8-1.9-1.3-3.8-1.8-5.8c-0.2-1.2-0.6-2.4-1.3-3.4c-0.8-1.2-1.5-2.5-2-3.8c-0.8-1.9-1.9-3.8-3.1-5.5c-2-2.6-2.2-2.7-5.4-3.1
	c-1.9-0.2-7.3-0.4-12.1-0.4c-7.9-0.1-8.9,0-10.5,1c-3.1,1.9-9.5,3.8-12.8,3.8c-1.9,0-3.7-0.3-5.5-0.8c-1.4-0.4-3.1-0.9-4-1.1
	c-1-0.3-1.9-0.8-2.7-1.5c-1.7-1.7-5.8-1-11.7,1.7c-2,1-4.1,1.8-6.3,2.2c-1.3,0.1-2.6,0.5-3.8,1.1c-2,1-2.2,1.3-2.2,3.3
	c0.1,0.9-0.1,1.7-0.6,2.5c-1.4,0.9-0.2,1.3,3.3,1s3.8-0.2,3.8,0.7c-0.1,0.8-0.4,1.6-0.9,2.3c-2.1,3-3.1,9.6-2.3,14
	c0.5,2.6,1.9,3.5,7,4.8c2.2,0.6,4.1,1.3,4.4,1.7c0.7,1.8,0.6,3.8-0.4,5.5c-0.7,0.8-0.8,1.2-0.3,1.7c0.9,0.9,0.8,4-0.1,4.8
	c-0.6,0.5-3.4,0.6-10.2,0.4l-9.4-0.2l-2.8,2.5l-2.8,2.5l-3.8-0.3c-7-0.7-14.8,1.5-15.5,4.3c-0.2,0.7-0.6,1.3-1.3,1.7
	c-3.1,1-6.5,6.9-8,14c-0.7,2.7-1.7,5.2-3,7.7c-1.2,2.2-2.7,5.1-3.3,6.4c-1.1,2.5-3.3,4.1-6.8,5.2c-3.3,1-10.3,6.1-13.6,9.9
	c-2.1,2.5-4.1,5.2-5.9,8l-0.7,1C69.9,315.6,74.3,318.4,76.5,323.3z"/>
<path data-tip="اسفراین" id="IR-1201" d="M381.4,391.5c1.7,0.9,3.5,1.6,5.4,1.9c0.9,0,1.8,0.2,2.6,0.5c1.1,0.7,2.6,0.7,3,0c0.5-0.4,1.1-0.6,1.7-0.5
	c0.9,0,2-0.8,3.3-2.2c1.1-1.2,2.3-2,2.6-1.8s0.4,0.2,0.2-0.1c-0.6-0.7,2-2.4,4-2.8s4.9-1.7,5.5-2.6c0.3-0.4,0.7-0.6,1.1-0.6
	c0.3,0,0.6-0.2,0.6-0.6c0-0.1,0-0.1,0-0.2c0-0.5,0.1-1.1,0.5-1.5c0.5-0.6,0.4-1-0.3-1.8c-0.5-0.5-0.8-1.1-0.6-1.3s-0.1-0.6-0.5-1
	c-1.3-1-1.1-4.5,0.3-5.8c0.8-0.6,1.1-1.6,0.8-2.5c-0.4-1.8,0.1-3.2,1-3.2c0.6,0,1.4-1.1,1.4-2.2c-0.2-0.6-0.6-1.2-1.1-1.7
	c-1.4-1.7-1.4-2.4,0.3-3.5c1.5-1,1.7-2.5,0.8-4.2c-0.8-1.4,0.3-2.7,4-4.7c1.4-0.8,2.6-1.7,2.6-2c-0.3-0.7-0.7-1.4-1.3-1.9
	c-0.8-0.9-1.4-1.9-1.8-3c-0.4-1.2-1.3-2.1-2.5-2.6c-1.6-0.8-2-1.3-2.7-3.5c-0.1-0.2-0.1-0.4-0.2-0.6s-0.2-0.6-0.3-0.9
	c-0.4-1.5-0.9-3.2-1.1-3.9c-0.3-0.8-0.4-1.6-0.5-2.5c0-0.3,0.2-0.6,0.4-0.8c0.9-1,3.2-1.9,6.3-2.4c2.4-0.4,3.5-0.8,3.6-1.5
	c0.1-0.5-0.2-1.1-0.7-1.9c-0.5-0.9-0.8-1.9-1-2.9c-0.1-0.8-0.5-1.5-1.1-2.1c-0.4-0.4-0.9-0.8-1.4-1.1c-1.2-0.7-2.1-1.7-2.6-3
	c-0.7-3.2-0.2-3-8.1-2.7c-7.3,0.3-7.4,0.3-8.2-1c-0.6-1.2-1.1-2.5-1.4-3.8c-0.5-2.2-0.4-2.8,0.6-4.5c1.2-2,1.1-3.4-0.1-3.4
	c-0.4,0-1.3-0.9-2.1-1.9c-1.1-1.5-1.8-1.9-3.2-1.9c-1,0-1.9,0.2-2.8,0.6c-0.9,0.5-1.4,0.3-3.4-1.3c-2.1-1.8-4.5-3.2-7.2-3.9
	c-1.1-0.3-1.5-0.7-1.5-1.8c0-0.9,0.2-1.7,0.6-2.5c0.4-0.8,0.4-1.7-0.2-3.4c-0.5-1.5-0.9-3-1.1-4.6c-0.5-3.7-5.6-12.2-7.3-12.2
	c-0.8-0.1-1.6-0.4-2.3-0.8c-0.8-0.4-1.6-0.8-2.4-1.1c-1.3-0.4-3.2-4.3-3.2-6.5c0-1.7-0.2-2-2.8-3.1c-1.2-0.5-2.3-1.2-3.4-2
	c-0.4-0.4-1-0.7-1.6-0.7c-0.6,0-1-0.4-1-1c0,0,0-0.1,0-0.1c0-1.5-8.9-5.7-10.9-5.2c-0.8,0.2-1.7,0-2.3-0.6c-0.7-0.6-1.6-0.8-2.4-0.5
	c-1,0.2-2.1-0.1-2.9-0.8c-1-0.9-2.3-1.2-3.5-0.8c-0.9,0.2-1.9,0.2-2.8-0.1c-2-0.4-4.1-0.5-6.2-0.5c-5.1,0-5.7-0.1-7.7-1.5
	c-1.2-0.8-2.5-1.5-3.9-1.8c-1.3-0.3-1.8-0.7-2.1-1.8c-0.1-0.8-0.5-2.2-0.8-3.1c-0.3-0.9-0.5-1.9-0.5-2.8c0-0.8-0.5-1.3-1.9-1.8
	c-1.1-0.4-2.1-1-3-1.8c-0.9-1-1.3-1-2.3-0.5c-1.6,0.5-3.3,0.8-5,0.8c-2.3,0.1-3.9,0.5-4,0.8c0,0.3-0.3,0.4-0.5,0.4
	c-0.1,0-0.1,0-0.2-0.1c-0.3-0.2-0.4,0-0.2,0.4s-0.6,1.3-1.6,2.1c-1,0.8-1.9,1.7-2.5,2.8c-1.3,2.9-4,4-11,4.4c-7.6,0.5-11,0.9-11,1.6
	c0,1.3-4.1,0.3-8.4-2c-3.3-1.8-5.2-2.5-6.8-2.5c-1.3,0-2.3,0.2-2.3,0.5s-2.4,0.6-5.3,0.8c-4.9,0.3-5.4,0.3-7.9-1
	c-2.8-1.4-5.1-1.4-5.6,0.1c-0.2,0.5-1.2,0.8-3.1,0.8c-2.5,0-3,0.2-4.9,2.1s-2.1,2.5-2.2,4.8c-0.2,5.1,0,6.2,1.4,8.3
	c1,1.7,1.8,3.5,2.3,5.4c0.9,3.2,0.9,3.6,0,7.7c-1.1,4.8-1.6,6.2-3.1,7.2c-1.6,1.1-2.9,5.9-2.5,9.3c0.4,3.6-0.9,6.2-3.6,7.3
	c-2.2,0.9-4.8,3.1-4.8,4.1c-0.2,0.9-0.5,1.9-0.9,2.7c-1,2.1-2.6,2.8-5,2.2c-3.5-0.8-4.3-0.9-5.2-0.2s-1,0.9,0.1,5.9
	c1,4.8,1.8,7.9,2.5,10.3c0.8,2.7,2.1,5.3,3.9,7.5c2.3,3,4.3,4.1,8.5,4.6c1.9,0.1,3.7,0.7,5.3,1.6c1,0.8,2.3,1.2,3.6,1.2
	c1.3,0,2.6,0.3,3.8,0.8c0.6,0.4,1.3,0.6,2.1,0.6c0.6-0.4,7.4,1.1,9.3,2.1c2.4,0.8,4.8,1.3,7.3,1.5c3.6,0.4,7.3,1,10.8,1.9l0,0
	c0.5,0.1,1.1,0.3,1.7,0.4c3,0.7,7.4,1.7,10.6,2.3c2.8,0.5,5.6,1.2,8.3,2.2c1.1,0.7,4.1,1.3,11,2.3c1.3,0.2,2.3,0.5,2.3,0.8
	s1.2,0.6,2.6,0.8c5.7,0.8,8.7,1.6,11.1,3.1c1.5,1.1,3.4,1.6,5.2,1.6c2.4,0,2.9,0.2,4.5,1.9c0.9,1,2.1,1.8,3.3,2.3
	c1.1,0.3,2,1,2.7,1.9c0.8,1,1.7,1.8,2.8,2.4c1.1,0.6,2.1,1.3,3,2.2c2,1.5,4.2,2.7,6.5,3.7c3.1,1.5,5.9,3.2,8.6,5.3
	c2.1,1.8,4.5,3.2,7.1,4.2c3.4,1.2,10.5,5.7,10.5,6.7c0,0.8,2.9,1.9,6.8,2.6c2.1,0.4,4.1,1.1,4.4,1.5c0.7,0.7,1.5,1.2,2.4,1.5
	c2.1,0.8,4,1.8,5.9,3.1c0.6,0.4,1.2,1,1.8,1.5c0,0.1,0.1,0.1,0.2,0.2c0.5,0.6,1.2,1,2,1.2C378.4,390,380,390.6,381.4,391.5z"/>
<path data-tip="فاروج" id="IR-1206" d="M460.6,296c0.2-2.9,0.1-3-1.6-4c-1.8-0.8-3.8-1.3-5.7-1.5c-2.2-0.3-5.1-0.8-6.6-1.1c-2.4-0.5-2.7-0.8-4-3.6
	c-0.6-1.4-1.4-2.6-2.5-3.6c-0.8-0.6-1.4-1.3-1.8-2.2c-0.5-1.2-1.4-1.8-3.9-2.7c-1.7-0.6-3.3-1.3-4.8-2.2c-1.5-1.1-1.6-1.3-1.3-4.2
	c0.4-3.5,4.2-11.7,5.9-12.6c2.1-0.9,4.4-0.7,6.3,0.6c1.2,1,1.8,1.1,2.9,0.7c2.4-0.8,1.8-2.1-1-2.3c-3.1-0.2-3.8-0.8-3.8-3.1
	c0-2,0.5-2.3,4.4-3.1l3.9-0.8c1.1-0.2,1.8,0.1,2.9,1.3c0.8,0.8,1.3,1.8,1.2,2.2c-0.1,0.2,0,0.4,0.2,0.5c0.1,0,0.2,0.1,0.2,0
	c0.4,0,0.6-0.8,0.4-2.4s-0.4-2.4-1-2.4s-0.8-0.6-0.8-1.9c0-2-0.1-2,4.5-2.7c1.1-0.1,2.1-0.7,2.8-1.5c0.7-1,1.1-1.1,3.2-0.8
	c1.3,0.2,4.2,0.6,6.5,0.8c4.3,0.5,5.8,0,5.2-1.5c-0.8-2.7-1.4-5.5-1.7-8.3c-0.1-1.1-0.3-2.2-0.6-3.3c-0.2-0.4-0.3-0.8-0.2-1.3
	c0-0.3-0.1-0.3-0.4-0.1c-0.7,0.1-1.5-0.1-2.1-0.5c-0.8-0.4-1.7-0.7-2.6-0.8c-0.6,0-2.5-1.6-4.3-3.5c-1.8-1.9-3.8-3.7-6-5.2
	c-2-1.3-2.8-2.2-3.2-3.7c-0.7-2.4-0.8-3.8-0.2-5.2c0.7-1.3,1.5-2.4,2.6-3.3c1.2-1.3,2.6-2.4,4.1-3.3l0.1-0.1
	c2.3-0.5,3.8-2.6,3.7-4.9c-0.1-1,0.2-2,0.6-2.9c0.4-0.5,0.3-1.1-0.7-2.4c-0.6-0.7-1-1.5-1.3-2.4c0-0.3-0.4-0.5-0.8-0.4
	c-1.6,0.3-3.4-6.5-3.8-14.4c-0.4-7-0.9-9.5-2.5-11.3c-0.6-0.9-0.8-1.9-0.8-3c-0.2-3.8-0.6-7.6-1.3-11.4c-0.1-0.5-0.1-0.9-0.2-1.4
	c-0.3-2-0.6-3.9-0.6-4.2s-0.7-0.7-1.7-0.7c-1.5,0-1.7-0.2-1.5-1.2s0.1-1.2-3.4-1.3c-1.5,0.1-3-0.1-4.4-0.4c-0.7-0.4-1,0.4-1.5,4.8
	c-0.1,0.9-0.2,1.7-0.3,2.4c-0.4,3.6,0.2,4.3,3.6,7.7c1.6,1.6,2.8,4.6,3.8,9.4c0.4,1.7,0.9,3.7,1.1,4.6c0.7,2.3,0.6,3.7-0.4,4.4
	c-0.8,0.6-0.7,1,0.6,3.7c1.8,3.9,1.9,9.2,0.2,9.2c-0.5,0.1-0.9,0.3-1.3,0.6c-0.5,0.3-1,0.6-1.5,1c-1.1,0.8-2.2,1.4-3.5,1.9
	c-0.7,0.2-1.3,0.6-1.8,1.2c-0.5,0.5-1.1,0.8-1.8,0.8c-2,0-8.2,3.4-9,4.9c-0.4,0.9-0.7,4.4-0.7,10.5c0,7.1-0.2,9.5-0.9,10.8
	c-1.3,2.5-0.9,6.3,0.7,6.9c0.9,0.4,1.2,1,1.2,2.5s-0.4,2.1-2,3.2c-2.9,1.9-7.4,2.7-9.1,1.6c-1.2-0.8-1.5-0.7-5.8,2.4
	c-3,2.2-4.5,3.6-4.5,4.3c0,0.6-0.4,1.2-1,1.5c-1.2,0.5-4.5,3.2-4.5,3.7c-0.5,0.9-1.2,1.7-1.9,2.5c-0.8,0.8-1.4,1.7-1.9,2.7
	c0,0.3-0.4,0.5-0.8,0.5s-0.8,0.5-0.8,1.3s-0.6,1.7-2.2,2.7c-0.8,0.6-1.7,1.1-2.7,1.4c-0.3,0-0.6,0.7-0.8,1.6c-0.2,1-0.8,1.9-1.5,2.6
	c-2.3,1.9-4.3,4.2-4.3,5.2c0,1.7-2.9,3.2-6.3,3.2h-3.1l1.1,1.9c0.7,1.3,1.2,2.8,1.5,4.2c0.3,1.7,0.6,3.3,1.1,4.9
	c0.5,1.6,0.7,3.2,0.6,4.8c-0.2,2.1-0.1,2.3,1.8,2.9c1.6,0.7,3.1,1.5,4.6,2.5c2.4,1.7,2.8,1.8,5.7,1.4l3.1-0.4l1.6,2.2
	c0.8,1.2,2,2.1,3.4,2.6c2.2,0.6,2.3,1.9,0.3,4.6s-2,3.3-0.7,5.8l1,1.8l7.6,0.1l7.6,0.1l0.2,1.8c0.1,1.1,0.7,2.1,1.6,2.7
	c1.5,1.1,3.8,2.5,4.3,2.8h0.1l5.3,5.5c0.4-0.2,0.8-0.3,1.1-0.4c0.5-1.1,1.2-2.1,2.2-2.8c1.5-1.3,3.1-2.4,3.6-2.4s3.3-2,6.3-4.5
	c10.5-8.5,11.2-8.9,14.9-7.9c0.8,0.2,2,0.5,3.4,0.8c0.2-0.2,0.4-0.5,0.5-0.7c0-0.1,0.1-0.2,0.1-0.3c0.3-0.9,0.7-1.7,1.1-2.5
	C460.3,298.9,460.6,297.5,460.6,296z"/>
</svg>
