<svg>

  <path
        data-tip="هویزه"
        id="IR-1327"
        d="M797.74,2019.9a4.45,4.45,0,0,1,1.46-3c.81-.67,2.53-3.51,3.84-6.32,2.74-5.87,12.72-23,15.12-25.93a34.73,34.73,0,0,0,3.49-6.07,19.71,19.71,0,0,1,3.3-5.29,13,13,0,0,0,2.63-4.84,49.5,49.5,0,0,1,2.73-6.61c.86-1.64,1.45-3.36,1.32-3.82a3,3,0,0,1,.8-2.11,3.06,3.06,0,0,0,.47-2.77c-.73-1.9-14.81-10.21-18.79-11.09-3.26-.72-6.48-2.92-17.51-12a106.87,106.87,0,0,0-11.49-8.35,22.67,22.67,0,0,1-6.61-6,29.63,29.63,0,0,0-5.51-6c-1.7-1.31-4.58-3.6-6.41-5.1s-3.65-2.73-4.07-2.73-3.19-2.12-6.17-4.71c-10.44-9.09-9.65-8.85-11.66-3.46a33.82,33.82,0,0,1-2.76,6c-1,1.25-3.28,7.29-7.61,20-1.2,3.55-3,8.23-4.06,10.41s-3.07,7.09-4.52,10.91-3.87,9.4-5.36,12.4c-2.61,5.26-2.73,6.2-3.37,26.77-.84,26.77-2.2,51.11-3.08,55.24l-.68,3.17,5.8.4c3.2.21,18.31.19,33.58-.06,26.79-.43,28-.53,33-2.84,4.46-2.06,5.48-3.08,7.3-7.3,1.16-2.7,2.73-5.42,3.48-6A4.28,4.28,0,0,0,797.74,2019.9Z"/>
  <path
        data-tip="لالی"
        id="IR-1323"
        d="M956.42,1740.39c1.64,1.21,3,2.72,3,3.35s1.79,3,4,5.19c2.86,2.91,4,4.88,4,7,0,2.59.69,3.36,5.2,5.78,3.56,1.91,5.31,3.5,5.52,5a2.23,2.23,0,0,0,2.48,2.23c1.19,0,4.27,1,6.85,2.2,3.5,1.65,4.83,2.91,5.29,5,.9,4.12,3.05,5.72,7.7,5.72a15,15,0,0,1,7.12,1.91h0a17.49,17.49,0,0,0,3.72,2c1.16.12.81-2.16-.74-4.88a12.69,12.69,0,0,1-1.46-5.13c0-2.17.61-2.87,3.44-3.8,2.33-.77,3.47-1.76,3.47-3,0-2,6.37-6.9,9-6.9,2.1,0,3.23-1.55,4.62-6.33,1-3.47.91-4-1-5.57s-2-1.86-.51-4.18a15.39,15.39,0,0,0,1.93-5.76c.33-3.36,1-3.83,7.76-5.3a5.79,5.79,0,0,0,3.47-2.4c5.06-9.47,4.89-8.81,3.42-13.32a26.39,26.39,0,0,0-4.88-8l-3.5-3.77-5.53.87c-10,1.58-24.52-1.29-37.11-7.35-11.81-5.68-14.32-6.12-18.86-3.32-2,1.23-4,3.17-4.51,4.33a25.28,25.28,0,0,1-3,4.71c-2,2.5-2,2.72-.39,5.21,3.39,5.16-.59,13.48-8.94,18.67C952.41,1733.94,951.94,1737.08,956.42,1740.39Z"/>
  <path
        data-tip="هندیجان"
        id="IR-1326"
        d="M1173,2227a46.77,46.77,0,0,0,7.41-10.22c.85-1.82,2-4,2.94-5.59.47-.82.91-1.52,1.25-2a15,15,0,0,0,1.86-3.09c0-.26-2.3-.78-5.12-1.15a42,42,0,0,1-8.55-2.11,18.39,18.39,0,0,0-5.27-1.44c-2.66,0-18.18-4.6-21.43-6.36a23.16,23.16,0,0,1-5-3.94,19.16,19.16,0,0,0-5.2-3.76c-1.62-.71-2.94-1.74-2.94-2.29s-2-3-4.42-5.46-4.43-4.88-4.46-5.39a7.85,7.85,0,0,0-1.94-3c-2.38-2.56-12.48-21.93-13.35-25.6-.47-2-1.27-2.72-2.87-2.72a59.63,59.63,0,0,1-8.93-1.63c-5.86-1.42-9-1.5-24.83-.6-16.76.95-18.69,1.26-26.13,4.2-8,3.15-8.07,3.16-10.81,1.37-3-1.94-6-1.92-10.9.1-2.29.95-3.33,2.28-4.29,5.47a34.9,34.9,0,0,1-4.68,8.81c-1.88,2.53-4.19,5.93-5.13,7.57-2,3.54-9,10.42-10.56,10.39-.59,0-3.08-1.58-5.53-3.47-7.5-5.79-11.92-8.72-12.4-8.24-.26.25,0,2,.59,3.86s1.26,12.11,1.51,22.75l.46,19.34,3.81,7.93c2.1,4.36,4.75,10.05,5.9,12.65l2.08,4.71,10.18-.05a104.67,104.67,0,0,0,14.64-.93c2.46-.49,9.88-1.2,16.5-1.58l12-.7,1.71,3.61c.94,2,1.46,4.26,1.15,5.06a1.72,1.72,0,0,0,.31,2c.48.3,1.63,2.84,2.57,5.66a27.33,27.33,0,0,0,4.78,8.4h0c2.49,2.64,3.86,3.28,7.06,3.29,4.54,0,17.11-4.45,22.48-8,2-1.33,10-6.42,17.69-11.33s16.06-10.22,18.51-11.8c5.23-3.38,10-4.46,20-4.53,5,0,8.73.56,11.9,1.86,3.91,1.6,6.26,2.51,8.1,2.6C1168.18,2231.8,1169.73,2230.37,1173,2227Z"/>
  <path
        data-tip="گتوند"
        id="IR-1322"
        d="M962.33,1790.53c-3.25-2.91-3.93-4.18-3.93-7.22,0-5.3,2.82-19.3,4.51-22.39,2.4-4.4,1.81-7.63-2-11-1.91-1.69-3.48-3.57-3.48-4.19s-1.33-2.11-3-3.32c-2.31-1.71-3-3-3-5.64s-.42-3.43-1.74-3.43c-3.46,0-11.8,5.89-18.73,13.18-8.5,8.94-18.87,16-26.22,17.89-5.19,1.32-5.39,1.49-5.69,5-.26,3.09-1.06,4.2-5.09,7.1-5.42,3.89-6,5.23-6,14.53,0,8.4.62,8.8,12.54,8,8.83-.57,31.09,1,38.61,2.7,3.41.78,4.17.6,6.25-1.47l2.37-2.35,2.51,3c2.17,2.57,3,2.91,6,2.43s4-.06,6.86,2.42h0c1.88,1.65,3.93,2.82,4.56,2.62C971.41,1807.16,968,1795.58,962.33,1790.53Z"/>
  <path
        data-tip="شوشتر"
        id="IR-1320"
        d="M975.83,1898.05c.89,1.45,16.66,1,18.74-.49,4.52-3.3,7.25-26.85,4-34.6-3.45-8.25-6.87-14.1-10.17-17.4-3.64-3.63-5.22-6.88-5.22-10.67,0-1.33-1.49-4.08-3.32-6.13a61.85,61.85,0,0,1-6.54-9.67c-4.1-7.56-4.84-8.43-7.17-8.43-1,0-3-1.17-4.31-2.59-2.13-2.3-2.74-2.47-5.4-1.54s-3.38.72-5.75-1.28c-2.72-2.29-2.8-2.29-5.07-.46-1.85,1.51-2.7,1.65-4.38.76-3.85-2.07-16-3.22-34.6-3.3l-18.52-.08-.33,6.6c-.22,4.62.09,7,1,7.85s1.15,2.46.76,4.92c-.5,3.07-.18,4.06,1.89,6l2.49,2.33-4.12,4.2c-4.44,4.52-4.67,7.32-.61,7.32,3.2,0,4.69,1.8,4.69,5.65,0,2.77.35,3.27,2.32,3.27a6.59,6.59,0,0,1,4.17,2c1.58,1.74,1.66,2.35.57,4.09-.91,1.46-1,2.34-.2,3.11,1.55,1.55,1.32,5.19-.42,6.63s-1.85,3.88-.86,8.84c.61,3,.7,3.07,2.54,1.4,1.46-1.31,2.31-1.47,3.59-.67,1.61,1,2,2.55,2.47,10.38a10.79,10.79,0,0,0,1.47,5.07c1,1.21.95,1.73-.26,2.74a4,4,0,0,0-1.5,2.12c0,.79,4.13,5.7,7,8.3.59.55,2.12,2,3.38,3.25,2,2,2.6,2.13,5,1s2.88-1,3.82.47h0c.59.94,1.38,1.72,1.75,1.72,1.23,0,1.56-2.47.58-4.37-1.47-2.85,2.45-5.47,7.22-4.83,4.6.62,7.69-1,8.55-4.47,1-4,3.33-7.16,5.34-7.16,1,0,5.09,1.32,9.12,2.93a71.09,71.09,0,0,0,11.5,3.61C973.42,1896.89,975.54,1897.58,975.83,1898.05Z"/>
  <path
        data-tip="باوی"
        id="IR-1309"
        d="M907.44,1912.48c3.68,1.33,4.69,3.21,5.26,9.84.49,5.8.88,6.88,2.57,7.19,3,.55,10.2,4,11,5.22.37.6.09,2.87-.62,5-1.16,3.51-1.09,4.33.57,7.41,1.39,2.59,1.6,3.89.83,5.13a5,5,0,0,1-6.85,1.12c-1.22-1-1.43-.37-1.43,4.31,0,10.36.89,10.8,21.82,10.7,8.45,0,16,.36,16.86.88h0c1.57,1,6.8.58,13.39-1.1,2.27-.57,6-2.84,8.77-5.31s6-4.6,7.4-5a42.85,42.85,0,0,0,8.28-4.16l5.68-3.5-2.51-2.62c-5.93-6.21-10-15.93-8.1-19.34a3.76,3.76,0,0,0-.14-3.54,12.59,12.59,0,0,1-1-5c0-2.44.78-3.55,4-5.65,3.88-2.57,4-2.77,4-8.4V1900l-3.44,1.44c-2.71,1.13-4.94,1.24-10.66.49-9.84-1.28-15.58-2.48-19.12-4l-6.1-2.63c-5.73-2.47-8-1.83-10.06,2.87-2.62,5.91-4.57,7.23-10.29,7-4.63-.2-4.78-.13-3.7,1.88,1,1.84.65,2.5-2.71,5.38-4.49,3.85-5.32,4.06-5.32,1.38,0-2.19-1.17-2.49-3.91-1-1.35.72-2.22.49-3.52-.94-1.57-1.74-1.91-1.77-4-.39-1.82,1.19-2.75,1.27-4.44.36-1.17-.63-2.43-.82-2.79-.43S906.84,1912.26,907.44,1912.48Z"/>
  <path data-name="path3373"
       
        data-tip="رامشیر"
        id="IR-1316"
        d="M1013,2112.58c0-14,.07-14.5,2.43-16.86,1.34-1.34,3.35-2.43,4.46-2.43,3,0,2.66-4.44-1.15-16.07l-3.19-9.72h-4.2a76.08,76.08,0,0,1-15.9-2.49c-.74-.24.47-2.86,3.22-7,2.43-3.61,4.41-7.6,4.41-8.85a5.05,5.05,0,0,1,1.44-3.47c1.45-1.21,7.26-10.74,8.79-14.42.5-1.22.25-4.11-.65-7.44-3.54-13.15-3.8-15.39-2.5-22,1.63-8.18,3.28-10.77,6.85-10.77a18.91,18.91,0,0,0,5.58-1.06c4.29-1.63,8.6-.28,14.39,4.49,7.8,6.42,13.5,13.91,15.3,20.1a71,71,0,0,0,4.44,10.86c3.41,6.47,3.54,8.14.92,11.47-5.45,6.93-4.49,11.52,4.27,20.55,7.08,7.31,15,16.8,14.43,17.31-.2.18-2.71,1.51-5.56,2.94-3.9,2-5.34,3.29-5.77,5.33a35.22,35.22,0,0,1-7.75,15c-3.59,4.15-3.8,4.73-3.27,9.19.66,5.61.46,5.77-13.23,10.21-4.63,1.51-12.11,4.25-16.62,6.09s-8.86,3.34-9.67,3.34c-1.24,0-1.47-2.31-1.47-14.42Z"/>
  <path
        data-tip="اهواز"
        id="IR-1301"
        d="M942.53,2073.46a7.73,7.73,0,0,0-3.53-1c-3.19,0-7.18-4.92-8-9.75-1-6.05-2.67-7.54-6.4-5.61-2.79,1.44-3,1.38-5.55-1.5-1.47-1.64-3.5-3-4.51-3-2.92,0-10.72,7.77-10.72,10.66,0,2.21-.31,2.42-2.91,1.9-1.6-.32-8.67-2.81-15.73-5.54a171.22,171.22,0,0,0-20.08-6.47,70.46,70.46,0,0,1-13.59-4.56c-7.52-3.63-10-3.49-12.63.69-2.48,3.89-4.6,4.33-15.69,3.29-8.51-.8-9.24-.7-22.05,3.09-7.29,2.15-15.28,4.78-17.76,5.84l-4.52,1.94,0-9.14c0-11.94.42-13.27,4.29-14,4.82-.91,9.56-4.25,11-7.79.74-1.76,3-6.11,5-9.65s4.6-8.23,5.67-10.41c2.28-4.6,16.65-28.92,20.45-34.6,4.17-6.23,5.3-8.6,8.1-17l2.65-7.94,7.32-4.42c7.12-4.3,17.73-13.76,17.73-15.8,0-.56-3.23-4.55-7.19-8.86s-9.36-10.38-12-13.48a47.09,47.09,0,0,0-10.41-8.81l-5.59-3.17,4.46-.24a78.69,78.69,0,0,0,9.42-1.21c27.51-5.45,27.74-5.52,32.05-9.39,3.61-3.25,3.75-3.28,11.27-2.79,7,.45,8.17.24,14-2.51l6.41-3,.77,3.13a20.18,20.18,0,0,1,.55,5.44,5.84,5.84,0,0,0,1,3.73c.93,1.13.79,1.85-.68,3.48-1.71,1.89-1.73,2.15-.24,3.24,1.09.8,1.46,2.08,1.11,3.88-.45,2.4-.21,2.69,2.22,2.69s5.32,2.23,5.4,4.2c0,.39-2,.44-4.53.09-6.39-.87-7.45,1.09-2.85,5.33,2.86,2.63,3.46,3.9,3.54,7.44.19,7.74.88,8.79,7.36,11.11l5.94,2.11-.34,6.07c-.2,3.66.1,6.33.75,6.74,1.07.66,1.54,4.51.54,4.51a13.33,13.33,0,0,1-3.09-1.68c-2.44-1.59-2.64-1.58-3.94.19-2.15,2.94-1.77,12.61.61,15.64,2.79,3.54,10,5.07,19.77,4.21a87.7,87.7,0,0,1,16.84.47c11.86,1.55,17.24.41,25.32-5.36a67.52,67.52,0,0,1,10-6,38.64,38.64,0,0,0,7.09-4.07c5-3.8,7.09-3.23,14.12,3.88l6.27,6.32-2.48,3.84c-4.1,6.36-4.22,8-.83,11.15l3,2.79-3.95,5.57a25.65,25.65,0,0,0-4.92,11.32c-1.44,8.55-1.44,8.41-.24,12.68,2.06,7.34,3.29,13.4,3.27,16.13,0,2.49-3,7.88-7.7,14.12a17.45,17.45,0,0,0-2.61,5.45c-.4,1.64-2.48,5.76-4.62,9.15s-3.9,6.7-3.9,7.33c0,.83-1.82,1-6.43.49-5.36-.55-7.08-.32-10.37,1.35-2.93,1.5-5.86,2-11.45,2-6,0-8.46.49-12.4,2.48-5.35,2.72-6.69,2.94-8.93,1.49Z"/>
  <path
        data-tip="هفتکل"
        id="IR-1325"
        d="M1087,1972.43c-3.57-3.65-4.1-3.85-11.44-4.36-8.92-.61-15.2-3.3-17.33-7.44-2.22-4.29-4.87-6.13-9.82-6.8-4-.56-5-.31-7.69,2a14.91,14.91,0,0,1-3.77,2.61c-.37,0-3.13,2-6.12,4.46s-6.27,4.47-7.28,4.47c-2.38,0-24.39-22.13-27.7-27.86-1.93-3.33-2.7-6.42-3.23-13l-.69-8.6,3.06-1.58c4.31-2.22,5.1-4.3,5.1-13.39v-8h8.25a126.92,126.92,0,0,0,17.54-1.59c9.8-1.69,13.43-1.53,26.27,1.11,4.36.9,9.41,1.87,11.22,2.16,2.58.42,3.13.88,2.56,2.16-2.12,4.79,1.7,20.23,5.72,23.1,15.87,11.33,15.82,11.29,18.22,17.17a66.88,66.88,0,0,1,3.35,12.31,102.21,102.21,0,0,0,2.52,11.51c2.11,6.93,2,11.1-.39,12.36-3.11,1.67-4.41,1.24-8.35-2.8Z"/>
  <path data-name="path3361"
        data-tip="شادگان"
        id="IR-1318"
        d="M903.47,2194.16c-2.25-2.34-5.33-5.91-6.85-7.93-3.29-4.38-7-4.86-12.25-1.62l-3.36,2.08-3.66-3.22a53.35,53.35,0,0,0-10.69-6.41c-7.39-3.37-10.07-5.88-17.62-16.46-5.26-7.37-7.3-12.29-8-19.35-.74-7.27-3-12.26-5.6-12.26-1.68,0-1.9-.33-1.13-1.71.66-1.17.51-2.56-.47-4.47-1.89-3.64-1.4-4.4,9.42-14.87,6.92-6.68,9.09-9.44,9.6-12.15.36-1.94,1-3.76,1.54-4.06s.87-1.57.87-2.82c0-2.35,4.07-7.52,5.91-7.52,1.42,0,1.31-3.29-.15-4.76-1.64-1.64-4.38-1.49-7.28.41-3.38,2.22-3.05.61.66-3.23,4.15-4.27,3.34-6.31-2.5-6.31-4.12,0-4.46-.2-5.08-3-.76-3.48-2.92-4.71-5.48-3.11-1.46.91-1.85.71-2.33-1.2-.64-2.53,1.85-12,3.4-13,.54-.33,3.34.75,6.23,2.4a61.82,61.82,0,0,0,13.62,5c4.61,1.08,10.83,2.85,13.83,3.92l15.36,5.5c12,4.32,14.39,4.5,14.39,1.12,0-2.2,6.72-10.46,8.5-10.46a17.92,17.92,0,0,1,4.06,3c2.83,2.49,3.73,2.81,5.41,1.91,2.32-1.25,4.83-.58,4.84,1.27,0,5.92,5.26,13.67,9.23,13.67a20.31,20.31,0,0,1,5.29,1.17c2.84,1,3.89.89,8.25-1.16,2.74-1.28,5.27-2.05,5.62-1.7.58.58-.18,4.21-4.66,22a107.87,107.87,0,0,1-5.73,15.49c-4.35,9.33-6.47,18.17-5,20.89.49.93,3.17,2.94,5.94,4.47,4.43,2.44,5.52,3.74,9,10.67,2.77,5.47,4.15,9.63,4.51,13.6.35,3.82,1.13,6.28,2.37,7.39,2.52,2.29,2.32,4.8-.53,6.67-1.9,1.24-4.08,1.44-10.73,1-5.4-.38-9.07-.2-10.43.53-2.18,1.16-6.51,9.57-7.67,14.9-.85,3.83-2.15,4.69-4.31,2.84-3.4-2.92-4.94-2.71-9.79,1.29-6.74,5.57-10.95,5.49-16.55-.33Z"/>
  <path data-name="path3355"
        data-tip="بندر ماهشهر"
        id="IR-1310"
        d="M971.55,2203c-8.91-4.35-9.14-4.54-8.57-7.38.74-3.72-1.6-6.19-8.17-8.6-6.19-2.27-8.18-4-6.54-5.62.94-.93,2.19-.72,5.69,1,7.16,3.48,13.36,2.61,13.36-1.86a4.43,4.43,0,0,0-1.51-2.92c-1.33-1.11-1.27-1.42.5-2.66,2.64-1.85,2.53-4.47-.33-7.91-1.57-1.88-2.51-4.59-2.89-8.26-.68-6.65-5.62-17.95-9.37-21.44a35.42,35.42,0,0,0-6.61-4.53l-3.85-2,.54-5.29c.34-3.27,2.21-8.82,4.9-14.54,4.42-9.41,6.2-14.64,7.7-22.64.45-2.45,1.4-7.14,2.09-10.41l1.26-6,6,0a21.65,21.65,0,0,0,9.49-1.83c4.38-2.3,21.88-2.88,29.22-1,2.71.69,5.88,1,7,.74,1.92-.48,2.38.29,4.68,7.72,4.14,13.35,4.19,13.71,1.94,13.71a9.5,9.5,0,0,0-4.57,2.05l-2.62,2.06v17.28c0,17.27,0,17.28,2.24,17.28,1.22,0,4.57-1.11,7.43-2.44l5.21-2.42v3.38c0,2-1.59,6.39-4,10.91-2.18,4.14-4,8.19-4,9,0,4.4-15.18,26.19-18.25,26.19-.7,0-5-2.67-9.52-6s-8.84-5.95-9.58-5.95c-1.63,0-1.71,3.79-.29,14.47a150.49,150.49,0,0,1,.74,19l-.29,11.19-9.16-4.45Z"/>
  <path
        data-tip="مسجدسلیمان"
        id="IR-1324"
        d="M1084.77,1875.61c-8.13-8.59-10.35-12.4-10.35-17.79,0-2.47-.89-4.48-3.11-7-2.92-3.33-3.15-4.15-3.61-13l-.49-9.42-3.09.7a36.51,36.51,0,0,1-21.52-2.12c-7.29-3.16-9.82-5.54-9.84-9.26,0-1.44-1.35-4.58-3-7s-3-5.68-3-7.44c0-4.07-.84-5.18-5.22-7a15,15,0,0,1-5.92-5c-1.6-2.5-2.77-3.35-4.12-3-1,.26-3-.4-4.35-1.46a10.83,10.83,0,0,0-5.73-1.93c-5.59,0-8.39-1.66-10.09-6-1.17-3-2-3.84-3.26-3.43-1.1.35-2.27-.34-3.34-2-1.29-2-2.18-2.38-4.11-1.9-2.75.69-5.77-1.2-5-3.14.56-1.46-1.62-3.53-6.16-5.83-3.92-2-6.12-.82-6.13,3.29a43.51,43.51,0,0,1-1.48,8.06c-2.38,8.87-2,11,2.57,15.42s5.47,6.16,6.89,15.1c1.17,7.34,6,17.08,11.52,23.28,2.49,2.8,3.33,4.65,3.34,7.44,0,3,1,4.89,4.95,9.64a53.94,53.94,0,0,1,6.45,9.42c.84,1.92,2.22,4.84,3.08,6.47,2.28,4.35,2.79,12.13,1.41,21.51-.67,4.53-1.39,8.92-1.62,9.75-.34,1.3.91,1.41,9.27.84,5.31-.37,12.73-1.22,16.48-1.88,8.56-1.52,19.83-.6,37.81,3.07h0c4,.82,22,.35,27.31-.72,1.62-.32,2.93-1.08,2.93-1.7C1094.23,1887.33,1091.5,1882.72,1084.77,1875.61Z"/>
  <path
        data-tip="خرمشهر"
        id="IR-1313"
        d="M807.21,2186.26a42.94,42.94,0,0,1-2.05-9,24.75,24.75,0,0,0-2.83-8.87c-2.7-4-9.37-7.43-17.36-8.92-3.46-.64-6.49-1.7-6.74-2.36s-.07-21.33.42-45.93c.83-42.5,1-44.8,2.79-46.17,1.06-.79,7.72-3.35,14.81-5.69,12.67-4.18,13.13-4.26,26.53-4.26h13.63v2.79c0,3.85,1.68,6.63,4,6.63,1.07,0,2-.44,2-1,0-2.15,2-.83,2.61,1.74.83,3.39,2,4.18,6.06,4.19,1.78,0,3.23.3,3.23.64a19.31,19.31,0,0,1-3,4c-4.71,5.37-3.26,6.5,5.94,4.66l3.42-.69-4,3.86c-3.19,3.12-4.21,5-5.26,10-1.24,5.81-1.75,6.56-10.19,14.81-10.83,10.61-11.2,11.23-9.35,15.66,1.23,2.94,1.23,3.49,0,4a2.85,2.85,0,0,0-1.4,2.58c0,1.47.83,2.2,3,2.64,3.85.77,4.86,2.76,5.59,11,.33,3.68,1,7.25,1.57,7.93.75,1,.09,1.24-2.77,1.24a17.84,17.84,0,0,0-7.88,2.42c-3.6,2.11-4.52,3.42-7.28,10.47-1.73,4.44-3.15,8.7-3.15,9.49,0,2-1.24,1.77-3.24-.56s-5-2.58-6.58-.62c-.62.75-1.23,3.74-1.36,6.64-.2,4.57.07,5.42,2,6.4,1.68.86,1.93,1.39,1,2.28-1.84,1.84-2.76,1.4-4.19-2.06Z"/>
  <path
        data-tip="آبادان"
        id="IR-1302"
        d="M943.25,2221.08c-1.22-.68-1.54-1.67-1.11-3.39.94-3.76-.29-7-4.33-11.3-2-2.18-5.44-6-7.56-8.45s-4.41-4.49-5.09-4.49-2,1.15-2.92,2.56c-2.07,3.15-7.13,5.37-12.26,5.37-3.4,0-4.38-.59-8.22-5-9.88-11.33-11.55-12.89-13.21-12.25-.9.34-1.39.87-1.09,1.17.8.8-4.62,4.16-6.73,4.16-1,0-2.91-1.31-4.26-2.92-2.52-3-7.53-6-10-6-.76,0-1.08-.49-.71-1.1s0-.87-1.41-.43c-1.61.51-3.22-.41-7.06-4-2.74-2.56-5-5-5-5.46s-1.17-2.06-2.6-3.59a53.09,53.09,0,0,1-4.92-6.42c-2.85-4.46-5.32-5.34-10.79-3.8-3.94,1.1-4.46,1.67-7.56,8.28-1.83,3.9-3.21,8-3.06,9.16.42,3.18-3,6.77-5.59,5.93-1.2-.38-2.17-1.31-2.17-2.07a3.72,3.72,0,0,0-2.08-2.5c-1.84-1-2-.89-1.43.91a5.85,5.85,0,0,1-1,4.49c-1.59,2.43-1.56,2.49,2.37,4.5,8.82,4.49,15.88,10.58,16,13.76,0,.71,2,3.1,4.44,5.31s4.54,4.87,4.71,5.93.61,1.79,1,1.63c1.46-.6,7.81,6.73,8.74,10.08,1.49,5.35,1.27,6.31-2.48,10.69-3.41,4-4.22,5.47-2.71,5,.42-.14,2.59,1.44,4.82,3.5,3.69,3.41,4.19,4.46,5.36,11.33s1.69,8,5.76,12.1c4.44,4.5,11.46,8.51,13.11,7.49.48-.29,2.75.38,5.05,1.49a21.89,21.89,0,0,0,5.48,2c.71,0,3,1.47,5,3.26a43,43,0,0,0,7.69,5.2c2.18,1.08,4.11,2.26,4.28,2.64s1.08-.08,2-1c1.64-1.59,1.61-1.92-.64-6.46s-2.28-4.88-.68-6.66,1.57-2-.9-5c-3-3.51-3.25-5.55-1.13-7.81.81-.87,2.6-2.91,4-4.55l2.51-3,2.77,3.21c2.72,3.14,2.93,3.2,10.65,3,5.8-.11,8.75.3,11.18,1.57,3,1.58,3.47,1.59,5,.18a6,6,0,0,1,2.65-1.56c1.6,0,6.2-10.56,5.26-12-1.18-1.85-1.11-7.54.1-8.29.55-.33,1-1.67,1-3s.39-2.61.87-2.9C946,2230.69,945.11,2222.12,943.25,2221.08Z"/>
  <path
        data-tip="شوش"
        id="IR-1319"
        d="M787.72,1773.1c4.84.07,7.41-.57,8.74-2.18.87-1,1.31-1.06,2.31-.06,1.78,1.79,2.74,7.92,3.29,21.1.33,7.68.62,10.38,1.32,12,2.53,5.75,2,7.41-2.74,8.34a12.94,12.94,0,0,0-8.27,5.42,21.37,21.37,0,0,0-1.4,6,25.29,25.29,0,0,1-1.1,5.58,59.74,59.74,0,0,1-5.87,6.56c4.54,6.7,8.79,13.94,8.8,15.58,0,1.34,1.38,4.66,3.05,7.39s3.78,6.18,4.69,7.68c1.38,2.25,2.37,2.72,5.72,2.72,4.73,0,12.32,3.67,13.83,6.67a22.76,22.76,0,0,0,2.34,3.62,37.71,37.71,0,0,1,3.43,7.79c1.88,5.49,2.54,6.37,5.6,7.41h0c4.32,1.47,4.72,1.5,5.38.43.29-.47,2.88-1.15,5.76-1.5,11.47-1.42,26.55-5.48,26.55-7.15s3.4-4.31,6.77-5a20,20,0,0,1,7.63.62c3.84,1.07,5.07,1,8.91-.46,4.51-1.72,5.41-3.16,3.29-5.27-.88-.89-.89-1.77,0-3.67.69-1.52.76-2.51.17-2.51-1.61,0-1.09-2.55,1.09-5.32,1.79-2.28,1.86-2.7.49-3.22-1.72-.66-2.13-4.87-.57-5.84,1.88-1.16,1-2.48-1.65-2.48-3.12,0-6.28-2.54-6.28-5,0-1-1.34-2.72-3-3.88-4.72-3.36-4.88-6.36-.55-10.56l3.66-3.55-2.23-2.37c-1.22-1.3-2.8-2.37-3.5-2.37a3.48,3.48,0,0,1-2.32-1.94c-.57-1.07-1.65-1.71-2.4-1.43-1.78.69-5.49-4.1-4.91-6.33a8.41,8.41,0,0,0-1.08-4.7,13.58,13.58,0,0,1-1.54-4.19c0-.68-.92-1.24-2-1.24-3.83,0-8.56-2.74-13.64-7.91-2.81-2.85-5.4-6.14-5.76-7.31s-2.57-6.19-4.92-11.14c-4-8.53-4.5-9.1-8.79-10.74a15.7,15.7,0,0,1-6.74-4.88,60.78,60.78,0,0,0-4.06-5.12,20.7,20.7,0,0,1-3.09-5,13.32,13.32,0,0,0-2.81-4.26c-1.31-1.09-2-.88-4.14,1.3-4.81,4.81-9.54,1.12-7.26-5.67a5.76,5.76,0,0,0,0-4.37c-.59-1.05-.6-2.94,0-5a7.32,7.32,0,0,0-.12-5.23,5,5,0,0,1-.41-3.56c.36-.94-.27-2.84-1.49-4.49a10.79,10.79,0,0,1-2.12-4.89c0-2-.09-2.32-2.14-1.44-1,1.27-2.62,1.65-6.46,1.94l-4.64.35-2.81,2.62c-3.7,3.45-3.71,4.44-.09,9.77,3.89,5.7,5.38,9.64,5.07,13.31-.25,2.85-.21,3,1.83,5,3.15,3.24,3.31,3.11-5.21,4.21-2.19.29-4.22.52-4.52.52s-.42.87-.2,2.51l.33,2.51-2.3.35c-2.19.32-2.3.42-2.3,2s.2,1.7,1.59,2a19.28,19.28,0,0,0,3,.32c1.7,0,2.74,1.52,2.29,3.33Z"/>
  <path
        data-tip="دشت آزادگان"
        id="IR-1315"
        d="M757.6,1861a103.61,103.61,0,0,1-13.48,6.54c-2.21.66-8.56,3.78-8.94,4.38s-4.82,2.68-6.94,3.19a2.85,2.85,0,0,1-.39.06c1.51.44,3,.95,4.65,1.58a57.37,57.37,0,0,1,19.6,13,64.92,64.92,0,0,0,5.88,4.65c4.18,2.46,17,13.18,21.91,18.27a68.76,68.76,0,0,0,10.91,9.07,93.63,93.63,0,0,1,10.91,8.29c3.21,2.89,9.55,6.92,15.37,9.77,5.46,2.66,11.93,6.08,14.38,7.59l4.47,2.75,5.15-3.05c9.08-5.37,14-9.29,15.63-12.37l1.55-3L852,1925c-3.44-3.7-8.16-9.18-10.5-12.18a34.07,34.07,0,0,0-13.74-10.93,5.24,5.24,0,0,1-2.75-3.66c-1.81-9.18-3-12.8-5.8-17.58-3.55-6.08-5.83-7.5-13.48-8.37-5.31-.61-5.46-.72-9.58-6.88a43.11,43.11,0,0,1-5.4-11.4c-.65-2.83-2-6-2.9-7.13s-3.59-4.79-6.23-8.63C773,1847,760.43,1859.05,757.6,1861Z"/>
  <path
        data-tip="ایذه"
        id="IR-1307"
        d="M1212.8,1876.19l-1.07-1.08-1.32-1.33c-7.49-7.54-9-9.57-8.54-11.37.39-1.59-.23-3.23-2-5.31-2.8-3.33-6.46-10.78-6.46-13.15,0-.83-1.08-2.22-2.39-3.09a8.6,8.6,0,0,1-2-2,15.55,15.55,0,0,1-1.93-3.3l0-.07a12.63,12.63,0,0,0-5.29-6,52.9,52.9,0,0,1-5.76-4,13.18,13.18,0,0,0-4.66-2.33c-1.47-.34-5.58-2.86-9.13-5.58s-6.85-4.95-7.32-4.95c-2.92,0-7.89-9.91-10-20a34.58,34.58,0,0,0-4.39-9.09c-2-3-3.62-5.93-3.62-6.51s-1.67-3.57-3.72-6.66c-3.25-4.9-5.14-7.84-5.92-9.2-.54-.92-3.25,2.28-3.25,3.84,0,2.76-5.44,9.47-9.06,11.18a67,67,0,0,1-8.21,2.8l-2.07.57c-6.37,1.64-7.55,2.39-14.24,9-5.63,5.56-7.12,7.61-6.53,9,1.62,3.69,1.64,9.2,0,11.63a9.54,9.54,0,0,0-1.59,3.92c0,1.5,8.87,8.66,12.15,9.81,1.12.4,1.73,1.65,1.73,3.53,0,4-5,8.29-8.75,7.47-6-1.32-9.3-2.69-12-4.95-2.19-1.84-3.06-2.11-3.85-1.15-2.55,3.1-1.15,17.62,2,20.55,1.33,1.24,2.2,3.91,2.77,8.46l.82,6.65,8.76,8.79c4.82,4.83,9.06,9.8,9.43,11s1.24,4.18,1.92,6.54c1.34,4.61,5.75,9.1,8.94,9.1a7.85,7.85,0,0,0,4.3-2.34,30.13,30.13,0,0,1,6.75-4.49c4.73-2.29,5.27-2.18,12,2.31,4.34,2.91,10.94,2.53,14.45-.83,3.79-3.63,9.34-3.41,9.86.4a8.93,8.93,0,0,0,1.74,4c.77.86,2.11,4,3,6.94s2,5.79,2.48,6.31a5.46,5.46,0,0,1,.9,3.15c0,3.52,7.45,16.35,12.19,21a72.9,72.9,0,0,0,9.22,7.44c2.68,1.74,5.58,4.59,6.45,6.32s2.32,4.3,3.24,5.71h0l.37.54c.8,1.15,1.57,2,1.82,2a98.34,98.34,0,0,0,8.65-6c4.72-3.51,7.49-5.89,9-7.93a7,7,0,0,0,1.57-4.2,10.65,10.65,0,0,1,1.28-4,15,15,0,0,0,1.24-6.09c0-3.35.47-4.23,3.18-6,1.75-1.11,3.2-2.8,3.22-3.75,0-1.53.82-1.65,7-1.11l7,.62v-4c0-4.92-1.75-9.1-3.82-9.1-.83,0-2.77-1.2-4.3-2.67-2.27-2.17-2.78-3.52-2.78-7.28,0-3.3-.53-5-1.91-6.34l-.08-.08a6,6,0,0,1-2-2.88,7.87,7.87,0,0,0-1.45-2c-4.42-2.2-10-5.38-10.73-6.27C1209.62,1877.91,1210.38,1877.3,1212.8,1876.19Z"/>
  <path
        data-tip="اندیمشک"
        id="IR-1306"
        d="M896.15,1607.73c-14.29-3.73-20.22-5.32-23.53-6.33-4.39-1.33-7.63-2.24-10.26-2.78-.59-.12-1.16-.23-1.7-.31-4.38-.69-7-.11-10.85,1.53-1.63.7-5.43,2-8.43,3a85.71,85.71,0,0,0-9.42,3.58c-3.5,1.66-12.74,5.53-19,8-2.82,1.09-6.61,9.52-5.78,12.85,1.6,6.43,1.61,7.82.05,10.21-1.08,1.65-1.29,2.72-.6,3.14,1.85,1.15,1.13,3.28-2.37,7-2.34,2.48-4,3.45-5.21,3.06-1.57-.5-1.81.16-2,5.56-.12,4.09.25,6.47,1.14,7.17.72.58,1.61,3.13,2,5.65.51,3.61.28,5-1,6.29-2.33,2.32-5.78,3.5-10.26,3.5-2.47,0-4,.52-4.37,1.49a5.5,5.5,0,0,1-2.1,2.11,6.78,6.78,0,0,1-.87.48c-2.22,1-2.3,1.27-1,3.71,2.49,4.78,1.87,6.09-2.89,6.09S771,1694,771,1697.27c0,1.6.43,2.09,1.48,1.68s1.49.17,1.49,2.39c0,3.72,2.34,6,4.42,4.23,1.56-1.29,3.8-.83,5.84,1a11.52,11.52,0,0,1,1.59,1.82,3.47,3.47,0,0,0,.3.37c2.09,2.55,6.18,3.66,14.63,4a18.72,18.72,0,0,1,2,.19c2.65.41,3.91,1.37,3.91,3,0,.81,1,2.82,2.23,4.48,1.9,2.57,2.24,4.32,2.29,11.62,0,4.72.38,9.53.77,10.68a2.86,2.86,0,0,1-.8,3.35c-2,1.67-1.91,3,.23,3a4.19,4.19,0,0,0,3-2c1.84-3,5.59-2.48,8.57,1.07,1.42,1.67,2.57,3.47,2.57,4a19.94,19.94,0,0,0,2.51,4.92h0c1.38,2.19,2.91,3.74,3.38,3.44s1.37-2.8,2-5.56c1.63-7.61,5.87-15.71,10.66-20.36,2.89-2.81,4.21-4.89,4-6.36a3.65,3.65,0,0,1,1.34-3.2c2.77-1.81,6.68,0,9.49,4.48l2.66,4.2,1.21-3c.7-1.73,3-4,5.51-5.5,6.85-4,7.05-6.68,1.31-17.8-3.59-7-4.5-9.56-3.75-10.78.57-.92.8-5.55.54-10.74l-.44-9.12,3.31-3c3.85-3.51,4.16-3.58,6.4-1.34,1.57,1.58,1.76,1.56,3-.17,1.15-1.57,1.73-1.67,3.91-.68s3.08.81,6.71-1.65a41.24,41.24,0,0,1,5.89-3.45c1-.35,2.49-2.2,3.41-4.13,1.46-3.08,2.11-3.5,5.34-3.5,2.8,0,3.78-.46,4.17-1.94.72-2.75,6.35-5.88,11.92-6.62l4.76-.64-2.19-2.33a9.48,9.48,0,0,1-2.32-5.92c-.09-2.68-.8-4.09-2.81-5.55-3.82-2.79-3.43-5.29,1.26-8,2.18-1.24,3.85-2.55,3.72-2.91-.32-.88-3-3.74-5.92-6.6-3.09-3-6.48-6-7.79-6.68A94.14,94.14,0,0,0,896.15,1607.73Z"/>
  <path
        data-tip="دزفول"
        id="IR-1314"
        d="M1064.4,1698.77l.29-.23c3.82-3,6-4.93,6.85-6.53,1.12-2.18-.34-3.81-4-7.08-4.34-3.91-5.29-5.39-5.75-8.92-.42-3.21-.13-4.71,1.19-6.16,2.24-2.49,1.33-6.38-2-8.57l-.15-.08c-1.69-1-4.35-1.5-8.19-1.42l-5.85.14-3.8-5.64c-4.88-7.24-8.54-10.07-10.71-8.27-1.29,1.07-2.78.93-8.72-.79a45.55,45.55,0,0,0-10.87-1.93,7.9,7.9,0,0,1-6-1.9c-3.34-3.05-6.48-4.48-7.21-3.3-.94,1.52-6,1.18-7.44-.49a5,5,0,0,0-3.34-1.5,11.91,11.91,0,0,1-5.09-2c-3.19-2.12-9.87-2.68-10.95-.92-.43.68-1.48.29-3-1.09-2.48-2.32-2.18-2.35-13.9,1.63-5.59,1.91-6.87,1.73-8.43-1.18a6.68,6.68,0,0,0-4-3.08c-1.9-.38-3.17-1.64-4.42-4.4-1.14-2.53-2-4-3.34-5s-1.84-.59-5.59-1.82c-1.07-.35-1.9-.68-2.59-1l-1-.43a4.74,4.74,0,0,0-3.13-.63,6,6,0,0,0-3.66,2.83c.22.29.45.58.68.86l4.32,5.47a35.19,35.19,0,0,1-4,4.18c-1.71,1.49-2.84,2.2-2.76,3.14s.86,1.56,2.35,2.24c2,.93,2.48,1.82,2.48,5.16,0,3,.65,4.68,2.54,6.58,3.14,3.13,2.6,4.89-1.72,5.6-9.73,1.6-12.72,3.34-12.72,7.4,0,2-.37,2.33-2,1.83l-3.85-1.19c-1.44-.45-2.4.36-4.17,3.52a13.31,13.31,0,0,1-6.31,5.89,20.74,20.74,0,0,0-5.9,3.92c-2.13,2.39-4.54,2.73-6.41.89-1-1-1.44-.9-2.23.49-1.19,2.12-3.19,2.24-4.81.29-1.06-1.28-1.49-1.27-3.49,0-2.81,1.84-4,8.21-2.61,14.27.65,2.88.61,5-.12,6.59-.89,2-.53,3.36,2.2,8.55,4.2,8,5.16,12.16,3.89,17-.79,3-1.77,4.11-4.42,5.21a15,15,0,0,0-5.9,5.38c-1.38,2.18-3.16,4-4,4s-2.32-1.7-3.38-3.79c-3.58-7-6.32-7.72-7.42-1.92a6.88,6.88,0,0,1-3.53,4.89c-3.25,1.85-7.82,10-10.36,18.6s-2.23,10.32,2.33,12.33c4.24,1.87,7.58,6.82,12,17.82a40.46,40.46,0,0,0,8.4,12.15c5.32,5.59,6.5,6.36,9.73,6.36,3.42,0,3.82.32,5.59,4.47,1.16,2.7,2.56,4.46,3.55,4.46,1.16,0,1.42.5.91,1.73-1.88,4.56-1.77,5.21.85,5.21a4.09,4.09,0,0,1,3.65,2h0c1.54,2.88,3.51,1.82,3.07-1.64-.19-1.59-.42-10.49-.49-19.78-.15-19.09.16-20.14,7.35-24.9,3.6-2.38,3.9-2.91,3.36-5.83-.71-3.77-.2-4.2,7-5.87s17.39-8.67,26.42-18c8.29-8.52,12.75-11.46,21-13.82,6.71-1.92,11-5.2,13.7-10.55,1.55-3,1.74-4.29.88-5.89-1.88-3.51-1.35-7.48,1.63-12.19s8.9-8.56,13-8.56c2.84,0,15,4.66,18.3,7a23.52,23.52,0,0,0,8,2.84c2.88.48,7.25,1.34,9.7,1.91,5.63,1.32,12,1.37,15.29.13l2.52-1-2.91-4.74c-4.23-6.9-4.67-9.61-1.87-11.57,3.92-2.75,8.18-2.06,11.64,1.88a40.31,40.31,0,0,1,4.69,6.7c2.8,5.53,4.33,6.68,8.91,6.68q.49,0,1,0a9.71,9.71,0,0,0,2.4-.39C1059.35,1702.57,1061.18,1701.34,1064.4,1698.77Z"/>
  <path
        data-tip="اندیکا"
        id="IR-1305"
        d="M1120,1765a9.39,9.39,0,0,1,2.48-5.16c3-3.2,3.1-4.35.65-5.66-2.25-1.2-5.09-5.4-5.66-8.33-.23-1.19-.87-2.31-1.42-2.49a2,2,0,0,1-1-1.88c0-1.87-6.84-9.71-22.45-25.73-6.47-6.63-13.24-14.12-15-16.64l-3.28-4.57-3,2.26c-1.64,1.24-4.68,3.71-6.76,5.48-2.67,2.28-4.79,3.23-7.19,3.23-1.87,0-3.88.48-4.47,1.07a2.3,2.3,0,0,1-2.34.38c-2.21-.63-5-3.22-6.24-6.29-2.39-6-7.26-11-10.61-11-6.26,0-2.83,8.26,7.6,18.32,3.63,3.51,7.31,11.12,7.3,15.09,0,3.54-5.26,12.76-8.14,14.3a11.54,11.54,0,0,1-4.9,1.1c-2.49-.08-2.74.26-3,4.07-.2,2.84-.72,4-1.63,3.86-.73-.15-1.15.3-.91,1a3.33,3.33,0,0,0,2.57,1.58c2.52.37,2.78,2.72.75,6.79-.78,1.55-1.89,4-2.47,5.55a7.16,7.16,0,0,1-3.3,3.65l-5.47,2.21c-1.78.72-3.23,1.88-3.23,2.59s-1.56,2.2-3.47,3.32-3.48,2.57-3.48,3.19,1.39,4,3.12,7.59,3.45,7.11,3.83,7.91,2.19,1.78,4,2.16a8.16,8.16,0,0,1,6.87,8.14c0,1.8,1.26,5,3,7.58s3,5.62,3,7a6.26,6.26,0,0,0,1.74,4.1c2.77,2.44,10.31,5.72,13.13,5.72a6.14,6.14,0,0,1,3.7,1.11c.81.81,1.85.74,3.91-.28a20.81,20.81,0,0,1,6.64-1.64c2.11-.14,4.48-.91,5.28-1.7,2.07-2.07,2.95-1.86,7.59,1.89a34,34,0,0,0,5.62,3.88c4.55,1.69,11.08-1.15,8.85-3.84a3.73,3.73,0,0,0-2.09-1.4c-1.15,0-7.77-4.77-9.49-6.83s-1.53-7.73.45-11.09c1.62-2.73,1.59-3-.5-6.73-2.84-5.06-2.76-5.76.9-8a17.61,17.61,0,0,0,4.94-4.94c1-1.69,2.53-3.08,3.34-3.08a3.66,3.66,0,0,0,2.54-2c1-2,6.94-4.86,12.43-6.54a26.83,26.83,0,0,1,7.21-1.37C1114.73,1774,1120,1768.11,1120,1765Z"/>
  <path
        data-tip="رامهرمز"
        id="IR-1317"
        d="M1129.55,2053.62c2.88,0,7-5.39,9.81-12.89,1.54-4.09,4.05-9.94,5.57-13l2.76-5.55-3.9-5.86c-2.49-3.74-3.9-7-3.9-9,0-3-.21-3.19-4.72-3.78-3.31-.43-5.65-.74-7.36-1.12-4.1-.91-4.62-2.22-6.2-6.62-1.41-3.92-3-6.32-5-7.63-3.58-2.34-4.32-4.05-4.41-10.2-.06-4-.71-5.55-3.92-9.6a105.15,105.15,0,0,1-7.46-11.34c-2-3.55-4.12-6.77-4.74-7.15-1.48-.92-.4,5.89,2.12,13.37,4.48,13.31-4.14,19.94-13.6,10.48-3.22-3.22-3.8-3.42-10.1-3.42-8.18,0-14.2-2.8-18-8.38-2.74-4-6.16-6.4-9.27-6.46-2.14,0-10.71,5.47-17.39,11.18-2.89,2.48-5,3.59-6.19,3.23l-3.67-1.14c-1.47-.46-2.49.44-4.63,4.1l-2.75,4.68,3.16,2.6c3.53,2.9,3.85,4.21,1.57,6.49-1.42,1.42-1.41,1.62.13,2.21a4.58,4.58,0,0,0,3.54-.5c2.5-1.56,7.17-1.44,11.33.3,1.9.79,7,4.94,11.23,9.21,6.18,6.18,8.13,8.87,9.55,13.15a136,136,0,0,0,5.21,12.59c2.93,6.17,3.67,7.07,5.18,6.26,1.78-.95,3.37-.63,11.78,2.44,2.38.87,5.19,1.31,6.24,1,1.44-.45,3.64,1,8.8,5.89,3.79,3.57,8.16,7.15,9.72,7.95a21.06,21.06,0,0,1,5.62,5.24,35.89,35.89,0,0,0,4.35,5c1.35,1.1,2,.44,4.61-4.93,2.53-5.13,3.63-6.37,6.37-7.15,2.89-.83,3.54-.66,5.15,1.32a8.83,8.83,0,0,1,1.85,4.65,3.91,3.91,0,0,0,.19,1.27A1.42,1.42,0,0,0,1129.55,2053.62Z"/>
  <path
        data-tip="باغ ملک"
        id="IR-1308"
        d="M1160.31,1988.56l2.08-2.75,2.69,2.11a23.74,23.74,0,0,0,6.1,3.24c3.73,1.24,4.35,1,16.3-7,3-2,7.26-4.82,9.47-6.28a22.31,22.31,0,0,1,2.26-1.26,12.31,12.31,0,0,1,4.44-1.38c3.63,0,3.43-2.27-.46-5.13l-1.16-.9a61.82,61.82,0,0,1-11.54-11.89,22.55,22.55,0,0,1-1.84-3c-2.32-4.79-5.24-7.82-11.7-12.12a38,38,0,0,1-7.15-6.54c-3.9-4.85-10.08-16.05-11.13-20.18a84.46,84.46,0,0,0-5.29-14.59,25.65,25.65,0,0,1-2-5.21c-.84-3.5-2.15-3.44-5.39.25-2.43,2.77-3.09,3-9.49,3-5.8,0-7.38-.39-10.12-2.48-4.27-3.26-6.2-3.13-11.31.74-8.82,6.68-10,6.72-16.44.6-3-2.85-3.11-2.86-9.92-1.88a112.54,112.54,0,0,1-13.09,1c-5.76,0-6.3.21-7.19,2.57-1.41,3.68-1.15,7.15,1,13.3,1.72,5,2.67,6,11.11,12.4,8.68,6.55,9.4,7.37,12.22,14a49.75,49.75,0,0,0,5.78,10.31,50,50,0,0,1,5.24,8.1,48.37,48.37,0,0,0,6,8.8c3.07,3.4,3.66,4.86,4.24,10.47.62,5.91,1,6.82,4.31,9.66a20.59,20.59,0,0,1,5.42,8.08c1.75,4.85,1.82,5,7.36,6.06l.35.07c7.16,1.4,12.17.81,14.91-1.75a6.81,6.81,0,0,1,.82-.63,8.93,8.93,0,0,1,1.71-.88,5.32,5.32,0,0,1,1.76-.39C1152.83,1997.09,1155.88,1994.39,1160.31,1988.56Z"/>
  <path
        data-tip="بهبهان"
        id="IR-1311"
        d="M1182.83,2219.26c.11,0,7.78.45,17.06,1,16.72.94,22.58,2,30.31,6,.78.41,1.58.84,2.42,1.31,3.27,1.85,6.28,3.17,6.69,2.92.23-.13.4-2.39.51-5.86.36-11.38.09-35.75-.69-40.52-.58-3.52-1.48-5.36-3.14-6.45-4.43-2.9-9.07-7.41-11.24-10.91-3.4-5.51-7.51-15.79-6.56-16.38.48-.29,2.13,0,3.68.58,3.38,1.34,12.39,1.68,18.05,1l.92-.13a12,12,0,0,0,2.94-.75c4.32-1.92,8.19-6.68,8.1-9.95a4.13,4.13,0,0,0-.2-1.2h0c0-.06-.06-.12-.09-.19-.67-1.51-2.9-2.78-9.88-6.21-.85-.41-1.69-.84-2.5-1.27a65,65,0,0,1-11.26-7.28c-.43-.37-.82-.72-1.19-1.07-4.72-4.56-4.83-4.78-4.23-9.18.55-4,.41-4.51-1.31-4.51a4.14,4.14,0,0,0-.64.07l-.34.05a21.41,21.41,0,0,0-4.42,1.53c-1.9.91-2.76,1.32-3.88.93a17.09,17.09,0,0,1-4-2.68l-.28-.22-.83-.67c-.46-.37-1-.79-1.48-1.23-1.4-1.17-3-2.55-4.57-3.95l-1.75-1.56-1.67-1.52c-4.13-3.83-5.48-5.21-5.5-6.46a2.76,2.76,0,0,1,.35-1.29l.16-.31c.94-1.76,1-3.49.13-7.42a59.53,59.53,0,0,1-1.11-10.28c0-2.83-.42-5.79-.91-6.56a1.75,1.75,0,0,0-1.51-.7,7.2,7.2,0,0,0-2.27.38,29,29,0,0,0-7.22,3.83l-.25.17c-.62.44-1.26.91-1.9,1.4a49.06,49.06,0,0,0-7.08,1.16c-.84.47-.68,1.11,1.12,3.94-.48.43-1,.83-1.39,1.21-5.39,4.61-7,4.87-9.58,2.6l-.56-.51c-1.52-1.46-3.51-2.65-4.44-2.65-2.42,0-9.42,6.62-13.16,12.47a24.3,24.3,0,0,0-2.12,3.76c-1.1,2.58-1.37,5.44-1.83,12.85-.39,6.37-1.11,11.58-1.59,11.58-2.15,0-9.74-8.38-11-12.15-2.23-6.7-3.65-6.81-10.56-.83-6.29,5.45-7.25,7.7-4.31,10.15s20.88,13,31.89,18.69c8.14,4.23,10.58,6,10.82,7.72s-5.13,19.29-6.45,21c-.19.23-1.81-1-3.6-2.73-3.82-3.71-7-4-12.32-1.17a18.45,18.45,0,0,1-4.8,2,5.65,5.65,0,0,0-2.83,1.92c-1.66,1.83-1.57,2.12,2.21,7.23,8,10.8,24,23.53,29.71,23.57.69,0,6.71,1.54,13.39,3.41s14.26,3.7,16.85,4.08,4.72,1.09,4.72,1.59v0a52.55,52.55,0,0,1-3.91,7.79C1184.4,2216.13,1182.72,2219.25,1182.83,2219.26Z"/>
  <path
        data-tip="امیدیه"
        id="IR-1304"
        d="M1146.18,2082.67c3.9-3.52,3.91-3.56,1.12-3-2.2.42-3.44-.08-5.62-2.26-1.57-1.57-2.8-3.87-2.8-5.27,0-3.77-1-5.61-3.08-5.61-1,0-3.6-1.56-5.71-3.47a12.55,12.55,0,0,1-3.4-4.1,13.91,13.91,0,0,1-.93-4.39c-.26-2.76-1-5.49-1.54-6.07-1.33-1.33-6.17-.2-6.15,1.44s-5.29,13.56-6,13.59c-.31,0-3-2.87-5.88-6.41s-6-6.66-6.91-6.94-4.84-3.65-8.82-7.51c-6.27-6.08-7.59-6.93-9.93-6.41-1.89.41-4.44-.29-8.53-2.35l-5.84-3-3.38,3.66c-8.24,8.91-7.86,12.6,2.35,22.67a87.65,87.65,0,0,1,9.72,11.08,22.92,22.92,0,0,0,3.43,4.53c2.09,1.29-.32,4.35-5.39,6.84-3.46,1.69-5.39,3.26-5.4,4.39,0,3.22-2.6,9.19-5.14,11.92-4.73,5.09-5.89,7.74-5.57,12.75.3,4.65.22,4.8-3.66,6.85a46.18,46.18,0,0,1-7.93,3.17,137.88,137.88,0,0,0-13.57,4.63c-2.85,1.1-3.75,3.09-3.77,8.34a14.68,14.68,0,0,1-2.51,6.94c-2,2.9-2.2,3.73-1,4a6.07,6.07,0,0,0,3.42-.75c2.8-1.49,5.83-1.3,9,.56,2.51,1.48,3,1.48,6.11,0,6.67-3.16,14.62-4.46,31.18-5.11q16.83-.64,22.77.48c3.27.63,7.73,1.45,9.9,1.83,3.25.58,4.1,1.22,4.86,3.67.51,1.64,2.66,6.66,4.78,11.16h0c2.13,4.5,4.23,8.18,4.69,8.18a4.1,4.1,0,0,0,2.08-1.53,3.55,3.55,0,0,1,2.91-1.24c.9.15,3-.61,4.56-1.68,3.58-2.4,10.22-2.47,13.74-.16,2.48,1.62,2.54,1.59,3.12-1.09a32.82,32.82,0,0,1,1.44-4.72c3.62-8.42,2.88-9.49-11.48-16.47-6.76-3.29-12.53-6.35-12.81-6.81-.54-.87-10.67-6.92-13.65-8.16-1-.4-2.5-2.32-3.43-4.27l-1.69-3.54,7-7c6.36-6.36,7.29-7,10-6.36,2.36.52,3.23,1.47,4.3,4.7,1.42,4.31,6.32,11.72,7.75,11.72.48,0,1.18-4.57,1.57-10.16a48.94,48.94,0,0,1,1.94-11.63A25.45,25.45,0,0,1,1146.18,2082.67Z"/>

</svg>
