<svg xmlns="http://www.w3.org/2000/svg" viewBox="0 0 359.16 321.77">

  <path data-tip="چرام" id="IR-2304" d="M223.93,181.74c.45-.17,1-2.2,1.25-4.53.41-3.91.32-4.33-1.25-5.79a4.93,4.93,0,0,1-1.7-3.88A5.71,5.71,0,0,0,221,163.8c-1.23-1.56-3.48-3-7.23-4.87-6.38-3.13-6.69-3.71-4.91-9.23s1-7.61-5.6-15.11a105.29,105.29,0,0,1-6.74-8.13c-.84-1.57-5.88-2.64-7-1.5a5.8,5.8,0,0,1-3.21.75,5,5,0,0,0-4,1.63c-3.17,3.37-7.27,2.7-9.16-1.49a8.64,8.64,0,0,0-3.55-4,5.2,5.2,0,0,1-2.7-2.95c-.2-.93-.47-2.05-.61-2.49s-2.62-2-5.53-3.55a47.6,47.6,0,0,1-8.8-6.06,27,27,0,0,0-6.61-4.59c-1.72-.7-3.3-1.82-3.51-2.48a5,5,0,0,0-2.25-2.15,10.86,10.86,0,0,1-2.73-2c-.67-.8-1.18-.88-2.2-.33a4,4,0,0,1-3.27,0c-2.35-.82-3.86.51-4.12,3.62-.16,2,1.14,5.7,2.31,6.53.33.23.38,1.41.11,2.61a4,4,0,0,1-2.84,3.17c-2,.81-2.22,1.15-1.54,2a2.71,2.71,0,0,0,1.69,1,5.33,5.33,0,0,1,2.46,1.88,25.32,25.32,0,0,0,5.66,4.14,38.41,38.41,0,0,1,6.17,4.26,22,22,0,0,0,4.41,3.15c1.87.94,2.29,1.53,2.25,3.19a3.82,3.82,0,0,0,.95,2.77c.69.52.85,1.32.52,2.63-.45,1.79-.63,1.87-3.4,1.49-2-.28-3.32-.1-4.2.57-2,1.49-3.57,1.22-4.05-.68-.55-2.2-1.35-2.15-2.45.14-.64,1.35-1.76,2.09-4.1,2.76-3.39,1-4.33,2.61-1.7,3,1.31.19,1.53.63,1.53,3.06a6.84,6.84,0,0,0,.84,3.7c1.25,1.25,1,2.58-.59,3.9a2.21,2.21,0,0,0-1,2.58c.73,2.3,3.61,5,5.38,5,3,0,3.48,5.67.75,8-2.19,1.9-1.92,3.39.91,5,2,1.18,2.62,1.22,6.78.46a18.31,18.31,0,0,0,6.77-2.49c3.21-2.4,5.73-2,6.36,1.13.53,2.63,3.32,5.44,5.4,5.44a9.33,9.33,0,0,1,3.37,1.05c2.35,1.21,3.34.83,3.34-1.28,0-3,1.81-4.52,5.45-4.52,2.93,0,3.59.28,5.44,2.32a10.16,10.16,0,0,0,3.67,2.7,6.07,6.07,0,0,1,2.88,2.61,22.89,22.89,0,0,0,5.6,5.09c4.81,3.23,5,3.27,6.09,1.9s.2-3.63-2.74-5.58c-1.46-1-2.66-2-2.66-2.38,0-1.45-3.42-3.94-5.41-3.94-2.26,0-8-2.65-9.42-4.31a6.13,6.13,0,0,1-.64-3.61c.19-2.25.46-2.62,2-2.8a8,8,0,0,1,3.86.84c1.94,1,2.13,1,4-.64,3.39-2.85,5.86-1.88,8.91,3.54,1.87,3.32,7.31,6.34,14.94,8.29l.67.18c3,.79,6.55,1.79,8.09,2.3A9.36,9.36,0,0,0,223.93,181.74Z"/>

  <path data-tip="باشت" id="IR-2301" d="M243.93,252.43c1.82-1.26,1.11-3.72-1.44-5.05a2.92,2.92,0,0,1-2-2.64,2.82,2.82,0,0,0-.68-2.06c-1.34-.83-.63-2.91,2-5.94,1.5-1.7,2.72-3.43,2.72-3.85s1.37-1.36,3-2.07c3.51-1.51,3.73-2.18,1.29-3.87-3.24-2.25-4.34-3.58-4.34-5.27s-1.7-3.07-4.1-3.07c-1.78,0-7.27-5.69-7.86-8.14a73.58,73.58,0,0,0-3.37-7.89c-2.31-4.85-3.47-6.5-5.34-7.61s-2.39-1.85-2.39-3.33a4.47,4.47,0,0,1,.69-2.6c.45-.46.29-1.6-.51-3.49l-1.2-2.8-7.79-2.08c-.78-.2-1.52-.41-2.25-.63-8.36-2.43-13.76-5.27-15-7.93a17.07,17.07,0,0,0-2.8-3.89l-1.8-1.8-2,1.68c-2.32,2-4.35,2.14-6.53.61-1.83-1.28-3.51-.83-3.51.95,0,2.24,6.14,6.23,9.58,6.23,2.71,0,4.59,1.08,5.35,3.07a9.27,9.27,0,0,0,3.25,3.29c3.49,2.2,4.78,5.19,3.25,7.54s-4.19,2.22-7.43,0c-5.17-3.5-6.61-4.77-7.89-6.94-.72-1.23-1.8-2.23-2.39-2.23s-2.17-1.07-3.52-2.38c-2.69-2.61-5.11-3-7.1-1.25a4.18,4.18,0,0,0-1.24,2.66,7.31,7.31,0,0,1-5.07,6.55,6.12,6.12,0,0,0-3.49,2.46c-.74,1.5-.52,1.82,3.37,4.76a21.53,21.53,0,0,1,5.56,5.85,8.58,8.58,0,0,0,2.92,3.39,3.75,3.75,0,0,1,1.89,2.15,12.17,12.17,0,0,0,3.06,4,15.7,15.7,0,0,1,3.31,4.1,3.78,3.78,0,0,0,2.43,2.07c1,.25,4.2,2.78,7.1,5.61s6.21,6,7.36,7c2.55,2.24,2.68,4.49.4,7.19-1.77,2.11-1.64,2.86.51,2.86,1.07,0,1.26.35,1,1.82-.49,2.55.07,3.6,1.92,3.6s5.05,1.34,5.05,2.14c0,.31,1.22,1.33,2.71,2.27,2.92,1.84,3.49,3.73,1.67,5.55-.94.94-.92,1.13.17,2a7.25,7.25,0,0,0,3.62.94,9.52,9.52,0,0,1,5.37,2.2,16.36,16.36,0,0,0,5.72,2.63h0c1.53.25,2.81.49,2.86.53s2.41-1.13,5.26-2.62a31.7,31.7,0,0,1,6.19-2.72,1.16,1.16,0,0,0,1-1.27,2,2,0,0,1,.18-.74A3.5,3.5,0,0,1,243.93,252.43Z"/>

  <path data-tip="بویراحمد" id="IR-2302" d="M358.76,183.84c-.05-.11-.09-.22-.15-.33a22,22,0,0,1-1-2.43q-.13-.41-.24-.78a7.21,7.21,0,0,0-2.77-3.39c-2.37-1.49-2.73-2.72-1.25-4.36.85-.94.7-1.51-1.19-4.6-2.25-3.69-3.66-4.58-8.4-5.3a12.38,12.38,0,0,1-3.61-1.3,11.85,11.85,0,0,1-1.76-1.13,13.27,13.27,0,0,0-4.09-2.32l-3.23-.66a6.23,6.23,0,0,1-2.66-1.36,3.49,3.49,0,0,0-2-1c-.56,0-2.43-2-4.16-4.41s-4.06-4.89-5.19-5.47a10.15,10.15,0,0,1-3.39-3.33c-1.65-2.8-7.8-7.14-10.13-7.14-1.56,0-8.84,3.28-13,5.77-.57.33-1.08.66-1.52,1a8.15,8.15,0,0,1-3.61,1.41c-.87,0-3.76,1.64-6.44,3.64s-5.93,3.83-7.26,4.07c-4.25.77-5.4,2.07-5.4,6.08a10.61,10.61,0,0,1-1,5c-.81,1.15-.84,1.81-.18,3.56s.63,2.49-.21,4c-2.3,4.12-7.24,1.91-12.51-5.6-1.5-2.12-3.39-4.7-4.22-5.73a6,6,0,0,1-1.35-3.8c.15-2-.26-2.36-6-4.86-1.49-.65-5.52-3.89-8.95-7.2l-6.23-6-2.37.86c-3.08,1.11-6.21.22-14-4-8.31-4.51-10.69-7.48-8.8-11,.59-1.09.48-1.31-.67-1.31s-1.38-.44-1.38-1.9a4.41,4.41,0,0,0-.74-2.63,3.21,3.21,0,0,1-.51-2.34c.19-1.34.67-1.64,3-1.81,2.54-.18,2.85,0,4,2.21,1.63,3,2.65,3.34,8.94,2.75l5.08-.48,2.62,2.56c2.36,2.31,2.78,2.48,4.33,1.78a2.58,2.58,0,0,0,1.72-2.74,9.91,9.91,0,0,1,1.69-4.45,13.22,13.22,0,0,0,1.7-3c0-1.18-6.08-4.84-8-4.84-1.41,0-2.17-.39-2.45-1.28a8.89,8.89,0,0,0-3.09-3c-2-1.32-3.38-3.15-5.33-7-2.88-5.73-4.2-7.21-7-7.88a4.87,4.87,0,0,1-2.88-2.42,9.5,9.5,0,0,0-2.27-2.88,5.37,5.37,0,0,1-1.71-2.75c-.26-1-.92-1.86-1.47-1.86a1.19,1.19,0,0,1-1-1.31c0-2.26-2.9-6.09-4.63-6.12-4.32-.08-6-4.23-2.19-5.55,1.76-.61,1.92-.89,1.37-2.34A15.67,15.67,0,0,0,187,57.05l-7.14-7.76c-4.93-5.35-5.12-5.67-5.12-8.9,0-.44,0-.81,0-1.15,0-2.5-.31-2.35-7.08-3.6-.43-.08-.84-.18-1.23-.29-1.72.43-2.58,1.27-2.18,2.32.64,1.66-.68,1.75-1.74.12a3.46,3.46,0,0,0-1.06-1.09,3.82,3.82,0,0,0-2-.44c-1.28,0-2.21-.35-2.42-.92a2.27,2.27,0,0,0-2-.91c-2.73,0-5.28-1.18-6-2.77a4.43,4.43,0,0,0-2.15-2.06c-2.18-.83-5.51-4.41-7.14-7.66a14.56,14.56,0,0,0-3.55-4.45,26.08,26.08,0,0,1-3.48-3.18,10,10,0,0,0-4.16-2.37A7.34,7.34,0,0,1,125,10a2.3,2.3,0,0,0-1.1-.92l-.35.06L122,9.42a1.38,1.38,0,0,0-.24.41c-.25.65-1.28.91-3.66.91-2.84,0-3.5.23-4.73,1.66L112,14.06l-1.32-2.24a6.63,6.63,0,0,0-2.49-2.62A1.74,1.74,0,0,1,107,7.66c0-.83-.42-1.18-1.44-1.18a5.85,5.85,0,0,1-3-1.21c-.1-.08-.19-.13-.29-.2.12.31.27.67.46,1.07.89,1.87,1,2.55.28,3.48-2.55,3.52-3.52,5.32-3.36,6.21.1.55,1.72,1.47,3.61,2,5.51,1.67,6.78,2.85,8.43,7.82,1.74,5.24,2.68,6,10,8.14a66.19,66.19,0,0,1,9.48,3.65c3.35,1.69,4.48,2.69,5.63,5a20,20,0,0,0,3.41,4.71,6,6,0,0,1,2,3.11c0,1.3,1.92,2.54,6.95,4.51a6.41,6.41,0,0,1,3.36,2.78c.47,1,2.2,2.49,4.07,3.44,4.28,2.17,4.52,4.36.65,5.91a9.27,9.27,0,0,0-3.74,2.78c-1.58,2.41-4.17,2.34-5.45-.15-1.48-2.87-3.72-3.53-12-3.53-7.16,0-7.45,0-8.53-1.69-1.41-2.15-2.85-2.15-5.2,0s-2.29,2.4-.06,5c1.61,1.91,1.72,2.38,1.08,4.47-.69,2.25-.63,2.41,1.75,4,1.9,1.29,3.35,1.68,6.24,1.68,3.43,0,3.86.17,4.92,2,2.1,3.55,1,6.94-2.43,7.62-1.87.37-1.7,1.54.29,1.93a8,8,0,0,1,3.59,2.51,9.56,9.56,0,0,0,3,2.55,4.71,4.71,0,0,1,2.11,2.06,8.13,8.13,0,0,0,3.84,2.8A31.57,31.57,0,0,1,154,106a52.17,52.17,0,0,0,9,6.18c4.16,2.11,4.66,2.58,4.86,4.56.16,1.73.75,2.52,2.77,3.68a10.18,10.18,0,0,1,3.88,4.23c1.66,3.46,3.94,4,6.33,1.44a5,5,0,0,1,4.17-1.73c1.41,0,2.77-.34,3-.76s1.89-.64,4.61-.39c3.36.3,4.34.67,5.17,2a23.74,23.74,0,0,0,2.37,3c.75.77,2.16,2.45,3.14,3.73s3,3.59,4.48,5.13c2.34,2.45,2.74,3.33,3.11,6.91a15.26,15.26,0,0,1-.57,7,21.38,21.38,0,0,0-1,3.44c0,.33,2.57,1.82,5.72,3.32,3.43,1.63,5.61,3,6.92,4.43a5.82,5.82,0,0,1,1.6,4.15,4.79,4.79,0,0,0,1.63,3.8c3.67,3.37,3.62,3.36,5.87,1.7l2.08-1.54,1.33,1.69a32.3,32.3,0,0,1,2.68,4.22,11.26,11.26,0,0,0,3.2,3.68c1,.63,3.2,2,4.85,3.06a12.66,12.66,0,0,0,4.12,1.91,5.25,5.25,0,0,1,2.72,1.7,5.26,5.26,0,0,0,3,1.7c1.92,0,2.69.61,4.37,3.38s1.78,4,.29,7.11c-1.1,2.31-1.09,2.52.32,5.42a11.88,11.88,0,0,0,3.35,4.19,21.27,21.27,0,0,1,3.11,2.41,2.79,2.79,0,0,0,2.81.82,4.68,4.68,0,0,1,3.43.8c1.47,1,2.08,1,3.11.4,2-1.24,3.57-1.07,4.88.48a7.49,7.49,0,0,1,.82,1.21c2.56,4.68,4.76,5.57,11.32,4.6,2.62-.4,3.59-.22,5.59,1s2.72,1.39,4.71.74a9.81,9.81,0,0,0,3.5-2.09,4.79,4.79,0,0,1,3.42-1.33c2,0,2.3.29,3,2.54a12.89,12.89,0,0,0,2,3.9,17.73,17.73,0,0,1,1.95,2.84,3.87,3.87,0,0,0,2.63,1.76c.92.14,4.53.3,8.39.37l1.33,0,7.85.1,2.46-2.74a21,21,0,0,1,6.39-4.46c4.23-1.86,7-4,7-5.48a20.54,20.54,0,0,0-2-4.72c-2.6-4.87-2.71-8.43-.34-10.8a5.89,5.89,0,0,0,1.69-3.46c0-1.75,3.69-8,5.73-9.67C359.26,186.52,359.45,185.39,358.76,183.84Z"/>

  <path data-tip="دنا" id="IR-2305" d="M303.26,132.48c-.76-1.23-7.4-4.72-9-4.73-1.07,0-1.86-.69-2.61-2.26a5.09,5.09,0,0,0-3.21-2.88c-1.9-.56-2.17-1-2.48-3.68-.43-3.93-.83-4.48-6.1-8.51a39.62,39.62,0,0,1-4.63-3.87,1,1,0,0,0-.86-.51,13.18,13.18,0,0,1-3.29-1.67c-2.07-1.31-2.7-2.17-2.87-3.89a3.76,3.76,0,0,0-.4-1.57c-.45-.83-1.41-1.4-3.63-2.47-3.42-1.63-3.94-2.16-4.92-5-1.49-4.39-1.54-21-.06-23s1.3-2.2-1.68-3.92c-1.48-.84-2.86-2.22-3.06-3.05-.51-2-4.16-6.11-6.54-7.34l-.58-.28c-2.7-1.17-5.53-.9-5.94.68-.52,2-1.77,1.26-2.31-1.34A7.62,7.62,0,0,0,237.63,50c-.91-.91-1.35-.8-4,1-.79.54-1.46,1-2,1.49-.34.27-.65.53-.93.79-1.88,1.7-2.51,3.18-2.94,5.9a12.93,12.93,0,0,1-1.41,4.5c-1.15,1.38-5.07,1.33-7.25-.1a8.51,8.51,0,0,0-3.82-1.19c-1.69,0-2.17-.4-2.59-2-1.11-4.11-2.75-4.69-7-2.5-3.66,1.87-6.32,1.8-6.73-.17-.17-.84-.56-2.75-.87-4.24-.47-2.32-1-2.93-3.6-4.23-3.37-1.68-7.42-5.95-7.44-7.84,0-1.37-4.12-3.42-8.31-4.16l-2.55-.44V39.6q0,.45,0,.84c.14,1.92,1,3,4.89,7.26,8,8.61,8.92,9.74,10.17,12.19,1.6,3.13,1.55,3.35-1.19,4.5-3.54,1.48-2.77,3,1.59,3,1.31,0,2.22.69,3.33,2.42a9.61,9.61,0,0,1,1.53,3.7,1.2,1.2,0,0,0,1,1.31c.61,0,1.2.85,1.45,2.06a4.39,4.39,0,0,0,1.66,2.73,6.75,6.75,0,0,1,2.18,2.44,9.91,9.91,0,0,0,3.89,3.21c2.54,1.23,3.39,2.24,6,7.18,2,3.73,3.84,6.24,5.23,7.12a10.24,10.24,0,0,1,3,2.89,2.9,2.9,0,0,0,2.82,1.53,10.73,10.73,0,0,1,5,2.15c3.54,2.54,3.81,4.26,1.28,8.36a11.34,11.34,0,0,0-1.67,4.55c0,3.86-4.87,4.36-8.7.9-2.56-2.32-2.64-2.34-7.38-1.94-6.36.54-7.82.09-9.21-2.81-.69-1.47-1.62-2.39-2.39-2.39-1.9,0-2.28.77-1.06,2.12a3.11,3.11,0,0,1,.74,2.6c-.26,1,0,1.38.85,1.38a3.14,3.14,0,0,1,2.08,1c.71.86.61,1.27-.6,2.4a6.49,6.49,0,0,0-1.46,1.68c0,1.18,5.54,5.21,11,8,6.46,3.31,7.61,3.57,12.27,2.76,2.49-.43,2.7-.29,9.26,6,5.18,5,7.48,6.7,10.08,7.56,4,1.32,5.87,3.12,5.27,5-.52,1.62,5.36,10.54,9.27,14.07h0c3,2.72,3.49,2.8,4.86.86a2.34,2.34,0,0,0,.38-2.67A5.55,5.55,0,0,1,264,160c.58-.76,1-2.79,1-4.83,0-4,.9-4.95,6.16-6.45a14.87,14.87,0,0,0,4.69-2.3c3.84-3.29,6.78-5.1,8.27-5.11a7.93,7.93,0,0,0,3.6-1.41c.4-.28.89-.58,1.43-.9,4.11-2.45,11.5-5.82,13-5.82C303,133.17,303.5,132.87,303.26,132.48Z"/>

  <path data-tip="بهمئی" id="IR-2303" d="M28.77,112.45c.92,0,2.92,1.19,4.44,2.65.17.17.36.34.55.51,2.58,2.28,4.19,2,9.59-2.6l1.38-1.21c-1.79-2.82-1.95-3.46-1.12-3.93a49.06,49.06,0,0,1,7.08-1.16c.64-.5,1.28-1,1.91-1.4a.28.28,0,0,1,.24-.18,29.08,29.08,0,0,1,7.22-3.82c1.93-2.45,1.76-3.29-.57-4.62s-2.5-2.2-.94-4.58c1-1.55,1-2.13-.07-7.69-1.13-5.83-1.13-6.1.15-9a13.58,13.58,0,0,1,2.44-3.9A3,3,0,0,0,62.2,70c0-.79-4.46-3-7.88-3.93-2.4-.65-3.19-1.39-5.71-5.33-5.09-8-20.88-23.66-28.09-29.37a6.81,6.81,0,0,0-.82.63C17,34.6,11.94,35.18,4.78,33.78l-.34-.07-1.22.61c-.69.34-1.41.73-2.1,1.15,1.71.38,4.05.69,7.36,1.12,4.51.58,4.71.75,4.72,3.77,0,2,1.41,5.28,3.9,9L21,55.25l-2.76,5.54c-1.52,3.05-4,8.89-5.57,13C9.84,81.28,5.74,86.66,2.86,86.66a1.41,1.41,0,0,1-1.37-1.1,11.29,11.29,0,0,1-.65,4.21L0,92a12.45,12.45,0,0,0,3.4,4.1C5.51,98,8.08,99.56,9.12,99.56c2.07,0,3.07,1.84,3.07,5.61,0,1.39,1.23,3.69,2.8,5.27,2.18,2.18,3.42,2.67,5.62,2.25Z"/>

  <path data-tip="کهگیلویه" id="IR-2306" d="M155.72,62.67a10,10,0,0,1-4.35-3.85,5.28,5.28,0,0,0-3-2.71c-3.54-.82-7.51-3.17-7.51-4.46a6.07,6.07,0,0,0-1.86-3.1,25.48,25.48,0,0,1-3.56-4.87c-1.37-2.46-2.55-3.47-6.11-5.23a44.12,44.12,0,0,0-7.83-3,37.66,37.66,0,0,1-6.44-2.24c-2.73-1.31-3.17-1.86-4.58-5.84-2-5.54-2.93-6.59-7.27-7.85-6.47-1.88-7-3.33-3.34-8.76C102.42,7,102,5.58,97.5,4.58l-1.22-.24a24,24,0,0,1-7-2.35c-3.63-2.31-5.5-2.55-8-1A11.12,11.12,0,0,1,75.54,2.3h-.2c.39.31.78.62,1.16.9,3.89,2.87,4.09,5.13.46,5.13a12.36,12.36,0,0,0-4.44,1.39A19,19,0,0,0,70.26,11l-9.47,6.27c-11.95,7.94-12.57,8.2-16.3,7A24.22,24.22,0,0,1,38.39,21L35.7,18.85,33.62,21.6c-4.43,5.84-7.47,8.54-9.63,8.54a5.32,5.32,0,0,0-1.77.39l2.6,2.69c4.95,5.13,21,19.72,25.12,26.18,2.77,4.31,3.14,4.62,7.29,6a23.56,23.56,0,0,1,6.19,3L65.23,70,63.31,71.9a20.81,20.81,0,0,0-3.21,4.44c-1.21,2.36-1.22,2.8-.28,6.79,1.17,5,1.29,8.27.36,10-.53,1-.32,1.46,1,2.34,1.84,1.21,2.2,3.21,1.13,5.45a1.73,1.73,0,0,1,1.52.7c.48.77.89,3.72.9,6.56a60.64,60.64,0,0,0,1.11,10.28c.84,3.93.82,5.66-.13,7.42a2.1,2.1,0,0,0-.15.3,3.38,3.38,0,0,0-.36,1.29c0,1.26,1.37,2.64,5.5,6.46l1.67,1.52L74.14,137c1.58,1.39,3.17,2.77,4.57,3.95l1.48,1.23.83.66.28.23a17.9,17.9,0,0,0,4,2.68c1.12.38,2,0,3.88-.93a20.83,20.83,0,0,1,4.42-1.53l.34-.06a4.11,4.11,0,0,1,.64-.06c1.72,0,1.86.49,1.31,4.51-.6,4.39-.49,4.62,4.24,9.18.46.39.85.74,1.18,1.06a64.94,64.94,0,0,0,11.26,7.29,15.52,15.52,0,0,1,2.5,1.27c7,3.42,9.21,4.7,9.89,6.21l0,0,.06.15h0a3.41,3.41,0,0,1,.2,1.2c.09,3.27-3.78,8-8.1,9.95a12.11,12.11,0,0,1-2.93.74,4.87,4.87,0,0,1,1.07,1.76h0c1.23,3.34,2.24,3,7-2.68.73-.88,1.93-1.13,5-1,4.55.13,7-1,8.57-4.18,1-1.86.94-2-.66-3.06-2.35-1.54-2.32-5.17.06-7.37,1.36-1.26,1.64-2,1.28-3.42-.25-1-.86-1.8-1.37-1.8-4.34,0-8.39-7.67-5.37-10.18.77-.65.84-1.08.26-1.77a5.62,5.62,0,0,1-.48-3.33c.26-2.18.07-2.52-2-3.48-1.36-.65-2.24-1.56-2.24-2.34a2.74,2.74,0,0,1,.17-1.3c.1,0,1.85-.57,3.9-1.25,2.69-.88,4-1.73,4.62-3,1.13-2.31,4.52-2.58,5.09-.4.32,1.22.56,1.3,1.86.61a7.37,7.37,0,0,1,4.08-.39c2.93.47,4.09-.5,2-1.64-1.14-.6-1.33-1.16-1-2.76.39-1.79.2-2.09-1.84-2.94a12.13,12.13,0,0,1-3.61-2.45,38.28,38.28,0,0,0-9.67-6.37,3,3,0,0,1-1.82-1.66,6.84,6.84,0,0,0-2.92-2.54c-1.84-1-2.59-1.84-2.75-3.18-.18-1.55.13-2,1.88-2.59,2-.7,3.94-3,2.91-3.41A9.32,9.32,0,0,1,126.4,104a9.87,9.87,0,0,1,.7-9.33c.88-1.41,1.34-1.54,3.93-1.16,1.79.27,3.1.17,3.37-.27s-.25-.71-1.27-.71c-2.14,0-3.62-2.31-2.41-3.77a3,3,0,0,1,2-1,3.93,3.93,0,0,0,2.34-1.3c1.08-1.2,1.09-1.45.09-3.39s-1.31-2.09-5-2.09c-3.08,0-4.44-.37-6.5-1.77-2.46-1.68-2.58-1.92-2.18-4.46.34-2.1.14-3-.94-4.42-1.37-1.75-1.78-4.66-.85-6,2.25-3.24,7.5-4,9.25-1.31,1.08,1.64,1.33,1.69,9,1.69h7.89l2.65,2.79c2.5,2.63,2.7,2.71,3.6,1.52a5.53,5.53,0,0,0,1-1.74c0-.27,1.31-1.06,2.9-1.77l2.88-1.28Z"/>

  <path data-tip="گچساران" id="IR-2307" d="M119.11,316.37c4-2,21.88.13,24.21,2.94,3.27,3.94,11.51,3,12.91-1.54a24.19,24.19,0,0,1,5.12-7.84c3.76-3.79,7.76-15.51,7.76-22.73,0-4.46,9.63-11.82,17.22-13.16,3.23-.57,6.72-1.56,7.75-2.21s4.49-1.27,7.68-1.38,6.39-1.18,7.12-2.37,2.81-1.94,4.6-1.67,5.74-2,9.48-5.35a19,19,0,0,1-2.38-1.43c-2.28-1.62-4.1-2.38-5.76-2.39-4.23,0-6.13-2.81-3.74-5.45,1-1.07.87-1.29-1.19-2.74a11.25,11.25,0,0,1-2.47-2.12c-.4-.94-4-2.55-5.77-2.55s-2.47-1.11-2.47-3.71a1.81,1.81,0,0,0-1.36-1.91c-1.88-.5-1.73-2.9.34-5.35s1.64-3.57-2.93-6.85a45.81,45.81,0,0,1-6.53-6.11c-2-2.34-3.94-3.88-5.15-4.12a4.17,4.17,0,0,1-3-2.67,12.11,12.11,0,0,0-3.16-3.82,8.84,8.84,0,0,1-2.72-3.41,5,5,0,0,0-2.23-2.59,8,8,0,0,1-2.85-3.32c-.72-1.47-3.12-4.05-5.55-6-3.88-3.07-4.25-3.58-3.9-5.36.54-2.74,1.49-3.68,4.53-4.5,1.45-.39,2.63-.94,2.63-1.23,0-.7-3.84-2.51-6.6-3.12-2.53-.55-4.92-3.23-4.92-5.51s-1.19-2.62-3.66-.73c-1.6,1.22-3.85,2-7.83,2.6-5.38.84-5.66,1-7.39,3.54a9.62,9.62,0,0,1-2.29,2.38,10.78,10.78,0,0,1-7.85,1.81c-1.34-.24-2.14-.69-3.16-.23-.35.16-.42.3-1.94,2,0,0-.56.62-2.12,2.19a4.5,4.5,0,0,1-1.61,1.19,2.12,2.12,0,0,1-1.31.21c-.79-.2-1-1.06-1.85-2.59a11,11,0,0,0-1.54-2.22c-5.66.7-14.67.36-18-1-1.54-.61-3.2-.87-3.68-.57-1,.59,3.17,10.86,6.57,16.38,2.16,3.5,6.8,8,11.23,10.9,1.66,1.1,2.56,2.94,3.14,6.45.78,4.78,1.06,29.14.69,40.52,0,.43,0,.84,0,1.23v0c0,.37,0,.73,0,1.06V260c0,.32,0,.62-.05.9V261q0,.41-.06.75v.1q0,.33-.06.6v.08a4.3,4.3,0,0,1-.07.45v.05a2.46,2.46,0,0,1-.08.3v0a.34.34,0,0,1-.08.14c-.41.24-3.42-1.08-6.69-2.92-.84-.47-1.64-.91-2.42-1.31-.44,6.09.08,12.6,1.29,15.68.48,1.25,1.79,2.21,4.46,3.3,4.25,1.72,6.51,4.54,6.51,8.11,0,1.71-.71,2.84-3.39,5.41-2.41,2.31-3.39,3.78-3.39,5.06a30.92,30.92,0,0,1-1.13,5.86c-1,3.77-1,4.31,0,8a23.16,23.16,0,0,1,1,6.27c-.13,1.79,0,2.3,1.75,3.31a2,2,0,0,0,.25.14c.22-.12.44-.24.68-.35C114.12,318.8,117.54,317.16,119.11,316.37Z"/>

</svg>
