<svg xmlns="http://www.w3.org/2000/svg" viewBox="0 0 469.5 370.77">
	<path
			data-tip="کامیاران"
			id="IR-2009"
			d="M210.9,366.73a17.51,17.51,0,0,0,3.16-.78,3.16,3.16,0,0,1,1.51.56c.69.58,3.28,1,6.48,1,3,0,4.66.21,6,.78h0a5.1,5.1,0,0,1,.53.26,4.05,4.05,0,0,1,.35.21l.09.06c.18.11.36.24.54.37,2.74,2,3,2,5.66.12,1.79-1.27,2.78-1.47,5.28-1,5.53.94,6.73.85,7-.51.18-.87-.59-1.69-2.38-2.54a9.89,9.89,0,0,1-1-.59c-1.78-1.18-2.06-2.59-.71-3.94s4.34-1.08,6.09.24a4.51,4.51,0,0,0,3.36,1,1.65,1.65,0,0,0,1.15-.7c.24-.39-1.38-2.61-3.7-5.1-.22-.25-.45-.49-.69-.74l-.15-.15c-4-4.13-4.73-5.33-4.73-7.47,0-4.12,1.8-7.35,5.57-10,3-2.08,3.77-2.34,5.42-1.72a30.54,30.54,0,0,0,5.86,1.13c4.37.45,5.27-.28,3.79-4.14-.19-.48-.4-1-.66-1.58-2.44-5.56-2.55-6.62-.85-8.15a3.56,3.56,0,0,1,.5-.39c2.15-1.48,4.76-.5,4.76,2s1.87,5.32,3.55,5.32a8,8,0,0,0,3-1.17l.5-.31c3.31-2.19,5.15-1.89,6.93,1.12,1.67,2.84,4.64,4.37,7.21,3.73a5.17,5.17,0,0,0,2.89-1.77l.11-.16a3.77,3.77,0,0,0,.34-.54l.12-.24a3.61,3.61,0,0,0,.17-.46,7.08,7.08,0,0,0-.18-4.45,11.34,11.34,0,0,0-.8-1.86c-.15-.3-.33-.61-.51-.91a14.27,14.27,0,0,1-1.4-3.18,9.61,9.61,0,0,1-.45-2.48,4.51,4.51,0,0,1,.36-2.34l0,0a1.92,1.92,0,0,1,.18-.22c.05,0,.08-.09.13-.13s.16-.11.24-.17l.16-.11.35-.17.17-.07c.19-.08.41-.17.65-.25l2.28-.79-1.73-2.42a7.88,7.88,0,0,1-1.16-2.48c-.7-2.48-.61-6,.2-11.77.51-3.62.49-3.67-.92-2.4-3.4,3.06-9.44.58-16.19-6.64-3.23-3.46-4.26-4.1-7-4.41l-3.24-.37-3.33,4.59c-4.07,5.62-6.1,7.13-11.06,8.19-3.22.69-4.11,1.25-5.38,3.42-1.49,2.53-1.61,2.58-5.1,2.11a9.18,9.18,0,0,0-5.75.66c-2.61,1.35-6.06,1.48-7.28.26-.56-.56-3.88-.92-9.06-1-8.15-.12-8.18-.13-10.65-2.52-2-2-2.85-2.32-4.64-1.93-2.94.65-6-.65-6.85-2.91a46.23,46.23,0,0,1-1.44-6.39c-.81-5-1.85-6.54-6.62-9.53l-3.26-2L181,278.05c-2.85,1.84-3.75,2.94-4.37,5.28-1.3,4.95-2.92,6.24-10.22,8.19a53.12,53.12,0,0,0-7.08,2.45,15.67,15.67,0,0,0-2.27,1.18,10.2,10.2,0,0,1-6.55,1.85c-3.69,0-7.79,1.27-7.8,2.4a.6.6,0,0,0,.65.56c1,0,3,5.61,3,8.31,0,1.65.87,4.75,2.26,8.26.22.56.48,1.15.72,1.72.53,1.24,1.09,2.5,1.71,3.75.13.25.28.5.43.75a23.31,23.31,0,0,0,1.82,2.48c1.23,1.45,2.58,2.74,3.4,3.55,10.07,8.88,13,10.87,18.11,12.54,1.58.51,3.42,1.18,5.06,1.82.95.52,1.92,1.05,2.9,1.56.46.23,1.21.55,2.08.88a1.4,1.4,0,0,1,.37.14,2,2,0,0,1,.7.79h0a2.07,2.07,0,0,1,.15.34l0,.12a1.76,1.76,0,0,1,.07.27.59.59,0,0,1,0,.14c0,.1,0,.21,0,.31s0,.1,0,.15,0,.32,0,.5a4.83,4.83,0,0,1,0,.63,10.08,10.08,0,0,1-1.79,4.19c-2.33,3.15-2.33,5,0,8.2,1,1.39,2.67,3.76,3.7,5.29,1.89,2.79,4.39,3.63,6,2,.45-.45,3.24-1.07,7.18-1.66a12.34,12.34,0,0,0,3.19.43c2.48,0,2.9.05,3,1.59a11.41,11.41,0,0,0,1.69-.06C209.4,367.76,210.06,366.73,210.9,366.73Z"
	/>
	<path
			data-tip="بانه"
			id="IR-2001"
			d="M8.45,74.05,5.76,77.29A77,77,0,0,0,0,85a92.13,92.13,0,0,0,7.11,8c5.8,5.6,7.43,8.42,9.25,16A41,41,0,0,0,19,117.24c.93,1.44,1.49,1.6,4.19,1.21,1.8-.27,3.55-1,4.14-1.85,1.22-1.69,5.12-1.89,5.74-.29.27.71,1.41,1.11,3.15,1.11a6.46,6.46,0,0,1,3.55.82c.61.61,1.33,0,2.74-2.2,2.6-4.12,5.25-4.78,7.58-1.88l1.72,2.15,3-1.71c2.7-1.54,3.57-1.66,8.72-1.21,5.43.47,6,.38,10.29-1.8a24.09,24.09,0,0,1,5.75-2.3c.65,0,2.22,1.16,3.48,2.58,3.28,3.71,6.06,3.56,11.5-.65a65.12,65.12,0,0,0,6-5.15c1.61-1.72,1.68-2.11.83-4.17-1.34-3.23-.53-10.17,1.77-15.2A25.1,25.1,0,0,0,105,81.54c0-1.89-5.11-2.78-13.12-2.29-6.4.39-8,.26-10-.78a19.53,19.53,0,0,0-5.68-1.66l-3.33-.41V72c0-3.86-.39-5-2.91-9.11s-3.14-4.59-4.42-4.17c-4.58,1.49-5.91,1.24-7.61-1.44a15.54,15.54,0,0,0-4.07-3.78l-1.21,1.59a21.19,21.19,0,0,0-2.4,3.56c0,.88-3.06,3-4.81,3.37a5.17,5.17,0,0,0-2.58,1.28c-.42.5-1,.74-1.35.54s-1.26.11-2.08.68a5.7,5.7,0,0,1-2.58,1,2.67,2.67,0,0,0-1.81.85c-.43.51-2.66.93-5.59,1.05-2.68.1-5,.47-5.09.81s-2.3.62-4.84.62-4.61.29-4.61.67-.45.67-1,.67-1,.3-1,.66a.67.67,0,0,1-.22.56h0A20.94,20.94,0,0,0,10.3,73.1,7.57,7.57,0,0,1,8.45,74.05Z"
	/>
	<path
			data-tip="سنندج"
			id="IR-2007"
			d="M227.34,300.31c-1.42-.65-4.69-1-9.08-.93-6.74.08-6.89.05-9.27-2.25-2.13-2.07-2.9-2.34-6.56-2.34h-4.14l-1.18-3.46a22.57,22.57,0,0,1-1.18-5.8c0-3.21-2.74-7-6.56-9.13a9.32,9.32,0,0,1-4.5-4.8c-2.38-5.49-6.54-7.74-20-10.81-14.82-3.38-19.21-5.22-22.46-9.38-2.24-2.88-2.46-3.54-1.86-5.62,1.35-4.71.82-6.72-3.39-13l-4.07-6.08,13.49.24c13,.23,13.57.18,15.83-1.44,2.71-1.93,5.08-7.34,4.4-10a17.72,17.72,0,0,0-3-4.91c-2.6-3.11-3.09-4.73-2-6.5.46-.72,1.11-.76,2.63-.18a16.18,16.18,0,0,0,10.31-.24c5.17-2.23,6.33-2.58,10.36-3.08,2.71-.34,4.52-1,5.1-1.82a23.57,23.57,0,0,1,4.42-3.66c2.52-1.7,3.51-2.86,3.51-4.1,0-2.34-3.16-8.49-5.49-10.68a7.5,7.5,0,0,1-1.9-2.29c0-.28,2.24-.72,5-1a81.08,81.08,0,0,0,10-1.72c5-1.25,5-1.25,8.87.55,3.27,1.53,5,1.8,10.82,1.78l7,0,2.78-3.23c2.57-3,3.11-3.26,7-3.58,7.52-.63,10.66,2.38,10.66,10.24,0,3,.33,3.8,2.13,5.31s3,1.84,11.74,2.28c7.69.39,10.13.27,12.25-.62a23.56,23.56,0,0,1,7.3-1.11,50.25,50.25,0,0,0,9.36-1.13c2.6-.61,4.88-1,5.05-.79s0,1-.49,1.85c-.74,1.38-7.66,5.25-9.39,5.25s-6.84,6.05-8.06,9.37c-2.27,6.21-4.85,9.72-8.09,11-4.91,1.95-6.1,3.57-7.08,9.64-.8,4.91-1.24,5.86-4.48,9.56-3,3.41-3.59,4.6-3.59,7s.51,3.4,2.61,5.5c1.44,1.43,2.95,2.61,3.36,2.61,1.38,0,4.36,7.63,4.37,11.19s-2.3,7.78-7.5,13.78c-2.63,3-2.93,7.62-.61,9.25,1.46,1,1.42,1.15-1.82,5.55-4,5.39-5.48,6.46-10.65,7.57-3.24.7-4.2,1.28-5.37,3.27-1.34,2.27-1.62,2.39-4.71,2a10.75,10.75,0,0,0-5.82.83c-2.95,1.41-3.09,1.41-6,.08Z"
	/>
	<path
			data-tip="سروآباد"
			id="IR-2005"
			d="M123.71,274.54c1.38,2.07,4.46,7.77,6.84,12.66,3.27,6.7,4.8,9.07,6.22,9.63,2.71,1.08,3.83,1,6.22-.2a14.89,14.89,0,0,1,5.68-1.1c2.63,0,4.9-.69,8.6-2.59l1-.5a22.48,22.48,0,0,1,5.37-2.08,25.35,25.35,0,0,0,4.95-1.19c3.83-1.25,5.64-3.23,6.39-7a7.48,7.48,0,0,1,2.62-3.88c3.48-2.62,5.76-4.84,5.76-5.61,0-1.59-4-5.34-7.26-6.78a86.53,86.53,0,0,0-11.59-3.39c-15.7-3.58-20.18-5.47-23.9-10.09-2.55-3.18-2.57-3.32-1.23-9.77.39-1.85-.2-3.23-3.64-8.44-6.25-9.48-6.67-9.09,9.37-8.8,15.4.28,16.62-.08,19.1-5.63,1.29-2.89,1.29-3-.07-5.2-1.76-2.81-2-2.9-10-4.87-5-1.23-9.55-1.7-18.48-1.92-13.87-.34-14.9-.51-15.52-2.47s-4.86-5.89-6.38-5.9c-.66,0-2.09,1.16-3.18,2.59s-2.57,2.58-3.3,2.58c-2.67,0-5.8-1.59-6.61-3.36-1.07-2.36-1.89-2.28-5.41.5-2.59,2.06-3.28,2.26-6.23,1.86-4.6-.63-5.84-1.45-7.61-5.08a36.92,36.92,0,0,0-5.57-7.33c-6.43-6.65-12.87-8-18.5-3.88-1.31.95-1.36,1.3-.49,3.45a42.79,42.79,0,0,1,1.57,4.85,34.15,34.15,0,0,0,2.39,5.91c7.5,14.54,9.55,18.14,11.4,20,1.15,1.17,2.48,2.61,2.95,3.2a19.32,19.32,0,0,0,2.68,2.53c1.73,1.36,2.54,2.71,7,11.72,2.08,4.16,8.61,10.86,15.62,16.18,1.15.87,2.3,1.71,3.46,2.5C114,264.45,121,270.37,123.71,274.54Z"
	/>
	<path
			data-tip="مریوان"
			id="IR-2010"
			d="M154.92,208.2c-3.95-1.12-8.37-1.56-18.69-1.86l-13.51-.4-1-2c-1.41-2.72-6-6.68-7.77-6.68-.78,0-2.71,1.35-4.29,3-2.57,2.68-3.07,2.9-4.83,2.23-1.08-.41-2-1.06-2-1.45,0-1.34-2.32-3-4.16-3-1,0-3.12,1-4.7,2.3-2.8,2.26-2.93,2.28-6,1.3-2.55-.82-3.47-1.64-4.88-4.34-1.58-3-2.61-4.27-8.34-10-1.77-1.77-7.64-4-10.47-4-2.18,0-5-3-5.87-6.24a13.08,13.08,0,0,0-2-4.29c-1.65-1.84.24-1.73,3.14.18,4.34,2.88,7.5,1.25,5.5-2.81a10.52,10.52,0,0,1-.79-4.6,4.35,4.35,0,0,0-1.34-4c-2-1.78-1.92-2.21.32-3.23,2-.93,2.44-3.16.82-4.51s-.6-3.64,1.73-4.84a11.66,11.66,0,0,0,3-2.19,2.46,2.46,0,0,1,4.26.25c.5.81,2.14,1.62,3.86,1.91s3.18.81,3.41,1.18c.67,1.08,4.5.78,5.51-.43a3,3,0,0,1,1.84-1.11,3,3,0,0,1,1.85,1.11c1.47,1.77,2.79,1.32,6.58-2.22s4.32-3.76,7.94-2.45c2.06.74,2.64.69,3.8-.37a7,7,0,0,1,4-1.25c2.19,0,2.71-.31,3.09-1.84.28-1.13,1-1.85,1.81-1.85a4.36,4.36,0,0,0,2.65-1.44,7.68,7.68,0,0,1,3.48-1.91,5.52,5.52,0,0,0,3.06-1.89c.61-1,1.72-1.41,3.67-1.41a16.76,16.76,0,0,0,6.3-1.84c3.09-1.61,3.86-1.74,6.39-1a14.91,14.91,0,0,0,5.53.32c1.46-.25,4.81-.72,7.46-1s5.27-.72,5.84-.89c1.08-.33,1.6.49,4.83,7.54a13.46,13.46,0,0,0,4.85,6.1c2.79,1.85,2.95,2.16,2.95,5.67,0,3.19.63,4.81,4.54,11.62,8.24,14.35,8.74,15.3,8.75,16.63a2,2,0,0,0,1.12,1.74,1.72,1.72,0,0,1,1.11,1.41,3.29,3.29,0,0,0,1.47,2c1.21.85,5.92,8.57,5.92,9.7a19.32,19.32,0,0,1-3.51,2.71,23.24,23.24,0,0,0-4.43,3.67c-.57.82-2.38,1.51-4.8,1.84a52.87,52.87,0,0,0-9,2.41c-4.56,1.69-5.44,1.79-8.33,1-4.86-1.3-6.07-1.12-6.6,1a12.46,12.46,0,0,0-.14,4.07c.18,1.21.3,2.18.27,2.14s-2.39-.72-5.23-1.53Z"
	/>
	<path
			data-tip="دیواندره"
			id="IR-2004"
			d="M282,55.91l-3.34.38L267.81,45.41h0C257.05,34.6,256.94,34.51,252.14,33a57,57,0,0,0-9.41-1.92l-4.57-.44-2.42-5.22c-1.93-4.14-2.94-5.5-4.88-6.6A12.36,12.36,0,0,1,228,16.43,34.8,34.8,0,0,0,223.84,19c-4.55,3.36-6.48,6.21-6.48,9.58a6.18,6.18,0,0,1-2.26,4.28c-3.43,3.28-5.49,6.91-4.49,7.91.61.61,1.95.29,5.09-1.21s5.13-2,7.58-1.81l3.32.24V46.1c0,4.47-.2,8.46-.46,8.87a24.46,24.46,0,0,0-1.32,3.42,10.77,10.77,0,0,1-2.31,4c-1,.92-1.45,2.27-1.45,4.49,0,3.62-1.51,5.14-5.89,5.93a10.51,10.51,0,0,0-3.53,1.2c-1.26,1-1.17,4.38.16,6.14,2.66,3.52.84,6.31-8.09,12.37-3.65,2.47-6.35,2.52-12.44.23-4.65-1.75-4.73-1.76-8-.43-1.8.74-4.75,1.78-6.57,2.32-3.92,1.17-5.85,3.67-7.34,9.51a22.06,22.06,0,0,1-3.39,7c-3.58,4.5-5.55,8.11-5.55,10.15,0,1,1.16,3.3,2.58,5.09a15,15,0,0,1,2.58,4c0,2.39,4.15,8.72,6.75,10.36s2.87,2,2.87,5.53c0,3.19.63,4.81,4.54,11.63,8.26,14.38,8.74,15.29,8.75,16.69s.45,1.35,5.74.89A64.32,64.32,0,0,0,203,174.2c6.44-1.72,9.61-1.6,14.36.53,3.94,1.77,5.08,2,9.12,1.54s4.9-.77,7.43-3.43c3.34-3.48,4.85-4,11.26-3.55s8.52,2.36,9,8.11c.65,8.29,1.38,8.93,10.94,9.54,3.66.24,7.42.48,8.37.56a7.15,7.15,0,0,0,3.32-.75c.89-.48,5-1.11,9.19-1.41,7.85-.57,14.21-2.2,15.73-4,1.13-1.36.36-4.46-1.52-6.07a4,4,0,0,1-1.46-2.16c0-.5-1.41-1.3-3.14-1.78s-5.42-1.71-8.21-2.76c-6.18-2.32-7.09-3.87-5.41-9.19,1.24-3.95,1.24-3.95-3.93-5.62-2.61-.84-6.74-4.66-9.09-8.39-1.92-3.05-1.62-6.1.77-8,1.12-.87,4.77-4.23,8.12-7.46,6.44-6.23,8.32-7.34,12.19-7.2s5.53-.75,8.44-4.79c6.28-8.74,13.11-16.16,16.2-17.62,4.06-1.9,5.32-3.37,5.62-6.54.23-2.51.51-2.72,9.11-7,8.76-4.39,8.87-4.47,8.87-7,0-2.84.65-2.52-12.59-6.29a67.9,67.9,0,0,1-10-3.75c-3.21-1.65-5.32-2.14-10.32-2.4-4.14-.22-6.71-.71-7.54-1.44s-1.95-3.15-2.79-5.64A29.29,29.29,0,0,0,292,53.86a4.73,4.73,0,0,0-.79-.7,6.2,6.2,0,0,0-.6.28A27.09,27.09,0,0,1,282,55.91Z"
	/>
	<path
			data-tip="سقز"
			id="IR-2006"
			d="M217,8.18a15.87,15.87,0,0,0-1.56,2.16c-.64,1-1.39,1.77-1.65,1.69a10.32,10.32,0,0,0-3.24,1.7c-2.48,1.67-3.22,1.83-7.67,1.65-3.72-.15-5.13,0-5.8.8s-.83.89-.39,0c.37-.74.15-.7-.84.17-.73.64-1.52,1-1.76.74s-.62.05-.84.63c-.3.78-.93,1-2.35.68-1.07-.21-1.94-.12-1.94.2s-2.55.58-5.67.58-5.67-.25-5.67-.56-2.32-.5-5.16-.43-5.47.06-5.84,0a4,4,0,0,0-1.17-.07c-.27,0-.5-.24-.5-.63s-.22-.57-.5-.4c-.59.36-1.74-.89-2-2.24a2.52,2.52,0,0,0-.69-1.31h-4.12c.73,1.15-.54,1.88-3.36,2-1.44,0-5.54,3.38-4.15,3.38.25,0-.71,1.2-2.14,2.67s-2.91,2.66-3.28,2.66a10.07,10.07,0,0,0-3,2.27l-2.36,2.26-3.33-.94a60,60,0,0,0-12.4-2.15c-3.85-.38-4.79-.77-7.57-3.1-1.74-1.47-3.63-3-4.19-3.34a51.7,51.7,0,0,1-4-3.33c-1.65-1.47-3.26-2.59-3.58-2.5a.43.43,0,0,1-.58-.43c0-.33-1.57-1.6-3.5-2.82a21.08,21.08,0,0,1-3.72-2.74c-.12-.29-.5-.35-.84-.14s-.61,0-.61-.33c0-.94-5.12-.92-5.7,0-.25.4-1.47.61-2.71.47s-2.26-.1-2.27.1a25.29,25.29,0,0,1-4.4,3,53.43,53.43,0,0,0-5.3,3.54c-1,1-7.64,1.28-10.43.49-2-.55-2.93.12-5.51,3.86l-3.53,5.12c-1.88,2.73-2,3.39-1.84,7.26.13,2.34.49,4.44.8,4.67s.67,4,.8,8.44l.22,8,0,0a19.27,19.27,0,0,1,4.68,4.15c.9,1.52,1.67,2.07,2.44,1.73,2.38-1,5.76-1.13,6.61-.16.47.55,2,2.82,3.45,5.06,2.28,3.58,2.56,4.55,2.37,8.13l-.22,4.06,3.33.41a17,17,0,0,1,5.17,1.45c1.36.78,3.92,1,9.67.83a54.14,54.14,0,0,1,10.9.6c2.83.77,3.08,1,3.08,3.3a20.7,20.7,0,0,1-1.88,6.57c-2.5,5.47-3.14,10.89-1.54,13.17a6.6,6.6,0,0,1,1.2,3c0,1.33-6.81,7.92-10.33,10-1.67,1-2.07,1.69-1.87,3.28.46,3.68,1.7,5.11,4.41,5.11a11.37,11.37,0,0,1,4.73,1.28c2.17,1.24,2.28,1.23,4-.37s6-2.26,6.83-.91c.74,1.19,3,.86,5-.74,4.24-3.34,9.16-.73,9.94,5.29.23,1.76.79,3.45,1.24,3.75,1.33.9,2.43.67,6.66-1.41,3.84-1.89,4.21-1.93,8-1,3,.72,4.39.75,5.55.13a14.62,14.62,0,0,1,5.23-.83c5.73,0,5.93-.18,5.48-5.17-.39-4.23-.31-4.47,3.21-9.66,2-2.93,3.85-5.7,4.15-6.15a31.77,31.77,0,0,0,1.7-5c1.52-5.48,3.4-7.77,7.22-8.76a68.58,68.58,0,0,0,7-2.38l3.9-1.58,6.22,2.16,6.21,2.15L204,89.77c6.6-4.51,7.75-6,6.27-8.1-1.3-1.85-1.42-8-.19-9.19a4.68,4.68,0,0,1,2.77-.89,10.31,10.31,0,0,0,4.29-1.46c2.14-1.31,2.4-1.83,2.4-4.83,0-2.26.35-3.49,1.08-3.77,2-.76,3.9-7.65,4.19-15.06l.27-7-2-.23c-1.08-.13-3.69.64-5.78,1.71-5,2.54-8.41,2.32-8.74-.57-.27-2.33,1.66-5.81,5-9a6.18,6.18,0,0,0,2.27-4.29A11.37,11.37,0,0,1,217,22.77c1.22-2.36,5.44-5.65,9.75-7.92-.08-.12-.18-.24-.25-.36a9.16,9.16,0,0,0-4-3.77c-1.89-.69-2-.92-1.41-2.3"
	/>
	<path
			data-tip="بیجار"
			id="IR-2002"
			d="M416,196.49c4.12,0,4.6-.17,6.19-2.26,6.15-8.11,11.83-12.39,18.71-14.1a16.16,16.16,0,0,0,5.95-3A8.48,8.48,0,0,1,449,175.6a5.59,5.59,0,0,1,2.87-.44,17.48,17.48,0,0,1,3.46.74c3.81,1.14,6.1.4,9.78-3.17.83-.81,1.76-1.66,2.61-2.4.66-.57,1.28-1.08,1.74-1.43a15,15,0,0,0-5.14-3.47,5.6,5.6,0,0,1-2.28-.57,10.42,10.42,0,0,0-1.38-.1c-3.34,0-3.44-.07-4.26-2.82a7.83,7.83,0,0,1,.07-5.58c.88-2.66.83-2.83-1.19-4.45-.16-.13-.33-.25-.5-.37a8,8,0,0,0-4.86-1.3A64.56,64.56,0,0,1,437,147.91a1,1,0,0,1-.47-.13c-.72-.21-1.39-.42-2-.63-2.42-.85-2.51-1.09-3.9-10.58-2-13.89-4.26-18.37-8.63-17.28l1.77-9c0-1.28-4.43-3.47-9.5-4.71l-4.93-1.21,2.45-2.66c9.71-10.53,9.63-10.41,10.41-14.33a35.41,35.41,0,0,1,2.63-7.5,17.17,17.17,0,0,0,1.85-5.67v-2l3.6,0c.15-.25.29-.49.45-.74l.31-.51c.87-1.46.69-1.75-1-3.56-1.43-1.54-2-3.09-2.29-6.07-.24-2.77-.78-4.32-1.75-5s-1.43-2.07-1.54-4.86A57,57,0,0,0,423.9,45c-.37-2.06-.15-2.89,1-3.95,1.68-1.52,1.47-2.66-1.15-6.21-.08-.11-.18-.2-.26-.31a15.72,15.72,0,0,0-10.19-5.24,11.91,11.91,0,0,1-2.56-.66,7.42,7.42,0,0,1-2.24-1.2,10.13,10.13,0,0,0-2.81-1.66c-.29-.11-.58-.2-.83-.27a1.25,1.25,0,0,1-.26-.07,7.65,7.65,0,0,1-3.07-1.8l-3-3.29c-2.32-2.57-7.67-4.05-17.52-4.86-4.51-.37-9.65-1.25-11.46-2-4.1-1.63-8.08-3.94-8.08-4.69,0-1.56-6.31-4.6-10.24-4.94a28.63,28.63,0,0,1-6.94-1.52c-2.68-1.13-2.84-1.11-5.58.79C334.51,6,328.82,5.39,326.4,1.7c-1.64-2.51-2.61-2.23-2.61.78A16.47,16.47,0,0,1,322.2,8.3c-.16.34-.31.67-.44,1-1.36,3.33-.79,5.51,2.05,8.49,3.26,3.42,3.09,7.22-.45,9.93a22.08,22.08,0,0,0-4.83,6.34c-1.44,2.87-2.86,4.62-4.19,5.17-1.18.49-7.07.89-14.2,1s-10.53,0-13.46-.49c-1.17-.19-.89-.21-4.6-1.12-12.53-3.07-18.32-3.74-20.27-3.94s-3.26-.29-4-.33l21.67,20.83c1.72.18,11-2.45,12-3.17a6.53,6.53,0,0,1,1.42.59,5.22,5.22,0,0,1,1.44,1.19,7.27,7.27,0,0,1,1,1.76,13.28,13.28,0,0,1,.77,2.4,24.33,24.33,0,0,0,2,4.91l1.47,2.69,6.75.32c5.63.28,7.55.72,11.55,2.64a111.15,111.15,0,0,0,13.31,4.8l8.5,2.49v8l-9.08,4.43c-8.87,4.33-9.06,4.48-8.61,6.52.57,2.58-1,4.43-5.59,6.79-3.36,1.71-8.64,7.21-15.11,15.74-4.26,5.61-6.3,7-10.3,7.24-1.68.08-3.48.18-4,.22s-3.53,2.53-6.66,5.53-7,6.62-8.61,8c-2.71,2.41-2.86,2.75-2,4.53,1.75,3.83,6.8,8.45,10.63,9.73,2,.67,3.89,1.73,4.12,2.34s-.07,2.7-.69,4.63c-.69,2.16-.88,3.95-.48,4.65,1.23,2.21,16.27,6.95,19.47,6.15a5.44,5.44,0,0,1,3.37.32c1.27.68,1.88.36,4.18-2.2,2.64-2.95,2.76-3,7.78-3,6.82,0,8,.69,8,4.75,0,2.76-.46,3.74-3.2,6.81-4.63,5.18-8.62,10.58-8.62,11.66s3.14,2.65,5.54,2.65a10.92,10.92,0,0,1,4.58,1.9,23.7,23.7,0,0,0,6.13,2.76c2.38.62,4.46,2,7.28,4.78a27.69,27.69,0,0,0,13.61,7.94c4.82,1.35,12.88,1,15.41-.63,1-.66,2.93-3.4,4.26-6.07,1.88-3.78,3.19-5.36,5.84-7,3-1.93,4.06-2.16,9.33-2.16a109.73,109.73,0,0,1,14.26,1.07,52.83,52.83,0,0,1,7.72,1.56A32.43,32.43,0,0,0,416,196.49Z"
	/>
	<path
			data-tip="دهگلان"
			id="IR-2003"
			d="M298,306.4a3.46,3.46,0,0,0-.55-2.54c-1.23-1.23-1-1.74,1.22-2.57a18.62,18.62,0,0,1,3-.85c.09-.54.16-1.08.22-1.59.8-7.87,4.12-22.8,6-26.83,4-8.88,4-28.29-.07-38.5-1-2.55-1.16-4.4-.74-9.92a90.44,90.44,0,0,1,1.27-10.11,32.37,32.37,0,0,0,.73-6.45c0-3-.47-4.09-3.83-9.68-1.38-2.3-1.41-2.72-.41-6.28,2.37-8.54,2.59-10.33,1.56-12.8a7.31,7.31,0,0,0-2.58-3.21c-1.46-.79-1.53-.73-.8.63,1,1.87,1,6.52,0,7.12a3.54,3.54,0,0,0-.74,2.49c0,3-1.27,4.23-6.75,6.7-6.18,2.78-9.64,6.06-11.36,10.77-2.12,5.77-4.85,9.45-8.24,11.08-5.14,2.48-6,3.68-7,9.77-.8,5-1.22,5.89-4.13,9-1.78,1.88-3.43,4.16-3.66,5-.5,2,1.76,5.38,4.6,6.9s5.48,7.75,5.48,13.34c0,5.16-.24,5.7-5.64,12.69-2.52,3.27-3.95,5.8-3.81,6.77.25,1.8,4.05,3.87,8.34,4.54,2.29.35,3.7,1.27,6.3,4.11,3.68,4,9.28,8,11.17,8a3.18,3.18,0,0,0,2.12-1.1,3.8,3.8,0,0,1,2.6-1.11c2.72,0,2.86,2.26.7,11.15-.29,1.18.22,3.25,1.09,5.29l1,0C297.32,308.16,297.83,307.83,298,306.4Z"
	/>
	<path
			data-tip="قروه"
			id="IR-2008"
			d="M450.58,304.39a5.85,5.85,0,0,1-3-1c-1.94-1.41-1-4.25,2.57-8.07,3.42-3.64,3.62-5.07,1.09-8.07-.3-.36-.6-.78-.89-1.21a15.47,15.47,0,0,1-.86-1.5,8,8,0,0,1-.58-1.46c-1-4.11-3-5.94-6.75-6.19l-3.48-.22-.09-4.24c-.06-2.4-.54-4.78-1.11-5.47a24.79,24.79,0,0,1-2.5-5.13c-.81-2.16-2.8-7.18-4.42-11.17l-2.95-7.25-4.52-.11c-7.45-.18-11.52-3.45-12.61-10.13a17.19,17.19,0,0,0-3-6.14c-2.11-2.77-2.43-3.68-2-5.81.69-3.67-1-9.9-3.55-13.16-1.94-2.48-2.17-3.28-1.85-6.28a24,24,0,0,1,.86-4.63c.32-.76-.12-1.14-2.37-1.61-.62-.13-1.38-.27-2.3-.42a73.26,73.26,0,0,0-9.87-.85c-6.8,0-10.7,2.59-14.13,9.41-3.32,6.6-4.57,7.23-14.07,7.16-10-.07-14.68-1.84-20.65-7.81-3-3-5.24-4.55-7.39-5.12a28.26,28.26,0,0,1-6.46-3,13.91,13.91,0,0,0-4.88-2.15A15,15,0,0,1,315,192c-1.9-.66-2.33-1.21-2.33-3,0-2.66,1.2-4.61,7.18-11.68,6.56-7.75,6.09-10.4-1.84-10.4-3.31,0-3.86.27-6.36,3s-3,3-5.48,2.62l-2.74-.43,2,1.5c3.8,2.82,4.06,6.58,1.24,17.76-.75,3-.42,4.27,2,7.78,2.19,3.24,2.72,8.16,1.49,14.11-1.89,9.18-2.17,15.31-.87,18.8,4.2,11.26,4.25,31.3.11,41.15-1.84,4.38-5.09,18.85-6,26.8v.11a9.16,9.16,0,0,1,4.91.63c2.86,1.5,5.27,1.29,8.58-.75a8,8,0,0,1,6.42-1.35,10.46,10.46,0,0,0,6-.76,26.23,26.23,0,0,1,8-1.39c4.61-.17,6.17.09,9.38,1.59,3.52,1.65,4.14,1.72,7.19.91s3.65-.73,6,.56c1.49.8,3.95,1.95,5.47,2.56s2.76,1.59,2.76,2.2,1.16,2,2.58,3.07c2,1.54,2.82,3,2.41,4.19a2.83,2.83,0,0,1-.93,1.29c-1.33,1.1-1.46,4.51-.22,5.75a3.71,3.71,0,0,0,2.29.88c.78,0,2.55,1.25,4,2.77s2.11,2.27,3.51,2.55a26.26,26.26,0,0,0,4.61.21c.86,0,5.44-.28,5.67.66h0a2.2,2.2,0,0,1,.69,1c.34,1.13-.42,2.34-2.88,5.41-2.28,2.85-2.58,3-2.52,3.46.28,2.13,6.47,1,9,4.38a3.62,3.62,0,0,1,.2.33,5.46,5.46,0,0,0,4.05-.42,13.44,13.44,0,0,0,2.64-3.85q.3-.61.6-1.11c1.58-2.67,3.23-3.07,9.62-3.17,3.87-.05,5.51-.43,7.13-1.63,2.77-2.05,5.94-1.37,9.31,2,2.53,2.53,5,3.23,5.95,1.69.33-.55,1.86-.68,4.41-.38l.92.11c.58.06,1.06.1,1.46.11,1.61,0,2-.47,3.1-2.3a7.88,7.88,0,0,1,3-3c1.09-.35,1.44-1.13,1.44-3.22a6.58,6.58,0,0,1,.74-3.49c.4-.4.93-2.88,1.17-5.5a46.6,46.6,0,0,1,1.18-7.21C454.12,306.13,453.11,304.39,450.58,304.39Z"
	/>
</svg>
