
<svg version="1.1" id="Layer_1" xmlns="http://www.w3.org/2000/svg">
<path data-tip="کامیاران" id="IR-2009" d="M212.1,367.2c1.1-0.2,2.1-0.4,3.2-0.8c0.5,0.1,1.1,0.3,1.5,0.6c0.7,0.6,3.3,1,6.5,1s4.7,0.2,6,0.8l0,0
	c0.2,0.1,0.4,0.2,0.5,0.3l0.3,0.2l0.1,0.1l0.5,0.4c2.7,2,3,2,5.7,0.1c1.8-1.3,2.8-1.5,5.3-1c5.5,0.9,6.7,0.8,7-0.5
	c0.2-0.9-0.6-1.7-2.4-2.5c-0.3-0.2-0.7-0.4-1-0.6c-1.8-1.2-2.1-2.6-0.7-3.9s4.3-1.1,6.1,0.3c0.9,0.8,2.2,1.1,3.4,1
	c0.5-0.1,0.9-0.3,1.2-0.7c0.3-0.4-1.4-2.6-3.7-5.1l-0.7-0.7l-0.1-0.2c-4-4.1-4.7-5.3-4.7-7.5c0-4.1,1.8-7.3,5.6-10
	c3-2.1,3.8-2.3,5.4-1.7c1.9,0.6,3.9,0.9,5.8,1.1c4.4,0.4,5.3-0.3,3.8-4.1c-0.2-0.5-0.4-1-0.7-1.6c-2.5-5.6-2.6-6.6-0.9-8.2
	c0.2-0.1,0.3-0.3,0.5-0.4c2.2-1.5,4.8-0.5,4.8,2s1.9,5.3,3.5,5.3c1.1-0.2,2.1-0.6,3-1.2c0.2-0.1,0.3-0.2,0.5-0.3
	c3.3-2.2,5.2-1.9,6.9,1.1c1.7,2.8,4.7,4.4,7.2,3.7c1.1-0.3,2.2-0.9,2.9-1.8l0.1-0.2c0.1-0.2,0.2-0.4,0.3-0.6c0-0.1,0.1-0.2,0.1-0.2
	c0.1-0.2,0.1-0.3,0.2-0.5c0.4-1.5,0.4-3-0.2-4.4c-0.2-0.6-0.5-1.3-0.8-1.9c-0.2-0.3-0.3-0.6-0.5-0.9c-0.6-1-1.1-2.1-1.4-3.2
	c-0.3-0.8-0.4-1.6-0.5-2.5c-0.1-0.8,0-1.6,0.4-2.3l0,0c0.1-0.1,0.1-0.1,0.2-0.2c0-0.1,0.1-0.1,0.1-0.1c0.1-0.1,0.2-0.1,0.2-0.2
	l0.2-0.1c0.1-0.1,0.2-0.1,0.4-0.2l0.2-0.1l0.7-0.3l2.3-0.8l-1.7-2.4c-0.5-0.7-0.9-1.6-1.2-2.5c-0.7-2.5-0.6-6,0.2-11.8
	c0.5-3.6,0.5-3.7-0.9-2.4c-3.4,3-9.5,0.6-16.2-6.7c-3.2-3.4-4.3-4.1-7-4.4l-3.2-0.4l-3.3,4.6c-4.1,5.6-6.1,7.1-11.1,8.2
	c-3.2,0.7-4.1,1.3-5.4,3.4c-1.5,2.5-1.6,2.6-5.1,2.1c-1.9-0.4-4-0.2-5.8,0.7c-2.6,1.3-6.1,1.5-7.3,0.3c-0.5-0.6-3.9-0.9-9-1
	c-8.2-0.1-8.2-0.1-10.7-2.5c-2-2-2.9-2.3-4.6-1.9c-2.9,0.7-6-0.7-6.8-2.9c-0.6-2.1-1.1-4.2-1.4-6.4c-0.8-5-1.9-6.5-6.6-9.5l-3.3-2
	l-3.6,2.3c-2.8,1.8-3.7,2.9-4.4,5.3c-1.3,5-2.9,6.3-10.2,8.2c-2.4,0.6-4.8,1.5-7.1,2.4c-0.8,0.3-1.6,0.7-2.3,1.2
	c-1.9,1.4-4.2,2-6.5,1.9c-3.7,0-7.8,1.3-7.8,2.4c0,0.3,0.3,0.6,0.7,0.6c1,0,3,5.6,3,8.3c0,1.6,0.9,4.7,2.3,8.3
	c0.2,0.6,0.5,1.2,0.7,1.7c0.5,1.2,1.1,2.5,1.7,3.7c0.1,0.3,0.3,0.5,0.4,0.8c0.6,0.9,1.2,1.7,1.8,2.5c1.2,1.4,2.6,2.7,3.4,3.6
	c10.1,8.9,12.9,10.9,18.1,12.5c1.6,0.5,3.4,1.2,5,1.8c1,0.5,1.9,1.1,2.9,1.6c0.7,0.3,1.4,0.6,2.1,0.9c0.1,0,0.3,0.1,0.4,0.2
	c0.3,0.2,0.5,0.5,0.7,0.8l0,0c0.1,0.1,0.1,0.2,0.2,0.3c0,0,0,0.1,0,0.1c0,0.1,0,0.2,0.1,0.3v0.2c0,0.1,0,0.2,0,0.3s0,0.1,0,0.1
	s0,0.3,0,0.5c0,0.2,0,0.4,0,0.6c-0.3,1.5-0.9,3-1.8,4.2c-2.3,3.2-2.3,5,0,8.2c1,1.4,2.7,3.8,3.7,5.3c1.9,2.8,4.4,3.6,6,2
	c0.4-0.4,3.2-1.1,7.2-1.7c1,0.3,2.1,0.4,3.2,0.4c2.5,0,2.9,0,3,1.6c0.6,0,1.1,0,1.7-0.1C210.6,368.2,211.3,367.2,212.1,367.2z"/>
<path data-tip="بانه" id="IR-2001" d="M9.6,74.5l-2.7,3.2c-2.1,2.5-4,5-5.8,7.7c2.2,2.8,4.6,5.5,7.1,8c5.8,5.6,7.4,8.4,9.3,16
	c0.6,2.8,1.5,5.6,2.6,8.2c0.9,1.4,1.5,1.6,4.2,1.2c1.8-0.3,3.5-1,4.1-1.8c1.2-1.7,5.1-1.9,5.7-0.3c0.3,0.7,1.4,1.1,3.2,1.1
	c1.2-0.1,2.5,0.2,3.5,0.8c0.6,0.6,1.3,0,2.7-2.2c2.6-4.1,5.3-4.8,7.6-1.9l1.7,2.1l3-1.7c2.7-1.5,3.6-1.7,8.7-1.2
	c5.4,0.5,6,0.4,10.3-1.8c1.8-1,3.7-1.8,5.8-2.3c0.7,0,2.2,1.2,3.5,2.6c3.3,3.7,6.1,3.5,11.5-0.7c2.1-1.6,4.1-3.3,6-5.1
	c1.6-1.7,1.7-2.1,0.8-4.2c-1.3-3.2-0.5-10.2,1.8-15.2c0.8-1.6,1.5-3.4,1.9-5.2c0-1.9-5.1-2.8-13.1-2.3c-6.4,0.4-8,0.3-10-0.8
	c-1.8-0.8-3.7-1.4-5.7-1.7l-3.3-0.4v-4.4c0-3.9-0.4-5-2.9-9.1c-2.4-3.9-3.1-4.6-4.4-4.2c-4.6,1.5-5.9,1.2-7.6-1.4
	c-1.1-1.5-2.5-2.8-4.1-3.8l-1.2,1.6c-0.9,1.1-1.7,2.3-2.4,3.6c0,0.9-3.1,3-4.8,3.4c-1,0.2-1.9,0.6-2.7,1.3c-0.4,0.5-1,0.7-1.4,0.5
	s-1.3,0.1-2.1,0.7c-0.8,0.5-1.7,0.9-2.6,1c-0.7,0-1.3,0.3-1.8,0.8c-0.4,0.5-2.7,0.9-5.6,1c-2.7,0.1-5,0.5-5.1,0.8s-2.3,0.6-4.8,0.6
	s-4.6,0.3-4.6,0.7s-0.5,0.7-1,0.7s-1,0.3-1,0.7c0,0.2-0.1,0.4-0.2,0.5l0,0c-0.8,0.5-1.6,1.1-2.4,1.7C10.9,73.9,10.3,74.2,9.6,74.5z"
	/>
<path data-tip="سنندج" id="IR-2007" d="M228.5,300.7c-1.4-0.6-4.7-1-9.1-0.9c-6.8,0.1-6.9,0-9.3-2.3c-2.1-2.1-2.9-2.3-6.6-2.3h-4.2l-1.2-3.5
	c-0.6-1.9-1-3.8-1.2-5.8c0-3.2-2.7-7-6.6-9.1c-2-1-3.6-2.7-4.5-4.8c-2.4-5.5-6.5-7.7-20-10.8c-14.8-3.4-19.2-5.2-22.5-9.4
	c-2.3-2.9-2.5-3.5-1.9-5.6c1.4-4.7,0.8-6.7-3.4-13l-4.1-6.1l13.5,0.2c13,0.2,13.6,0.2,15.8-1.4c2.7-1.9,5.1-7.3,4.4-10
	c-0.7-1.8-1.7-3.4-3-4.9c-2.6-3.1-3.1-4.7-2-6.5c0.5-0.7,1.1-0.8,2.6-0.2c3.4,1.1,7,1,10.3-0.2c5.2-2.2,6.3-2.6,10.4-3.1
	c2.7-0.3,4.5-1,5.1-1.8c1.3-1.4,2.8-2.6,4.4-3.7c2.5-1.7,3.5-2.9,3.5-4.1c0-2.3-3.2-8.5-5.5-10.7c-0.8-0.6-1.4-1.4-1.9-2.3
	c0-0.3,2.3-0.7,5-1c3.4-0.4,6.7-0.9,10-1.7c5-1.3,5-1.3,8.9,0.6c3.3,1.5,5,1.8,10.8,1.8h7l2.8-3.2c2.6-3,3.1-3.3,7-3.6
	c7.5-0.6,10.7,2.4,10.7,10.2c0,3,0.3,3.8,2.1,5.3s3,1.8,11.7,2.3c7.7,0.4,10.1,0.3,12.3-0.6c2.4-0.8,4.8-1.1,7.3-1.1
	c3.2-0.1,6.3-0.5,9.4-1.1c2.6-0.6,4.9-1,5-0.8s0,1-0.5,1.8c-0.7,1.4-7.7,5.3-9.4,5.3s-6.8,6.1-8.1,9.4c-2.3,6.2-4.9,9.7-8.1,11
	c-4.9,1.9-6.1,3.6-7.1,9.7c-0.8,4.9-1.2,5.9-4.5,9.6c-3,3.4-3.6,4.6-3.6,7s0.5,3.4,2.6,5.5c1.4,1.4,2.9,2.6,3.4,2.6
	c1.4,0,4.4,7.6,4.4,11.2s-2.3,7.8-7.5,13.8c-2.6,3-2.9,7.6-0.6,9.3c1.5,1,1.4,1.2-1.8,5.6c-4,5.4-5.5,6.5-10.7,7.6
	c-3.2,0.7-4.2,1.3-5.4,3.3c-1.3,2.3-1.6,2.4-4.7,2.1c-2-0.3-4,0-5.8,0.8C231.6,302.1,231.4,302.1,228.5,300.7L228.5,300.7z"/>
<path data-tip="سروآباد" id="IR-2005" d="M124.9,275c1.4,2.1,4.5,7.8,6.8,12.7c3.3,6.7,4.8,9.1,6.2,9.6c2.7,1.1,3.8,1,6.2-0.2c1.8-0.7,3.7-1.1,5.7-1.1
	c2.6,0,4.9-0.7,8.6-2.6l1-0.5c1.7-0.9,3.5-1.6,5.4-2.1c1.7-0.2,3.3-0.6,5-1.2c3.8-1.3,5.6-3.2,6.4-7c0.4-1.5,1.4-2.9,2.6-3.9
	c3.5-2.6,5.8-4.8,5.8-5.6c0-1.6-4-5.3-7.3-6.8c-3.8-1.4-7.6-2.5-11.6-3.4c-15.7-3.6-20.2-5.5-23.9-10.1c-2.5-3.2-2.6-3.3-1.2-9.8
	c0.4-1.9-0.2-3.2-3.6-8.4c-6.3-9.5-6.7-9.1,9.4-8.8c15.4,0.3,16.6-0.1,19.1-5.6c1.3-2.9,1.3-3-0.1-5.2c-1.8-2.8-2-2.9-10-4.9
	c-5-1.2-9.5-1.7-18.5-1.9c-13.9-0.3-14.9-0.5-15.5-2.5s-4.9-5.9-6.4-5.9c-0.7,0-2.1,1.2-3.2,2.6s-2.6,2.6-3.3,2.6
	c-2.7,0-5.8-1.6-6.6-3.4c-1.1-2.4-1.9-2.3-5.4,0.5c-2.6,2.1-3.3,2.3-6.2,1.9c-4.6-0.6-5.8-1.4-7.6-5.1c-1.6-2.7-3.4-5.1-5.6-7.3
	c-6.4-6.7-12.9-8-18.5-3.9c-1.3,1-1.4,1.3-0.5,3.4c0.6,1.6,1.1,3.2,1.6,4.8c0.6,2,1.4,4,2.4,5.9c7.5,14.5,9.5,18.1,11.4,20
	c1.2,1.2,2.5,2.6,3,3.2c0.8,0.9,1.7,1.8,2.7,2.5c1.7,1.4,2.5,2.7,7,11.7c2.1,4.2,8.6,10.9,15.6,16.2c1.1,0.9,2.3,1.7,3.5,2.5
	C115.2,264.9,122.1,270.8,124.9,275z"/>
<path data-tip="مریوان" id="IR-2010" d="M156.1,208.6c-4-1.1-8.4-1.6-18.7-1.9l-13.5-0.4l-1-2c-1.4-2.7-6-6.7-7.8-6.7c-0.8,0-2.7,1.3-4.3,3
	c-2.6,2.7-3.1,2.9-4.8,2.2c-1.1-0.4-2-1.1-2-1.4c0-1.3-2.3-3-4.2-3c-1,0-3.1,1-4.7,2.3c-2.8,2.3-2.9,2.3-6,1.3
	c-2.5-0.8-3.5-1.6-4.9-4.3c-1.6-3-2.6-4.3-8.3-10c-1.8-1.8-7.6-4-10.5-4c-2.2,0-5-3-5.9-6.2c-0.4-1.5-1-3-2-4.3
	c-1.6-1.8,0.2-1.7,3.1,0.2c4.3,2.9,7.5,1.3,5.5-2.8c-0.6-1.5-0.9-3-0.8-4.6c0.3-1.5-0.2-3-1.3-4c-2-1.8-1.9-2.2,0.3-3.2
	c2-0.9,2.4-3.2,0.8-4.5c-1.5-1.2-0.6-3.6,1.7-4.8c1.1-0.6,2.1-1.3,3-2.2c0.7-1.1,2.3-1.5,3.4-0.7c0.4,0.2,0.7,0.6,0.9,1
	c0.5,0.8,2.1,1.6,3.9,1.9s3.2,0.8,3.4,1.2c0.7,1.1,4.5,0.8,5.5-0.4c0.5-1,1.8-1.4,2.8-0.9c0.4,0.2,0.7,0.5,0.9,0.9
	c1.5,1.8,2.8,1.3,6.6-2.2s4.3-3.8,7.9-2.4c2.1,0.8,2.6,0.7,3.8-0.4c1.2-0.8,2.6-1.2,4-1.2c2.2,0,2.7-0.3,3.1-1.8
	c0.3-1.1,1-1.8,1.8-1.8c1-0.2,2-0.7,2.6-1.4c1-0.9,2.2-1.6,3.5-1.9c1.2-0.3,2.3-0.9,3.1-1.9c0.6-1,1.7-1.4,3.7-1.4
	c2.2-0.2,4.3-0.8,6.3-1.8c3.1-1.6,3.9-1.7,6.4-1c1.8,0.5,3.7,0.6,5.5,0.3c1.5-0.3,4.8-0.7,7.5-1s5.3-0.7,5.8-0.9
	c1.1-0.3,1.6,0.5,4.8,7.5c1,2.5,2.7,4.6,4.8,6.1c2.8,1.8,3,2.2,3,5.7c0,3.2,0.6,4.8,4.5,11.6c8.2,14.3,8.7,15.3,8.8,16.6
	c0,0.7,0.5,1.4,1.1,1.7c0.6,0.2,1,0.8,1.1,1.4c0.2,0.8,0.7,1.6,1.5,2c1.2,0.8,5.9,8.6,5.9,9.7c-1.1,1-2.2,1.9-3.5,2.7
	c-1.6,1-3.1,2.3-4.4,3.7c-0.6,0.8-2.4,1.5-4.8,1.8c-3.1,0.5-6.1,1.3-9,2.4c-4.5,1.7-5.4,1.8-8.3,1c-4.9-1.3-6.1-1.1-6.6,1
	c-0.3,1.3-0.3,2.7-0.2,4.1c0.2,1.2,0.3,2.2,0.3,2.1s-2.4-0.7-5.2-1.5L156.1,208.6z"/>
<path data-tip="دیواندره" id="IR-2004" d="M283.2,56.4l-3.3,0.4L269,45.9l0,0C258.3,35,258.1,35,253.3,33.5c-3.1-0.9-6.2-1.5-9.4-1.9l-4.6-0.4l-2.4-5.2
	c-1.9-4.2-2.9-5.5-4.9-6.6c-1.1-0.7-2-1.5-2.8-2.4c-1.5,0.7-2.9,1.6-4.2,2.5c-4.6,3.4-6.5,6.2-6.5,9.6c-0.1,1.7-1,3.2-2.3,4.3
	c-3.4,3.3-5.5,6.9-4.5,7.9c0.6,0.6,2,0.3,5.1-1.2s5.1-2,7.6-1.8l3.3,0.2v8.1c0,4.5-0.2,8.5-0.5,8.9c-0.5,1.1-1,2.2-1.3,3.4
	c-0.5,1.5-1.3,2.8-2.3,4c-1,0.9-1.5,2.3-1.5,4.5c0,3.6-1.5,5.1-5.9,5.9c-1.2,0.2-2.4,0.6-3.5,1.2c-1.3,1-1.2,4.4,0.2,6.1
	c2.7,3.5,0.8,6.3-8.1,12.4c-3.6,2.5-6.3,2.5-12.4,0.2c-4.7-1.8-4.7-1.8-8-0.4c-1.8,0.7-4.8,1.8-6.6,2.3c-3.9,1.2-5.8,3.7-7.3,9.5
	c-0.7,2.5-1.9,4.9-3.4,7c-3.6,4.5-5.6,8.1-5.6,10.1c0,1,1.2,3.3,2.6,5.1c1.1,1.2,1.9,2.5,2.6,4c0,2.4,4.2,8.7,6.8,10.4
	s2.9,2,2.9,5.5c0,3.2,0.6,4.8,4.5,11.6c8.3,14.4,8.7,15.3,8.7,16.7s0.5,1.3,5.8,0.9c2.9-0.2,5.8-0.7,8.7-1.3
	c6.4-1.7,9.6-1.6,14.4,0.5c3.9,1.8,5.1,2,9.1,1.6s4.9-0.8,7.4-3.4c3.3-3.5,4.8-4,11.3-3.6s8.5,2.4,9,8.1c0.7,8.3,1.4,8.9,11,9.5
	l8.4,0.6c1.2,0,2.3-0.2,3.3-0.7c0.9-0.5,5-1.1,9.2-1.4c7.9-0.6,14.2-2.2,15.7-4c1.1-1.4,0.3-4.5-1.5-6.1c-0.7-0.5-1.2-1.3-1.5-2.2
	c0-0.5-1.4-1.3-3.1-1.8s-5.4-1.7-8.2-2.8c-6.2-2.3-7.1-3.9-5.4-9.2c1.3-3.9,1.3-3.9-3.9-5.6c-2.6-0.8-6.7-4.7-9.1-8.4
	c-1.9-3-1.6-6.1,0.8-8c1.1-0.9,4.8-4.2,8.1-7.5c6.5-6.2,8.3-7.3,12.2-7.2s5.5-0.8,8.4-4.8c6.3-8.7,13.1-16.2,16.2-17.6
	c4-1.9,5.3-3.4,5.6-6.5c0.2-2.5,0.5-2.7,9.1-7c8.8-4.4,8.9-4.5,8.9-7c0-2.8,0.7-2.5-12.6-6.3c-3.4-1-6.8-2.2-10-3.8
	c-3.2-1.7-5.3-2.1-10.3-2.4c-4.1-0.2-6.7-0.7-7.5-1.4s-2-3.2-2.8-5.7c-0.7-2.2-1.7-4.4-2.9-6.4c-0.2-0.3-0.5-0.5-0.8-0.7
	c-0.2,0.1-0.4,0.2-0.6,0.3C289.1,55.2,286.2,56,283.2,56.4z"/>
<path data-tip="سقز" id="IR-2006" d="M218.2,8.6c-0.6,0.7-1.1,1.4-1.6,2.2c-0.6,1-1.4,1.8-1.7,1.7c-1.2,0.4-2.3,1-3.2,1.7c-2.5,1.7-3.2,1.8-7.7,1.6
	c-3.7-0.2-5.1,0-5.8,0.8c-0.7,0.8-0.8,0.9-0.4,0c0.4-0.9,0.2-0.7-0.8,0.2c-0.7,0.6-1.5,1-1.8,0.7s-0.6,0-0.8,0.6
	c-0.3,0.8-0.9,1-2.3,0.7c-1.1-0.2-1.9-0.1-1.9,0.2s-2.5,0.6-5.7,0.6s-5.7-0.3-5.7-0.5s-2.3-0.5-5.2-0.4s-5.5,0.1-5.8,0
	c-0.4-0.1-0.8-0.1-1.2-0.1c-0.3,0-0.5-0.2-0.5-0.6s-0.2-0.6-0.5-0.4c-0.6,0.4-1.8-0.9-2-2.2c-0.1-0.5-0.3-0.9-0.7-1.3h-4.1
	c0.7,1.1-0.5,1.9-3.4,2c-1.4,0-5.5,3.4-4.2,3.4c0.3,0-0.7,1.2-2.1,2.7s-2.9,2.7-3.3,2.7c-1.1,0.6-2.2,1.3-3,2.3l-2.4,2.3l-3.3-1
	c-4-1.1-8.2-1.9-12.4-2.2c-3.9-0.4-4.8-0.8-7.6-3.1c-1.8-1.5-3.6-3-4.2-3.3s-2.4-1.9-4-3.3s-3.3-2.6-3.6-2.5c-0.2,0.1-0.5,0-0.6-0.3
	c0-0.1,0-0.1,0-0.2c0-0.3-1.6-1.6-3.5-2.8c-1.3-0.8-2.6-1.7-3.7-2.7c-0.1-0.3-0.5-0.3-0.8-0.1s-0.6,0.1-0.6-0.3c0-0.9-5.1-0.9-5.7,0
	C90.3,7.8,89,8,87.8,7.8s-2.3-0.1-2.3,0.1c-1.4,1.2-2.8,2.2-4.4,3c-1.8,1.1-3.6,2.2-5.3,3.5c-1,1-7.6,1.3-10.4,0.5
	c-2-0.6-2.9,0.1-5.5,3.8l-3.5,5.1c-1.9,2.7-2.1,3.4-1.9,7.3c0.1,2.3,0.5,4.4,0.8,4.7s0.7,4,0.8,8.4l0.2,8l0,0
	c1.8,1.1,3.4,2.5,4.7,4.2c0.9,1.5,1.7,2.1,2.4,1.7c2.4-1,5.8-1.1,6.6-0.2c0.5,0.5,2,2.8,3.5,5.1c2.3,3.6,2.6,4.5,2.4,8.1l-0.2,4.1
	l3.3,0.4c1.8,0.2,3.5,0.7,5.2,1.5c1.4,0.8,3.9,1,9.7,0.8c3.6-0.2,7.3,0,10.9,0.6c2.8,0.8,3.1,1,3.1,3.3c-0.3,2.3-0.9,4.5-1.9,6.6
	c-2.5,5.5-3.1,10.9-1.5,13.2c0.6,0.9,1.1,1.9,1.2,3c0,1.3-6.8,7.9-10.3,10c-1.7,1-2.1,1.7-1.9,3.3c0.5,3.7,1.7,5.1,4.4,5.1
	c1.7,0.1,3.3,0.5,4.7,1.3c2.2,1.3,2.3,1.2,4-0.4s6-2.3,6.8-0.9c0.7,1.2,3,0.9,5-0.7c4.3-3.3,9.2-0.7,10,5.3c0.2,1.8,0.8,3.5,1.2,3.8
	c1.3,0.9,2.4,0.7,6.7-1.4c3.9-1.9,4.2-1.9,8-1c3,0.7,4.4,0.8,5.5,0.1c1.7-0.6,3.5-0.9,5.2-0.8c5.7,0,5.9-0.2,5.5-5.2
	c-0.4-4.2-0.3-4.5,3.2-9.7l4.2-6.2c0.7-1.6,1.3-3.3,1.7-5c1.5-5.5,3.4-7.8,7.2-8.8c2.4-0.7,4.7-1.5,7-2.4l3.9-1.6l6.2,2.2l6.2,2.2
	l5.2-3.6c6.6-4.5,7.7-6,6.3-8.1c-1.3-1.8-1.4-8-0.2-9.2c0.8-0.6,1.8-0.9,2.8-0.9c1.5-0.2,3-0.7,4.3-1.5c2.1-1.3,2.4-1.8,2.4-4.8
	c0-2.3,0.3-3.5,1.1-3.8c2-0.8,3.9-7.7,4.2-15.1l0.3-7l-2-0.2c-1.1-0.1-3.7,0.7-5.8,1.7c-5,2.5-8.4,2.3-8.7-0.6c-0.3-2.3,1.7-5.8,5-9
	c1.3-1.1,2.1-2.6,2.3-4.3c0.1-1.5,0.5-3,1.1-4.3c1.2-2.4,5.4-5.7,9.8-7.9l-0.3-0.4c-0.9-1.6-2.3-2.9-4-3.8c-1.9-0.7-2-0.9-1.4-2.3"
	/>
<path data-tip="بیجار" id="IR-2002" d="M417.2,196.9c4.1,0,4.6-0.2,6.2-2.3c6.2-8.1,11.8-12.4,18.7-14.1c2.2-0.6,4.2-1.6,6-3c0.6-0.6,1.4-1.1,2.2-1.5
	c0.9-0.4,1.9-0.6,2.9-0.4c1.2,0.1,2.3,0.4,3.5,0.7c3.8,1.1,6.1,0.4,9.8-3.2c0.8-0.8,1.8-1.7,2.6-2.4c0.7-0.6,1.3-1.1,1.8-1.4
	c-1.5-1.5-3.2-2.7-5.1-3.5c-0.8,0-1.6-0.2-2.3-0.6c-0.5-0.1-0.9-0.1-1.4-0.1c-3.3,0-3.4-0.1-4.3-2.8c-0.7-1.8-0.6-3.8,0.1-5.6
	c0.9-2.7,0.8-2.8-1.2-4.4c-0.2-0.1-0.3-0.3-0.5-0.4c-1.4-0.9-3.1-1.4-4.9-1.3c-4.4-0.3-8.7-1.1-12.9-2.3c-0.2,0-0.3,0-0.5-0.1
	c-0.7-0.2-1.4-0.4-2-0.6c-2.4-0.9-2.5-1.1-3.9-10.6c-2-13.9-4.3-18.4-8.6-17.3l1.8-9c0-1.3-4.4-3.5-9.5-4.7l-4.9-1.2l2.5-2.7
	c9.7-10.5,9.6-10.4,10.4-14.3c0.6-2.6,1.5-5.1,2.6-7.5c0.9-1.8,1.6-3.7,1.8-5.7v-2h3.6c0.2-0.3,0.3-0.5,0.5-0.7l0.3-0.5
	c0.9-1.5,0.7-1.8-1-3.6c-1.4-1.5-2-3.1-2.3-6.1c-0.3-2.8-0.8-4.3-1.8-5s-1.4-2.1-1.5-4.9c-0.1-2.2-0.3-4.3-0.6-6.5
	c-0.4-2-0.2-2.9,1-4c1.7-1.5,1.5-2.7-1.2-6.2c-0.1-0.1-0.2-0.2-0.3-0.3c-2.6-2.9-6.2-4.8-10.1-5.2c-0.9-0.1-1.7-0.3-2.6-0.7
	c-0.8-0.3-1.6-0.7-2.2-1.2c-0.8-0.7-1.8-1.3-2.8-1.7c-0.3-0.1-0.6-0.2-0.8-0.3l-0.3-0.1c-1.1-0.4-2.2-1-3.1-1.8l-3-3.3
	c-2.3-2.6-7.7-4-17.5-4.9c-4.5-0.4-9.7-1.3-11.5-2c-4.1-1.6-8.1-3.9-8.1-4.7c0-1.6-6.3-4.6-10.2-5c-2.4-0.2-4.7-0.7-6.9-1.5
	c-2.7-1.1-2.8-1.1-5.6,0.8c-4.2,2.9-9.9,2.3-12.3-1.4c-1.7-2.5-2.6-2.2-2.6,0.8c-0.2,2-0.7,4-1.6,5.8c-0.2,0.3-0.3,0.7-0.4,1
	c-1.4,3.3-0.8,5.5,2,8.5c3.3,3.4,3.1,7.2-0.4,9.9c-2,1.8-3.6,4-4.8,6.3c-1.5,2.9-2.9,4.6-4.2,5.2c-1.2,0.5-7.1,0.9-14.2,1
	s-10.5,0-13.5-0.5c-1.2-0.2-0.9-0.2-4.6-1.1c-12.5-3.1-18.3-3.7-20.3-3.9s-3.3-0.3-4-0.3l21.7,20.8c1.7,0.2,11-2.4,12-3.2
	c0.5,0.1,1,0.3,1.4,0.6c0.6,0.3,1,0.7,1.5,1.2c0.4,0.5,0.8,1.1,1,1.8c0.3,0.8,0.6,1.6,0.8,2.4c0.5,1.7,1.2,3.3,2,4.9l1.5,2.7
	l6.8,0.3c5.6,0.3,7.5,0.7,11.5,2.6c4.3,1.9,8.8,3.5,13.3,4.8l8.5,2.5v8l-9.1,4.5c-8.9,4.3-9.1,4.5-8.6,6.5c0.6,2.6-1,4.4-5.6,6.8
	c-3.4,1.7-8.6,7.2-15.1,15.7c-4.3,5.6-6.3,7-10.3,7.2l-4,0.2c-0.5,0-3.5,2.5-6.7,5.5s-7,6.6-8.6,8c-2.7,2.4-2.9,2.7-2,4.5
	c1.8,3.8,6.8,8.5,10.6,9.7c2,0.7,3.9,1.7,4.1,2.3s-0.1,2.7-0.7,4.6c-0.7,2.2-0.9,4-0.5,4.7c1.2,2.2,16.3,6.9,19.5,6.2
	c1.1-0.3,2.3-0.1,3.4,0.3c1.3,0.7,1.9,0.4,4.2-2.2c2.7-3,2.8-3,7.8-3c6.8,0,8,0.7,8,4.8c0,2.8-0.5,3.7-3.2,6.8
	c-4.6,5.2-8.6,10.6-8.6,11.7s3.1,2.7,5.5,2.7c1.7,0.3,3.2,0.9,4.6,1.9c1.9,1.2,4,2.1,6.1,2.8c2.4,0.6,4.5,2,7.3,4.8
	c3.7,3.9,8.4,6.7,13.6,7.9c4.8,1.4,12.9,1,15.4-0.6c1-0.7,2.9-3.4,4.3-6.1c1.9-3.8,3.2-5.4,5.8-7c3-1.9,4.1-2.2,9.3-2.2
	c4.8,0,9.5,0.4,14.3,1.1c2.6,0.3,5.2,0.8,7.7,1.6C412,196.6,414.6,196.9,417.2,196.9z"/>
<path data-tip="دهگلان" id="IR-2003" d="M299.2,306.8c0.2-0.9,0-1.8-0.5-2.5c-1.2-1.2-1-1.7,1.2-2.6c1-0.4,2-0.6,3-0.8c0.1-0.5,0.2-1.1,0.2-1.6
	c0.8-7.9,4.1-22.8,6-26.8c4-8.9,4-28.3-0.1-38.5c-1-2.6-1.2-4.4-0.7-9.9c0.2-3.4,0.7-6.8,1.3-10.1c0.5-2.1,0.7-4.3,0.7-6.4
	c0-3-0.5-4.1-3.8-9.7c-1.4-2.3-1.4-2.7-0.4-6.3c2.4-8.5,2.6-10.3,1.6-12.8c-0.5-1.3-1.4-2.4-2.6-3.2c-1.5-0.8-1.5-0.7-0.8,0.6
	c1,1.9,1,6.5,0.1,7.1c-0.6,0.7-0.8,1.6-0.7,2.5c0,3-1.3,4.2-6.8,6.7c-6.2,2.8-9.6,6.1-11.4,10.8c-2.1,5.8-4.8,9.4-8.2,11.1
	c-5.1,2.5-6,3.7-7,9.8c-0.8,5-1.2,5.9-4.1,9c-1.8,1.9-3.4,4.2-3.7,5.1c-0.5,2,1.8,5.4,4.6,6.9s5.5,7.8,5.5,13.3
	c0,5.2-0.2,5.7-5.6,12.7c-2.5,3.3-4,5.8-3.8,6.8c0.3,1.8,4.1,3.9,8.3,4.5c2.3,0.4,3.7,1.3,6.3,4.1c3.7,4,9.3,8,11.2,8
	c0.8-0.1,1.6-0.5,2.1-1.1c0.7-0.7,1.6-1.1,2.6-1.1c2.7,0,2.9,2.3,0.7,11.2c-0.3,1.2,0.2,3.3,1.1,5.3h1
	C298.5,308.6,299,308.3,299.2,306.8z"/>
<path data-tip="قروه" id="IR-2008" d="M451.8,304.8c-1.1-0.1-2.1-0.4-3-1c-1.9-1.4-1-4.3,2.6-8.1c3.4-3.6,3.6-5.1,1.1-8.1c-0.3-0.4-0.6-0.8-0.9-1.2
	c-0.3-0.5-0.6-1-0.9-1.5c-0.2-0.5-0.4-1-0.6-1.5c-1-4.1-3-5.9-6.8-6.2l-3.5-0.2l-0.1-4.2c0-2.4-0.5-4.8-1.1-5.5
	c-1-1.6-1.9-3.3-2.5-5.1c-0.8-2.2-2.8-7.2-4.4-11.2l-2.9-7.2l-4.5-0.1c-7.4-0.2-11.5-3.4-12.6-10.1c-0.6-2.2-1.6-4.3-3-6.1
	c-2.1-2.8-2.4-3.7-2-5.8c0.7-3.7-1-9.9-3.5-13.2c-1.9-2.5-2.2-3.3-1.9-6.3c0.1-1.6,0.4-3.1,0.9-4.6c0.3-0.8-0.1-1.2-2.4-1.6
	c-0.6-0.1-1.4-0.3-2.3-0.4c-3.3-0.5-6.6-0.8-9.9-0.8c-6.8,0-10.7,2.6-14.1,9.4c-3.3,6.6-4.6,7.2-14.1,7.2c-10-0.1-14.7-1.8-20.7-7.8
	c-3-3-5.2-4.6-7.4-5.1c-2.3-0.7-4.4-1.7-6.5-3c-1.5-1-3.1-1.8-4.9-2.2c-1.3-0.1-2.6-0.4-3.8-0.8c-1.9-0.7-2.3-1.2-2.3-3
	c0-2.7,1.2-4.6,7.2-11.7c6.6-7.8,6.1-10.4-1.8-10.4c-3.3,0-3.9,0.3-6.4,3s-3,3-5.5,2.6l-2.7-0.4l2,1.5c3.8,2.8,4.1,6.6,1.2,17.8
	c-0.8,3-0.4,4.3,2,7.8c2.2,3.2,2.7,8.2,1.5,14.1c-1.9,9.2-2.2,15.3-0.9,18.8c4.2,11.3,4.3,31.3,0.1,41.1c-1.8,4.4-5.1,18.9-6,26.8
	v0.1c1.7-0.3,3.4,0,4.9,0.6c2.9,1.5,5.3,1.3,8.6-0.8c2.4-1.4,3.5-1.7,6.4-1.3c2,0.3,4.1,0.1,6-0.8c2.6-0.9,5.3-1.3,8-1.4
	c4.6-0.2,6.2,0.1,9.4,1.6c3.5,1.7,4.1,1.7,7.2,0.9s3.6-0.7,6,0.6c1.5,0.8,4,2,5.5,2.6s2.8,1.6,2.8,2.2s1.2,2,2.6,3.1
	c2,1.5,2.8,3,2.4,4.2c-0.2,0.5-0.5,1-0.9,1.3c-1.3,1.1-1.5,4.5-0.2,5.8c0.6,0.5,1.5,0.9,2.3,0.9c0.8,0,2.5,1.3,3.9,2.8
	s2.1,2.3,3.5,2.6c1.5,0.2,3.1,0.3,4.6,0.2c0.8,0,5.4-0.3,5.7,0.7l0,0c0.3,0.3,0.6,0.6,0.7,1c0.3,1.1-0.4,2.3-2.9,5.4
	c-2.3,2.8-2.6,3-2.5,3.5c0.3,2.1,6.5,1,9,4.4c0.1,0.1,0.1,0.2,0.2,0.3c1.3,0.4,2.8,0.2,4-0.4c1.1-1.1,2-2.4,2.6-3.8
	c0.2-0.4,0.4-0.8,0.6-1.1c1.6-2.7,3.2-3.1,9.6-3.2c3.9,0,5.5-0.4,7.1-1.6c2.8-2.1,6-1.4,9.3,2c2.5,2.5,5,3.2,6,1.7
	c0.3-0.5,1.9-0.7,4.4-0.4l0.9,0.1c0.6,0.1,1.1,0.1,1.5,0.1c1.6,0,2-0.5,3.1-2.3c0.7-1.3,1.7-2.3,3-3c1.1-0.3,1.4-1.1,1.4-3.2
	c-0.1-1.2,0.2-2.4,0.7-3.5c0.4-0.4,0.9-2.9,1.2-5.5c0.2-2.4,0.6-4.8,1.2-7.2C455.3,306.6,454.3,304.8,451.8,304.8z"/>
</svg>
