<svg>
    <path class="cls-57"
          data-tip="کوهدشت"
          id="IR-2611"
          d="M668,1602.9c.31,1.24,3.46,3.33,5,3.33a7.27,7.27,0,0,1,2.43,1.2,19.84,19.84,0,0,0,4.63,2,10,10,0,0,1,3.5,1.6,2.49,2.49,0,0,0,1.36.72c0-.16.06-.32.09-.45,2.06-11.06,8.7-12.62,11.6-24.23.29-1.14.89-3.77,2.91-4.73,1-.49,2.07-.36,3.92-.12,3.39.45,3.69,1.47,5.74,1.38,1.55-.07,3.07-.71,5.79-2,4.38-2.06,5.42-2.31,7.91-1.94,3.41.51,5.07-.21,6.4-2.79s1.16-5-.64-7.93a10.11,10.11,0,0,1-1.57-5.54c0-2.58.28-3.26,2-4.76,4.5-3.94,5-4.72,5-8.19,0-3,.19-3.42,2.06-4.76s2.49-1.46,11.56-1.28c14.63.28,18.54-1.48,11.62-5.25a28.23,28.23,0,0,1-10.14-9.16,9.82,9.82,0,0,1-1.79-6.35c0-4.57,1.18-6.36,4.19-6.36a9.11,9.11,0,0,1,3.44.65c1,.55,1.34.34,2.09-1.42a11.37,11.37,0,0,1,2.54-3.49c1.46-1.25,1.57-1.61.93-3s-1.07-1.6-4.69-1.6c-3.37,0-4.27-.25-6-1.68-1.91-1.61-2.26-1.67-9-1.55-8.81.15-10.3-.54-9.86-4.58a83,83,0,0,1,1.88-8.6c1.44-5.36,1.52-6.28.82-9.19-1.71-7.17-2-7.55-8.92-9.94-.76-.26-1.44-.51-2.07-.75a20.29,20.29,0,0,1-7.55-4.52c-4.6-4.19-6.43-8-7.44-15.52-1-7.66-1.67-9.25-4.26-10.56a20.81,20.81,0,0,1-4-2.9,9.5,9.5,0,0,0-4.3-2.24l-2.36-.38,1.23,2.15a17.06,17.06,0,0,1,1.65,5.14c.24,1.65.69,3.16,1,3.37.71.43.78,4.09.11,5.15a4.35,4.35,0,0,1-2.62,1c-2.33.23-2.56.53-4.22,5.28a17.92,17.92,0,0,1-4.65,6.69c-1.95,1.94-5,5.27-6.88,7.41l-3.33,3.89-12.88.19-12.88.19-2.34,2.06c-2.12,1.86-2.74,2.06-6.35,2.06s-4.2.19-6.06,2-2.19,2-6.09,1.54l-4-.43-.73,2.91a16.19,16.19,0,0,1-2.56,5.2,8.46,8.46,0,0,0-1.84,3.63,5.2,5.2,0,0,1-1,2.57,7.85,7.85,0,0,0-.93,3.88c0,3.92-1.85,6-5.38,6-2.21,0-3.54-.53-6.64-2.67-3.8-2.63-4-2.68-10.15-2.93-7.29-.29-6.85-.75-7.13,7.5a5.75,5.75,0,0,1-.14.92,27.26,27.26,0,0,1-.86,3,13.58,13.58,0,0,1,4.86,6.11,29.3,29.3,0,0,0,1.84,4c.73,1.12.73,1.28,0,1.83a2.87,2.87,0,0,0-.83,2.08c0,1.19,1,2.41,5,6.35a98.16,98.16,0,0,0,7.51,6.75c1.4,1,3.68,2.79,5.09,3.9s3.78,3,5.29,4.19a18.24,18.24,0,0,1,3.31,3.17c.3.56,1.53,2.34,2.72,4,.26.35.48.67.69,1l.17.26c.15.22.28.43.4.63s.1.16.14.24c.14.25.27.49.37.71h0c.09.23.16.43.22.62a.85.85,0,0,0,0,.17c0,.14,0,.27.05.4a.75.75,0,0,1,0,.15,1.37,1.37,0,0,1-.07.45h0a2,2,0,0,1-.62.84l-.34.45a4.12,4.12,0,0,0-.43,1.8,3,3,0,0,1-.52,2l3.54,3.52.16.11c1.81.32,2.5,1,4.24,2.58.6.5,1.2,1,1.81,1.52a21.25,21.25,0,0,0,1.86,1.29c.25.15.51.31.78.44a11.73,11.73,0,0,1,3.38,2.64c1.39,1.66,1.57,1.72,5.9,2l4.47.25,1.19,2.25a10.35,10.35,0,0,0,2.14,2.91,3.94,3.94,0,0,1,1.29,2,2,2,0,0,0,1.86,1.61c1.71.34,2.21,1.06,2.72,3.9a2.83,2.83,0,0,0,2.07,2.66c2.15.9,2.47,1.41,2.47,4l4.6,2.67C667.33,1601.7,667.77,1602,668,1602.9Z"/>
    <path class="cls-57"
          d="M800.57,1480c0-.28-.85-.87-1.9-1.3-2.07-.86-4.75-3.71-6.46-6.88-.9-1.66-1.46-2-3.33-2-1.23,0-2.25.17-2.25.39a11.65,11.65,0,0,0,1.91,2.56,6.33,6.33,0,0,1,1.9,4.33c0,4.31-4.1,4.5-13.94.67-8.55-3.32-9.39-3.49-20-4.18-5.22-.33-10-.76-10.53-.94-.84-.27-1.1-1.52-1.35-6.49-.21-4.14-.7-7-1.48-8.55-1.6-3.31-5.52-5.52-9.9-5.58-5.17-.08-8.39-1.25-8.64-3.14-.16-1.19-1.07-2-3.81-3.33a14.21,14.21,0,0,0-7.26-1.74h-1l-4.63,0,.37,2.06c.2,1.13.61,4.07.9,6.53.81,6.68,4.28,12.87,8.84,15.75a36.17,36.17,0,0,0,4.64,2.23c.78.33,1.58.65,2.33.92,2.54.91,5.17,2,5.84,2.32,1.72.91,3.54,4.78,4.33,9.19.69,3.84.42,5.58-2.53,16.07-.74,2.63-.7,2.86.68,4s2.4,1.16,8.54,1c6.9-.18,7.11-.14,9.14,1.56,1.74,1.47,2.66,1.74,5.79,1.74s3.87.23,4.7,1.41c1.43,2.05,1.21,3.87-.68,5.61-2.33,2.15-3.78,5.65-2.66,6.4a21.38,21.38,0,0,0,9,3.36h0c2.49.45,4.61.86,4.71.9.68.24,4.07-2.13,5.53-3.87a26.58,26.58,0,0,1,3.67-3.5c2.57-1.89,4.23-4.53,4.23-6.73,0-2.86,1.79-6,3.86-6.67,2.33-.81,3.12-2.82,3.12-8v-4l2.54-1a6.15,6.15,0,0,0,3.6-3.23c.82-1.7,1.77-2.49,4.13-3.36l3.06-1.15-2.55-1.43C801.72,1481.14,800.57,1480.27,800.57,1480Z"/>
    <path class="cls-57"
          data-tip="پل‌دختر"
          id="IR-2605"
          d="M784.49,1680.25c.37-1,1.9-1.49,4.37-1.49,4.48,0,7.93-1.18,10.26-3.5,1.32-1.33,1.55-2.68,1-6.29-.35-2.52-1.24-5.07-2-5.65-.89-.7-1.26-3.08-1.14-7.17.16-5.4.4-6.06,2-5.56,1.23.39,2.87-.58,5.21-3.06,3.5-3.71,4.22-5.84,2.37-7-.69-.42-.48-1.49.6-3.14,1.56-2.39,1.55-3.78-.05-10.21-.83-3.33,3-11.76,5.78-12.85,6.28-2.43,15.52-6.3,19-8a85.71,85.71,0,0,1,9.42-3.58c3-.93,6.8-2.26,8.43-3,3.88-1.64,6.47-2.22,10.85-1.53a20.89,20.89,0,0,1-.68-4.1,13.07,13.07,0,0,0-2.29-7.23c-1.82-2.92-2-3.78-1.91-7.17.23-5.73-2.21-15-4.4-16.63a9.43,9.43,0,0,0-4.24-.84c-4.12,0-6.83-.83-8.54-2.55-1.43-1.42-2.93-1.47-9.51-.31a4.35,4.35,0,0,1-3.49-.55c-1.11-.82-1.29-1.79-1.44-8.12-.26-10.81,0-10.28-5.34-9.83-4,.33-5.11.76-9.7,3.57-5.47,3.36-6.5,3.63-9.67,2.52-2.15-.75-3.94-4.21-3.94-7.6a8.46,8.46,0,0,0-4-7c-1.66-1-3.2-1.24-8.55-1.24-6.87,0-7.76-.36-10-4-.42-.7-2.48-1.36-6.22-2-5.51-.94-9.44-2.68-11-4.89a5.53,5.53,0,0,0-2.81-1.53c-1.65-.36-2.24-.18-3.17,1-1.39,1.73-1.48,5.14-.19,7.85,1.5,3.17,6.29,7.75,10.46,10q6,3.27,3.79,5.9c-1.43,1.72-5.66,2.3-15.23,2.1-8.71-.19-9.5-.11-11.17,1.13s-1.82,1.83-2,4.83c-.18,3.32-.37,3.66-3.65,6.79-4,3.87-4.46,6-1.87,9.54,3,4.12,1.5,12-2.55,13a13.7,13.7,0,0,1-4.2.07c-2-.28-3.44.08-7.07,1.82-5,2.41-8,2.7-11.78,1.17-2.12-.85-3.48-1.09-4.43-.58-.45.24-.86.65-1.68,2.7a20.12,20.12,0,0,0-1.43,4.53c-.81,4.43-4.36,6.56-8.13,14.37a52.27,52.27,0,0,0-2.67,6.78c3.3,1,11.21,7.84,13.15,11.68a7,7,0,0,0,3.39,3.53c3.85,1.95,4.8,2.89,6,5.91,1.35,3.48,3.67,5.78,7.76,7.68,1.61.75,2.93,1.6,2.93,1.88,0,.59,6.36,6.45,10,9.24a31.68,31.68,0,0,0,5.22,3.08,31.24,31.24,0,0,1,4.1,2.14,46.21,46.21,0,0,0,12.73,5.16c3,.48,5.29,1.64,9.58,4.8,1.14.84,3.4,2.37,5,3.4,1,.65,2.56,1.78,4,3a39.42,39.42,0,0,1,5,2.72,8.78,8.78,0,0,1,2.69,2.68c2.11.38,3.22,1.19,4.8,3.57h0A5.5,5.5,0,0,0,784.49,1680.25Z"/>
    <path class="cls-57"
          data-tip="دورود"
          id="IR-2609"
          d="M993,1482.7c3-1.83,3.33-2.7,3.33-8,0-5.67.14-5.63-5.33-1.45-3.33,2.54-6.48,2.92-10.07,1.21-2-1-2.17-1.26-2.85-5.86-.4-2.67-.89-6.49-1.1-8.49-.36-3.41-.49-3.64-2-3.64a9.7,9.7,0,0,0-4.18,1.74c-2.25,1.56-3.12,1.75-8.27,1.85-3.17.06-7.12.3-8.78.54-3.4.49-5.82-.61-6.75-3.07-.37-1-1.45-1.64-3.47-2.18-.73-.2-1.37-.35-1.94-.47-2.83-.57-3.94-.14-5.84,1.69-1.35,1.32-1.87,1.75-2.84,1.66a9.92,9.92,0,0,1-1.85-.44,14,14,0,0,1-5.3-3.54l-2.69-2.77-1.87,1.14c-1.24.75-2.49,2.52-3.66,5.19-1,2.22-2.21,5-2.74,6.1-.92,2-.89,2.14,1.23,4.76a67.07,67.07,0,0,1,4.6,6.81c2.79,4.72,6.18,8.54,8.81,9.92a23,23,0,0,0,6.66,1.3,26.13,26.13,0,0,1,6,1c1.39.72,2.95,4.22,2.95,6.62a2.8,2.8,0,0,0,0,.4,6.46,6.46,0,0,0,1.71,3.15c1.66,1.73,1.74,2.1,1.67,7.64a96.59,96.59,0,0,1-1.89,16.74c-.45,2.34-3.2,3.61-8.67,4-4.88.35-6.12,1-6.14,2.94,0,.43.89,1.24,2,1.82,1.91,1,2.18,1,5.5-.41,3.17-1.32,3.8-1.38,7.07-.7,6.62,1.36,9.93,2.61,11.87,4.47,2.92,2.79,4.79,3.85,7.85,4.45h0c4.43.87,5.66.77,8-.66a17.66,17.66,0,0,1,6.52-1.82c7.9-.87,10.74-4.53,10.77-13.88,0-4.62-.24-5.86-1.89-9.35-2.69-5.68-2.54-6.61,1.8-11.54,4.88-5.53,5.13-6.69,2.31-10.78a17.68,17.68,0,0,1-1.55-2.67C990.82,1485.6,991.18,1483.85,993,1482.7Z"/>
    <path class="cls-57"
          data-tip="خرم‌آباد"
          id="IR-2607"
          d="M934.35,1561.78c6.68-5.66,6.8-6.14,3-11.55l-2.63-3.75.43-6.55.42-6.55-2.55-1c-2.27-.89-2.54-1.23-2.54-3.11,0-3.43.67-3.88,6.15-4.28s8.22-1.68,8.67-4a101.53,101.53,0,0,0,1.88-15.47c.08-4.11-.08-4.73-1.58-6.34a7.07,7.07,0,0,1-1.79-3.6c-.08-.41-.16-.85-.21-1.33-.48-4.58-2.1-5.76-8.53-6.2a25,25,0,0,1-6.57-1.12q-4.12-2.12-8.82-9.81a89.74,89.74,0,0,0-7.18-9.82,52.26,52.26,0,0,1-5.8-8.13c-.94-1.85-2.1-3.52-2.58-3.7s-2.15-2.13-3.71-4.31c-3.2-4.49-3.3-4.53-12.39-5.16-4.55-.32-6.79-.81-9.18-2-3-1.5-3.56-1.57-11.08-1.26-8.82.36-10.51.89-15.47,4.86-2.69,2.14-3.88,3.84-6.71,9.56-.69,1.41-9.25,4.41-13.9,4.87-6,.59-7.4,2.12-8.29,8.89-.95,7.17-2.26,11.26-4,12.38-.9.6-3.65,1-7.44,1.24-7.6.38-11.18,1.74-12.43,4.73a5.43,5.43,0,0,1-3.41,3.14l-2.52,1v3.75c0,4.84-1.24,7.84-3.46,8.4-1.82.46-3.51,3.51-3.51,6.34,0,1.62-2.3,6.08-3.13,6.08a34.77,34.77,0,0,0-4.73,4.08c-3.75,3.59-4.18,4.24-3.58,5.37,1.13,2.11,2.8,2.59,8.92,2.59,6.76,0,9.44,1,11.38,4.1a9.76,9.76,0,0,1,1.28,4.29c0,3.59,1.57,6.58,3.88,7.38s2,.84,9.13-3.65c2.67-1.68,4-2.07,8.49-2.41,6.93-.54,7-.43,7,9.1,0,6.41.14,7.31,1.32,8.48.88.89,1.66,1.16,2.37.83a24.48,24.48,0,0,1,5.32-.74c4-.22,4.37-.12,5.87,1.49s2.17,1.77,6.51,2c7,.42,7.21.69,9.94,11.44a19.6,19.6,0,0,1,.62,7c-.35,2.62-.15,3.37,1.67,6.3a15,15,0,0,1,2.48,7.91,25.08,25.08,0,0,0,1,5.07c2.63.54,5.87,1.45,10.26,2.78,3.31,1,9.24,2.6,23.53,6.33a94.14,94.14,0,0,1,12.58,4c1.31.68,4.7,3.67,7.79,6.68a4.42,4.42,0,0,1,1.56.61h0a3.25,3.25,0,0,0,2.27.85c-.23-.28-.46-.57-.68-.86a6,6,0,0,1,3.66-2.83,4.74,4.74,0,0,1,3.13.63l.76-8.16c.88-9.42,2-12.43,5.71-15.43,2.45-2,3.47-4,2.69-5.44-.34-.62-2.22-1.52-4.3-2-3.25-.84-3.72-1.16-3.89-2.65s.36-2.06,3.56-4.24c3.5-2.37,4.91-4.07,4.56-6A6.5,6.5,0,0,0,934,1570C931.63,1567.27,931.78,1564,934.35,1561.78Z"/>
    <path class="cls-57"
          data-tip="ازنا"
          id="IR-2601"
          d="M1039.75,1501.69c-3.81-2.25-6.64-8.5-6.71-14.78,0-4.19-.37-5.62-1.47-6.43a7.16,7.16,0,0,1-2-3.43c-.39-1.45-2-3.46-4.18-5.09-2.56-1.94-3.67-3-3.69-4,0-.8.55-1.08,1.15-2.08,1.26-2.09,1.66-5.39.54-6.75-2-2.37-7.85,1.9-10.1-.43-1.14-1.18-.9-3.57-.23-5.94l-.21-.09c-.5-.21-1-.4-1.45-.55l-.11,0c-2.12-.68-2.48-.62-3.66.56a10.23,10.23,0,0,0-2,3.4,3.4,3.4,0,0,0-.3,2,4.58,4.58,0,0,0,1.41,1.79c2.65,2.52,2.22,5-1.05,6a19,19,0,0,0-4.21,2.06,6.7,6.7,0,0,1-2.78,1.27c-.86,0-1,.93-1,6,0,6.4.06,6.28-3.8,9.19-1.54,1.16-1.55,1.24-.5,3l.73,1.23c4.05,6.88,3.71,8.47-1.52,14.16-2.08,2.25-3.78,4.47-3.78,4.93a22.2,22.2,0,0,0,1.9,4.59c1.76,3.48,1.91,4.29,1.91,10.44,0,3.67.23,6.67.51,6.67a26.66,26.66,0,0,1,4.28,2.31c8.89,5.45,13.49,7.74,16.93,8.45a12.82,12.82,0,0,1,6.53,3.23h0a16.15,16.15,0,0,0,3.37,2.49c1.62,0,4.42-1.54,5.09-2.79a9.65,9.65,0,0,1,3.59-2.82,7.35,7.35,0,0,0,3.39-2.88,6.07,6.07,0,0,1,1.79-2.38c1.71-1.21,5.79-9.77,5.39-11.3a10.11,10.11,0,0,1,.08-3.44c.37-2,2.5-4.09,5.14-5.46a15.35,15.35,0,0,1,2-.83A31.84,31.84,0,0,0,1039.75,1501.69Z"/>
    <path class="cls-57"
          data-tip="الیگودرز"
          id="IR-2603"
          d="M935.66,1620.07c1.3,1,2.2,2.49,3.34,5,1.25,2.76,2.52,4,4.42,4.4a6.68,6.68,0,0,1,4,3.08c1.56,2.91,2.84,3.09,8.43,1.18,11.72-4,11.42-4,13.9-1.63,1.47,1.38,2.52,1.77,3,1.09,1.08-1.76,7.76-1.2,10.95.92a11.91,11.91,0,0,0,5.09,2,5,5,0,0,1,3.34,1.5c1.39,1.67,6.5,2,7.44.49.73-1.18,3.87.25,7.21,3.3a7.9,7.9,0,0,0,6,1.9,45.55,45.55,0,0,1,10.87,1.93c5.94,1.72,7.43,1.86,8.72.79,2.17-1.8,5.83,1,10.71,8.27l3.8,5.64,5.85-.14c3.84-.08,6.5.38,8.19,1.42,2.38-2.72,4.2-5,4.39-5.26a8.75,8.75,0,0,1,2.39-1.85,5.84,5.84,0,0,0,.64-.41c1.51-1.12,2.12-2.86,2.75-7.4.44-3.15.46-3.17,2.65-3,1.22.08,3.51.32,5.09.53,3.6.49,9.33-1.85,11.83-4.83.37-.43.8-1,1.26-1.65a59.74,59.74,0,0,0,5.32-9c1.26-3.24-3.22-8.62-10.19-12.24-.53-.27-1-.58-1.58-.9-4.53-2.82-9-7.53-10.93-11.59-1.43-3.07-1.55-4-1.33-10,.23-6.24.34-6.67,2.09-8.5s2.25-1.93,5.53-1.93a24.87,24.87,0,0,1,7.64,1.43c3.42,1.23,5.22,1.42,13.15,1.42,9.76,0,12-.51,13.73-3.22.76-1.17.71-1.53-.41-2.95a7,7,0,0,1-1.28-4.18,6,6,0,0,0-.9-3.45c-2.51-2.5-3.53-5.24-3.53-9.43,0-3.59-.25-4.52-1.59-6.11A6.81,6.81,0,0,1,1106,1554a2.68,2.68,0,0,1,2.64-2.41c1.54,0,5.28-3.4,6.22-5.68a4.23,4.23,0,0,1,1.88-2.23c1.57-.5,3-2.23,5.16-6.15.45-.84.94-1.78,1.46-2.84,0-.1.09-.19.14-.29,2.22-4.5,3.27-5.9,5.58-7.49,3.12-2.15,4.07-4.24,3.14-6.93-.85-2.46-4.23-3.87-9.27-3.87h-4.28v-2.93c0-2.84-.05-2.91-1.74-2.6a22.62,22.62,0,0,0-3.82,1.16c-1.77.73-2.58.7-5.7-.19-7.11-2-8.75-2.41-12.43-2.78-4.17-.42-6.38-2-7.08-5.12-1.45-6.4-1.46-6.43-4.89-8.26s-3.31-1.79-3.78-5.58a26.88,26.88,0,0,0-2.22-7.28c-1.51-3-2.23-3.73-5.41-5.27-3.69-1.79-14.42-4-16.18-3.3-1.38.53-.59,3.15,2.68,8.88,3.51,6.14,3.7,8.18.93,9.69a30.55,30.55,0,0,0-3.68,2.45,10.38,10.38,0,0,1-4.19,1.78c-4.74.77-5.33,1-6,2.23s-.26,1.44,3,3.06a44.6,44.6,0,0,0,6.7,2.64c2.24.61,3.28,1.29,4,2.61,2.06,4,.33,6.84-4.47,7.38a11.61,11.61,0,0,0-3.12.83,13.26,13.26,0,0,0-1.85.92c-.37.23-.73.46-1.11.73-3.23,2.32-3.83,3.59-3.28,7a4.64,4.64,0,0,1-1,4,7.24,7.24,0,0,0-1.36,2.53c0,1.23-2.06,4.72-3.3,5.6a5.91,5.91,0,0,0-1.78,2.35,7.41,7.41,0,0,1-3.17,2.82,17.73,17.73,0,0,0-4.32,3.25,6.25,6.25,0,0,1-4.7,2.27c-2.78.31-3.13.18-5.32-2-1.82-1.82-3.35-2.61-6.83-3.5-4.13-1.06-9.1-3.59-17.15-8.74a18.1,18.1,0,0,0-3.81-2c-.35,0-1,.79-1.42,1.77q-2,4.51-9,5.15a15.2,15.2,0,0,0-6.58,1.88c-2.14,1.31-2.91,1.44-6.44,1.08-5.36-.55-7.8-1.45-10.57-3.92-3.09-2.75-3.89-3.14-9.74-4.67l-5-1.31-3.28,1.36-3.28,1.36-.45,6-.44,6,2.59,3.87c2.51,3.74,3.19,6.46,2.23,9a17.23,17.23,0,0,1-3.8,3.55c-3.77,2.85-4.37,4.68-2.18,6.66a7.18,7.18,0,0,1,1.8,4.83,9.85,9.85,0,0,1-.19,2.43c-.33,1.47-1.38,2.61-4.18,4.51-2.07,1.4-3.75,2.78-3.75,3.07s1.7.87,3.79,1.28c4.37.86,5.43,2.09,4.78,5.58-.29,1.5-1.31,3-3.14,4.7-3.51,3.2-4.58,5.82-5.4,13.32-.48,4.41-1,7.37-1.12,9.23.69.29,1.52.62,2.59,1C933.82,1619.48,934.27,1619,935.66,1620.07Z"/>
    <path class="cls-57"
          data-tip="دلفان"
          id="IR-2608"
          d="M828.58,1399.63l-.25-6.49h-6.62c-5.49,0-7.06-.23-9.25-1.35s-3-1.23-4.62-.63c-3,1.09-5.84.87-7.27-.55a4.76,4.76,0,0,1-1.26-1.77c0-.87-6.55-4.51-10.53-5.86-5.17-1.74-7.36-3.76-10.88-10.06-1.65-2.94,4.89-11,4-11.66-1.15-.81-3.69-1.28-9.31-1.72-6.09-.48-8.21-.9-10-2a16.3,16.3,0,0,0-3.71-1.44c-.39.86-.82,1.45-1.09,1.45s-1.08.83-1.54,1.84c-.84,1.86-2.07,2.5-2.07,1.08h0c0-.42-1.33-2.15-3-3.83-.22-.23-.43-.46-.63-.7l-.11-.13-.49-.6-.06-.08q-.25-.33-.48-.66h0c-.17-.24-.31-.47-.45-.69a4.25,4.25,0,0,1-.72-1.75,5.2,5.2,0,0,0-1.58-3l-1.42-1.38a20.47,20.47,0,0,0-5.21-3.29c-3.61-1.54-4.62-2.38-3.51-3.91-.6-.41-1.21-.8-1.82-1.17-1-.63-2.06-1.22-3.11-1.75-7.13-3.61-9.63-4.12-11.41-2.34-1.16,1.16-1.33,2.14-1.42,8.23a9.54,9.54,0,0,1-1.38,4.49c-.3.53-.64,1.06-1,1.58a16.76,16.76,0,0,0,3.52,1.4c5.84,1.64,5.77,5.09-.24,11a30.9,30.9,0,0,0-4.73,5.8c-1,2-1.68,2.39-3.79,2.39s-3.06.6-5.11,2.87a17.41,17.41,0,0,0-3.07,4.38,3.23,3.23,0,0,1-4.75,1.63c-2.22-1.18-9.31-1-10.37.3-.84,1-.82,2.56.12,11.82.22,2.18.16,2.22-3.58,2.43a11.05,11.05,0,0,1-3.12-.06,38,38,0,0,0-3,10.56c0,.4-.06.76-.06,1.09,0,1.37,1.06,3.21,3.8,6.62,2.09,2.59,4.19,4.87,4.67,5,.66.25,1,2,1.13,6.89.06,1.65.12,2.9.2,3.89a7.56,7.56,0,0,0,1.78,4.94c1.54,2,2.15,2.33,5.31,2.65,2.77.29,4,.78,5.54,2.23a31.22,31.22,0,0,0,4.87,3.52c2.24,1.28,3.42,1.6,6.87,1.66h1.2c4.59,0,5.6.23,9.05,2l3.88,2,1.51-1.76a6.08,6.08,0,0,0,1.51-4.18c0-2.73.66-3.21,4.33-3.19,5.63,0,10.27,2.64,12.35,6.93a4.38,4.38,0,0,0,2.33,2h0a9.64,9.64,0,0,0,3.41.18,37.89,37.89,0,0,1,4.5-.27,9,9,0,0,0,5.46-1.89,10.89,10.89,0,0,1,4.52-1.9c1.37,0,2-.53,3-2.49,1.23-2.4,4-5.13,5.25-5.13,1.42,0,4.23-2.71,5.42-5.23a25.71,25.71,0,0,0,1.73-6.35c.44-3.5.52-3.63,2.34-3.63a6.65,6.65,0,0,1,3.5,1.27c1.33,1,2.56,1.27,7.07,1.26,7.94,0,12.79-1.21,19.63-4.93l1-.53c10.46-5.88,12.28-7.15,12.87-9a23,23,0,0,0,.35-4.5C828.64,1402.17,828.62,1400.9,828.58,1399.63Z"/>
    <path class="cls-57"
          data-tip="بروجرد"
          id="IR-2604"
          d="M935.24,1454.84c1.38-1.49,1.88-1.63,4.88-1.35a23.28,23.28,0,0,1,4.45.78c1.74.74,1.43-2.79-.48-5.37a8,8,0,0,1-1.58-3.59,3.36,3.36,0,0,0-1.59-2.49c-2-1.33-2-3.58,0-6.91,1.36-2.21,1.76-3.76,1.26-5.81a14.71,14.71,0,0,0-.93-2.55c-.93-2-1.93-3-4.41-4.28-2-1-3.33-2.15-3.55-3a50.87,50.87,0,0,1-.17-7.76l.18-6.34,2.76-.91.28-.09c4.28-1.43,4.71-2,3.44-4.66a3.63,3.63,0,0,0-3.28-2.54l-3.59-.56-.88-.14a4.68,4.68,0,0,1-3.24-1.9c-.56-.85-1.36-1.55-1.77-1.55s-2,1.28-3.54,2.85c-3.35,3.41-6.11,3.85-8.31,1.32a6.7,6.7,0,0,0-2.78-1.9,5.8,5.8,0,0,1-2.71-2.49c-1.1-1.86-1.66-2.17-4.58-2.52-4.45-.52-5.7-1.74-5.7-5.51a18.25,18.25,0,0,0-.7-5c-1.34-3.84-5.85-3.24-9,1.2l-1.79,2.51H871.86l-1,3c-.62,2-1.24,2.93-2.31,3.21a3.93,3.93,0,0,1-1.72,0c-.25,0-.52-.1-.82-.18-.9-.22-1.62-.93-2.42-2.43-.22-.41-.45-.88-.69-1.42-.87-2-1.94-3.47-2.48-3.47a1.12,1.12,0,0,0-.31,0c-1.35.37-2.65,3-3.12,6.41-.56,4-1.19,5.27-4,7.86-5.3,4.92-14.71,8.87-19.58,8.23l-2.9-.38-.59,2.38-.59,2.38,7.92,3.71c8.26,3.87,11.41,6.14,11.41,8.22,0,.67-1,2.33-2.22,3.68a10.71,10.71,0,0,0-2.22,3.11,10.39,10.39,0,0,0,1.36,3.72c1.67,3.2,4.4,7,5.44,7,.6,0,2.07,1.78,3,3.65a31.59,31.59,0,0,0,4.47-.78,72.39,72.39,0,0,1,11.67-.94c6.37,0,7.57.17,9.51,1.36,1.64,1,3.79,1.49,8.3,1.85,9.42.75,10.85,1.3,13.46,5.18a34.25,34.25,0,0,0,4.09,5,12.39,12.39,0,0,1,2.67,3.81,15.29,15.29,0,0,0,2.43,3.83h0a7.32,7.32,0,0,0,2,1.74c.21,0,1.5-2.61,2.86-5.79,1.86-4.35,3-6.09,4.41-7,2.74-1.67,4.32-1.47,6,.76s4.91,4.39,6.6,4.39a1.86,1.86,0,0,0,.64-.16A6.43,6.43,0,0,0,935.24,1454.84Z"/>

    </svg>
