<?xml version="1.0" encoding="utf-8"?>
<!-- Generator: Adobe Illustrator 22.1.0, SVG Export Plug-In . SVG Version: 6.00 Build 0)  -->
<svg version="1.1" id="Layer_1" xmlns="http://www.w3.org/2000/svg" xmlns:xlink="http://www.w3.org/1999/xlink" x="0px" y="0px"
	 viewBox="0 0 422.1 496.7" style="enable-background:new 0 0 422.1 496.7;" xml:space="preserve">
<path data-tip="محلات" id="IR-2812" d="M327.1,492c2.3-1.2,4.4-2.7,6.4-4.4c3.7-3.3,5.9-4.5,8.4-4.5s2.9-1.3,2.9-7.2c0-4.2-0.3-5.1-4.2-10.9
	c-4-6.1-4.2-6.5-4.1-11.5c0.1-2.9,0.4-7.6,0.7-10.4c0.1-0.9,0.2-1.7,0.2-2.4c0.2-3.1-0.5-4.5-4-11.6c-2.1-4.4-4.5-8.6-7.2-12.6
	c-1.7-2.3-3.2-4.7-4.6-7.2c-1-1.9-2.5-3.6-4.2-4.9c-3.8-2.4-4.3-4.7-2.8-13c1.8-9.9,1-18-2-22c-3.6-4.7-11.3-8-19.6-8.4
	c-6-0.3-7.1-0.1-11.6,2c-4.2,1.9-6,2.3-11.8,2.3h-6.9l-0.9,4.4c-0.5,2.4-1.3,6.7-1.8,9.6c-1,5.6-8.1,25.9-10.1,28.8
	c-1.7,2.4-10.7,5.6-16.1,5.7c-2.6,0.1-5.1,1.2-7,2.9c-1.4,1.2-2.7,2.6-3.8,4.2c-1.1,1.5-2.1,3.1-3,4.8c0,0.3,1,1.1,2.2,1.8
	s4.5,3.1,7.2,5.3c3.4,2.7,7,5.1,10.7,7.3c2.6,1.5,5.1,3.2,7.4,5.3c3.4,3.8,8.4,14.9,8.9,19.5c0,0.5,0.1,1,0.2,1.5
	c0,0.3,0.1,0.5,0.1,0.8c1.3,7.9,4.3,10.1,15.9,12.9c4.1,1,8.6,2.7,10,3.7s4.8,3.4,7.6,5.2s5,3.6,5,4s1.2,0.7,2.7,0.7
	c2.1,0.2,4.2,0.7,6.2,1.6c3.1,1.2,6.4,1.8,9.8,1.7c1.2,0,2.4-0.1,3.6-0.2c1.5-0.1,2.9-0.6,4.2-1.3C323.5,494,325.3,492.9,327.1,492z
	"/>
<path data-tip="فراهان" id="IR-2811" d="M96.3,244.9c0,3.1-0.4,6.3-0.8,7.2c-0.7,1.2-0.4,1.8,1.3,3c5.1,3.5,5.6,4.4,6.1,10.6c0.6,7.1,1.4,8.1,9.1,11.7
	c4.8,2.2,6.2,3.3,8.2,6.5c3,4.7,3.8,8.6,2.5,11.9c-1.9,4.6-1.8,5.8,0.4,9.1c3.5,5.3,5.6,5.2,8.9-0.4c0.7-1.2,1.3-1.4,3.1-0.7
	c3.3,1.2,5.2,4.2,5.7,9.2c0.3,2.4,0.8,4.8,1.3,5.4l0,0c0.5,0.7,3,1,7.3,1c12.3-0.1,16.6-2,17.7-8.1c0.5-2.8,0.3-3.2-5.1-8.9
	c-5.7-6-7.3-9.3-7.3-14.8c0-2.6,7.9-19.5,9.6-20.6c0.6-0.4,0.5-1.1-0.4-2.4c-0.8-1.3-1.2-2.8-1.2-4.3c0-5.4,9.8-20.3,15.6-23.7
	c1.3-0.7,1.4-1.1,0.6-2c-0.6-0.7-1-1.6-1-2.6c0-2.4-7.1-15.4-9.8-18.2c-6.3-6.2-20.4-9.6-28.2-6.9c-6.9,2.4-6.7,2.4-6.7,0.8
	c-0.4-2.2-1-4.3-1.8-6.4c-1.6-4.4-1.7-5.2-0.7-8.1c1.2-3.7,0.5-13.8-1-14.8c-0.8-0.4-1.7-0.6-2.5-0.6c-0.9,0-4.3-1.3-7.5-2.8
	c-2-1-4-1.9-6.1-2.6c-1.2,1.3-6.3,12.9-7.9,18.2c-0.9,3.1-2,6.1-3.3,9c-0.9,1.8-1,3.5-0.2,10c1.2,9.9,0,18.4-3.4,25.1
	C96.7,238.4,96.3,240.2,96.3,244.9z"/>
<path data-tip="زرندیه" id="IR-2808" d="M394.3,47.9L394.3,47.9c0.8-1.4,1.8-2.5,2.8-3.6c1-0.9,1.4-2.6,1.2-4.5c-0.1-1-0.4-2-0.8-2.9
	c-0.7,0.1-1.3,0.3-1.9,0.6c-0.5,0.3-4.8,0-8.6-0.4l-2-0.3c-1.2-0.1-2.3-0.3-3.4-0.6c-2.8-0.9-3.7-2.6-2.5-4.3l-0.6-0.2
	c-1.3-0.3-2.8-1.7-4.4-4.2c-0.4-0.7-0.8-1.2-1.2-1.7l0,0c-0.1-0.2-0.3-0.3-0.4-0.5c-0.1-0.2-0.3-0.3-0.4-0.4c-1.8,0.2-2.7,0.1-3-0.4
	H369c-1.2,0.3-3,0.6-4.8,0.9c-3.9,0.7-5.3,0.7-5.7,0c-0.1-0.1-0.2-0.3-0.3-0.4c-0.1-0.1-0.2-0.2-0.3-0.3c-2,0.5-3.3,0.2-3.9-1
	c-0.9,0.1-1.8,0.4-2.7,0.8c-4.6,2.1-6.9,1.9-7.4-0.7c-0.3-1.6-1.9-2.8-4.7-3.7l-0.5-0.1c-1.8-0.5-3.7-0.9-5.5-1.1
	c-4.9-0.6-5.4-1-8.3-5.8c-0.5-0.8-1-1.5-1.5-2.3l-0.1-0.2c1.4-1.8,2.9-3.7,4.5-5.7c-2.5-1.5-5.3-2.3-8.2-2.2h-0.2
	c-0.6,0-1.2,0-1.8,0.1l-0.7,0.1c-0.5,0.1-0.9,0.1-1.4,0.2c-0.7,0.1-1.5,0.3-2.3,0.5c-10.2,2.4-14.5,2.4-29.2,0.2l-0.8-0.1
	c-2-0.3-3.1-0.2-5.3,1.2c-0.4,0.3-0.9,0.6-1.5,1l-0.9,0.6c-2.7,1.9-5.7,3.4-8.8,4.3c-0.8,0.3-1.7,0.5-2.5,0.6
	c-2.9,0.6-5.9,0.6-8.9,0.1c-4-0.8-5-0.8-7.2,0.4c-1.6,0.8-3.4,1.2-5.2,1c-0.9,0-1.9-0.1-3-0.2h-0.4c0,0.1,0,0.3,0.1,0.4v0.2
	c0,0.2,0,0.3,0.1,0.5s0,0.1,0,0.2c0,0.2,0.1,0.5,0.1,0.7c-0.8,0-1.8-0.1-2.9-0.2c-3.1-0.3-6.3-0.2-9.4,0.3c-3.9,0.7-5,1.3-9.1,4.5
	c-1.8,1.4-2.4,1.4-10.5,0.8c-12.4-1-12.8-1.2-21.9-8.1c-1.1-1-2.4-1.8-3.8-2.4c-1.2,0.6-2.3,1.3-3.2,2.3c-3,2.8-7,4.4-11.1,4.5
	c-3.8,0-8-2.5-13.8-8.4c-1.1-1-2.2-2.1-3.3-3.3L150.1,4c-1.5-1.3-2.2-1.6-2.4-1.1c-0.2,0.5-0.3,1.1-0.3,1.7l-0.1-0.1
	c-0.7-0.7-1.6-1.5-2.5-2.3l0,0c-0.1,0.5-0.1,1.2-0.2,1.9c1,0.7,1.9,1.6,2.6,2.7c0.2,0.6,0.4,1.2,0.4,1.9c0.1,1.2-0.1,2.5-0.6,3.6
	c-0.1,0.2-0.2,0.4-0.3,0.6c-1.3,2.2-1.5,4.3-0.3,5.3c0.6,0.8,0.9,1.7,0.8,2.7c0,1.1,0.3,2.2,0.8,3.1c0.5,0.8,0.9,2.9,1,5.5
	c0,0.9,0,1.8,0,2.8c-0.1,1.1-0.5,2.1-1.1,3l-1.1,1.4l-1.7-1.3l-0.2-0.1c-1-0.8-2.3-1.2-3.6-0.9c-0.5,0-1,0.1-1.7,0.2
	c-1.6,0.1-3.2,0.4-4.7,0.9c-0.6,0.3-1.8,2.3-2.9,4.6c-2.5,5.5-3.6,6.5-7,6l-0.7-0.1c-1.4-0.2-1.8-0.1-1.9,0.4c0,0.2,0,0.4,0,0.6
	c0,1-0.1,1.1-0.7,0.6c-1.1-0.7-2.4-0.8-3.6-0.3l0,0H118c-0.3,0.1-0.5,0.3-0.7,0.5l-0.1,0.1c-0.8,1-1.1,0.9-2.6-0.4l0,0
	c-0.1-0.1-0.1-0.1-0.2-0.1c-0.5-0.5-1.2-0.8-1.9-0.9c-0.4,0-0.8-0.3-0.8-0.8c0-0.5-0.4-0.9-1.1-1.2c-0.4-0.1-0.8-0.6-1.4-0.6
	c-0.3,0.8-1-1.2-0.7-0.3c-0.5-0.9-0.2,1-0.6,0.1c0,0-0.2,0.4-0.2,0.3c0.6,0.7,0.9,1.6,0.8,2.4c0,0.6-0.2,1.2-0.5,1.7
	c1.1,0.6,2.2,1.2,3.4,1.7c4.5,1.9,7,2.1,16.1,0.9c8.2-1.1,10.7-0.7,13,2c1.5,1.8,2.7,2.1,7.8,2.5c5.4,0.4,6.4,0.8,10.2,3.7
	c2.3,1.8,4.2,3.5,4.2,3.9c0,1.7,5.1,3.3,9.1,2.9s8.5,1.1,8.5,2.8c0,1.3,6.7,4,14.6,5.9c6.1,1.5,8.8,2.6,10.8,4.4s3,2.2,3.8,1.5
	s1.8-0.6,3.7,0.2s3.3,2.3,5.1,5.8s3.3,5.1,5.5,6.3l3,1.5l9.2-4.5c5.1-2.5,10.2-4.5,11.3-4.5c3.2,0,7.1,2.8,8.5,6
	c1.1,2.7,1.3,2.8,5.5,2.8c4.5,0,6.2,0.9,6.2,3.4c0,0.8,1.1,2.1,2.5,3c2.3,1.4,2.7,1.4,6.6,0.3c2.8-0.8,5.6-1.3,8.5-1.6
	c4-0.3,4.9,0,10.8,3.3c4.4,2.5,7.3,3.6,9.3,3.6c2.4,0.2,4.7,0.8,6.8,1.8c3.5,1.6,5.2,1.8,17.3,1.8h13.4l3.9,4
	c0.5,0.5,1.1,1.1,1.7,1.7c0.2-0.3,0.4-0.6,0.7-0.8l1.8-2.1l1.7,1.6c1.7,1.6,1.7,1.6,3,0.5c0.7-0.6,6.9,4.8,11.4,8.4l0,0
	c0.1-0.1,0.2-0.2,0.3-0.3c0.3-0.2,0.4-0.6,0.3-0.9c0,0,0,0,0,0c-0.2-0.3,0.1-0.3,0.6-0.1s0.8,0.2,0.6-0.3s-0.1-0.5,0.4-0.3
	c1.6,0.6,2.1-1.3,2.4-9.2c0-0.7,0.1-1.4,0.1-2c-0.1-0.2-0.1-0.2,0-0.3c4-0.5,4-2.7,3.6-11.1c0-0.3,0-0.6,0-0.9
	c0-0.9,0.2-1.8,0.6-2.6c2.1-3.8,9.2-4.8,9.6-5.1s0.8-1.7,0.8-3.3c0.1-1.8,0.4-3.6,1.1-5.3c0.6-1.4,1-2.9,1.4-4.4
	c0.1-0.4,0.2-0.9,0.3-1.2c0.1-0.5,0.2-1.1,0.4-1.6c0.2-0.8,0.6-1.4,1.3-1.9c0.7-0.3,1.2-1.5,1.2-3c0-3.6,4.8-11.7,8.3-14.1
	C401.4,53.7,393.5,49.2,394.3,47.9z"/>
<path data-tip="اراک" id="IR-2802" d="M259.9,358.6c-0.8-3.5-1.8-6.9-3-10.2c-0.8-1.9-1.5-3.8-2-5.8c-0.6-2.6-4-5.8-12.5-11.6c-4-2.8-8.5-5.9-10-7
	l-2.6-1.9l-5,1.4c-4,1-8.1,1.5-12.2,1.7l-7.2,0.3l-4-4.2c-4.2-4.4-7.2-5.9-24.5-11.9l-7.7-2.7l-0.4,4.4c-0.6,5.5-2.6,7.8-7.9,8.9
	c-5.6,1.2-19.4,1.1-20.4-0.2c-0.4-0.6-1-2.9-1.2-5.3c-0.4-4.3-2.6-8.3-4.7-8.7c-0.6-0.1-1.7,0.9-2.5,2.2c-1.1,2-1.9,2.4-4.1,2.4
	c-2.3,0-3.3-0.6-5.6-3.5c-3.2-3.9-3.7-7.7-1.6-11.7c1.5-2.9,1-5.4-2.1-10.3c-1.8-2.8-3.3-4-7.1-5.7c-6.7-3-9.6-5.2-9.6-7.6
	c0-2.9-1.1-3-4.5-0.5c-4.3,3.2-8.4,4.3-12.5,3.7c-4.9-0.8-13.6-4.2-14.8-5.8c-0.8-1-1.3-1.2-2.4-0.5s-1.7,3.2-2.6,10.8
	c-0.7,5.4-1.7,10.6-2.1,11.5c-3.2,6,1.1,12.7,11,17c2.4,1.1,6.6,2.9,9.2,4.1c3.2,1.5,6.2,3.5,8.8,5.8c2.6,2.2,5.4,4.1,8.4,5.7
	c8.9,4.3,13.5,9.5,13.5,14.9c0,2.8-2.6,7.3-4.3,7.3c-1.4,0-17.5,7.9-19.1,9.3c-0.6,0.6-1,1.4-1.3,2.2c-0.9,1.7-1.6,3.5-2.1,5.3
	c-0.7,2.4-0.9,4.8,0.2,5.9c2.3,2.3,8.2-1.9,10.1,0.4c1.1,1.4,0.7,4.7-0.5,6.8c-0.6,1-1.2,1.3-1.2,2.1c0,1,1.1,2.1,3.7,4
	c2.1,1.6,3.8,3.6,4.2,5.1c0.3,1.3,1,2.5,2,3.4c1.1,0.8,1.4,2.2,1.5,6.4c0.1,6.3,2.9,12.5,6.7,14.8c4.6,3.1,8.4,7.3,10.9,12.3
	c0.1,0.3,0.2,0.6,0.3,0.8s0.2,0.5,0.3,0.7c1-0.4,2-0.7,3.1-0.8c4.8-0.5,6.5-3.4,4.5-7.4c-0.7-1.3-1.7-2-4-2.6
	c-2.3-0.7-4.5-1.6-6.7-2.6c-3.3-1.6-3.6-2-3-3.1s1.3-1.5,6-2.2c1.5-0.3,2.9-0.9,4.2-1.8c1.2-0.9,2.4-1.7,3.7-2.4
	c2.8-1.5,2.6-3.6-0.9-9.7c-3.3-5.7-4.1-8.3-2.7-8.9c1.8-0.7,12.5,1.5,16.2,3.3c3.2,1.5,3.9,2.2,5.4,5.3c1.1,2.3,1.8,4.8,2.2,7.3
	c0.5,3.8,0.5,3.8,3.8,5.6s3.4,1.9,4.9,8.3c0.7,3.1,2.9,4.7,7.1,5.1c3.7,0.4,5.3,0.7,12.4,2.8c3.1,0.9,3.9,0.9,5.7,0.2
	c1.2-0.5,2.5-0.9,3.8-1.2c1.7-0.3,1.7-0.2,1.7,2.6v2.9h4.3c5,0,8.4,1.4,9.3,3.9c0.9,2.7,0,4.8-3.1,6.9c-2.3,1.6-3.4,3-5.6,7.5
	c1.8-0.9,3.6-2,5.6-3.3c8.6-5.7,10.8-8,15.2-16c1.5-2.9,3.3-5.7,5.4-8.2c2.2-2.5,4.2-3.8,6.4-4.1c11.2-1.7,16.6-3.6,18.3-6.3
	c2.3-3.5,8.5-20.8,9.6-26.9c0.6-3.3,1.6-7.9,2.1-10.2C261.1,365.4,261.1,363.9,259.9,358.6z"/>
<path data-tip="خمیجان" id="IR-2804" d="M104.6,187.3c1.5-4.5,3.4-8.9,5.6-13.2l4.9-8.5l2.2-3.8l-2.6-1.3c-0.2-0.1-0.6-0.3-1.1-0.5
	c-3.4-1.5-12.1-4.6-12.8-4.6c-0.3,0.8-0.5,1.6-0.6,2.4c-0.4,1.5-1.4,2.9-2.7,3.8c-1.9,1.3-3.6,2.9-5.2,4.6l-3,3.1l-5-0.5
	c-14.4-1.5-16.9-12.6-19.3-12.5c-0.3,0-0.5,0.1-0.7,0.3c-0.1,0.1-0.3,0.3-0.5,0.4v0.1c1.6,2.5,1,4-1.6,4c-2.3,0-2.7,1-1.2,2.7
	c0.8,0.8,0.7,1-0.6,1.8s-1.4,1.1-1,3.9l0.3,3l-3.6,2.9c-1.2,1.1-2.5,2.1-3.9,2.9c0,0.2-0.1,0.5-0.2,0.7c-0.2,0.2-0.4,0.4-0.7,0.6
	c-1,2.8-1.6,5.7-1.8,8.6c0,2.7,0.3,3.4,2.8,7.4l2.8,4.4v15.4l-1.5,1.6c-1.2,1.3-6.1,3.7-7.5,3.7c-0.7-0.4-1.3-1-1.9-1.6l0,0
	l-1.6-1.6l1.1-1.4c1.2-1.5,1.5-4.9,0.5-5.9c-1.1-1-2.9-0.9-3.8,0.3c-0.1,0.2-0.3,0.4-0.4,0.6c-0.7,1.2-1.8,2-3.1,2.2
	c-1.3,0.4-2.6,1-3.8,1.7c-1.6,1-2.8,0.8-3.6-0.8c0,0,0-0.1,0-0.1c-0.1,0.6-0.1,1.1,0,1.7c0.3,2.1,1.1,4.1,2.3,5.8
	c2.2,3.4,2.5,4.6,2.6,10.1c0.1,3.6-0.2,7.1-0.6,10.7c-0.4,2.7-0.9,4.6-1.5,5.1c-0.1,0.1-0.1,0.1-0.2,0.2c-0.9,0.4-1.2,1.1-0.7,2.9
	c0.2,0.9,0.5,1.7,0.9,2.5c0.5,1.2,1.1,2.6,2,4.4c1.3,2.5,2.3,5.1,3.2,7.8c0,1.1,4.3,0.6,9.1-1.1c6.3-2.2,13.3-0.7,13.3,2.9
	c0,2.3,2.4,2.7,4.9,0.9s5.8-2.2,6.7-0.8c0.7,1.1,6.8,3.8,12,5.1l0,0c2.2,0.6,4,1.1,4.1,1.1s1.3-0.4,2.8-0.9
	c4.1-1.4,10.3-6.2,10.8-8.3c0.6-2.4-1.3-5.4-4.2-6.9c-3.3-1.6-4-3.3-2.9-6.5c0.7-2.6,1-5.2,1-7.9c-0.2-3.5,0.6-6.9,2.3-9.9
	c3.6-7.3,4.4-13.2,3.3-23.8c-0.8-7.7-0.8-9.4,0.2-11.3C101.2,196.8,103,191.9,104.6,187.3z"/>
<path data-tip="شازند" id="IR-2810" d="M72.8,378.9c1-0.2,2-0.6,2.8-1.3c1.3-0.9,2.7-1.5,4.2-2.1c3.3-1.1,3.7-3.5,1-6c-0.6-0.5-1.1-1.1-1.4-1.8
	c-0.1-0.7,0-1.4,0.3-2c0.4-1.3,1.1-2.4,2-3.4c1.2-1.2,1.5-1.2,3.7-0.6c0-0.5,0.1-1,0.1-1.4c0.8-4.9,4.1-7.9,13.8-12.4
	c11.4-5.3,10.8-5,12.1-7.2c2.5-4.4-1.6-10-10.9-14.9c-3.3-1.7-6.3-3.7-9-6.2c-2.4-2.2-5.1-4-8-5.3l-11.2-5.2
	c-6.8-3.2-8.2-4.3-11-8.5c-2.1-3.3-2-6.7,0.2-12c0.8-2.5,1.3-5.1,1.5-7.7c0.3-2.9,0.7-6.2,1-7.4c0.4-1.9,0.2-2.2-1.6-2.2
	c-3,0-4.5-0.8-4.5-2.4c0-1.8-2.9-4-5.3-4c-1.7,0.2-3.3,0.5-4.9,1.1c-2.5,0.8-5,1.3-7.6,1.7c-4.3,0.5-4.4,0.5-4.9-1.6
	c-0.8-2.4-1.8-4.7-2.9-7c-0.8-1.6-1.5-3.2-1.9-4.3c-0.2-0.5-0.4-1-0.5-1.5c0-1.1-0.3-1.8-0.9-2.1s-1.8-0.2-3.3,0.4
	c-1.7,0.6-3.4,1-5.2,1.2c-0.5,0-0.9,0.1-1.3,0.1c-1.1-0.1-2.2,0-3.2,0.4l-0.1,0.1l-0.2,0.1l-0.1,0.1l-0.2,0.1l-0.1,0.1l-0.2,0.2
	l-0.1,0.1l-0.2,0.2l-0.1,0.2l-0.2,0.2l-0.1,0.2c-0.1,0.1-0.1,0.2-0.2,0.3l-0.1,0.2l-0.2,0.4l-0.1,0.2c-0.1,0.2-0.2,0.4-0.4,0.6
	c-1.6,2.7-2,4.2-1.6,5.8c1.4,5.6,1.3,7.5-0.2,11.6c-1,2.5-1.8,5.1-2.6,7.8C8,285,6.5,288.1,4.7,291c-1.9,3.1-3.5,6.1-3.5,6.6
	c0.3,1,0.9,2,1.7,2.7c1.7,2.1,3.1,4.4,4.2,6.8l3.6,0.6c1.5,0.1,2.8,1.1,3.3,2.5c1.3,2.7,0.8,3.2-3.4,4.7l-0.3,0.1l-2.8,0.9l-0.2,6.3
	c-0.1,2.6-0.1,5.2,0.2,7.8c0.2,0.9,1.5,2,3.5,3c2.5,1.3,3.5,2.2,4.4,4.3c0.4,0.8,0.7,1.7,0.9,2.6c0.5,2.1,0.1,3.6-1.3,5.8
	c-2,3.3-2,5.6,0,6.9c0.9,0.5,1.5,1.5,1.6,2.5c0.2,1.3,0.8,2.5,1.6,3.6c1.9,2.6,2.2,6.1,0.5,5.4l-1,1.1c2,0.5,3.1,1.2,3.5,2.2
	c0.9,2.5,3.3,3.6,6.8,3.1c1.7-0.2,5.6-0.5,8.8-0.5c5.2-0.1,6-0.3,8.3-1.8c1.2-0.9,2.7-1.5,4.2-1.7c1.6,0,1.7,0.2,2,3.6
	c0.2,2,0.7,5.8,1.1,8.5c0.7,4.6,0.8,4.9,2.8,5.9c3.6,1.7,6.7,1.3,10.1-1.2L72.8,378.9z"/>
<path data-tip="تفرش" id="IR-2803" d="M222.8,250.4c0.3-0.4,0.6-0.8,0.9-1.2c0.3-0.4,0.5-0.8,0.8-1.3c1.4-2.5,1-3.2,2.6-5.8s2.4-2.4,3.4-4.5
	c0.7-1.6,0.2-1.5,1.4-5.5c0.3-0.9,0.6-2,1-3.6c0.3-0.9,0.4-1.8,0.5-2.8c0.1-1.7-0.3-2.4,0-2.6c0.7-0.5,0.2-1.4,0.3-1.8
	c0.4-2.2-1.1-5.1-1.5-6c-2.7-5.9-0.2-14.6,2.5-16.8c0.6-0.4,1.1-1,1.4-1.7c0.3-1.1,0.4-2.3,0.2-3.4c-0.2-3,0-3.7,1.7-6.4l-3.6-1.8
	c-10.3-5.2-16.6-9.2-19.1-12.4c-3-3.8-6.1-5.5-9.9-5.5c-4.1,0-18.1-7.3-24.1-12.5c-3.6-2.9-7.5-5.5-11.6-7.6
	c-3.7-1.8-7.2-4.1-10.3-6.7c-2.5-2.3-5.3-4.2-8.3-5.6c-4.3-2-5.3-2.1-11.6-1.7c-13,1-14.7,2.3-15.7,12.1c-0.8,8.6-2.2,13.1-5.9,19.1
	c-1.8,3-3.3,5.6-3.3,5.7c0,0.7,12.3,6,13.8,6c1,0,1.9,0.2,2.8,0.7c1.4,0.9,2.3,15.2,1.1,17.4c-0.7,1.3-0.5,2.8,0.9,6.7l1.8,5.1
	l3.2-1.1c2.3-0.8,5.3-0.9,10.6-0.6c13.8,0.9,20.8,5.4,26.9,17.2c2,3.9,3.7,7.7,3.7,8.4c0.2,1.3,0.7,2.6,1.4,3.8
	c1.4,2.4,1.4,2.4-0.5,3.7c-6.4,4.5-16,18-16.1,22.5c0.2,1.1,0.6,2.1,1.2,3l0,0c1.6,2.3,2,2.2,4.4-0.3c1.5-1.6,2.5-2,4.5-1.7
	c1.7,0.3,2.9,0,3.6-0.8c1.3-1.6,6.5-3.8,10.5-4.6c2.4-0.4,3.3-1.1,4.4-3.5c1.4-2.9,1.4-3,6.3-3c2.9,0,5.3-0.4,5.9-1s3-1,5.6-1
	c4.1,0,4.9,0.3,7,2.5c1,0.9,1.9,2,2.4,3.2C220.9,252.1,221.8,251.2,222.8,250.4z"/>
<path data-tip="ساوه" id="IR-2809" d="M344.6,169c-2.4-4.2-2.6-7.7-0.7-13c1.5-4.1,1.3-4.9-2.6-10.2c-1.3-1.6-1.9-3.6-1.8-5.6l0.2-2.8h5.3
	c2.9,0,5.7-0.3,6.1-0.8s0.5-1.9-0.1-4.1c-0.8-2.9-0.7-3.7,0.9-6.3l1.8-3l-1.8-1.8c-1.2-1.1-2.6-2.2-4-3.1c-0.4-0.3-0.8-0.6-1.2-0.9
	c-0.9-0.8-1.7-1.8-2.4-2.8c-0.6-1.2-1.5-2.2-2.7-3c-0.7-0.3-7-0.6-14-0.7c-10.4-0.1-13.5-0.3-16.4-1.5c-2.5-0.9-5-1.6-7.6-2
	c-4.2-0.6-7-1.8-12.2-5.3c-3.4-2.3-5.8-2.3-14.3,0c-4.4,1.2-5.1,1.2-7.8,0.1c-1.6-0.7-3.1-1.9-3.4-2.7c-1.1-3.4-1.7-3.8-6-3.8
	s-4.3,0-6-3.5c-1.3-2.6-2.5-3.8-4.6-4.7c-2.9-1.2-3-1.1-12.1,3.4c-8,4-9.6,4.5-12.2,4c-4.4-0.8-6.2-2.3-8.5-7.2s-3.8-6-7.3-5.5
	c-2,0.3-3.1-0.2-5.3-2.1c-2.3-1.8-5-3.1-7.9-3.7c-10.1-2.4-13.5-3.7-16.7-6.4c-3-2.5-3.8-2.8-8.2-2.8c-5.6,0-6.5-0.4-13.1-6.1
	c-4.7-4-4.9-4.1-11.1-4.6c-5.7-0.4-6.5-0.7-8.1-2.7s-2-2.2-8.2-2c-2.9,0-5.7,0.4-8.5,1c-3.3,1.3-11.8-0.9-16.1-3.8
	c-2.6,1.8-2.9,3.5-1.3,5.6c0.5,0.5,0.8,1.1,1.1,1.7c-1,1.4-2.1,2.7-3.3,3.9c-0.7,0.7-1.3,1.4-1.8,2.1c-0.3,0-0.5,0.1-0.8,0.2
	c-0.3,0.3-0.3,0.6-0.6,1c-0.2,0.2-0.5,0.4-0.7,0.6c-0.6,0.4-1.1,0.9-1.5,1.5c-0.3,0.8-0.3,1.6,0,2.4c-0.6,1.3-1,2.8-1.1,4.3
	c0,2.2,0.1,2.4,1.7,2.9c2.6,0.9,3,1.6,2.5,3.6l-0.5,1.7L86.9,81c0.1,0.3,0.2,0.7,0.3,1c11.9-0.1,12.3,0,12.5,0.9
	c0.4,1.4,2.9,2.4,5.2,2c1.1-0.4,2.4,0,3.1,0.9c0.8,0.8,1.3,1.7,1.6,2.8c0.5,2.2,1,3,2.6,3.8c1.2,0.9,2.2,2.1,2.8,3.5l1.4,2.8
	l-0.2,0.7c3.2,6.1,7.2,14,7.7,15.1l1.4,2.8l-1.1,4.6c-2.4,10.2-3.1,12.1-4.7,14.2c-1,1.4-1.9,2.9-2.7,4.5c-0.4,1-0.9,2-1.7,2.8
	c-0.3,0.2-1.4-0.3-2.4-1.2c-1.1-0.9-2.4-1.6-3.8-1.9c-0.8-0.1-1.5-0.3-2.3-0.5c-0.9-0.3-1.1-0.8-1.3-2.1s-0.6-1.9-1.3-1.9
	c-0.9-0.2-1.7-0.7-2.3-1.3c-1.7-1.6-5.5-1.8-6.7-0.4c-1.2,1-2.5,1.7-3.9,2.3c-0.9,0.4-1.8,0.8-2.7,1.4c-0.5,0.4-0.8,1-0.9,1.7
	c-0.2,0.8-0.3,1.5-0.3,2.3c0,1.5,0.5,2.9,1.3,4.1l0,0v0.1c2.3,4.2,5,5.1,8.5,2.9c1.6-1,2.2-1.1,5.3-0.8h0.3c3.1,0.4,6.3,0.5,9.5,0.3
	c3.1-0.2,4,2.6,1.7,5.3c-0.8,1-1.2,2.2-1.3,3.4c0.9,0.3,1.8,0.7,2.6,1.3c0.5,0.5,1.3,0.8,2,0.7c2.3,0,3.7-4,4.7-12.9
	c1.5-13,2.5-13.9,17.6-14.8c8-0.5,8.7-0.4,13.3,1.7c3.2,1.5,6.1,3.5,8.6,6c2.6,2.6,5.7,4.7,9.1,6.1c4.7,2,15.2,9.2,16.5,11.4
	c0.9,1.4,17.3,8.8,19.6,8.8c4,0.1,7.7,2.1,10,5.3c2.1,3.1,4,4.4,14.5,9.9c2.8,1.5,6,3.2,8,4.4c0.6,0.3,1,0.6,1.4,0.8
	c1.9,1.2,4.1,1.9,6.4,1.9c8.6,0,17.6,4.2,20.5,9.5c2.3,4.1,7.7,9.4,12.3,11.9l0,0c1.8,0.9,3.7,1.6,5.6,1.8h0.2c0.5,0,1,0,1.5-0.2
	c1.3-0.3,2.2-1.3,4.1-3.9c2.4-3.2,3.1-5,3.4-8.4c0.2-2.8,0.9-4.7,1.8-5.6c2.3-2,7.1-3.5,11.9-3.6c5-0.1,8-2,9.3-6.1
	c1.1-3.2,4.3-5,6.8-3.8c7.4,3.5,12.3,4.2,16.8,2.3c1.1-0.4,2.2-1,3.1-1.8c0.3-0.2,0.5-0.5,0.7-0.8c0.7-1.1,1.2-2.4,1.3-3.7
	C346.5,173.2,346.2,171.8,344.6,169z"/>
<path data-tip="دلیجان" id="IR-2807" d="M410.7,408.1c1.3-1.1,2.8-2.1,4.4-2.7c5.4-2.4,5.3-4-0.9-13.6c-5.6-8.8-7.4-10.3-13.7-11.7l-1.2-0.3
	c0-1-0.7-2.3-2.3-4.9c-2.6-3.8-5.9-7.1-9.5-9.9c-3.5-2.6-7.3-6.3-8.4-8.1c-1.4-2.4-1.7-3.1,0.6-5.7c-4.7-2.6-8.3-3.9-11.3-3.9
	c-1.6,0-2.8-0.7-5.6-3c-1.2-1.2-2.6-2.2-4.1-3c-0.7,0-0.3-3.9,0.6-7.1l-0.3-0.4l-0.8-1c-0.4,1.4-0.8,2.9-1,4.4l-0.4,3.3l-2.5-0.3
	c-1.4-0.2-2.7-0.6-3.9-1.3c-4.5-3.1-4.3-3-11.1-3s-10.9,0.8-14.6,2.7c-4.2,2.1-10.4,6.8-12.2,9c-4.5,5.8-6.4,6.6-9.7,4.2l0,0
	c-1-0.7-3.8-2.9-6.3-4.8l-4.5-3.4l1.5-2.9c1.6-2.9,1.9-6.4,0.7-9.5l-0.7-0.7c-2.1-0.7-8.5,1.8-12.8-1c-0.5-0.4-1-0.8-1.5-1.2
	c-3.3,0.8-6.8,0.7-10-0.3c-2.6-1-10.3,1.7-12,4.2c-1.6,2.3-1.5,8.8,0.1,12c1.3,3.3,2.4,6.6,3.2,10.1c1,4.2,2.3,8,2.7,8.4
	s3.3,0.8,6.2,0.8c3.6,0.1,7.1-0.6,10.3-2.3c4.6-2.1,5.4-2.3,13.2-2c7.4,0.3,8.8,0.6,13.7,3c7.6,3.8,9.8,7.2,10.5,16.6
	c0.4,4.6,0.1,9.2-0.9,13.7l-1.4,6.7l4.2,3.7c2.3,2,4.5,4.6,4.9,5.7c0.9,2,2.1,3.9,3.4,5.6c2.7,4.1,5.1,8.3,7.3,12.7
	c4.1,8,4.6,9.4,4.6,13.7c0,0.2,0,0.4,0,0.6c0,2.8-0.3,5.5-0.9,8.2c-1.3,4.4-0.4,7.8,3.9,14c3.7,5.4,3.8,5.7,4.2,12.6l0.4,7.1
	l3.6,1.4l0,0c4,1.6,8.5,1.9,11.5,0.8c1.1-0.4,3.1-2.4,4.5-4.4c2.2-3.2,2.8-3.6,5.5-3.6c2.1,0.1,4.2,0.6,6.2,1.3
	c5.2,1.9,8.2,1.6,10.8-1.1c2-2,2.3-2.9,2.3-6.8c0-5,0.8-7.5,3.4-8.9c0.9-0.5,2-0.8,3-1h0.1c1.7-0.4,3.5-0.7,5.2-0.8
	c5.3,0,9.7-6,11.5-15.7l1-5.8l-3.1-5.8l-3.1-5.8l0.2-8.7C409.6,412.5,410,408.9,410.7,408.1z"/>
<path data-tip="آشتیان" id="2801" d="M279.5,324.3c-1.9-0.5-5-5.8-5-8.5c0-1.7,3.2-8.2,6.2-12.8c1.6-2.5,1.9-3.6,1.4-6c-0.7-4-2.5-5.8-5.6-5.8
	c-2.6,0-5.3-2.6-7.9-7.7c-0.2-0.3-0.3-0.7-0.5-0.9c-1.4-2.4-2.6-3.4-3.8-2.9c-0.4,0.1-0.7,0.4-1,0.6c-0.9,0.8-2.9,1.3-5,1.3
	c-1.8,0-3.5,0.4-5.1,1.2c-1.9,1.4-9.4,1.6-11.9,0.3c-3.5-1.8-6.9-6.1-7.4-9.3c-0.4-2.7-1-3.4-3.8-5c-4.8-2.6-10.1-8-10.1-10.2
	c-0.1-1.3-0.6-2.5-1.2-3.6c-1.2-2.3-3-4.7-4.3-5.4c-2.7-1.2-5.9-1-8.4,0.4c-1.3,0.9-3.3,1.2-6.1,1c-4.2-0.3-4.2-0.2-5.7,2.7
	c-0.8,1.7-1.9,3-2.5,3c-2.6,0-9.5,2.6-11.7,4.5c-1.2,1.2-2.9,1.9-4.7,1.8c-1.6,0-3.2,0.5-4.4,1.6c-0.9,0.8-1.9,1.4-3.1,1.8
	c-0.8,0.2-1.5,0.7-1.9,1.4c-2.1,2.6-9.8,18.6-9.8,20.2c0,3,2.4,7.5,5.8,11c4.1,4.3,5.2,4.8,16.6,8.8c16.5,5.8,20.8,7.8,24.3,11.8
	c3.2,3.7,3.2,3.7,8.8,3.8c3.4,0.1,6.7-0.3,9.9-1.3c6.4-2.1,9.6-1.9,13.1,1c1.6,1.3,6.2,4.6,10.2,7.2s7.4,5.3,7.7,5.9l0,0
	c0.8,2.2,1.9,1.3,1.9-1.6c0-3.7,2.8-6.3,8.5-8.1c3.6-1.1,4.8-1.2,6.9-0.4c2.5,0.9,5.2,1.1,7.9,0.6c0.7-0.1,1.3-0.4,1.9-0.8
	C281.3,324.9,281.3,324.8,279.5,324.3z"/>
</svg>
