<?xml version="1.0" encoding="utf-8"?>
<!-- Generator: Adobe Illustrator 22.1.0, SVG Export Plug-In . SVG Version: 6.00 Build 0)  -->
<svg version="1.1" id="Layer_1" xmlns="http://www.w3.org/2000/svg" xmlns:xlink="http://www.w3.org/1999/xlink" x="0px" y="0px"
	 viewBox="0 0 612 230.9" style="enable-background:new 0 0 612 230.9;" xml:space="preserve">
<path data-tip="نوشهر" id="IR-2722" d="M174.4,136.5c-14.6-0.5-16.3-0.8-17.7-2.7c-1.9-2.6-1.3-6.4,2.4-13.9c2.9-5.9,2.9-5.5,0.8-23.8
	c-0.7-5.8-0.6-6.1,2.2-7.1c3.9-1.5,9-1.3,12.2,0.5c4.1,2.3,5.3,1.9,5.3-1.8c0.1-2.3,0.5-4.5,1.2-6.7c1.5-3.9,0.6-8.2-2.4-11.2
	c-2-2-2-2.3-0.5-4c1.9-2.1,2.2-4.9,0.7-5.9c-0.6-0.5-0.8-1.4-0.4-2.1c0.4-1.2,2.4-0.7,9.2,2.3c24.1,10.6,35.6,14,46.6,14
	c4,0.2,8,0.8,11.9,1.8c7.3,1.7,7.6,1.9,7,4.5c-0.9,3.9-4.5,10.9-6.7,12.9c-1.9,1.5-4,2.9-6.2,4c-4.9,2.5-5.5,4.8-2.8,11.3
	c0.9,2.1,1.4,4.3,1.6,6.5c0,3.7-10.5,21-13.2,21.7C222.9,137.5,197.9,137.4,174.4,136.5L174.4,136.5z"/>
<path data-tip="بابلسر" id="IR-2703" d="M361.3,67.1c-5.5-2.8-5.5-2.9,0.8-4.9c1.4-0.4,1.8-1.7,1.8-5.7c0-5.7,1.4-8.2,5.3-9c1.4-0.3,5.9-1.5,10-2.6
	c11.5-3.2,21.6-5.3,21.6-4.4c-0.3,0.9-0.9,1.6-1.7,2.2c-1.1,0.9-1.5,2.5-1.2,4.6s-0.1,3.6-1.2,4.4c-1.3,1-1.4,1.7-0.5,3.8
	c1.6,3.6,0.1,5.8-5,7.2c-2.3,0.6-4.2,1.6-4.2,2.2s-1.8,0.8-5.3,0.4c-3.5-0.5-5.8-0.3-6.8,0.5s-1.7,0.8-2.1,0.1
	c-1.3-2-4.6-1.2-5.5,1.4l-0.8,2.5L361.3,67.1L361.3,67.1z"/>
<path data-tip="فریدونکنار" id="IR-2714" d="M348,70.3c-1.1-1.5-2.1-3.2-2.7-5c-1.1-3.1-2.5-12.1-1.8-12.1c0.2,0,3.1-0.7,6.5-1.5c3.4-0.8,7.5-1.8,9.1-2.1
	l3-0.7l-0.3,5.5c-0.3,5.2-0.5,5.5-3.8,6.4c-2.7,0.7-3.4,1.4-3.4,3.4c0,1.4,0.6,2.7,1.7,3.5c1.5,0.8,1.4,1.2-0.8,2.7
	C352.3,72.6,349.9,72.6,348,70.3L348,70.3z"/>
<path data-tip="گلوگاه" id="IR-2717" d="M555.3,63.9c-0.3-0.3-0.6-1.9-0.6-3.5c0-4.4-2.5-6.2-8.8-6.2c-5.3,0-5.5-0.1-7.3-4c-1.1-2.4-2.5-4.7-4.2-6.8
	c-2.4-3-2.4-4.2,0.8-15.9c0.5-1.7,1.8-1.9,15.7-1.6c15.9,0.3,17.5,0.8,15.2,5.1c-0.6,1.1-1,4.8-1,8.4c0,9.9,4.3,12.8,13.4,9
	c3.5-1.4,4-1.4,5.7,0.1c1.1,1,2,2.3,2.5,3.7c0.5,1.6,1.7,2,5.7,2c3.4,0,5.3,0.5,5.6,1.4c0.4,1.1-1.4,1.7-7.9,2.5
	c-4.9,0.6-8.9,1.7-9.4,2.5c-0.6,1-3,1.3-8.7,1.1c-4.7-0.2-9.5,0.3-12.1,1.2C557.8,63.8,555.6,64.2,555.3,63.9L555.3,63.9z"/>
<path data-tip="عباس‌آباد" id="IR-2713" d="M118.8,76.4c-2-2.7-4.4-5.2-7-7.4c-4-3-3.9-6.2,0.1-7.6c2.3-0.8,3.2-1.8,3.2-3.6c0-1.4-0.5-2.8-1.1-3.1
	s-0.7-1.3,0-2.6c1.4-2.7,1.4-2.8-1.3-5.2l-2.3-2.2l3.1-0.2c1.7-0.1,3.8-0.2,4.7-0.2c1.3,0,20.9,5,28.6,7.3c0.9,0.3,2.2,1.7,2.9,3.2
	c1,2.3,0.9,3.1-0.9,5.4c-1.2,1.5-2.1,3.5-2.1,4.4c-0.2,3.5-3,6.3-6.5,6.4c-3.2,0-10.3,4.2-14,8.3c-1.1,1.2-2.4,2.2-2.8,2.2
	S121,79.3,118.8,76.4L118.8,76.4z"/>
<path data-tip="قائم‌شهر" id="IR-2715" d="M388.9,108.6c-4.1-3.5-4.1-3.5-2.4-6.8c0.9-1.8,1.5-3.8,1.7-5.8c0-1.4,0.6-2.8,1.6-3.9
	c0.8-0.7,1.6-2.9,1.6-4.9c0-2.9,0.5-3.8,2.6-4.6c2.7-1,3.1-1.8,2-4.7c-0.4-1.1-1.9-1.7-4.2-1.7c-3.5,0-4.7-1.3-2.4-2.7
	c0.6-0.4,1-2.3,0.7-4.3c-0.4-3.4-0.2-3.6,3.7-4.7c4.1-1.1,4.2-1,10.3,4.8c4.2,4,7,5.9,8.9,5.9c2.4,0,2.7,0.4,2.7,3.5
	c0,2.4,1.1,4.7,2.9,6.2c1.9,1.9,3.7,3.9,5.3,6c1.7,2.1,4,3.7,6.6,4.5c4,1.2,4.1,1.3,2.4,3.2c-1.4,1.6-1.5,2.4-0.5,4.6
	c1.5,3.4,1.5,3.2-0.4,5.1c-2,2-8.1,2.1-14.6,0.4c-3.9-1-5.1-1-7.3,0.5c-2,1.3-4.1,1.6-8.4,1.1c-3.8-0.4-6-0.2-6.5,0.6
	C394,112.7,393.4,112.4,388.9,108.6L388.9,108.6z"/>
<path data-tip="محمود‌آباد" id="IR-2718" d="M311.2,81.1c-2.4-1.1-5-1.9-7.7-2.2c-3.5-0.5-5.6-1.5-7-3.2c-3.6-4.5-1.9-6.2,9.8-9.8
	c5.9-1.9,15.8-5.3,22.1-7.6s11.6-4,11.9-3.8c0.6,1.2,0.9,2.4,1.1,3.7c0.5,2.5,0.2,3.7-1.6,5.2c-1.5,1.5-2.5,3.4-2.9,5.4
	c-0.4,2.4-1.5,3.8-3.2,4.5c-1.4,0.5-2.5,1.4-2.5,2s-0.9,1.5-2,2.1c-1.5,0.8-2.4,0.7-3.6-0.5c-2.6-2.6-5.6-1.9-7.9,2.1
	C315.2,83.1,314.9,83.2,311.2,81.1L311.2,81.1z"/>
<path data-tip="میاندرود" id="IR-2719" d="M481,105.9c-1.9-0.5-2.5-1.3-2.2-2.8c1.1-5.2,0.6-6.2-4.4-9.4c-4.3-2.8-5-3.6-5-6.8c0-2.9-1-4.5-5.1-8.5
	c-2.8-2.7-5.9-5.5-6.8-6.2c-1.3-1-1.5-2.5-1.1-6.4c0.5-3.9,0.2-5.4-1.1-6.5c-1-0.8-1.7-3-1.7-5.1s-0.7-4.2-1.7-5
	c-1.5-1.1-1.5-1.7,0.7-5.9c2-3.9,2.2-5.1,1.2-7.7c-0.8-2.2-0.8-3.7,0-5.2c0.7-1.6,0.8-3.4,0.5-5.2c-0.5-2.6-0.2-3.2,2.1-4.1
	c4.8-1.8,5.4-1.4,6.1,5.2c0.4,3.9,1.5,7.3,2.9,9.1c1.8,2.3,2,3.2,1,4.8c-1.7,2.7-1.5,6.8,0.4,8.3c2.2,1.8,2,4.6-0.5,6.8
	c-3.4,3-2.5,5.9,3.1,11.6c3.1,3.1,5.9,7.1,7,10c1.7,4.6,2.2,5,11.4,9.4c8.5,4,9.4,4.7,7.8,5.9c-2.3,1.7-2.4,4.8-0.3,7.5
	c2.3,3.1,1.9,4.4-1.7,5.6C489.5,107,485.1,107.1,481,105.9L481,105.9z"/>
<path data-tip="جویبار" id="IR-2706" d="M406,67.5c-5.8-5.1-6.6-6.2-6.7-9.7c-0.1-2.4,0.5-4.5,1.4-5.2c1.2-0.9,1.3-1.7,0.4-3.7c-0.9-2-0.8-3,0.8-5
	c1.1-1.3,2-3,2-3.8c0-0.7,4.7-2.7,11.1-4.5c6.1-1.8,11-2.9,11-2.5c-0.4,1.2-0.9,2.3-1.5,3.3c-2.2,3.8-2,12.3,0.4,15.6
	c3.6,5.3,3.6,6.4-0.4,8.8c-2.7,1.6-3.6,2.8-3.4,4.4c0.2,1.8-0.3,2.3-2.6,2.5c-2.3,0.2-2.9,0.8-2.9,2.9
	C415.6,74.5,413.3,73.7,406,67.5L406,67.5z"/>
<path data-tip="رامسر" id="IR-2708" d="M25.4,14.5c-0.3,3.1-0.6,3.4-4.8,3.7c-7.4,0.5-8.7,3.3-8.7,17.9c0,11.1-0.2,12.5-2.8,17.3
	c-1.5,2.8-4.2,6.1-5.9,7.1l-3.1,2l3.1,0.9c0.3-0.2,0.6-0.5,0.8-0.7c1.6-1.3,3-2.9,4.1-4.7c0.4,0.3,0.8,0.5,1.3,0.7
	c3.7,1.9,3.8,1.9,2.6,3.5c-1.6,2.3-1,3.5,2.3,4.2c1.6,0.2,3,1,4.1,2.1c0.7,0.9,1.6,1.4,2.7,1.5c1.1,0.1,2,0.7,2.8,1.5
	c0.4,0.4,0.8,0.8,1.3,1c2.1-3.5,5.7-11.2,5.8-12.7c0-2.7,6.7-16.9,9.3-19.6c1.5-1.6,5.5-3.9,8.9-5.2c6.3-2.3,9.4-5.3,14.2-13.6
	l2.2-3.8L60.4,16c-4.8-1.7-7.1-3.6-13.8-11.5c-3.9-4.6-5.6-5.7-9.6-3c-1.6,1.2-3.1,2.4-4.6,3.7C27.2,9.8,25.6,11.9,25.4,14.5z"/>
<path data-tip="بابل" id="IR-2702" d="M352.1,191.1l2.1-1.9l0.7,1.1c0.5,0.7,2,1.6,4.2,2.4c3,1.1,4.1,1.3,8,1.2c1.3-3.4,3.3-6,7.5-10
	c3.5-3.4,7.6-6.3,9.1-6.7c1.8-0.4,3.4-1.1,4.9-2.2c3-2.3,1-5-5-6.9c-3.6-1.1-5-2.1-5.5-4c-0.6-1.8-2-3.1-3.8-3.6
	c-2.8-1-3.1-1.6-3.1-5.5s0.6-5.1,5.4-9.9c3-3,5.9-5.5,6.7-5.5s2.6-1.4,4.3-3.2c1.7-1.7,3.6-3.2,4.4-3.2c2.8,0,3.5-3.7,1.3-6.9
	c-1.4-2.1-2-4.7-1.8-7.2c0.2-3.6-0.3-4.6-4.2-8.1c-4.8-4.2-5.5-7-2.8-11.5c0.9-1.7,1.4-3.5,1.5-5.4c0-1.5,0.5-2.9,1.5-4
	c0.9-0.8,1.2-2,1-3.2c-0.7-2.5,1.4-6.4,3.4-6.4c0.8,0,1.5-0.5,1.5-1s-1.7-1.1-3.7-1.1c-4.5,0-5.6-2.1-3.1-5.9c1-1.5,1.4-3.1,0.9-3.5
	c-1.5-1.4-10.5-2.1-11.7-0.9c-0.8,0.8-1.8,0.8-3.3-0.1c-1.9-1-2.3-0.8-2.9,1.5c-0.7,2.8-3.7,3.5-6.7,1.7c-1-0.6-3.2,0-6.6,1.9
	c-5,2.8-5.1,2.9-5.1,7.9c0,4.2-0.6,5.8-3.2,8.7c-1.9,2.2-3.2,4.8-3.2,6.6c0.1,1.8-0.8,3.5-2.3,4.5l-2.3,1.6l3.9,2.5
	c4.3,2.8,5.6,6.6,4.6,13.3c-1.9,12.1-2,16.7-0.3,18.1c2.5,2.1,2.1,6.4-0.9,10.9c-2.6,3.8-3.3,7.7-1.8,9.8c1.3,1.3,2.7,2.5,4.2,3.5
	c2.7,1.9,3.4,3.1,3.4,5.8c0,1.9,0.5,3.9,1.2,4.6c2.2,2.2,1.6,9.4-0.9,12.6c-2.2,2.8-4.2,5.9-6,9.1
	C348.7,193.3,350.3,192.8,352.1,191.1z"/>
<path data-tip="آمل" id="IR-2701" d="M264.2,220c0.5,0,3.7,4.8,3.7,5.6l1.9,0.5V224l2.5-0.6c4.8-1.1,7.5-0.8,11.4,1.3c3.1,1.7,3.8,1.9,6.7,1.9
	c3.4,0,7.3,0.8,12.9,2.6c2.4,0.7,4.9,1.2,7.4,1.4c0.5,0,1.2,0.1,1.9,0.2c0.2-0.2,0.3-0.4,0.4-0.6c0.3-0.5,0.8-1,1.2-1.4
	c3.1-3.1,10.4-8.1,12.3-8.1c0.8,0,2-0.7,3.4-1.8c0.5-0.4,1-0.8,1.5-1.4c2.2-2.1,4.1-4.6,5.6-7.2c1.4-2.8,3.3-5.4,4.2-5.7
	c1-0.4,1.6-2,1.6-4.2c0-2.6,1-6.1,2.6-9.5c1.3-2.7,2.8-5.2,4.7-7.5c3.5-4.4,3.5-3.8,1.5-14.9c-0.4-2.2-2-4.5-4.7-6.6
	c-3.7-2.9-4.1-3.8-4.1-8c0-3.2,0.9-6.3,2.8-8.9c2.6-3.9,2.7-4.3,1-6.1c-2.1-2.3-2.4-12.1-0.5-18.1c1.9-6.3,0.5-10.9-4.4-14.1
	s-5.2-5-1.5-7.4c1.6-0.9,2.6-2.6,2.6-4.5c0-1.5,1.4-4.5,3.2-6.7c2.5-3.1,3.2-5.1,3.2-8.9c0-4.3-0.4-5.1-3.2-6.7
	c-2.4-1.3-3.2-2.5-3.2-4.8c0-2.5-0.3-2.8-1.6-1.7c-0.8,0.7-1.9,2.9-2.2,5c-0.4,2-1.5,4-2.4,4.3c-1.6,0.8-3,1.9-4.1,3.2
	c-2,2.1-3.1,2.4-5.7,1.9c-1.8-0.4-3.6-1.2-4-1.8c-0.4-0.6-1.7,0.5-2.9,2.6c-2.4,4-5.6,4.9-9.9,2.6c-1.7-0.8-3.4-1.5-5.2-2
	c-3-0.8-3-0.8-2.4,2.6c0.3,2.4,0.2,4.9-0.4,7.3c-1,3.6-0.8,4,2.1,6.1c2.8,2,3.1,2.8,2.7,6.1c-0.3,2.2,0,4.4,0.9,6.4
	c2.1,3.8,1.8,8.1-0.6,9.4c-1.1,0.6-4.2,1.1-6.8,1.1c-5.5,0-7.3,1.8-4,4c2.8,1.9,2.9,4,0.2,8.1c-1.2,1.8-1.9,4.2-1.6,5.5
	c0.3,1.4,0.7,3.6,1,5c0.3,1.4,4.2,6.1,8.6,10.4c5.3,5.2,7.9,8.4,7.5,9.4c-0.8,2.2-6.8,3.1-11.3,1.9c-5.1-1.5-10.6-1.3-15.6,0.6
	c-6.6,2.8-14,8-15.5,11c-0.9,1.8-3.9,4-7.6,5.9c-7.8,3.9-7,3.7-22.7,4.4l-13.1,0.6c0.1,0.2,0.2,0.3,0.4,0.3c0.2-0.1,0.5,0.1,0.5,0.5
	s-0.2,0.6-0.5,0.4c-0.3-0.2-0.4,0-0.2,0.7c0.2,0.7,0.1,1.5-0.4,2.1c-0.8,1.2-2,5.4-1.9,6.5c0,0.4,0.1,1.3,0.1,1.9
	c0.1,1.5,2.2,2.8,4.6,2.8c1,0,2.1,0.2,3,0.7c2.5,1.5,5.4,2.5,8.3,2.9c1.9,0.3,3.8,0.8,5.6,1.4c1,0.4,2,0.7,3,0.7
	c0.9,0,2.1,0.9,4.8,3.8l3.6,3.8l3.3,0.3c2.7,0.3,3.3,0.5,3.3,1.2L264.2,220z"/>
<path data-tip="تنکابن" id="IR-2705" d="M80.4,118.7c0.1,1.1,0.1,2.4,0.2,4c0.3,8.8,0.3,8.9,3.9,11.3l0,0c2,1.3,3.9,2.4,4.2,2.4c0.4,0,2-4.2,3.6-9.5
	c1.2-3.6,2.9-8.3,4.4-11.9c0.6-1.5,1.2-2.9,1.7-4c3.4-7.1,3.7-10.7,1.5-14.7c-0.9-1.7-1.4-3.6-1.5-5.5c0-2.9,0-2.9,7.4-2.9
	c6.8,0,14.7-2,14.7-3.8c0-1.5-7.7-11.1-10.6-13.2c-2.5-1.8-3.1-3-3.1-6.4c0-3.7,0.4-4.3,3.2-5.3c2.5-0.9,3-1.4,2-2.6
	c-0.7-0.8-0.9-2.8-0.6-4.5c0.4-2.1,0.2-3.2-0.9-3.6c-2.4-0.9-1.9-5.7,0.6-6.1c1.4-0.2-2-2.2-9.2-5.4C95.4,34.2,89.1,31,83,27.4
	c-4.1-2.5-9.1-5.6-11.2-6.8l-3.8-2.1l-2.4,4.4c-4.8,8.7-8.2,12.1-14,14C42.3,39.9,38,45.6,33,61c-1.3,3.9-2.8,7.8-4.5,11.5l-0.1,0.1
	c2.2-0.2,2.7-0.1,2.7,0.4c0,1.1,2.5,2.6,4.4,2.6c0.7-0.1,1.3,0.1,1.9,0.4c0.9,0.5,1.9,0.8,3,1c1.1,0.2,2.2,0.5,3.2,1
	c0.9,0.8,4.7,1.8,7.7,2c1.8,0.2,3.4,0.6,3.9,1c0.7,0.6,1.4,0.7,3.4,0.5c3.1-0.3,4.4,0.4,3.6,1.9c-1.2,2.3,0.1,5.6,2.7,6.6
	c1.4,0.6,1.7,1.1,2,3.5c0.1,0.6,0.6,1,1.4,1.1c0.9,0.1,1.3,0.4,1.3,0.8s0.5,0.7,1.8,0.7c1.1,0,2.1,0.3,3.1,0.8c1.5,1,4,3.8,4.1,4.6
	c0,0.7,1.4,1.9,2.8,2.3c0.8,0.3,1.6,0.8,2.2,1.5c0.4,0.5,1,0.9,1.7,1.1c1.1,0,3.6,2.4,3.6,3.5c-0.1,0.9-0.4,1.8-1.1,2.5
	c-0.3,0.4-0.7,0.6-1.2,0.6c-1.1,0-1.9,0.9-1.8,2c0,0.1,0,0.1,0,0.2c0.1,0.6-0.5,1.2-2,1.9l-0.4,0.2l-0.2,0.1l-0.2,0.1l-0.3,0.2
	l-0.1,0.1l-0.3,0.2l0,0C80.9,118.3,80.6,118.5,80.4,118.7z"/>
<path data-tip="چالوس" id="IR-2707" d="M141.4,157.2c3.8-2.2,7-2.2,11.7,0.1l0,0l3.7,1.8l0.3-3.4c0.1-2.3-0.4-4.6-1.4-6.7c-1.1-2.6-1.6-5.4-1.6-8.2
	v-0.6c0-2.9-0.2-5.9-0.6-8.8c-0.5-3.5,0-5.8,2.7-12s3.2-8.5,2.7-12c-0.4-2.4-0.9-7.8-1.3-12l-0.6-7.6l3-1.2c1.7-0.6,5.9-1,9.4-0.8
	l6.4,0.4l1.7-4.7c1.5-4.2,1.5-5,0.1-7.7c-0.8-1.6-2-3-2.5-3c-1.2,0-1.4-5.6-0.3-6.8c0.4-0.4,0.8-2.5,0.8-4.8v-4l-5.8-1.2
	c-3.2-0.7-8.5-1.5-11.8-1.9l-6-0.7l0.6,4.1c0.4,3.3,0.1,4.5-1.7,6.1c-1.2,1.1-2,2.6-2.2,4.2c0,3.8-2.9,6.9-6.5,6.9
	c-3.5,0-7.2,2.2-14.8,9c-7.1,6.3-11,7.8-19.7,7.8c-4.1,0-7.5,0.4-7.4,0.8c0.4,1.2,0.9,2.4,1.5,3.4c2.5,4.5,1.9,11.1-2,19.9
	c-0.3,0.8-0.7,1.6-1,2.4c-3.6,8.6-7.4,19.9-6.9,20.3c1.5,1.2,16,7.1,19.8,8.1c3.5,0.8,10.5,4.1,16.2,7.2l0.6,0.3l1.5,0.8
	c0.2,0.1,0.3,0.2,0.5,0.3c1.7,0.9,3.3,2,4.8,3.1C138.3,158.9,138.5,158.9,141.4,157.2z"/>
<path data-tip="نور" id="IR-2721" d="M301.7,154.6c-6.8-6.5-7.5-7.6-8.6-13.3c-1.1-5.4-1-6.6,0.7-9.8c1.8-3.4,1.8-3.7,0.1-5.6
	c-1.1-1.2-1.6-2.9-1.5-4.5c0.3-2.2,1-2.5,6.4-3c7.7-0.7,8.9-1.9,6.6-6.3c-1.1-2.1-1.5-4.5-1.1-6.9c0.6-3,0.2-3.8-2.6-5.8
	c-3.1-2.2-3.3-2.6-2.5-6.7c1.3-7.1,0.9-8.8-3.1-13.4c-2.1-2.4-3.8-5.5-3.8-6.8v-2.4l-6.1,1.9c-9.2,2.9-20.6,5.3-25.4,5.3h-4.2
	l-2.8,7.4c-3,7.9-6,11.5-12.4,14.8c-4.3,2.2-4.7,3.3-2.4,7.3c0.8,1.4,1.5,5,1.5,7.9c0,4.5-0.8,6.6-5.1,13.7c-2.8,4.6-6.2,9-7.6,9.8
	c-2,1.1-9.2,1.2-35.1,0.7c-9.8-0.2-18.8-0.5-25.1-0.7c-3.4-0.1-5.9-0.2-7.4-0.3c-0.5,0-0.9-0.1-1.4-0.2c-0.9-0.3-1.5,0.5-1.9,1.9
	c-0.4,2.5-0.1,5.2,0.8,7.6c1,2.8,1.6,5.7,1.6,8.6v4.8h6.1c4.9,0,7.5,0.8,13.4,3.8c2.2,1.1,5.9,2.8,10.1,4.7c1.5,0.7,3,1.3,4.5,2
	c2,0.8,4.1,1.7,6,2.5c7.2,3,15.3,6.7,17.9,8.4l0,0c3,1.9,4.4,2.5,8.3,2.8c1.9,0.1,4.3,0.2,7.8,0.2c18.9,0,26.6-2.6,36.4-12.5
	c3.4-3.3,7.3-6.1,11.5-8.3c5.6-2.5,6.6-2.7,16.8-2c6,0.4,10.9,0.5,10.9,0.2S305.8,158.5,301.7,154.6z"/>
<path data-tip="سوادکوه" id="IR-2710" d="M380.4,198.2c1.4,1.1,7.8,2.5,10.9,2.3c0.9-0.1,1.8,0,2.7,0.2c0.6,0.9,1,1.8,1.3,2.8c0.8,2.6,1.5,3.3,4.4,3.9
	c2.3,0.4,4.5,3.2,4.5,5.7c0.1,1.9,0.9,3.7,2.1,5.2c0.6,0.6,1.6,0.8,3.5,0.8c1.5,0,2.9,0.1,4.4,0.3c2.3,0.4,3.5-0.3,4.9-3.1
	c0.8-1.5,1.5-2.4,2.1-2.4c0.9,0,2.9,1.9,2.9,2.7c0,0.3,2.4,0.6,6.2,0.7c1.4,0.1,2.5,0.1,3.4,0.2c0.6-1.2,1.6-2.2,2.7-2.9
	c4.5-2.7,7.2,0.8,13.9-1.8c4.6-1.8,3.6-3.6,9-5.6c3.4-1.3,7.1-1.9,8.4-4.2c0.4-1,0.7-2,0.8-3.1c0.3-2.1-0.2-2.7-2.8-3.4
	c-2-0.7-3.7-1.9-5.1-3.5c-0.2-0.2-0.4-0.5-0.6-0.7c-2.2-2.9-2.3-3.8-1.3-6.7c1.6-4.5,1.7-4.5-2.2-5.3c-6.4-1.3-7.1-1.7-7.1-4.1
	c0-1.3-1.2-4-2.6-5.9c-1.9-2.6-2.6-4.9-2.6-8.6c0-4.6,0.5-5.6,5.3-10.9c6.3-7,6.8-10.2,2-12.2c-2.2-1-4-2.8-4.9-5.1
	c-0.8-2.1-4.1-6.5-7.3-9.9c-2.6-2.8-5.1-5.7-7.4-8.7c-1.4-2.1-2.5-2.5-7.3-2.5c-2.9,0-5.7-0.3-8.5-1.1c-2.3-0.8-3.3-0.7-4.7,0.6
	c-1.5,1.3-3.5,1.6-8,1.4l-6.1-0.4l-2,4.1c-1.6,3.2-1.7,4.5-0.8,5.8c4.1,5.7,4.1,11.1-0.1,12.7c-1.8,0.9-3.5,2.1-4.9,3.6
	c-1.4,1.5-3.2,2.7-4,2.7s-3.8,2.4-6.7,5.4c-6.1,6.4-6.8,9.7-2,11.3c1.8,0.5,3.2,1.9,3.8,3.7c0.5,2,1.7,2.9,5.2,3.7
	c5.6,1.4,7.2,3.2,6.7,7.7c-0.3,3.1-0.9,3.7-5.6,5.4c-6.5,2.4-12.9,8.5-16.5,15c2.2,0.1,3,0.4,5.5,1.6
	C377.3,196.3,378.9,197.2,380.4,198.2z"/>
<path data-tip="نکا" id="IR-2720" d="M567.3,91c-1.6,0.1-3.4-0.6-5.8-2.1c-2.2-1.4-4.3-1.9-5.7-1.5c-1.7,0.4-3.5,0.4-5.3,0
	c-2.5-0.6-3.3-1.5-4.2-4.7c-1.7-6.4-5.4-11.1-9-11.4c-5.6-0.5-7.6-1.3-10.8-3.9l-3-2.5l-3.1,2c-3.8,2.5-7,2.5-13.1,0.2
	c-11.4-4.5-16.2-8.9-17.4-15.9c-0.5-3.2-2.5-6.1-8.1-12.3c-8.8-9.6-11.4-13.7-11.4-17.6c0-3.3-2.1-3.8-4.7-1.2
	c-2.2,2.2-1.3,8.6,2,14.3c1.9,3.4,2.1,4.3,1,7.3c-1,2.8-1,3.8,0.3,5.6c2.2,3.4,1.9,7.8-0.7,10.9l-2.3,2.4l5.3,4.7
	c3.2,2.7,5.8,6.2,7.3,10.2c1.9,5,2.5,5.6,7.8,7.8c7.4,3.1,12.9,6.2,13.4,7.6c0.2,0.6-0.7,2.2-2,3.4l-2.4,2.2l2.5,2.6
	c1.4,1.6,3.4,2.5,5.4,2.6c2.3,0,3.5,0.9,5.6,4.2c3.1,5,4.9,6,15.3,9.1l0,0c10,3,13.5,2.2,21.1-4.3c4.2-3.6,8.6-4.9,15.1-4.5
	C561.8,100.4,563.8,94.4,567.3,91z"/>
<path d="M529.9,14.1c-0.3-0.5-1.9-1-3.4-0.9h-2.8l2.6,1.4C529,16.1,531,15.8,529.9,14.1z"/>
<path data-tip="بهشهر" id="IR-2704" d="M591,79l13.6-0.7c2.4-0.1,4.9-0.2,7.4-0.2c0-1.1-0.1-2.3-0.3-3.4c-1.6-8.6-8.6-19.6-10.4-16.5
	c-0.4,0.7-4.2,1.6-8.5,2c-4.8,0.4-8.3,1.3-9.4,2.4c-1.3,1.3-3.9,1.7-10.7,1.7c-5,0-11,0.7-13.5,1.5c-5.6,1.8-8.2,0.2-7.3-4.4
	c0.8-3.8-1.5-5.1-8.8-5.1c-4.5,0-5.3-0.3-5.3-2c0-1.1-1.7-4.1-3.8-6.6c-3.5-4.2-3.8-4.9-3.2-9.9c0.3-2.9,0.9-6.8,1.3-8.7l0.7-3.4
	h-7.8c-4.5,0-9.6-0.8-12-1.7c-2.6-1-5.4-1.7-8.2-2.2c-2.2-0.3-4-1-4-1.6c0-0.6-1.6-0.8-4.3-0.4c-3.3,0.5-4.2,0.4-3.9-0.7
	c0.5-1.5,7.3-1.7,20.6-0.6c8.2,0.7,8.7,0.6,8.7-1.3c0-1.8-0.7-2.1-5.8-2.1c-6.3,0-7.5-1.3-2.9-3l2.9-1.1l-2.6-0.1
	c-2.6,0.2-5.1,0.7-7.6,1.4c-6.8,2.1-23.1,4.8-28.6,4.8c-4.3,0-4.6,0.2-4.4,2.9c0.3,4.2,1.9,6.8,10.1,15.8c5.6,6.1,7.7,9.4,9,13.6
	c2,6.8,7.3,11.8,16.3,15.1l6.2,2.3l3.6-2.3c4.7-2.9,6-2.8,10.7,0.9c3,2.4,5.1,3.2,8.4,3.2c2.9,0,5,0.6,6.1,1.8
	c2.4,2.8,5.1,8.3,5.1,10.7c0,2.9,2.7,4.2,7.5,3.5c2.6-0.5,5.3,0.1,7.4,1.6l0,0c2.5,1.6,3.8,1.9,4.8,1.1c0.8-0.6,3.5-0.8,6.4-0.5
	c2.1,0.3,4.2,0.5,6.3,0.5c0.8,0,2.5,0,4.6,0l2.7-4.2L591,79z"/>
<path d="M525.8,21.5c0.3,0.9,1.3,1.3,2.2,1c0.4-0.2,0.8-0.5,1-1c0.4-0.6-0.4-1-1.6-1S525.4,21,525.8,21.5z"/>
<path data-tip="ساری" id="IR-2709" d="M547.2,160c11.2-3.7,17.4-7.4,19.7-12.1c4.4-8.7,2.4-16.6-5.2-20.4c-5.6-2.8-6.5-4.7-4.5-9.5
	c0.8-2,1.6-5.5,2.5-9.4h-0.4c-5.7,0-7,0.4-11.1,3.5c-6.9,5.2-13.3,7.9-17.2,7.3c-7.2-1.2-18.1-5-20.6-7.3c-1.7-1.6-3.2-3.4-4.5-5.3
	c-2.2-3.5-4.5-3.7-7.9-0.5c-2.1,2-3.7,2.4-10.1,2.4c-12.5,0-15.2-1.6-12-6.9c1.4-2.3,1.3-2.5-6-7.6c-2-1.4-2.7-2.8-2.7-5.5
	c0-3.6-2.5-6.6-10.9-13.3c-2.8-2.2-3-2.8-2.4-7.4c0.4-3.7,0.2-5.4-0.9-6.3c-0.8-0.7-1.5-3.1-1.5-5.2c0-2.5-0.6-4.2-1.6-4.6
	c-2-0.8-2-5.2,0-9.1c1.1-2.3,1.4-4.8,0.9-7.3c-0.4-2.4-0.2-4.8,0.4-5.6c0.6-0.8,0.8-2.6,0.6-4.2l-0.5-2.8l-8.3,3.1
	c-11.4,4.2-14.6,6-14.6,8.2c-0.2,1.4-0.7,2.8-1.5,3.9c-2.2,2.9-2,8.6,0.4,12c4.1,5.8,3.7,11.8-0.9,13.3c-1.4,0.6-2.3,2-2.4,3.5
	c-0.3,2.2-1,2.9-3.2,3.2c-2.8,0.3-2.9,0.6-2.9,6c0,4.7,0.4,5.8,2,6.3c1.1,0.4,3,2.3,4.2,4.3c2.3,3.9,7.8,7.9,10.9,7.9
	c2,0,2.7,4.6,0.8,5.8c-0.5,0.3-0.7,2.3-0.4,4.3c0.4,2.6,0.1,4.2-1.1,5.6c-1.6,1.8-1.3,2.4,5.7,10c4.1,4.5,7.8,9.4,8.2,11
	c0.5,1.8,2.2,3.7,4.7,5c2.1,1.2,4.2,2.9,4.5,4c1,3.3-1.5,8.6-6.4,13.4c-5.7,5.6-6.3,9.9-2.1,14.9c1.4,1.7,2.6,4.2,2.6,5.6
	c0,2.5,0.6,2.9,7.2,4.2c3.5,0.7,3.5,0.8,3,5.6c-0.4,3.3,0,5.6,1,7.3l0,0c0,0,0,0,0,0.1c0.5,0.9,1.1,1.7,1.8,2.4c0.5,0,7-5.6,12-10.3
	c0.6-0.6,1.3-1.2,2-1.8c6.6-5.5,15-9,21.6-9c3.4,0,9.4-1.1,14.1-2.6c4.7-1.5,10.8-2.6,14.3-2.6c2.3,0,4.6-0.3,6.8-0.8
	c0.8-0.2,1.6-0.4,2.3-0.7c1.1-0.4,1.8-0.7,2-0.8c1.6-0.6,3.2-1.1,4.9-1.5l-2.2-1.7L547.2,160z"/>
</svg>
