<svg xmlns="http://www.w3.org/2000/svg" viewBox="0 0 722.95 272.77">
    <path
            data-tip="نوشهر"
            id="IR-2722"
            d="M206,161.26c-17.19-.63-19.27-.95-20.93-3.19-2.28-3.08-1.51-7.52,2.83-16.4,3.44-7,3.42-6.53,1-28.09-.79-6.91-.71-7.17,2.54-8.4,4.64-1.77,10.69-1.52,14.39.59,4.82,2.76,6.22,2.29,6.22-2.09a27.72,27.72,0,0,1,1.43-7.9,12.33,12.33,0,0,0-2.81-13.18c-2.34-2.34-2.39-2.74-.59-4.73,2.21-2.44,2.59-5.81.78-6.93a2.11,2.11,0,0,1-.52-2.47c.52-1.38,2.82-.8,10.84,2.72,28.45,12.48,42,16.55,55,16.51a79.11,79.11,0,0,1,14,2.09c8.67,2,9,2.22,8.23,5.31-1.11,4.61-5.35,12.82-7.87,15.23a40,40,0,0,1-7.32,4.69c-5.81,3-6.48,5.7-3.28,13.36a25.12,25.12,0,0,1,1.86,7.7c0,4.36-12.39,24.78-15.56,25.64-2.88.78-32.49.55-60.18-.46Z"
    />
    <path
            data-tip="بابلسر"
            id="IR-2703"
            d="M426.83,79.33c-6.52-3.33-6.5-3.44.93-5.79,1.68-.53,2.18-2.06,2.18-6.71,0-6.79,1.68-9.65,6.23-10.6,1.71-.36,7-1.75,11.82-3.1,13.62-3.81,25.53-6.25,25.53-5.24a5.47,5.47,0,0,1-2,2.56c-1.3,1.08-1.79,2.94-1.42,5.43s-.1,4.28-1.4,5.23c-1.57,1.15-1.69,2-.58,4.45,1.91,4.2.06,6.87-5.88,8.47-2.71.73-4.94,1.92-4.94,2.65s-2.15,1-6.26.45-6.86-.37-8,.57-2,1-2.53.12c-1.48-2.4-5.41-1.38-6.47,1.69l-1,3-6.22-3.18Z"
    />
    <path
            data-tip="فریدونکنار"
            id="IR-2714"
            d="M411,83.05a23.05,23.05,0,0,1-3.21-5.92c-1.34-3.69-2.93-14.32-2.15-14.32.22,0,3.67-.79,7.66-1.75s8.83-2.11,10.75-2.53l3.49-.78-.38,6.51c-.36,6.18-.58,6.55-4.42,7.54-3.16.82-4,1.7-4,4.06a5.14,5.14,0,0,0,2,4.15c1.77,1,1.67,1.38-.9,3.17-3.75,2.64-6.49,2.59-8.81-.13Z"
    />
    <path
            data-tip="گلوگاه"
            id="IR-2717"
            d="M656,75.52c-.36-.37-.67-2.22-.67-4.11,0-5.24-3-7.35-10.36-7.37-6.23,0-6.52-.16-8.57-4.67a45.08,45.08,0,0,0-4.91-8.07c-2.88-3.54-2.81-4.91,1-18.74.56-2,2.18-2.2,18.54-1.87,18.82.39,20.65,1,18,6-.68,1.27-1.24,5.72-1.24,9.87,0,11.68,5.1,15.12,15.8,10.65,4.09-1.71,4.72-1.7,6.77.16a12.23,12.23,0,0,1,3,4.38c.58,1.85,2,2.33,6.74,2.33,4,0,6.24.58,6.67,1.71.51,1.32-1.69,2-9.37,3-5.8.74-10.47,2-11.07,3-.74,1.21-3.58,1.57-10.26,1.31-5.61-.21-11.23.34-14.32,1.4-2.8,1-5.39,1.45-5.76,1.09Z"
    />
    <path
            data-tip="عباس‌آباد"
            id="IR-2713"
            d="M140.39,90.31a54.8,54.8,0,0,0-8.23-8.76c-4.73-3.49-4.65-7.28.18-9,2.72-1,3.74-2.1,3.74-4.22,0-1.61-.56-3.27-1.25-3.69-.84-.52-.84-1.55,0-3.11,1.68-3.14,1.65-3.27-1.48-6.18l-2.72-2.54,3.66-.22c2-.13,4.49-.21,5.52-.18,1.49,0,24.66,5.92,33.75,8.58,1.09.32,2.64,2,3.44,3.77,1.22,2.68,1.05,3.68-1.06,6.37-1.38,1.75-2.51,4.1-2.51,5.23A8,8,0,0,1,165.8,84c-3.8,0-12.16,5-16.53,9.82-1.3,1.44-2.79,2.63-3.29,2.63s-3-2.75-5.59-6.12Z"
    />
    <path
            data-tip="قائم‌شهر"
            id="IR-2715"
            d="M459.38,128.34c-4.81-4.12-4.81-4.12-2.81-8a18.45,18.45,0,0,0,2-6.89,6.73,6.73,0,0,1,1.86-4.58c1-.85,1.87-3.45,1.87-5.78,0-3.38.64-4.48,3.11-5.42,3.23-1.23,3.64-2.17,2.36-5.5-.48-1.26-2.27-2-5-2-4.16,0-5.53-1.54-2.86-3.19.75-.46,1.14-2.75.87-5.07-.47-4-.23-4.3,4.36-5.54,4.8-1.29,4.91-1.25,12.11,5.62,5,4.74,8.28,6.93,10.47,6.93,2.79,0,3.2.53,3.2,4.08a9.59,9.59,0,0,0,3.43,7.35,69.81,69.81,0,0,1,6.29,7.1,16.66,16.66,0,0,0,7.8,5.3c4.68,1.4,4.82,1.59,2.84,3.77-1.7,1.89-1.82,2.86-.63,5.46,1.8,4,1.82,3.74-.52,6.08s-9.53,2.53-17.2.48c-4.66-1.24-6-1.16-8.58.55-2.31,1.52-4.79,1.84-9.91,1.31-4.44-.45-7.14-.21-7.7.7-1.27,2.05-2.09,1.74-7.39-2.8Z"
    />
    <path
            data-tip="محمود‌آباد"
            id="IR-2718"
            d="M367.68,95.81a31.6,31.6,0,0,0-9.07-2.61c-4.13-.58-6.67-1.74-8.28-3.8-4.2-5.33-2.27-7.28,11.54-11.63,7-2.2,18.71-6.25,26.1-9s13.69-4.77,14-4.46a15.53,15.53,0,0,1,1.33,4.4c.6,3,.18,4.36-1.85,6.1a12.86,12.86,0,0,0-3.4,6.42c-.54,2.84-1.74,4.54-3.74,5.3-1.63.62-3,1.68-3,2.36s-1.08,1.81-2.41,2.52c-1.8,1-2.87.81-4.27-.58-3.12-3.13-6.57-2.21-9.35,2.49-2.87,4.88-3.24,5-7.63,2.49Z"
    />
    <path
            data-tip="میاندرود"
            id="IR-2719"
            d="M568.16,125.17c-2.23-.63-3-1.57-2.62-3.3,1.27-6.12.69-7.38-5.14-11.1-5.12-3.26-5.9-4.31-5.92-8,0-3.42-1.17-5.32-6.06-10-3.33-3.16-6.95-6.44-8-7.29-1.53-1.2-1.83-2.92-1.29-7.51s.25-6.35-1.3-7.63c-1.15-1-2-3.54-2-6.05s-.82-5-2-5.85c-1.82-1.33-1.75-2,.79-7,2.35-4.59,2.58-6.08,1.44-9.11-1-2.57-1-4.34,0-6.1a10.74,10.74,0,0,0,.6-6.1c-.61-3.06-.23-3.81,2.45-4.83,5.71-2.17,6.38-1.61,7.26,6.16.52,4.62,1.82,8.63,3.48,10.74,2.16,2.74,2.37,3.79,1.19,5.69-2,3.23-1.81,8,.42,9.83,2.58,2.14,2.33,5.42-.63,8.09-4,3.58-3,7,3.69,13.65,3.72,3.67,7,8.36,8.24,11.79,2,5.44,2.56,5.93,13.43,11.06,10.09,4.76,11.13,5.55,9.2,7-2.66,2-2.81,5.64-.35,8.88,2.76,3.65,2.3,5.15-2,6.66a25.66,25.66,0,0,1-14.75.22Z"
    />
    <path
            data-tip="جویبار"
            id="IR-2706"
            d="M479.65,79.72c-6.86-6-7.75-7.29-7.87-11.51-.09-2.86.59-5.35,1.69-6.2,1.43-1.11,1.53-2.06.47-4.4s-.92-3.53,1-5.88c1.29-1.59,2.34-3.58,2.34-4.43s5.56-3.14,13.08-5.31c7.19-2.08,13.05-3.42,13-3a18.18,18.18,0,0,1-1.83,3.9c-2.57,4.51-2.35,14.48.42,18.48,4.32,6.24,4.26,7.57-.49,10.37-3.16,1.86-4.29,3.32-4,5.23.28,2.08-.38,2.74-3.07,3s-3.42,1-3.42,3.42c0,4.64-2.78,3.73-11.31-3.72Z"
    />
    <path
            data-tip="رامسر"
            id="IR-2708"
            d="M30,17.13c-.36,3.69-.74,4-5.64,4.34C15.61,22.1,14,25.31,14,42.57c0,13.12-.27,14.79-3.31,20.38-1.82,3.35-5,7.15-7,8.44L0,73.73l3.64,1.06c.33-.27.67-.57,1-.89a22.47,22.47,0,0,0,4.82-5.52,14.46,14.46,0,0,0,1.48.86c4.38,2.2,4.46,2.3,3.12,4.18-1.9,2.68-1.12,4.12,2.69,5a8.2,8.2,0,0,1,4.88,2.53,4.73,4.73,0,0,0,3.19,1.83,5.5,5.5,0,0,1,3.28,1.72,7.31,7.31,0,0,0,1.53,1.24c2.49-4.11,6.79-13.23,6.79-15,0-3.19,7.95-20,11-23.2,1.79-1.9,6.51-4.64,10.5-6.09,7.4-2.7,11.11-6.26,16.73-16.06l2.54-4.44-5.8-2.07c-5.69-2-8.43-4.3-16.26-13.59C50.5-.22,48.49-1.48,43.78,1.76a62,62,0,0,0-5.4,4.39C32.15,11.62,30.29,14.05,30,17.13Z"
    />
    <path
            data-tip="بابل"
            id="IR-2702"
            d="M416,225.73l2.44-2.25.86,1.31c.54.83,2.41,1.88,5,2.84,3.5,1.28,4.88,1.49,9.44,1.43,1.59-4.06,3.87-7.05,8.86-11.85,4.1-4,9-7.5,10.78-7.87a17.06,17.06,0,0,0,5.81-2.55c3.58-2.69,1.21-5.95-5.93-8.13-4.26-1.3-5.91-2.51-6.47-4.75a6.67,6.67,0,0,0-4.45-4.28c-3.3-1.16-3.69-1.84-3.69-6.53s.75-6,6.34-11.7c3.48-3.56,7-6.48,7.86-6.48s3.13-1.68,5.1-3.73,4.29-3.74,5.17-3.74c3.29,0,4.14-4.35,1.59-8.18a14.16,14.16,0,0,1-2.16-8.51c.24-4.29-.35-5.41-5-9.51-5.64-5-6.44-8.26-3.37-13.64a15.91,15.91,0,0,0,1.83-6.39,7.06,7.06,0,0,1,1.78-4.72,4,4,0,0,0,1.13-3.76c-.77-3,1.66-7.55,4-7.55,1,0,1.82-.56,1.82-1.24s-2-1.25-4.4-1.25c-5.35,0-6.67-2.48-3.72-7,1.17-1.78,1.65-3.67,1.07-4.19-1.82-1.65-12.4-2.5-13.79-1.11-.92.92-2.09.9-3.9-.07-2.26-1.21-2.7-1-3.38,1.75-.83,3.28-4.41,4.18-7.88,2-1.19-.75-3.73,0-7.77,2.2-5.89,3.25-6,3.42-6,9.37,0,4.94-.71,6.84-3.76,10.32-2.27,2.59-3.73,5.63-3.73,7.79a6.24,6.24,0,0,1-2.76,5.37L402,121l4.61,3c5.13,3.33,6.68,7.82,5.43,15.75-2.26,14.31-2.34,19.68-.31,21.36,2.92,2.42,2.48,7.59-1.1,12.85-3.08,4.53-3.93,9.09-2.16,11.62a29.18,29.18,0,0,0,5,4.13c3.15,2.2,4.05,3.72,4.05,6.85,0,2.21.63,4.66,1.4,5.43,2.54,2.54,1.91,11.12-1.1,14.91a72.88,72.88,0,0,0-7.05,10.73C412,228.38,413.75,227.78,416,225.73Z"
    />
    <path
            data-tip="آمل"
            id="IR-2701"
            d="M312.15,259.94c.64,0,4.35,5.63,4.35,6.59l2.24.57v-2.42l3-.69c5.64-1.31,8.84-.94,13.41,1.55,3.64,2,4.53,2.24,7.93,2.24,4,0,8.65,1,15.23,3.12a43.82,43.82,0,0,0,8.69,1.61c.64,0,1.41.14,2.27.26q.27-.37.51-.75a9,9,0,0,1,1.43-1.7c3.67-3.67,12.31-9.53,14.51-9.53.94,0,2.42-.85,4-2.18.6-.49,1.21-1,1.83-1.63a35.24,35.24,0,0,0,6.6-8.56c1.67-3.3,3.9-6.33,5-6.73,1.22-.47,1.93-2.31,1.93-5,0-3.13,1.17-7.17,3.13-11.24a46.46,46.46,0,0,1,5.53-8.82c4.19-5.21,4.12-4.54,1.76-17.64-.46-2.58-2.4-5.3-5.57-7.85-4.34-3.48-4.85-4.49-4.85-9.47a17.71,17.71,0,0,1,3.29-10.54c3.07-4.65,3.15-5.13,1.24-7.24-2.44-2.69-2.78-14.25-.64-21.41,2.25-7.49.59-12.82-5.17-16.63s-6.18-5.89-1.84-8.73a6.34,6.34,0,0,0,3.12-5.26c0-1.77,1.68-5.34,3.73-7.93,2.94-3.71,3.74-6,3.74-10.51,0-5.13-.43-6-3.73-7.92-2.78-1.58-3.73-3-3.74-5.69,0-3-.29-3.34-1.84-2.06-1,.84-2.2,3.47-2.65,5.86s-1.72,4.66-2.83,5.07a17.76,17.76,0,0,0-4.9,3.78c-2.3,2.43-3.64,2.88-6.78,2.25-2.16-.43-4.28-1.37-4.73-2.1s-2,.61-3.45,3.13c-2.81,4.77-6.63,5.77-11.68,3.07A37.73,37.73,0,0,0,360,96.37c-3.54-1-3.59-1-2.83,3.07a22.91,22.91,0,0,1-.48,8.63c-1.17,4.24-1,4.69,2.53,7.21,3.3,2.35,3.69,3.25,3.15,7.26a14,14,0,0,0,1.06,7.6c2.48,4.47,2.19,9.56-.64,11.07-1.32.71-4.93,1.29-8,1.29-6.52,0-8.65,2.13-4.73,4.74,3.34,2.21,3.41,4.75.25,9.54-1.37,2.09-2.18,4.94-1.86,6.54s.86,4.2,1.21,5.87,4.91,7.2,10.15,12.29c6.27,6.09,9.29,9.9,8.82,11.13-1,2.55-8.08,3.71-13.37,2.19a28.66,28.66,0,0,0-18.39.68c-7.78,3.25-16.49,9.43-18.34,13-1.07,2.07-4.57,4.78-9,6.95-9.26,4.56-8.26,4.37-26.79,5.14l-15.45.66c.1.29.25.41.44.3s.56.06.56.56-.27.74-.62.52-.5,0-.24.84A3,3,0,0,1,267,226c-.94,1.44-2.41,6.36-2.28,7.64.05.46.12,1.48.16,2.26.08,1.82,2.57,3.35,5.47,3.36a8.58,8.58,0,0,1,3.56.8,26.13,26.13,0,0,0,9.78,3.38,40.54,40.54,0,0,1,6.61,1.66,11.53,11.53,0,0,0,3.54.88c1.09,0,2.52,1.11,5.67,4.43l4.22,4.43,3.88.39c3.18.32,3.87.57,3.87,1.38Z"
    />
    <path
            data-tip="تنکابن"
            id="IR-2705"
            d="M95.05,140.27c.07,1.29.13,2.82.19,4.68.36,10.44.4,10.56,4.6,13.38h0c2.32,1.57,4.56,2.84,5,2.82s2.35-5.05,4.31-11.18c1.37-4.31,3.38-9.77,5.14-14.09.73-1.81,1.43-3.43,2-4.67,4-8.41,4.4-12.67,1.73-17.35a16,16,0,0,1-1.82-6.54c0-3.41,0-3.42,8.71-3.42,8,0,17.39-2.4,17.39-4.44,0-1.81-9.12-13.11-12.54-15.55-3-2.12-3.65-3.49-3.65-7.55,0-4.41.43-5.11,3.78-6.28,3-1.06,3.49-1.66,2.33-3-.8-1-1.11-3.35-.71-5.36.5-2.53.17-3.83-1.09-4.31-2.87-1.1-2.3-6.76.73-7.23,1.62-.25-2.34-2.56-10.89-6.34A213.47,213.47,0,0,1,98.1,32.34c-4.8-3-10.74-6.62-13.2-8l-4.48-2.49-2.89,5.22C71.84,37.38,67.87,41.35,61,43.57,50,47.14,44.85,53.85,39,72.06a113.58,113.58,0,0,1-5.3,13.63l-.06.11c2.56-.25,3.17-.15,3.17.48,0,1.29,3,3.1,5.17,3.1a3.81,3.81,0,0,1,2.24.46A10.89,10.89,0,0,0,47.74,91a16.45,16.45,0,0,1,3.78,1.16c1.1.89,5.56,2.07,9.07,2.41,2.1.2,4,.71,4.56,1.24.77.71,1.68.84,4,.6,3.69-.38,5.24.43,4.27,2.24-1.44,2.69.14,6.58,3.19,7.85,1.62.67,2,1.26,2.4,4.17.11.75.66,1.17,1.68,1.29.86.1,1.51.51,1.51,1s.65.8,2.08.8a7.83,7.83,0,0,1,3.63,1c1.81,1.19,4.75,4.5,4.78,5.38s1.72,2.24,3.35,2.73a7.27,7.27,0,0,1,2.6,1.72,4,4,0,0,0,2,1.31c1.35,0,4.22,2.77,4.22,4.08a4.51,4.51,0,0,1-1.3,2.91,2.16,2.16,0,0,1-1.43.76,2.27,2.27,0,0,0-2.15,2.58c.13.72-.53,1.37-2.31,2.27l-.5.26-.21.12-.26.14-.3.18-.13.07-.36.24h0A3.2,3.2,0,0,0,95.05,140.27Z"
    />
    <path
            data-tip="چالوس"
            id="IR-2707"
            d="M167.1,185.72c4.49-2.65,8.2-2.62,13.8.13h0l4.36,2.15.38-4a16.79,16.79,0,0,0-1.62-7.86,24.55,24.55,0,0,1-1.91-9.72v-.65a84.16,84.16,0,0,0-.68-10.35c-.61-4.12,0-6.9,3.2-14.16s3.82-10,3.2-14.17c-.42-2.83-1.09-9.19-1.49-14.14l-.73-9,3.56-1.37c2-.76,7-1.17,11.13-.91l7.58.46,2-5.55c1.76-4.91,1.78-5.95.17-9.07-1-1.94-2.37-3.52-3-3.52-1.4,0-1.66-6.61-.32-8,.5-.5.92-3,.94-5.63l0-4.72-6.85-1.4c-3.77-.77-10-1.77-13.91-2.21l-7.06-.82.65,4.84c.51,3.85.11,5.32-2,7.2a8.12,8.12,0,0,0-2.61,5c0,4.46-3.48,8.18-7.66,8.18s-8.45,2.63-17.51,10.66c-8.42,7.45-12.95,9.26-23.27,9.26-4.86,0-8.82.42-8.8.93a16.52,16.52,0,0,0,1.83,4.05c3,5.26,2.24,13.06-2.31,23.46-.4.91-.81,1.88-1.22,2.87-4.21,10.13-8.77,23.46-8.12,24,1.71,1.38,18.92,8.37,23.43,9.52,4.08,1,12.36,4.83,19.09,8.49l.66.36,1.74,1,.59.33a52,52,0,0,1,5.69,3.72C163.38,187.74,163.64,187.77,167.1,185.72Z"
    />
    <path
            data-tip="نور"
            id="IR-2721"
            d="M356.45,182.67c-8-7.73-8.85-9-10.16-15.72-1.25-6.42-1.15-7.82.84-11.52,2.15-4,2.15-4.32.1-6.59a7.5,7.5,0,0,1-1.75-5.3c.36-2.56,1.24-3,7.52-3.53,9.12-.82,10.56-2.19,7.83-7.47a12.42,12.42,0,0,1-1.32-8.13c.67-3.58.28-4.44-3.13-6.87-3.65-2.6-3.84-3.12-3-7.9,1.53-8.33,1.06-10.36-3.66-15.88-2.47-2.88-4.49-6.51-4.49-8.05V82.9l-7.16,2.27c-10.9,3.46-24.38,6.28-30,6.28h-5l-3.36,8.8c-3.58,9.36-7.08,13.55-14.61,17.46-5.08,2.65-5.49,3.9-2.8,8.61,1,1.71,1.79,5.91,1.8,9.34,0,5.26-.91,7.76-6,16.19-3.33,5.47-7.38,10.69-9,11.59-2.35,1.3-10.81,1.47-41.42.83-11.58-.24-22.22-.54-29.63-.82-4-.15-7-.29-8.75-.41a12,12,0,0,1-1.66-.18c-1.07-.41-1.83.56-2.2,2.18a16.06,16.06,0,0,0,1,8.92,31.83,31.83,0,0,1,1.91,10.22v5.64h7.16c5.73,0,8.9.88,15.88,4.43,2.6,1.32,7,3.36,11.9,5.5,1.73.77,3.52,1.54,5.31,2.31,2.42,1,4.82,2.05,7.07,3,8.56,3.5,18.08,7.94,21.17,9.87h0c3.51,2.21,5.24,3,9.77,3.35,2.2.15,5.08.18,9.15.19,22.31,0,31.39-3.07,43-14.73a56.3,56.3,0,0,1,13.57-9.78c6.59-3,7.76-3.15,19.9-2.37,7.09.46,12.9.54,12.9.18S361.26,187.3,356.45,182.67Z"
    />
    <path
            data-tip="سوادکوه"
            id="IR-2710"
            d="M449.4,234.14c1.64,1.32,9.2,2.92,12.93,2.73a8.55,8.55,0,0,1,3.18.27,9,9,0,0,1,1.5,3.36c.91,3.11,1.82,3.92,5.17,4.58,2.69.52,5.26,3.79,5.26,6.71a10.61,10.61,0,0,0,2.51,6.1c.73.73,1.84,1,4.15.94a35,35,0,0,1,5.19.31c2.77.47,4.15-.4,5.82-3.71.91-1.79,1.77-2.78,2.42-2.78,1.08,0,3.46,2.19,3.46,3.18,0,.36,2.79.7,7.29.88,1.65.07,2.94.12,4,.19a8.68,8.68,0,0,1,3.21-3.47c5.32-3.15,8.46,1,16.36-2.07,5.46-2.12,4.27-4.21,10.67-6.67,4-1.52,8.4-2.26,9.88-5.06a12.5,12.5,0,0,0,1-3.64c.35-2.47-.26-3.2-3.36-4a14.51,14.51,0,0,1-6-4.08c-.25-.29-.5-.58-.71-.87-2.57-3.48-2.76-4.44-1.5-7.9,1.94-5.37,1.95-5.33-2.62-6.25-7.55-1.52-8.41-2-8.41-4.83,0-1.53-1.4-4.69-3.11-7-2.3-3.12-3.11-5.77-3.11-10.19,0-5.42.57-6.6,6.22-12.84,7.45-8.23,8.07-12,2.34-14.39a10.87,10.87,0,0,1-5.75-6.05c-1-2.44-4.9-7.73-8.62-11.75a120.81,120.81,0,0,1-8.72-10.29c-1.65-2.52-3-3-8.57-3a36.36,36.36,0,0,1-10-1.28c-2.65-1-3.84-.86-5.59.73s-4.09,1.91-9.48,1.6l-7.25-.43L466.8,138c-1.86,3.8-2.06,5.29-.93,6.85,4.88,6.75,4.82,13.06-.17,15a19.8,19.8,0,0,0-5.78,4.32c-1.66,1.78-3.81,3.24-4.78,3.24s-4.52,2.86-7.88,6.35c-7.25,7.52-8,11.44-2.42,13.37a6.62,6.62,0,0,1,4.46,4.36c.59,2.35,2,3.39,6.1,4.42,6.58,1.65,8.44,3.78,7.93,9.06-.35,3.66-1.05,4.34-6.62,6.38-7.67,2.82-15.25,10-19.45,17.7,2.58.08,3.55.49,6.56,1.94A40.69,40.69,0,0,1,449.4,234.14Z"
    />
    <path
            data-tip="نکا"
            id="IR-2720"
            d="M670.16,107.52c-1.93.12-4-.67-6.89-2.46-2.6-1.61-5.13-2.28-6.71-1.78a14.42,14.42,0,0,1-6.22,0c-3-.65-3.94-1.75-5-5.51-2-7.58-6.41-13.11-10.65-13.51-6.64-.61-9.06-1.48-12.72-4.56l-3.61-3-3.64,2.4c-4.54,3-8.3,3-15.48.21C585.88,74,580.17,68.76,578.77,60.46c-.64-3.76-2.9-7.19-9.56-14.49-10.36-11.36-13.49-16.2-13.5-20.82,0-3.92-2.46-4.53-5.6-1.39-2.56,2.56-1.52,10.2,2.31,16.88,2.29,4,2.44,5.12,1.14,8.57-1.23,3.26-1.17,4.44.32,6.57A10.68,10.68,0,0,1,553,68.61l-2.67,2.84L556.59,77a30.59,30.59,0,0,1,8.65,12c2.24,5.88,3,6.65,9.22,9.2,8.8,3.62,15.2,7.28,15.78,9,.26.76-.79,2.55-2.32,4l-2.78,2.59,2.93,3.12a9.49,9.49,0,0,0,6.44,3.12c2.72,0,4.19,1.1,6.61,4.93,3.7,5.85,5.8,7.1,18.09,10.75h0c11.76,3.49,15.93,2.63,24.9-5.12,4.95-4.27,10.1-5.82,17.89-5.33C663.69,118.65,666,111.55,670.16,107.52Z"
    />
    <path
            data-tip="بهشهر"
            id="IR-2704"
            d="M698.16,93.3l16.07-.84c2.83-.15,5.82-.23,8.71-.25a19,19,0,0,0-.31-4c-1.92-10.16-10.11-23.1-12.33-19.5-.5.81-5,1.85-10,2.32-5.71.53-9.81,1.58-11.06,2.83-1.51,1.5-4.61,2-12.67,2.06-5.87,0-13,.81-15.92,1.74C654,79.8,651,78,652.07,72.55c.89-4.44-1.82-6-10.36-6-5.37,0-6.31-.35-6.31-2.37,0-1.3-2-4.79-4.49-7.75-4.19-5-4.44-5.79-3.76-11.63.39-3.45,1.07-8.08,1.51-10.31l.8-4-9.17-.05c-5.26,0-11.29-.89-14.15-2a49.61,49.61,0,0,0-9.65-2.57c-2.57-.34-4.67-1.18-4.67-1.88s-1.92-1-5.09-.46c-3.85.61-5,.42-4.56-.78.61-1.83,8.62-2.05,24.28-.69,9.69.84,10.28.75,10.28-1.56,0-2.14-.87-2.45-6.85-2.45-7.41,0-8.9-1.54-3.43-3.53l3.43-1.25-3.12-.09a37.44,37.44,0,0,0-9,1.7c-8.08,2.45-27.25,5.66-33.79,5.66-5.11,0-5.39.18-5.19,3.43.3,5,2.25,8,12,18.65,6.63,7.27,9.13,11.08,10.59,16.11,2.35,8.08,8.59,13.88,19.22,17.86l7.34,2.74,4.24-2.62c5.59-3.46,7.09-3.33,12.67,1.11,3.54,2.81,6,3.74,9.94,3.74,3.43,0,5.9.75,7.15,2.18,2.86,3.26,6,9.82,6,12.64,0,3.4,3.23,4.93,8.86,4.17a11.8,11.8,0,0,1,8.79,1.94h0c2.91,1.85,4.5,2.21,5.62,1.28.9-.75,4.11-1,7.51-.59a73.26,73.26,0,0,0,7.5.64c.92,0,3,0,5.43,0l3.15-5Z"
    />
    <path
            data-tip="ساری"
            id="IR-2709"
            d="M646.42,189c13.23-4.32,20.52-8.78,23.33-14.29,5.21-10.22,2.85-19.57-6.09-24.13-6.57-3.35-7.63-5.6-5.29-11.24,1-2.4,1.84-6.51,2.91-11.07l-.53,0c-6.77,0-8.29.45-13.08,4.08-8.12,6.15-15.68,9.34-20.35,8.58C618.83,139.51,606,135,603,132.26a37.33,37.33,0,0,1-5.32-6.25c-2.64-4.16-5.34-4.34-9.29-.62-2.53,2.36-4.37,2.8-11.91,2.8-14.76,0-18.06-1.9-14.22-8.19,1.65-2.72,1.49-2.93-7.1-9-2.35-1.65-3.18-3.35-3.18-6.49,0-4.29-2.93-7.84-12.91-15.66-3.28-2.57-3.51-3.29-2.87-8.73.51-4.32.21-6.32-1.1-7.41-1-.82-1.79-3.61-1.79-6.19,0-3-.67-5-1.87-5.41-2.4-.92-2.4-6.13,0-10.79a13.45,13.45,0,0,0,1.08-8.65c-.46-2.87-.25-5.67.5-6.56s1-3.07.65-4.91L533,26.86l-9.84,3.63c-13.5,5-17.3,7.11-17.3,9.7a9.31,9.31,0,0,1-1.83,4.64c-2.57,3.41-2.34,10.15.5,14.13,4.89,6.86,4.4,13.92-1.08,15.66a4.78,4.78,0,0,0-2.81,4.13c-.3,2.63-1.13,3.45-3.81,3.76-3.26.37-3.42.71-3.42,7.08,0,5.5.42,6.81,2.4,7.44,1.32.42,3.54,2.69,4.93,5,2.68,4.55,9.26,9.29,12.9,9.29,2.35,0,3.17,5.48,1,6.8-.64.4-.85,2.69-.46,5.09.5,3.06.11,5-1.31,6.6-1.91,2.1-1.49,2.83,6.79,11.81,4.85,5.26,9.22,11.1,9.71,13,.57,2.16,2.59,4.34,5.5,5.91,2.54,1.37,4.92,3.48,5.31,4.69,1.23,3.84-1.81,10.21-7.58,15.87-6.73,6.61-7.45,11.74-2.48,17.65,1.72,2,3.12,5,3.12,6.63,0,3,.75,3.44,8.55,5,4.15.84,4.19.9,3.55,6.55-.44,3.92,0,6.62,1.24,8.59h0l.05.07a12.37,12.37,0,0,0,2.19,2.81c.59,0,8.26-6.58,14.22-12.22.76-.72,1.56-1.4,2.36-2.07,7.8-6.46,17.66-10.62,25.56-10.62,4,0,11.1-1.33,16.63-3.1s12.7-3.1,16.9-3.11a32,32,0,0,0,8-1,27.36,27.36,0,0,0,2.76-.84c1.26-.45,2.15-.86,2.33-.94a54.35,54.35,0,0,1,5.78-1.8l-2.54-2Z"
    />
</svg>
