<svg xmlns="http://www.w3.org/2000/svg" viewBox="0 0 372.46 303.34">

  <path data-tip="تاکستان" id="IR-1805" class="cls-1" d="M194.88,132.1c-1.81-1.7-7-10.14-7.59-12.28a4.72,4.72,0,0,1,.29-2.65,6.75,6.75,0,0,0,.63-2c0-.58-3.45-.42-9.84.45-2.89.39-5.66-.62-5.66-2.07,0-1.65-2.26-2.68-7.24-3.29-6-.73-6.14-.79-8.84-3.05s-2.91-2.26-5.64-.8-3.6,1.4-6.11-.31a5.14,5.14,0,0,1-2.42-3.1,2.62,2.62,0,0,0-1.78-2.18,5.44,5.44,0,0,1-2.39-2.16c-1.4-2.46-3.21-2.21-4.51.62a7.62,7.62,0,0,1-1.07,1.66c1.87.48,2.06.92,2.06,2.29,0,1.07-1.14,3.69-2.54,5.81-2.89,4.39-3.2,7.19-1.09,9.87a7.93,7.93,0,0,1,1.45,4.22c0,1.65.78,3.3,2.55,5.41,1.39,1.68,2.54,3.59,2.54,4.26a11.45,11.45,0,0,1-2,4.11c-1.89,2.74-2,3.35-2.12,11.86-.11,8.34-.24,9.11-1.85,10.89a21.82,21.82,0,0,0-2.77,4,57.87,57.87,0,0,1-5.51,7.32c-7.08,8.3-14.71,11-21.33,7.66-4.06-2.07-5.55-1.84-9,1.42-1.66,1.59-4.31,4.07-5.9,5.53l-2.88,2.66-5.28-.48a19,19,0,0,0-6.11.05l-1,2.21L73.41,192a9.7,9.7,0,0,0,2.74,2.51c.89.41,1.37,1.23,1.61,2.73.32,2,.49,2.17,2.62,2.51A3.85,3.85,0,0,1,83.74,202,5.27,5.27,0,0,0,87,204.46c1.36.41,2.28,1.07,2.5,1.81a20.78,20.78,0,0,0,2.23,3.79,9.44,9.44,0,0,1,1.87,4.22c0,2.3,2.22,3.61,5.81,3.44,2.74-.12,2.82-.08,4.06,2.12,1.13,2,1.48,2.25,3.38,2.25a4.33,4.33,0,0,1,2.77.8,5.88,5.88,0,0,0,3.24,1c2.2.14,2.74.42,3.69,1.9,1.38,2.14,5.18,4.63,7.06,4.63,1.56,0,4.61,1.27,7.76,3.23a13.83,13.83,0,0,0,5.79,1.66l3.72.37.46,2.75a10.7,10.7,0,0,0,1.09,3.5,2.46,2.46,0,0,0,2.32.46c4.39-.77,5.61-1.08,6.21-1.56a7.15,7.15,0,0,1,3.3-.34l2.65.17.81-3.47c.8-3.41.79-3.49-.53-5.26s-1.34-2.27-1.26-7c.07-4,.38-6,1.31-8.3.68-1.68,1.46-3.92,1.75-5,.92-3.46,4-10,4.75-10a9.6,9.6,0,0,0,2.91-1.46c1.81-1.2,2.2-1.78,2.2-3.23,0-1.74.1-1.81,4-3a27,27,0,0,0,6-2.52,55.62,55.62,0,0,1,5.57-3.06c3.88-1.85,4.76-2.94,3.28-4s-3.44-5.79-3.44-8.4a13.81,13.81,0,0,1,.83-4.39c1.09-2.61,1.1-2.58-.82-5.4a10.46,10.46,0,0,1-1.66-3.34c0-.49,1.11-2.34,2.48-4.11a20.42,20.42,0,0,0,2.49-3.66c0-.25-.94-.46-2.09-.46-3.75,0-6-3.08-3.68-5,.62-.51.78-1.24.55-2.5-.3-1.58,0-2.09,2.58-4.76a26,26,0,0,1,6-4.48,18.72,18.72,0,0,0,4.33-2.81l1.25-1.34Z"/>

  <path data-tip="البرز" id="IR-1803" class="cls-1" d="M233.16,162.2c-1.46-1.56-3.43-5.82-3.44-7.47,0-2-1.78-3.25-7.59-5.42-3.79-1.42-6.13-2.68-7.77-4.19a8.94,8.94,0,0,0-3.18-2.15c-1.26,0-1-1.92.47-3.69a32.62,32.62,0,0,0,5-10.26c1.16-4,1.81-4.53,4.55-3.84a57.45,57.45,0,0,0,7.24.93l5.13.38,2.89-2.17c1.6-1.2,3.22-2.37,3.62-2.6s2.41.12,4.54.81c3.15,1,4,1.13,4.67.54a2.31,2.31,0,0,0,.86-1.35c0-.6.87-1.57,3.73-4.18a4,4,0,0,0,1.25-2.69c0-1.87.79-2.94,3.17-4.29,1.76-1,1.81-1,3.43.2A6.15,6.15,0,0,0,264.5,112c1.44,0,2.83-.56,2.83-1.14a5.35,5.35,0,0,1,1.38-1.85,4.47,4.47,0,0,0,1.39-3c0-1.33.52-2.06,2.57-3.63a11.32,11.32,0,0,1,3.26-2,9.8,9.8,0,0,1,2.83,1.25l2.13,1.24-.28,3.7c-.22,3-.56,4-1.7,5.26a24.65,24.65,0,0,0-2.33,3,19.8,19.8,0,0,1-4.21,3.79c-2,1.38-3.53,2.94-3.85,3.86a17.54,17.54,0,0,1-3.37,4.4c-2.42,2.43-2.81,3.12-2.7,4.75a5.38,5.38,0,0,1-1.22,3.71,13.72,13.72,0,0,0-2,5.4l-.61,3.6L255,140.62c-2-2.06-4-3.74-4.45-3.74a4.87,4.87,0,0,0-2.08,1,10,10,0,0,1-3.8,1.42c-2.87.44-5.54,2.64-5.54,4.55a9.77,9.77,0,0,0,.59,2.79,15.65,15.65,0,0,1,.21,5.6c-.32,3.43-.52,4-1.28,3.71a20.09,20.09,0,0,0-3.53-.67c-2.25-.27-2.63-.17-2.63.65a5.69,5.69,0,0,0,1.39,2.61c1.42,1.69,1.7,3,.92,4.2-.33.52-.74.38-1.62-.56Z"/>

  <path data-tip="آبیک" id="IR-1801" class="cls-1" d="M316.13,169.44a5,5,0,0,0,2.11-3.45,2.29,2.29,0,0,1,1.09-2c.92-.49,1-.79.48-1.91-.91-2-.23-3.6,2.85-6.76a11.73,11.73,0,0,1,8.85-4c.66,0,1.35,0,2.09,0l1,.08c1.88.17,3.42.14,3.51-.06l0,0a1.36,1.36,0,0,0-.08-.38c-.34-1.08-2-2.51-4.3-3.57s-2.82-1.6-2.82-2.61-.32-1.29-1-1.29a5.57,5.57,0,0,1-2.58-1.22,9.23,9.23,0,0,0-3.81-1.52c-1.81-.24-2.3-.55-2.44-1.55s-.51-1.24-2.57-1.24c-1.51,0-2.5-.28-2.68-.76s-1.18-.93-2.27-1.14c-1.46-.27-2-.65-2-1.44a7.51,7.51,0,0,0-1.11-2.88,7.3,7.3,0,0,1-1.1-2.78c0-1.13-1.22-1.25-2.81-.27-1,.59-1.25.52-2.06-.5a5.5,5.5,0,0,0-2.33-1.59,12.52,12.52,0,0,1-2.85-1.44,5.89,5.89,0,0,0-2-1c-1.3,0-3.4-1.34-3.4-2.18a5.16,5.16,0,0,1,.92-2.21c.89-1.27.87-1.36-.55-2.5-1.22-1-1.48-1.62-1.48-3.78s.15-2.61,1.16-2.61a9,9,0,0,0,2.91-.77c1-.42,2.19-.92,2.74-1.1a3.41,3.41,0,0,0,1.56-2,3.57,3.57,0,0,1,1.36-1.93,1,1,0,0,0-.29-2,1.84,1.84,0,0,0-1.38.49c-.17.27-1.95.45-4,.39-3.4-.1-3.8-.25-5.31-1.94s-1.8-1.8-4.07-1.46a7,7,0,0,0-4.1,2c-1.49,1.48-1.67,2-1.67,4.94s-.2,3.49-1.86,5.36a21.9,21.9,0,0,0-2.5,3.31,8.3,8.3,0,0,1-1.7,1.75,24.57,24.57,0,0,1-2.25,1.72c-1.93,1.31-3.43,2.78-3.62,3.53a15.59,15.59,0,0,1-3.28,4.21c-2.59,2.55-2.93,3.13-2.69,4.64.21,1.3-.15,2.36-1.44,4.3a11.5,11.5,0,0,0-2.06,6.22,15.07,15.07,0,0,1-.58,3.66c-.81,0-5.44-3.76-7.15-5.8-2-2.43-2.05-2.44-3.33-1.43a9.67,9.67,0,0,1-3.79,1.39c-2.94.44-5.46,2.57-5,4.22.17.59.45,1.59.64,2.24a28.36,28.36,0,0,1-.06,5.86l-.39,4.69-2.5-.37a25.19,25.19,0,0,1-3.35-.7c-.59-.23-.46.2.41,1.37,1.23,1.67,1.28,2.37.48,7.06-.13.79.16,1.16,1,1.28,1.07.15,1.24.56,1.39,3.3l.16,3.12,2.77,1a17.74,17.74,0,0,0,3.73,1,4.79,4.79,0,0,1,2.44,1.67,4.89,4.89,0,0,0,2.63,1.67,6.21,6.21,0,0,1,4.64,2.86c3.7,5.58,6.18,9.18,8.48,12.22-.25.51-.51,1.05-.78,1.59a64.76,64.76,0,0,0,5.67,6.67c1.39,1.44,3.19,3.45,4,4.48l1.5,1.86-1.05,1.89c-1.54,2.8-2,3.76-2.3,5.16,6.36.87,12.12,1.77,13.3,2.47a11,11,0,0,1,3,2.58,17.59,17.59,0,0,0,3.31,3.17,21.89,21.89,0,0,1,4.05,4.18,15.19,15.19,0,0,0,8.08,6.29,24.92,24.92,0,0,0,3.76,1.08,26.31,26.31,0,0,0,4.71-1.43c3.8-1.41,5.28-1.75,12.42-2.87a21.78,21.78,0,0,0,8.22-2.95c1-.58,1.17-1,1.23-3.42a11.59,11.59,0,0,1,1-4.65l1-1.91-1.86-3.42-1.86-3.42.89-1.25a34.25,34.25,0,0,0,1.88-3.22c.77-1.52,1.34-2,2.53-2.29,1.7-.36,4.32-2.59,5.35-4.56a7.34,7.34,0,0,0,.67-2.89,10.19,10.19,0,0,1,.69-3.27c.65-1.54.63-1.67-.2-1.89a4.57,4.57,0,0,1-1.86-2.14c-.83-1.62-1.28-2-3-2.3s-2.06-.64-2.29-1.56c-.44-1.7.59-3.83,2.92-6s2.06-2.88-1.09-2.89a4.8,4.8,0,0,1-3.07-1.13,14.44,14.44,0,0,0-3.14-1.88c-.84-.35-7.59-1-15.7-2Zm-24.69,4.31a3.51,3.51,0,0,1,.74-.43C291.93,173.48,291.68,173.62,291.44,173.75Z"/>

  <path data-tip="قزوین" id="IR-1806" class="cls-1" d="M118.21,89.5c2.62-.21,2.65-.18,3.77,3.69,1.45,5,2.91,6.24,8.37,7.28l.57.11a8.05,8.05,0,0,0,1.76-2.4c1-2.08,1.17-2.22,3.4-2.23,2.07,0,2.5.2,3.32,1.63a5.91,5.91,0,0,0,2.36,2.24,3.68,3.68,0,0,1,1.93,2.35,6.38,6.38,0,0,0,2.37,3l1.85,1.23,2-1.08c2.83-1.52,5.24-1.4,7.12.36,2.4,2.22,4,2.83,8.81,3.41,5.37.65,7.62,1.61,7.86,3.34s2.52,2.56,5.81,1.82a34.83,34.83,0,0,1,6.25-.61c4.1,0,4.59.5,3.35,3.46-.76,1.83-.73,2.07.71,4.63,3.75,6.65,4.54,7.85,6.11,9.25,2,1.82,2.13,3.61.28,5.35l-1.39,1.3,1.21,1.29a4.2,4.2,0,0,0,2.71,1.28,2.05,2.05,0,0,1,1.82.83,5.47,5.47,0,0,0,2.31,1.78c1.83.88,2,1.1,1.65,2.77h0c-.38,2.07,0,2.19,2.77,1,1.86-.77,1.92-.89,1.92-3.83,0-2.37.29-3.36,1.31-4.59a31.81,31.81,0,0,0,4.82-9.59c1.44-5,2.56-5.65,7.15-4.47a50.85,50.85,0,0,0,6.09.83l4.15.32,3.32-2.52c3.18-2.42,3.43-2.51,6.09-2.18a9.12,9.12,0,0,1,3.29.86c1.07,1.06,3,.55,3.83-1a14.67,14.67,0,0,1,2.78-3.27c1.4-1.23,2-2.22,2-3.32,0-2,.39-2.55,2.76-4s4.1-1.49,6.09-.07c1.46,1,3.32,1,3.32,0a5.35,5.35,0,0,1,1.38-1.86,5,5,0,0,0,1-1.53A3.48,3.48,0,0,0,269,105c0-1.17.63-2,2.57-3.62a11.75,11.75,0,0,1,2.22-1.47,4.8,4.8,0,0,1,3.07-.45,9.83,9.83,0,0,1,2.72,1l2.23,1.14,2.35-1.14a13,13,0,0,1,4.7-1.13c1.93,0,2.6.29,3.74,1.66s1.77,1.66,4.15,1.66a10.89,10.89,0,0,0,3.88-.6c1.51-.81,3.63-.21,4.06,1.15.25.79.84,1.11,2,1.11s2.31.63,4.38,2.76a14.49,14.49,0,0,0,3.17,2.77,5.58,5.58,0,0,0,1.91-1.11c1.78-1.4,4.65-1.42,7.72,0,4.93,2.21,8.14,3.36,9.41,3.36,1.9,0,6.3-3,7.32-4.94.68-1.32,1.25-1.7,2.52-1.7.91,0,1.65.25,1.65.56,0,.75,2,.7,3.24-.08s3.6-.23,5.18,1.36a34.32,34.32,0,0,0,3.37,2.82c2,1.42,2.18,1.47,3.09.65a3.45,3.45,0,0,1,1.85-.88,1.15,1.15,0,0,0,1.07-.54s0,0,0,0a8.62,8.62,0,0,1,2.66-1.77c1.78-.9,2.44-1.55,2.32-2.27a2.26,2.26,0,0,1,2.14-2.58,2.19,2.19,0,0,0,1.43-.75,4.51,4.51,0,0,0,1.3-2.92c0-1.3-2.87-4.08-4.21-4.08a4,4,0,0,1-2-1.31,7.27,7.27,0,0,0-2.6-1.72c-1.63-.49-3.31-1.87-3.34-2.73s-3-4.19-4.79-5.38a7.79,7.79,0,0,0-3.63-1c-1.43,0-2.07-.25-2.07-.8s-.65-.86-1.52-1-1.57-.54-1.68-1.29c-.43-2.91-.77-3.5-2.39-4.17-3.06-1.26-4.64-5.16-3.2-7.85,1-1.81-.58-2.62-4.27-2.24-2.33.24-3.23.11-4-.6-.59-.53-2.45-1-4.55-1.24-3.51-.34-8-1.52-9.08-2.41a16.48,16.48,0,0,0-3.77-1.16,10.68,10.68,0,0,1-3.49-1.17,3.86,3.86,0,0,0-2.24-.46c-2.15,0-5.17-1.81-5.17-3.1,0-.63-.61-.73-3.18-.48l-.28,0c-2.1.21-2.95.27-3.73-.13a7.05,7.05,0,0,1-1.52-1.24,5.5,5.5,0,0,0-3.29-1.72,4.71,4.71,0,0,1-3.18-1.83,8.26,8.26,0,0,0-4.88-2.53c-3.82-.84-4.6-2.28-2.69-5,1.33-1.88,1.26-2-3.12-4.18a12.58,12.58,0,0,1-1.48-.86,22.53,22.53,0,0,1-4.83,5.53c-.36.31-.7.61-1,.88-4.72,4-5.91,4-9.62.73-1.8-1.56-3.92-2.77-4.82-2.77A7.12,7.12,0,0,1,253.14,40a16.66,16.66,0,0,0-3.85-2.39c-2.67-1-8-.86-11.34.33-2.61.93-3.36.93-6.95,0-.74-.19-1.59-.47-2.45-.77a3.18,3.18,0,0,0-.16.32,6.77,6.77,0,0,1-.7,1.27,6.93,6.93,0,0,1-9.9,1.5c-1.91-1.46.59,2.19,0,3.11s-2.26.66-3.06-.3a2.06,2.06,0,0,0-2.18-.53,3.4,3.4,0,0,1-3-.87c-1.79-1.41-2.3-1.09-2.11,1.32.11,1.24-.42,2.63-1.76,4.71-1.05,1.62-3.64-5.86-4-4.9-1.16,3.12-1.41,3.32-5,4.09a18.28,18.28,0,0,1-8.82,0c-.76-.17-2.6-.46-4.08-.64a6.06,6.06,0,0,1-4-1.73l-1.28-1.38.5,11a2.78,2.78,0,0,1-2.54,1.42c-1.58,0-2.37-1-3.46-4.57a3.64,3.64,0,0,0-1.84-1.64A38.19,38.19,0,0,1,166.13,46a23.43,23.43,0,0,0-4-2.64c-.26,0-.72.62-1,1.38-.54,1.42-2.38,1.9-3.06.8-.24-.38-.8-.29-1.67.28a6.69,6.69,0,0,1-6.33,0c-1.84-1-3.43-1-5.79.1-1.9.91-2,.9-3.32-.36s-1.73-1.25-4.58-1c-4.22.44-8.1-.64-8.35-2.32a9.07,9.07,0,0,1,1.07-3.78L130.3,36,129,35.11a15,15,0,0,1-5.52-5.6,4.9,4.9,0,0,0-3.16-2.77A15.91,15.91,0,0,1,116.74,25a6,6,0,0,0-2.07-1c-.34,0-.61-.63-.61-1.4A4.27,4.27,0,0,0,112.75,20c-7.13-6.63-7.71-7.35-10.29-12.85C100.8,3.56,99.34,1.23,98.4.61c-1.43-.94-1.52-.92-4.46,1a16.09,16.09,0,0,0-4.23,3.91c-1.2,1.94-4.82,4.69-6.17,4.69a40.55,40.55,0,0,1-5.79-2.51L76.44,7l-.23-.11a10.58,10.58,0,0,1-1.3,1.83c-1.35,1.46-1.75,2.92-2.08,7.49C72.44,21.86,71.58,24,69.76,24L65.45,26.6a5.65,5.65,0,0,0-1.09,2.71c0,2.23-2.67,6.56-5.83,9.59-3.69,3.55-5.08,6.08-5.07,9.22,0,4.62.61,5.33,8.09,9.69C71,63.3,74.71,67.35,75.88,73.29c.75,3.82,1.1,4.42,3,5.08L83.1,79c.59-.58,1.31-.57,2.67,0a16.52,16.52,0,0,0,5.44.85c2.86,0,4.05.41,6,2,2.27,1.94,13.43,7.4,15.11,7.4Z"/>

  <path data-tip="بوئین زهرا" id="IR-1804" class="cls-1" d="M161.92,259.37a6.6,6.6,0,0,1,.33-1.66c.28-.51,1-.23,2.45,1.07.76.68,1.72,1.63,2.94,2.9l1.08,1.11c5.8,5.86,9.95,8.36,13.78,8.36a16.83,16.83,0,0,0,11.11-4.51,12,12,0,0,1,3.19-2.26,17.27,17.27,0,0,1,3.8,2.44c9,6.94,9.43,7.09,21.85,8.1,8.08.66,8.78.6,10.53-.79,4.08-3.23,5.13-3.75,9.06-4.49a41.56,41.56,0,0,1,9.41-.3c1.13.11,2.06.17,2.88.19,0-.25-.06-.49-.09-.71,0-.06,0-.11,0-.17s-.05-.35-.07-.51a1.37,1.37,0,0,1,0-.19l-.06-.37v-.06l0-.15A3.91,3.91,0,0,0,254,267a.5.5,0,0,0,0-.12c0-.12-.05-.24-.08-.35l0-.1-.09-.31,0-.07a2.49,2.49,0,0,0-.11-.29l0,0c0-.09-.09-.18-.14-.27v0l-.18-.25h0a7.16,7.16,0,0,0-2.53-1.57c-1.83-.85-2.88-1.73-3.09-2.56-.43-1.73.94-6.82,2-7.36a22,22,0,0,1,4.61-.83c3.24-.34,4-.63,5.39-2.15,2.08-2.21,2-2,2.49-10.5.36-6.78.44-7.12,1.7-7.7,1.52-.69,1.69-1.28.5-1.73s-1-2.21.48-3.61a6.14,6.14,0,0,0,1.59-3.29,12,12,0,0,1,1.72-4.17,12.61,12.61,0,0,0,1.76-4.14c.05-.26.09-.5.13-.72s0-.17,0-.25c.3-1.4.76-2.36,2.3-5.16l1.05-1.89-1.5-1.86c-.82-1-2.62-3-4-4.48a64.76,64.76,0,0,1-5.67-6.67c-1.47-2-3.13-4.37-5.3-7.6-4.3-6.41-5.94-8-8.3-8a4.74,4.74,0,0,1-2.47-1.66,4.88,4.88,0,0,0-2.45-1.66,17.74,17.74,0,0,1-3.73-1l-2.76-1-.17-3.16c-.14-2.66-.33-3.16-1.21-3.16a1.68,1.68,0,0,1-1.43-1.22,5.46,5.46,0,0,0-1.65-2.21c-1.59-1.26-4.12-6.29-4.12-8.21s-1.14-2.84-7.47-5.25c-3.91-1.48-6.27-2.76-8-4.36l-2.49-2.26-.18,1.53c-.2,1.7-2.83,3.17-5.7,3.17-1.44,0-1.59-.18-1.59-1.88s-.33-2.08-1.94-3c-1.06-.62-1.94-1.4-1.94-1.71s-.67-.57-1.49-.57a5,5,0,0,1-2.94-1.4c-1.43-1.37-1.5-1.38-3.63-.5A18.18,18.18,0,0,0,186.4,143c-2.17,2.26-2.57,3-2.28,4.14a3.39,3.39,0,0,1-.82,3l-1.17,1.58,1.23.86a6.73,6.73,0,0,0,3.31.86c2,0,2.09.11,2.09,1.64a6.48,6.48,0,0,1-1.77,3.74l-2.46,2.93c-.56.69-.4,1.31.94,3.46,1.83,2.94,2,4.52.8,7.41a10.65,10.65,0,0,0-.83,3.23c0,1.81,2.54,7.26,3.56,7.66s1.1,2.75-.1,3.81a24.87,24.87,0,0,1-3.83,2.29,53.49,53.49,0,0,0-4.94,2.84,27.13,27.13,0,0,1-6.13,2.59c-3.78,1.1-4.05,1.28-4.05,2.71,0,1.83-.9,2.82-3.78,4.19-1.81.86-2.42,1.64-3.86,4.9a55.68,55.68,0,0,0-2.23,5.81c-.28,1.06-1.05,3.28-1.71,4.93a20.7,20.7,0,0,0-1.31,7.2c-.1,3.62.06,4.43,1.13,5.79,1.45,1.85,1.57,4.08.49,8.56-.42,1.71-1.06,4.61-1.43,6.44s-.92,4.44-1.23,5.81c-.55,2.47-.54,2.5,1.57,4.15.47.37,1.07.88,1.7,1.41.89.77,1.84,1.62,2.52,2.28Z"/>

  <path data-tip="آوج" id="IR-1802" class="cls-1" d="M163.39,284.31c-.07-2.56-.44-4.71-1-5.48a6.57,6.57,0,0,1-.77-3.12,4.06,4.06,0,0,0-.83-2.71c-1.16-1-1-3.14.31-5.31a6.35,6.35,0,0,0,.33-.63,6.63,6.63,0,0,0,.64-3.57,5.18,5.18,0,0,0-.38-1.89,9,9,0,0,0-2.61-2.72l-1-.79-3.79-3,.35-2.51a90,90,0,0,1,1.67-8.93c.36-1.33.24-1.47-1.62-1.77a7.74,7.74,0,0,0-3.22.13c-4.93,1.85-9.18,2.26-10.24,1a11,11,0,0,1-1.07-3.46c-.27-1.52-.76-2.69-1.1-2.62-1.36.28-7.11-1.12-8.43-2-2.15-1.51-6.64-3.34-8.18-3.34-1.91,0-4.73-1.86-6.8-4.46-1.53-1.93-2-2.18-4.1-2.18a4.42,4.42,0,0,1-3.06-.83,4.22,4.22,0,0,0-2.83-.83c-1.94,0-2.24-.21-3.29-2.28l-1.17-2.28-2.72.36c-2.29.3-3,.17-4.38-.87a3.34,3.34,0,0,1-1.66-2.76c0-.86-1-3.06-2.21-5a23.8,23.8,0,0,1-2.22-3.87c0-.24-1-.71-2.16-1a4.88,4.88,0,0,1-3.27-2.45,4,4,0,0,0-3.37-2.25c-2.1-.36-2.29-.54-2.6-2.49A3.5,3.5,0,0,0,75,195.49,8,8,0,0,1,71,190.12a3.84,3.84,0,0,1,0-1c.18-1.52,0-1.93-.91-2.17-2.26-.61-8.2-19.23-10-18.15s-1.79,1.21-1.8,4.83v3.75l-3.16,2.63c-2.47,2.05-3.6,2.62-5.13,2.62-1.89,0-2-.15-4-4.06a13.7,13.7,0,0,0-3.38-4.88,13.29,13.29,0,0,0-1.26-.93l-.34-.22a10.92,10.92,0,0,0-3-1.53c-1.6,0-3.53-1.32-3.54-2.44a3.87,3.87,0,0,0-.41-1.76c-.5-.76-3.08-1.6-5-1.73a3.72,3.72,0,0,1-.9,0h0c-1.55.12-1.68,0-1.94-2.09-.16-1.29-.29-1.82-.7-2-2.2.62-2,21-3.32,22.81-.69.94-1.63,1.71-2.07,1.71s-.82.56-.82,1.56c0,2.27-4.69,6.19-7.41,6.19-.56,0-.93.83-1.17,2.63-.68,5.06-.64,5.3,1,6.09s2,2.59.72,5.07c-.92,1.78-1.85,2.25-4.36,2.25-2.32,0-4.79,3-4.79,5.75a3.48,3.48,0,0,1-.56,2.28,6.78,6.78,0,0,0-1.42,2c-.79,1.52-.79,1.76,0,2.64,1.24,1.37,1.11,3.4-.24,3.75s-1.44,1.41-.32,2.34a1.51,1.51,0,0,0,.7.33l.46-.08a7.27,7.27,0,0,1,1.7-.82c.6-.17,1.35.19,1.92.25h.23a5,5,0,0,1,2.94.58q0,.36,0,.75a9.69,9.69,0,0,1,1,1c1.37,1.59,4.6,3.2,7.73,4a15.67,15.67,0,0,0,4,.61,10.79,10.79,0,0,1,4,.74l2.2,1.1,1.44.7a8.78,8.78,0,0,1,3.24,2.85c.89,1.51,1.39,1.8,3.08,1.8l.32,0a8.08,8.08,0,0,1,4.8,2.1,2.9,2.9,0,0,1,.75,1.12,3.44,3.44,0,0,0,2,1.67,6.36,6.36,0,0,1,2.8,2.53c1,1.72,1.43,2,3.33,2H50c1.22.07,1.68.38,2,1.23a7.68,7.68,0,0,0,.41.81,7.57,7.57,0,0,0,5.54,4,3.28,3.28,0,0,0,.43,0c2.12,0,3,.87,3,2.89,0,1.72,1.32,2.52,5.05,3,1.64.24,2.24.7,3.26,2.5,1.1,2,1.17,2.45.59,4.39-.78,2.58-.4,4.15,1.12,4.63,1.21.39,2.16,2.33,2.16,4.42,0,1.06.41,1.44,2.07,1.9a19,19,0,0,0,4.14.58c1.59,0,2.27.32,3,1.4s1.32,1.38,3.46,1.34h0c6.85-.12,13.13,1.27,15.7,3.44.14.12.28.24.4.36a5.71,5.71,0,0,0,2.51,1.76,6.14,6.14,0,0,1,1.77.57c.37.16.75.34,1.12.54a9.4,9.4,0,0,0,3,1.1,11.89,11.89,0,0,1,3.67,1.66,11.12,11.12,0,0,0,3.84,1.66,3.17,3.17,0,0,1,1.86,1.1,5,5,0,0,1,.47.56,4.44,4.44,0,0,0,1.55,1.42l.17.07a1.94,1.94,0,0,0,.76.17l.57,0a5.24,5.24,0,0,1,1.41.28c.68.25,1.07.64,1.07,1.15a.78.78,0,0,0,.77.77,4.33,4.33,0,0,1,1.89.95l.19.13h0c1.54,1.29,1.81,1.34,2.62.39l.07-.09a1.88,1.88,0,0,1,.68-.47l.08,0a3.71,3.71,0,0,1,3.56.34c.52.52.66.38.66-.62a3.09,3.09,0,0,1,0-.59c.1-.54.5-.61,1.92-.43l.69.08c3.4.45,4.49-.49,7-6,1-2.22,2.3-4.28,2.86-4.57a19.9,19.9,0,0,1,4.72-.92c.68-.07,1.23-.12,1.71-.15a4.36,4.36,0,0,1,3.57.93l.16.11,1.72,1.28,1.06-1.38a6.32,6.32,0,0,0,1.14-3C163.41,286.15,163.42,285.2,163.39,284.31Z"/>
</svg>
