<svg xmlns="http://www.w3.org/2000/svg" viewBox="0 0 875.42 1389.68">

  <path data-tip="زاهدان" id="IR-1610" d="M98.2,505.58c.5,2.26,4.63,10.61,9.2,18.54,9.54,16.62,10.36,22.59,4.23,31-2.24,3.08-5.3,7.28-6.81,9.34-2.49,3.41-2.51,4-.16,6.61,2.71,3,12.68,31.92,12.68,36.79,0,4.29,1.17,6.7,3.81,7.6a8.88,8.88,0,0,0,2.88.42,9.26,9.26,0,0,1,3.89,1.16c4.88,2.45,11.31,8.51,16,15.44,2.47,3.67,3.76,4,15.88,4,10.58,0,13.86.61,16.6,3.09a7.71,7.71,0,0,0,7.05,2.14c2.57-.67,5.25.47,9.17,3.91h0c6.76,5.94,9.27,6.1,11.71.74,1.41-3.08,3.14-4.11,6.92-4.11a13.48,13.48,0,0,0,9.34-4.29c3.65-3.65,5.24-4.14,10.67-3.27a17.76,17.76,0,0,0,11.4-1.58c5.76-3,8.28-1.72,12.35,6.14,1.32,2.55,3.17,4.64,4.1,4.64s5.55-3,10.25-6.69,13.18-9.59,18.84-13.14c8.15-5.1,10.29-7.3,10.29-10.54,0-3,2.31-5.84,8.8-10.74,4.84-3.65,10.31-6.64,12.16-6.64,3.82,0,12-9.75,12-14.3,0-1.65,2.53-5.59,5.63-8.76,12.72-13,13.81-14.67,14.9-22.59,1-7.56.8-8.24-4.9-13.94-4.59-4.59-5.86-7.08-5.45-10.67.49-4.26,1.18-4.72,7.91-5.2,11.52-.82,12.16-2,10.92-19.63-1.14-16.16.72-23.55,6.48-25.76,6.49-2.48,17.57-.89,27,3.9,11.06,5.58,10.48,6,12.5-9.86.93-7.3,2.2-10.05,6.58-14.18,5.52-5.2,11.54-7.23,21.53-7.23,6.74,0,7.12-2.24,1-6.06A115.67,115.67,0,0,1,425.11,434c-3.28-2.76-10.32-8.46-15.65-12.68a202.13,202.13,0,0,1-32.75-32.78c-4.53-5.58-12.87-15.31-18.53-21.62s-10.29-12.2-10.29-13.08c0-2.44,5-11.73,8.24-15.43,1.61-1.81,8.31-11.35,14.89-21.2,11.89-17.78,12-17.93,8.53-20.59a12.66,12.66,0,0,1-4-7.6c-.69-6.51-4.85-7.17-12.64-2-12.3,8.14-24.21,7.29-34.31-2.45a23,23,0,0,0-13.17-6.34c-8.38-1.34-25.72-10.75-30.56-16.58-1.94-2.33-2.89-6.3-2.89-12.09,0-7.23-1-10.23-6.48-18.65-16.35-25.3-22.73-31-50.12-45-10.72-5.47-15.51-6.89-27.63-8.14C184,176.33,175,173,175,169.38c0-.86-1.38-.78-3.18.19a22.94,22.94,0,0,1-8.65,1.77c-4.32,0-6.15,1.16-8.77,5.33-2.07,3.28-7.1,7.14-13.35,10.23a91.2,91.2,0,0,0-16.32,10.5,84.56,84.56,0,0,1-16.29,10.32,256.31,256.31,0,0,0-22.36,12.67l-5.9,3.77-6.45,4.12.55,11.63c.4,8.39-.46,15.24-3.09,24.6-3.16,11.22-3.53,15.55-2.74,31.92.65,13.28,2,21.89,4.46,28.82s4,16.76,5,32.11c.84,12.23,2.21,26.31,3.06,31.29s1.58,17.21,1.65,27.18c.1,15.36,3.41,41.29,5.76,45.08.38.61,1.54,7.32,2.58,14.9.16,1.21.35,2.44.55,3.68.28,1.77.6,3.55.93,5.26a81.25,81.25,0,0,0,2.62,10.78A93.4,93.4,0,0,1,98.2,505.58Z"/>

  <path data-tip="ایرانشهر" id="IR-1601" d="M460.59,924.61c3.32-5.07,2.52-6.56-4.86-9-3.16-1-5.74-2.83-5.74-4s-2.59-4.44-5.76-7.32c-7.46-6.79-8-15.65-1.45-24.21l4.31-5.66h-4.85A48.77,48.77,0,0,1,430.11,872c-4.13-1.37-18.65-3-33.5-3.8l-26.21-1.38L363.26,859c-3.92-4.34-7.14-9.53-7.14-11.55,0-19.47-27.86-50.53-55.41-61.77-15.08-6.16-19.58-10.44-21.2-20.2a70.76,70.76,0,0,0-4.06-13.68c-1.58-3.62-5.19-11.83-8-18.24s-5.17-13.95-5.17-16.76c0-5.49-5-32.1-8.71-45.94-1.24-4.67-5.32-13.66-9.08-20-5.86-9.86-7.59-11.6-12.22-12.28-4-.59-6,0-7.54,2.27-1.19,1.68-5.14,3.54-8.79,4.13-4.78.76-7.13,2.14-8.41,4.94-2.45,5.38-10.87,5.27-17.41-.23-2.74-2.31-7-4.12-9.64-4.12a10.91,10.91,0,0,1-7.61-3.34c-2.3-2.69-3.5-3-6.15-1.58-6.68,3.58-24.54-1.53-28.44-8.13a38.69,38.69,0,0,0-8.64-9.58c-2.75-2.21-5.41-3.72-7.05-3.72-.47,0-.9.36-1.28,1a14.35,14.35,0,0,0-1.42,4.63c-.27,1.56-.48,3.37-.62,5.35-.64,9,.1,21.23,2.43,28.12,2.75,8.14,2.75,8.92.08,14.51l-2.81,5.91-25.09-.51C71,677.7,67.59,678,56,681.66c-7,2.2-15.41,6.2-18.66,8.88l-5.92,4.88,4.67,3.73a12.16,12.16,0,0,1,3.45,3.62c1.55,3,2.38,7,.85,10.22-1.77,3.75-5.43,4.26-5.12,6.11.22,1.27,2,1.22,5.87,3.79,2.23,1.46,1.5,1.77,4.76,3.68,5.36,3.17,5.76,3.91,4.59,8.57a58.5,58.5,0,0,0-1,13.16c.42,11.1-1.24,12.52-14.62,12.52-10.49,0-11.43.31-14.62,4.78-1.87,2.63-3.4,5.18-3.4,5.66s17,.62,37.8.32l5.4-.09c26.68-.45,33.62-1.08,37.83-3.21,7-3.55,22.72-4.63,43.3-3l16.47,1.31-.6,28.82c-.68,33-2.37,40.08-13.25,55.59-3.71,5.28-6.73,10.08-6.73,10.66,0,3,18.07,19.31,29.49,26.67,14.74,9.49,51.2,43.49,51.2,47.73,0,3.85-8,19.52-16.1,31.4-3.68,5.41-6.36,10.37-6,11,1.54,2.48,19.2,6.38,33.06,7.3,13.06.85,51-1.15,69.31-3.66,3.86-.53,8.67-.53,10.7,0,6.22,1.61,37.93,34.65,44.48,46.36h0c2.27,4,5,.75,12.83-15.36,3.8-7.87,8.12-15.69,9.59-17.37,3.46-4,17.22-10.94,21.6-10.94,5.48,0,13.53-4,24.84-12.33,14.47-10.65,21.59-14,29.64-14,5.82,0,6.55-.36,4.87-2.4-2.34-2.82-.95-5.84,2.7-5.84,2,0,2.3-1,1.41-4.52C458,934.64,457.91,928.7,460.59,924.61Z"/>

  <path data-tip="زابل" id="IR-1610" d="M619.94,1062.2c-3.16-5.56-6.79-6.16-16.36-2.72C583.16,1066.83,581,1067,578,1061c-1.94-4-3.07-4.48-9.14-4.21-3.82.17-6.93-.39-6.93-1.24s-2.21-1.55-4.9-1.55c-3.81,0-5.48-1.13-7.52-5.07a18.52,18.52,0,0,0-8.28-7.43c-6.33-2.64-6.49-3.1-3.18-8.9,3.54-6.19,2.92-11.42-2.51-21.28-4.55-8.25-4.73-9.2-2.44-12.7,3.6-5.5,3.07-7.19-2.26-7.19-2.61,0-5.67-1.12-6.79-2.47-1.29-1.55-5.2-2.54-10.5-2.67-15.29-.35-18.14-1.57-19.85-8.46-1.38-5.56-2.05-6.16-6.94-6.16-3.81,0-6,1-7.26,3.45l-1.85,3.45L474,975.07c-2-1.9-5.47-3.46-7.68-3.46-3.7,0-4-.65-4.28-8.64-.19-6,.55-9.57,2.39-11.61,2.28-2.54,2.36-3.71.54-8.23-3.92-9.77-4-11.22-.41-16,5.12-6.93,4.4-9.46-3.89-13.48-4.08-2-7.42-4.52-7.42-5.66s-2.59-4-5.76-6.45c-7.06-5.38-7.6-11.46-1.65-18.53,2.27-2.69,4.12-5.66,4.12-6.6s1.37-2.15,3-2.68,5-3.18,7.42-5.87,5.88-4.91,7.72-4.91c4.89,0,15.8-6,17.1-9.36,1-2.45,1.68-2,4.65,2.81,1.94,3.15,7.83,10.39,13.09,16.08s11.35,13.89,13.54,18.21c5.62,11.1,13.13,18.73,17.78,18.08,5.5-.78,5.75-8,.6-17.22L530.72,884l3.68-3.07c3.61-3,14.15-7.37,15.08-6.22.26.31,3.21,5.84,6.56,12.28s8.17,13.7,10.7,16.13c6.82,6.53,29.56,19,36.74,20.16,5.09.82,6.24,1.69,6.24,4.74,0,3.37-9.72,14-12.82,14-.65,0-3.22,3.23-5.71,7.17-3.74,5.92-4.53,9-4.53,17.88,0,19.23,1.57,26.05,6.41,27.89,3.95,1.5,16.14,3.16,26.86,3.66,3.16.15,4.73,1.3,5.39,3.92.55,2.18,2.19,3.7,4,3.7,3.71,0,6,2.62,7.39,8.65l1.08,4.54,14.38-1c7.9-.53,15.34-1.27,16.52-1.64s4.15.78,6.59,2.56c3.19,2.32,8.12,3.45,17.61,4,7.24.45,13.91.87,14.82.94s-.39,1.23-2.88,2.58c-5.57,3-6.24,10.37-1.24,13.51,3.67,2.28,4.44,9.35,1.24,11.36-2.9,1.82-21,3.41-21,1.84,0-2.75-6.41-1.09-12.53,3.23-6,4.22-7.54,4.53-23.11,4.53-13.59,0-17.29.54-19.89,2.88-4.3,3.88-5.1,3.69-8.36-2Z"/>

  <path data-tip="چابهار" id="IR-1604" d="M523.27,1386.54c-6.34-1.61-14.36-3.4-17.82-4-5-.84-6.64-2-7.94-5.77-1.79-5.13-5.7-6.5-28.45-10-6.27-1-12.16-2.21-13.08-2.78s-6.92-1.62-13.31-2.33-17.92-2.39-25.62-3.73a183.35,183.35,0,0,0-24.29-2.54c-8.5-.07-10.29-.56-10.29-2.85a36,36,0,0,0-1.53-7.83c-5.44-17.89-5.59-18.89-3.37-21.57,3.68-4.43,19.24-14.08,25.49-15.81,10-2.75,12.12-14.26,4.34-23.2a64.46,64.46,0,0,1-7.39-10.64c-2.69-5.25-3.91-6-13.85-8-3.7-.75-7.54-3.66-12.35-9.39a69.82,69.82,0,0,0-15.63-13.2c-4.76-2.69-8.65-5.46-8.65-6.15s3.52-2.76,7.82-4.57,15.48-6.89,24.83-11.28c18.44-8.66,18.1-8.15,13.32-19.9-1.94-4.77-1.75-5.78,2.3-11.91,2.44-3.68,4.43-7.44,4.43-8.37s6-1.68,15.23-1.68c15.57,0,16.06-.16,27.83-8.59,4.5-3.22,16.3-4,32.92-2.1l10.94,1.24,1.16,17.49c1.61,24.26,2.27,24.9,25.61,24.9,9.68,0,21.6-.79,26.48-1.76,27.84-5.51,33.59-5.07,37.86,2.9,3.27,6.11,10.72,9.18,22.83,9.38,5.92.1,11.3.92,12,1.83,2.37,3.23,1.2,7.92-2.95,11.76-3.3,3.06-4.89,3.55-7.31,2.25-4-2.15-11.54-2.13-11.54,0,0,.92-1.85,4.61-4.11,8.2-4,6.41-4.12,7.07-4,39.07.08,17.91.66,36.26,1.29,40.79,1.91,13.84-.36,19.14-12.35,28.86-12.92,10.49-15.43,13.92-15.43,21,0,4.93-.73,5.82-6.59,8.12-3.62,1.43-6.58,3.22-6.58,4,0,2.11-9.38,1.27-22.24-2Z"/>

  <path data-tip="زهک" id="IR-1611" d="M464.32,168.33c-4.18-4.28-6.1-7.74-6.1-11a13.57,13.57,0,0,0-2.87-7.91c-2.07-2.28-3.16-7.35-3.93-18.22l-1.06-15.06,9-8.67c6.14-5.91,10.41-8.69,13.39-8.74a39.74,39.74,0,0,0,10.31-2.19c5.6-2,6.22-1.86,11.12,2.52,2.85,2.55,5.19,5.69,5.19,7s2,6.13,4.37,10.77l4.37,8.42-3.45,3.67c-1.89,2-7.75,10.45-13,18.73-8.25,13-19,26.93-20.72,26.93-.29,0-3.28-2.81-6.63-6.24Z"/>

  <path data-tip="میرجاوه" id="IR-1619" d="M416.23,619.08c-8.15-1.76-18.85-4.35-23.77-5.78-11-3.19-19.87-11.34-19.87-18.31,0-8.06-7.66-21.37-13.47-23.39L354,569.83l1.18-15,1.18-15-6.1-6.24c-3.35-3.43-5.59-7-5-8s4.31-1.8,8.22-1.8c10.27,0,11.12-1.81,10.51-22.26-.5-16.76-.35-17.69,3.36-20.7,5.49-4.44,12.31-3.92,23.55,1.8,15.42,7.83,16.47,7.33,18.67-8.86,1.61-11.82,3.82-15.4,11.88-19.31,5.68-2.74,9.39-3.35,17.06-2.8,5.4.39,10.62,1.52,11.61,2.5,2.12,2.12,2.46,7.91.81,13.71-1,3.41-.13,5.27,4.6,10.14,3.18,3.27,6.22,8.06,6.76,10.63,3.16,15.18,2.78,14.73,15.22,18,1.13.3,2.06,2.45,2.06,4.77,0,2.7,3.13,7.91,8.69,14.46,4.78,5.63,9.66,12.84,10.85,16,3.49,9.31,12.22,25.74,16.07,30.21,2,2.27,7.3,6,11.87,8.35s9.67,6.24,11.3,8.71c5.44,8.22,20.67,22,29.17,26.46l8.39,4.37-8.24,1.15c-11.88,1.67-46.68,1.61-54-.08-8.75-2-34.19-16.75-35.79-20.71-.73-1.81-2.23-5.7-3.33-8.65s-3-5.35-4.19-5.35c-2.8,0-11.78,13-14.52,21-1.61,4.72-4,7.2-10.2,10.64-9.49,5.27-10.16,5.3-29.5,1.15Z"/>

  <path data-tip="سیب و سوران" id="IR-1614" d="M710.19,1045c0-4-1-6.23-3.3-7.47-4.42-2.36-4.15-4.62.82-6.89s5.69-9,1.24-10.08c-1.59-.41-8.32-.82-15-.93-9.39-.16-13-.93-16.27-3.49-3.6-2.83-5.85-3.17-15.92-2.4-6.45.49-13.67,1.19-16,1.55-3.72.57-4.66-.22-6.86-5.84-1.74-4.43-3.56-6.5-5.72-6.5-1.81,0-4-1.84-5.12-4.3-1.54-3.38-2.84-4.14-6.07-3.52-2.26.43-4.48.19-4.93-.54s-4.32-1.29-8.6-1.23c-12.73.17-16.18-2-17.43-11.1-2.1-15.36-1.31-22.23,3.47-29.78,2.49-3.94,5.06-7.17,5.7-7.17s3.8-2.3,7-5.11c5-4.35,5.82-6.16,5.82-12.14,0-6.93-.09-7-6.6-8.09-3.64-.58-13-4.74-20.91-9.26-11.9-6.82-15.48-9.89-21.33-18.29-3.87-5.56-7.89-12.69-8.93-15.86-1.88-5.7-2-5.74-9.45-4.72-10.24,1.41-18.39,7.1-18.4,12.85,0,2.44.74,4.9,1.66,5.47,1.4.86,6.56,11.37,6.56,13.36,0,.34-1,.62-2.18.62-3.17,0-8.38-6.21-13.13-15.65-2.29-4.52-9-13.63-15-20.22s-10.85-12.63-10.85-13.41c0-1.7-12.17-15.51-24.74-28.09a153.32,153.32,0,0,1-15.5-18.55c-6.18-9.12-6.33-9.69-4.34-15.73,3.8-11.49,6.27-13.34,21.56-16.08,12.24-2.19,36.7-4.31,70.2-6.09l10.12-.53.82,6.12c1,7.86,12.76,31,21.39,42.29,11.69,15.28,28.57,29.67,38,32.44a69.52,69.52,0,0,1,13.77,5.72c4.67,2.85,5.36,4.14,5.36,10.18,0,15,9.91,26.07,23.37,26.07,3.57,0,14,4.1,28.79,11.38,22,10.78,28.43,15,23,15-2.32,0-7.69,10.88-7.69,15.59,0,1.28-4.07,7.14-9,13s-9.05,12-9,13.69c.07,5.1,6.09,16.63,9.71,18.57,2.32,1.24,3.43,3.46,3.43,6.82,0,7.27,2.49,10.79,8.45,12,3,.6,7.81,3.74,11.21,7.31,6.22,6.54,18.22,27.74,18.22,32.21,0,1.72-3,3.47-9.05,5.22-5.53,1.61-9.06,3.55-9.06,5,0,1.29-.74,2.35-1.65,2.35s-1.65-2.57-1.65-5.71Z"/>

  <path data-tip="خاش" id="IR-1605" d="M433.19,868.7c-3.35-1.23-18.07-2.89-32.72-3.68l-26.63-1.43L366.63,856c-4.75-5-7.22-9.12-7.22-12,0-7.13-6.7-20.79-15.31-31.24-11.63-14.08-24.92-24.1-40.57-30.56-15.14-6.26-19.06-10-20.74-20-.63-3.71-4.44-14.24-8.48-23.42-4.77-10.82-7.88-20.72-8.86-28.21-1.48-11.26-2.05-14.15-7.43-37.87A91.1,91.1,0,0,0,249,650.21c-3.56-6.05-6.46-11.34-6.46-11.77s1.14-1.2,2.53-1.74c1.72-.66,3.64.88,5.93,4.76,4.7,8,10.8,7.81,20.95-.54a138.69,138.69,0,0,1,15.63-10.87c10.33-5.94,14.24-9.95,14.24-14.61,0-2.73,2.5-5.45,9.08-9.88,5-3.36,10.54-6.12,12.33-6.12,3.21,0,11.46-10.81,11.59-15.2,0-1.15,3.74-6,8.24-10.85,7.42-8,8.17-8.39,8.17-4.69,0,3,1.24,4.51,4.71,5.71,5.32,1.86,13.4,16,13.4,23.49,0,5.28,5.16,12.25,11.51,15.53s37,10.39,49.75,11.55c9.28.84,11.24.45,18.48-3.65,6.25-3.55,8.59-6.05,10.27-11,2.57-7.54,8.52-17.53,10.43-17.53.74,0,2.35,3,3.57,6.77,2,6.1,3.7,7.6,17.59,15.53,19.05,10.85,23.62,11.48,72.44,9.9,31.33-1,36.49-.82,42.17,1.59,11.88,5,39.54,12.3,46.85,12.31,10.41,0,20,3.18,25.72,8.43,2.72,2.52,6.56,5.18,8.53,5.9s5.33,3.91,7.45,7.05c8.09,12,24.33,17.67,36.33,12.66a49.13,49.13,0,0,1,12.18-3l6.32-.56.82,9.06a136.37,136.37,0,0,1,.26,17.7c-.52,8-.88,8.64-4.68,8.64a17.76,17.76,0,0,0-8.5,3.11,79.21,79.21,0,0,1-10.13,5.81,167,167,0,0,0-14.59,8.32,42.73,42.73,0,0,1-17.94,6.77c-11.71,1.46-32.09-.05-41.58-3.09-15.18-4.86-32.62-8.18-37.09-7.06l-4.54,1.14L612,735c.63,8.33,1.51,16.63,2,18.43a8.7,8.7,0,0,1-1.4,6.32c-1.93,2.65-6.05,3.22-32.6,4.53-47.72,2.34-97.05,6-106.95,8-5,1-11.47,2.19-14.42,2.67-4.43.73-6.09,2.3-9.48,9-6,11.85-5.41,16.69,3.72,30.11,4.31,6.33,9.87,13,12.36,14.88,7.68,5.72,17.78,18.74,16.7,21.53-1.39,3.63-11,9.22-15.83,9.22-2.43,0-6.47,2.32-10,5.76-6.61,6.42-12.21,7.22-22.89,3.3Z"/>

  <path data-tip="هامون" id="IR-1622" d="M382.06,292.73c-1.48-1.14-2.92-4.29-3.2-7-.46-4.4-1.19-5-6.58-5.45-4.3-.36-7.91.69-12.35,3.58-5.85,3.81-10.32,5-17.4,4.52-1.58-.1-5.87-2.89-9.54-6.21-4.89-4.42-8.83-6.36-14.83-7.31-8.72-1.38-26.52-11.28-30.51-17-1.29-1.84-2.35-7.15-2.35-11.82,0-7.31-1-10-7.45-19.58l-7.45-11.11,12.36-12.17C294.82,191.32,295.32,191,303.41,191s8.32-.07,11.94-7.54c2.75-5.66,4.81-7.76,8.33-8.46,6.66-1.33,9.21-6.34,11.34-22.28,1.76-13.17,1.66-14.43-1.69-20.86-2-3.76-3.56-8.16-3.56-9.77,0-3.72,5.89-10.14,9.31-10.14,5.8,0,14.95-7,18.41-14.17,3-6.12,4.27-7.24,8.37-7.24,3.48,0,5.16,1,5.95,3.44,1.39,4.39,10.17,8.08,19.25,8.09,3.88,0,9.17,1.12,11.77,2.48,6.35,3.31,9.84,3.09,13.4-.84,4.15-4.58,12.7-4.2,22.24,1,7.16,3.89,7.88,4.83,7.92,10.3.14,17,2.9,35.18,5.68,37.21,1.67,1.23,2.86,4.26,2.86,7.3,0,3.8,1.81,7.17,6.69,12.46l6.69,7.26-4.63,7.12c-2.54,3.91-10,14.39-16.57,23.29s-11.94,16.78-11.94,17.53c0,4.46-46.61,67.57-49.91,67.57a13.83,13.83,0,0,1-3.2-2Z"/>

  <path data-tip="هیرمند" id="IR-1623" d="M495.33,93.18c-4.46-4.79-8.44-7.46-11.65-7.82-3.86-.44-5-1.45-5.37-4.89-.28-2.39-2.67-6.27-5.31-8.62-10.52-9.37-44.09-63.51-40.88-65.92.32-.24,10.58-.1,22.81.31L477.16,7l4.61,10.92c2.54,6,8.73,19.15,13.77,29.19,8.13,16.24,9.33,20,10.77,33.42,2.4,22.46.34,24.84-11,12.68Z"/>

  <path data-tip="سرباز" id="IR-1613" d="M600.67,1219.49c-.9-.3-3.74-1-6.3-1.58s-7.86-4.34-11.79-8.38c-8.31-8.55-8.36-8.56-34-4.07-10.3,1.8-25.21,3.28-33.13,3.29-19.46,0-20.35-.91-21.43-22.43-.45-8.94-.78-19-.73-22.45.06-4.55-1.08-7.42-4.32-10.79-2.75-2.87-4.4-6.43-4.4-9.49a17.84,17.84,0,0,0-2.68-8.72c-2.19-3.13-3.62-3.63-7.82-2.76-17.25,3.56-32.45,5.7-34.62,4.86a6.64,6.64,0,0,1-3.4-3.74c-.48-1.53-3-4.07-5.69-5.63-9.43-5.57-19.16-16.86-24.87-28.84l-5.73-12-6.21.77c-3.88.47-7-.06-8.39-1.42-1.2-1.2-5.53-2.68-9.63-3.3l-7.45-1.12-1.86-11.28a144.68,144.68,0,0,1-1.9-17.55,39.34,39.34,0,0,0-3.22-13.26c-1.74-3.85-2.65-7-2-7,1.81,0,9.49-13.18,12.64-21.67,1.57-4.22,4.81-9.52,7.21-11.77,5.79-5.44,16.57-11,21.27-11,5.94,0,14.45-4.17,24.86-12.18,13.19-10.15,23.39-14.91,29-13.52,3.85,1,4.3,1.73,3.42,5.74-1.19,5.42,2.32,9.28,7.27,8,1.91-.5,4.34.42,6,2.27,3.7,4.08,10,4,12.19-.17,2.73-5.11,5.86-3.91,7.54,2.87s4.55,8.1,19.85,8.46c5.29.12,9.21,1.12,10.49,2.66a7.61,7.61,0,0,0,5.1,2.47c2.47,0,2.88.89,2.13,4.62-.65,3.26.62,7.65,4.34,15,5.22,10.28,5.24,10.4,2.37,15.73-3.76,7-2.28,13.36,3.43,14.79,2.38.6,5.68,3.55,7.59,6.77,2.61,4.43,4.43,5.71,8.14,5.71,2.63,0,4.78.81,4.78,1.8s2.91,1.58,7.74,1.23c7.1-.51,7.82-.22,8.71,3.56,1.61,6.82,11.17,6.52,31.75-1,3.42-1.25,6.4-2.27,6.63-2.27s1.81,2.59,3.52,5.76c3.6,6.68,6.89,7.21,13.36,2.11,4.05-3.18,6.67-3.65,20.51-3.7,14.49,0,16.46-.45,22.69-4.56s6.95-4.28,8.44-1.65c1.38,2.41,2.15,2.54,5,.79s3.39-1.68,3.39,1a7.75,7.75,0,0,0,2.54,5.21c2.81,2.34,1.7,4.12-4.46,7.17-5.27,2.61-6,9.79-1.29,13.07,3.7,2.59,3.13,6-1,6-1.47,0-2.39,1.71-2.43,4.53-.06,4.94-5.27,12.09-10.95,15-6,3.1-11.17,2.13-16.08-3-7.92-8.26-12.35-8.05-21.66,1-4.43,4.3-10.58,8.69-13.66,9.75-4.85,1.67-6,3.23-8.85,11.61-2.68,8-3.29,14.56-3.46,37.6l-.21,27.93,5.65,3.81,5.64,3.8-5.24,2c-6.35,2.4-8.56,7.59-4.25,10,2.86,1.6,2.85,1.73-.23,2.93a15,15,0,0,1-9.8.69Z"/>

  <path data-tip="سراوان" id="IR-1612" d="M734.89,1036.81c0-3.85-6.45-17.69-12.47-26.76-5.6-8.46-14.33-15.37-19.37-15.37-3.38,0-6-5-6-11.37,0-3.3-1.11-5.58-3.29-6.75-1.81-1-4.81-4.74-6.67-8.39l-3.39-6.63,5.12-6.07c2.81-3.35,6.5-7.75,8.19-9.78a34.29,34.29,0,0,0,5-9.88c2.89-9.43,5.28-13.59,7.82-13.59,1.54,0,2.12-1.51,1.78-4.53-.47-4.05-3.07-5.8-24.4-16.45-17-8.46-25.7-11.92-30.14-11.94a28.49,28.49,0,0,1-11-2.45c-5.91-3.05-11.62-14.6-11.62-23.52,0-8.12-2.49-10.29-17.52-15.3-11.35-3.78-23.89-13.82-37-29.67-9.67-11.66-23-37-23.37-44.45l-.27-5.67,28.69-1c25.42-.91,29-1.38,31-4.12,2.31-3.08,2.27-4.76-.69-31.24-.77-6.82-.44-8.59,1.75-9.43,2.69-1,14.43,1.36,33.11,6.74,7.18,2.07,15.95,2.85,32.11,2.85,22.1,0,22.29,0,31.51-5.36,5.1-2.95,10.2-6.47,11.32-7.82a7.17,7.17,0,0,1,4.75-2.46c1.49,0,5.44-1.86,8.77-4.12,9.76-6.63,10.56-5.94,11.69,10.07.78,11.09,2.12,16.56,6.16,25.11A116.18,116.18,0,0,1,767,783.06c.6,4.53,2.48,14.54,4.16,22.23,6.89,31.63,7.08,35.17,2.48,46.68-5.5,13.75-5.5,20.3,0,22.82,5.36,2.45,4.62,6.14-2.08,10.35-2.9,1.83-5.3,3.86-5.33,4.52s3,2.79,6.86,4.73c5.76,2.94,7.78,3.24,11.94,1.77,2.76-1,8.56-1.42,12.9-1,6.08.6,11.19-.41,22.24-4.39,25.38-9.13,26.06-9.25,30.45-5.12a14.15,14.15,0,0,0,10,3.62c5.48,0,6.61.79,11.08,7.82s4.65,7.89,2,8.34c-4.37.77-12,11.64-12,17.1a34.17,34.17,0,0,0,2.48,10.67c1.9,4.55,2.1,7.34.84,11.89-2.52,9-2.12,19.42.8,20.53,4.24,1.63,2.7,4.35-2.47,4.35-4.77,0-4.94.27-4.94,7.47,0,4.1,1,9.1,2.26,11.11,1.35,2.19,2.16,7.61,2,13.53l-.25,9.88-9.83.51c-6.8.35-10.85,1.45-13.14,3.58-3,2.77-4.64,2.92-16.78,1.55-8.75-1-15-.94-17.81.13-2.38.9-9,1.64-14.82,1.64s-11,.74-11.52,1.65a4.38,4.38,0,0,1-3.39,1.64c-1.3,0-3.86,1.49-5.67,3.3s-4.87,3.3-6.8,3.3a9.54,9.54,0,0,0-6.18,3c-4,4.59-9.22,6.85-15.73,6.85-4,0-5.88-.77-5.88-2.34Z"/>

  <path data-tip="دلگان" id="IR-1607" d="M9.67,777.28h0c-.55.56-1,2.33-1.22,4.61a39.24,39.24,0,0,0-.14,5.39c.21,4.84-.67,10.28-2.11,13.07-3.47,6.7-3.08,18.12,1,28.35,3,7.55,3.3,10.81,2.4,24.36-.58,8.6-1.32,22.05-1.64,29.88S6.5,898.68,5.52,900.5s-2.69,11.72-3.8,22c-.22,2-.42,4-.59,6C1,930,.86,931.54.74,933c-2.81,37,2.39,60.06,15.05,66.27,5.7,2.8,5.78,9.05.27,19.42a32.9,32.9,0,0,0-4.12,15.8v8l11.85,5.68c11.77,5.64,11.88,5.66,15.26,2.49a19.14,19.14,0,0,1,2.34-1.8,46.76,46.76,0,0,1,7.57-4.12,58.22,58.22,0,0,0,10.68-5.93c6.12-4.7,14.38-9.87,26-16.24L95.86,1017l11.15,6c13.31,7.13,24.92,10.88,26.51,8.55.61-.89,3.87-3.7,7.25-6.23,5.46-4.1,7.25-4.55,16.27-4l10.14.58,12.54-24.13c6.9-13.27,16-29.2,20.18-35.41a149,149,0,0,0,10.91-18.86l3.29-7.59-19.81-18.76C183.39,906.79,168.84,894.58,162,890a191.45,191.45,0,0,1-22.13-17.7l-9.61-9.33,6.76-9.47c13.69-19.16,15.29-24.39,16.71-54.76.7-14.94.72-27.74.05-28.43s-11.55-1.44-24.17-1.65c-19.92-.33-23.7,0-28.7,2.76s-9.58,3.14-41.5,3.58l-6.13.08C27,775.36,10.83,776.19,9.67,777.28Z"/>

  <path data-tip="کنارک" id="IR-1617" d="M406.34,1290.48c-4.86-6.59-9.88-13.8-11.52-16.55-.91-1.52-4.95-3.5-9-4.4-5.86-1.31-9.06-3.56-16-11.22-4.77-5.27-11.15-10.76-14.17-12.2a74.49,74.49,0,0,1-11.73-7.56c-11.5-9.13-29.27-13.38-75.93-18.13-14.43-1.47-21.41.36-53.52,14-6.68,2.85-12.21,3.87-21.05,3.9-13.62.05-19.56-2-30.68-10.46-9.74-7.44-17.82-7.91-30.15-1.77-7.93,3.95-8.76,4.06-14.24,1.76-4.18-1.74-13.53-2.54-33.1-2.83-4.57-.06-8.38-.11-11.58-.12-14.44-.07-16.3.5-18.17,2.89-5.47,7-5.88,8.65-2.41,9.75,1.81.57,3.29,1.69,3.29,2.48s2.36,1.66,5.26,2c4.36.42,5.48,1.41,6.62,5.81a16.69,16.69,0,0,0,5.53,8.23c2.29,1.62,8.65,6.64,14.13,11.16l10,8.23-.75,7.83c-.51,5.29,0,8.42,1.43,9.64,3.74,3.1,4.47,12.32,1.64,20.63a37.51,37.51,0,0,0-1.44,5.11c-.45,2.35-.23,3.78.61,4.78,1,1.2,1.53,5.54,1.21,9.64-.76,9.52,1,10.13,16,5.64,6.31-1.89,16.77-4.63,23.25-6.09l11.77-2.65,11.09,8.56c12.5,9.65,16.65,10.38,34.53,6.06,10.61-2.56,32.12-3.3,32.12-1.11,0,.74,1,2.77,2.32,4.51,2.28,3.11,2.39,3.11,5.75.07,3.15-2.85,18.66-5.42,35-5.8,4.17-.1,8.61,2.79,9.85,6.41.3.9,4.07,2.69,8.37,4l7.82,2.35-1-6.09c-1.32-8.23,2-10.8,14-10.84l9.25,0v13.17l12,.93c8,.62,12.62,1.78,14,3.51a11.46,11.46,0,0,0,4.52,3.38c4,1.29,3.87.07-.66-4.81-2.36-2.54-4.29-5.18-4.29-5.87s-2.22-1.25-4.93-1.25c-4.58,0-4.94-.44-4.94-6,0-4.77,1.22-7.07,6.16-11.59,7.19-6.59,10.7-7.72,21.38-6.87,7,.56,8.3.11,11.71-4,2.12-2.51,4.78-4.57,5.92-4.57s3.39-1.45,5-3.23,6.59-4.44,11.07-5.93C407.26,1301.8,410.6,1296.26,406.34,1290.48Z"/>

  <path data-tip="نیکشهر" id="IR-1620" d="M341.63,1020.2c-14.69-17.53-31.29-33.61-35.88-34.76-2-.52-8,0-13.31,1.07-5.66,1.18-24.18,2.07-45,2.15-29.36.13-36.82-.33-43.65-2.66-4.52-1.55-9.06-2.82-10.09-2.83s-6.16,8.5-11.42,18.92C170.85,1024.7,167,1029,160.9,1026.24c-6.92-3.16-11.34-2.24-19.41,4-7,5.42-8.32,5.87-14.65,4.86-3.83-.61-12.63-4-19.55-7.52-7.34-3.73-13.17-5.79-14-4.93a62.38,62.38,0,0,1-8.08,5.25c-13.11,7.49-17.75,10.43-22.28,14.12a39.57,39.57,0,0,1-10.09,5.61,31,31,0,0,0-9.72,5.38c-2.62,2.25-4,4.54-3,6,.8,1.27,1.47,4.85,1.48,8a14.32,14.32,0,0,0,3.65,9.52c3.53,3.75,3.55,4,.72,8.76s-2.8,5.06.49,9.24c4,5.09,4.39,10.88.93,13.76a6.82,6.82,0,0,0-2.47,4.32c0,2.61-7.51,3.13-9.06.62a2.38,2.38,0,0,0-.34-.43,1.42,1.42,0,0,0-.13-.12l-.31-.25-.17-.11-.35-.2-.18-.08-.53-.19-.15,0a4.88,4.88,0,0,0-.55-.12l-.29,0-.39,0h-1.1l-.3,0c-.31,0-.63.07-.94.13l-.18,0-.52.13-.22,0-.53.16-.19.07a10.66,10.66,0,0,0-1.86.83h0a10.77,10.77,0,0,0-1.12.73l-.15.12a8.65,8.65,0,0,0-.94.87,13.41,13.41,0,0,1-7.21,3.71l-4.31.5,5.31,5.41c5.65,5.76,6.35,8.49,3.54,13.74-2.45,4.58.53,7.72,7.93,8.34a19.39,19.39,0,0,1,2.49.35c3.11.68,4.64,2.29,7.19,6.75.1.16.19.35.28.53a32.38,32.38,0,0,1,2,4.63,27.27,27.27,0,0,1,1.59,7.73c.06,4.75,1.29,7.51,5,11.24,2.83,2.83,4.94,6.68,4.94,9,0,5.28,4.41,13.71,9.09,17.4,2,1.6,4.69,6.26,5.9,10.35l2.2,7.44h22.8c13.23,0,24.21.75,26.14,1.78,2.6,1.39,5.1,1,11.31-1.64,10.25-4.41,22.75-4.48,31.2-.16,3.53,1.79,6.92,4.09,7.55,5.11s4.2,3.23,7.94,4.93c7.66,3.47,20.81,4.06,29.19,1.31,3.08-1,10.41-4.06,16.3-6.78,23.59-10.89,34.31-12,68.82-6.85,17.85,2.64,18.82,2.62,24.25-.3,9.66-5.2,9.3-8.21-2.12-17.7-8.24-6.85-7.12-6.44-32.49-11.79-18.63-3.93-20.06-4.52-25.09-10.33-2.93-3.39-5.81-7.9-6.39-10-2-7.29.75-23.09,5.15-29.54a49.54,49.54,0,0,0,5.86-12.33c1.39-5.13,3.68-7.54,13.14-13.82,6.3-4.19,11.45-7.79,11.45-8s-1.11-3-2.47-6.3c-3.34-8-3.12-13.79.61-15.79,1.7-.9,9.29-2.08,16.88-2.62,18.49-1.32,20.15-1.75,26-6.69,6.16-5.18,6.48-10.31.95-15.5-3-2.82-4.12-5.57-4.12-10.2,0-7.24,1.76-8.38,15.93-10.31C354,1036.34,354.19,1035.19,341.63,1020.2Z"/>

  <path data-tip="قصرقند" id="IR-1616" d="M341.2,1231a110.87,110.87,0,0,0-13.36-5l-9.36-2.93,4-3.15c6.57-5.17,5.36-11.31-3.82-19.42-9.48-8.37-11.11-9-34.79-14-10.31-2.18-19.67-4.74-20.8-5.68a58.63,58.63,0,0,1-6.6-8.27c-4-5.78-4.43-7.56-3.55-15a38.57,38.57,0,0,1,5.23-14.87,62.73,62.73,0,0,0,6.23-12.5c1.57-4.79,4.42-7.73,13.1-13.53,6.53-4.36,11.1-8.58,11.11-10.25s-1.2-5.88-2.68-9.58c-1.89-4.72-2.17-7.25-1-8.46,2.4-2.4,14.1-4.48,25.58-4.57,10.06-.07,14.36-1.58,20.48-7.15,5.4-4.93,5.15-15.69-.48-21-6.08-5.71-4.8-10.3,3.36-12.07,3.63-.79,10.07-2.36,14.31-3.5l7.73-2.06,2.57,6.41a39.85,39.85,0,0,1,2.56,12.23,139.82,139.82,0,0,0,1.87,17.14L364.8,1085l8,1.09c4.41.61,8,1.66,8,2.34,0,2.42,8.64,5.29,10.46,3.48,2.8-2.81,5.7-2,6.93,2,2.69,8.69,13.46,24,21.73,30.88,4.9,4.07,10.82,9.44,13.16,11.93,5,5.3,6.56,5.41,27.75,1.83,15.35-2.6,16.1-2.58,18.22.31a15,15,0,0,1,2.21,7.52c0,2.48,1.85,6.7,4.11,9.39,6.13,7.29,5.46,10.19-2.36,10.19a37.83,37.83,0,0,1-11-1.72c-2.69-1-9.09-1.27-15.86-.6-9.59.94-12.37,2-18,6.66-6.48,5.41-7,5.54-22,5.54H400.88l-4.87,7.91c-7.15,11.62-7.69,14.43-4,20.7l3.22,5.46-14.2,6.77c-32.38,15.45-35.49,16.56-39.84,14.31Z"/>

  <path data-tip="نیمروز" id="IR-1621" d="M481.27,89c-4.79-.72-5.85-1.63-6.28-5.36A13.13,13.13,0,0,0,470.55,76c-7.29-5.74-38.72-54.12-40.78-62.76l-1.9-8-11.59-1C384.32,1.36,361.51.07,341.91,0L320.3,0l-.07.35-.87,4.32a17.57,17.57,0,0,1-3,5.57C310,19.44,294.54,34.8,283.83,42a123.63,123.63,0,0,1-28.95,14.2c-3.44,1.17-6.93,2.18-10.41,3a31.58,31.58,0,0,0-4.92,1.57l-.85.38-.24.11-.78.4-.24.13c-.32.18-.65.36-1,.56l-.18.1-.84.54-.27.18-1,.71h0c-.36.26-.72.53-1.08.82l-.3.23c-.31.25-.63.5-1,.77l-.21.17q-.59.48-1.2,1l-.31.27-1,.92-.32.29c-.45.4-.9.82-1.38,1.26l-.26.25-1.27,1.19-.42.39L223.8,73,211.57,84.81q-1.19,5.77-2.36,11.56c4.08,4.29,4.41,6.53,3.89,7.79-.4,1-1.4,1.56-1.59,3.18a6.24,6.24,0,0,0,.53,3c.65,1.61,1.33,1.74,1.59,2.85s-.81,2.09-.81,3.47c-.06,8.54-5.3,11.65-22.91,13.58-28.23,3.09-33,7-33.06,26.79v11.3l3.76-.63,1.59-.26c2.94-.49,7.39-1.4,9.88-2,3.49-.87,5.17-.33,7.41,2.39,3.26,4,6.12,4.8,23.34,6.68,17,1.85,43.23,14.95,56.06,28l9,9.14,11.92-11.94c11.66-11.68,12.1-11.94,20.26-11.94s8.36-.06,12-7.53c2.75-5.67,4.81-7.76,8.32-8.46,6.27-1.26,8.87-5.75,11-19,1.58-10,1.41-11.91-1.56-18.44-1.83-4-3.33-9.7-3.33-12.64,0-5.66,5.37-13,9.53-13,5.69,0,15.17-7.34,18.42-14.27s3.65-7.14,10.7-7.14c5.65,0,7.75.76,9.1,3.28,2.61,4.88,9.47,7.7,21.2,8.71,5.76.5,11.25,1.68,12.19,2.62,1.18,1.18,3,.71,5.79-1.51,7.84-6.16,26.68-3,35.66,6,2.52,2.52,3.15,2.25,8.91-3.79,4.94-5.19,7.77-6.73,14-7.58,4.29-.59,9.43-2,11.44-3.11C486.9,89.92,486.82,89.81,481.27,89Z"/>

</svg>
