<svg xmlns="http://www.w3.org/2000/svg" viewBox="0 0 408.37 297.69">

  <path data-tip="پاکدشت" id="IR-0803" d="M180.56,188c5.1-3.64,8.78-16.2,5.54-18.91a11.89,11.89,0,0,1-2.25-3.06,34.84,34.84,0,0,0-4.44-5.68,27.36,27.36,0,0,1-3.24-4,1.37,1.37,0,0,1-.13-.2,11.75,11.75,0,0,1-.74-1.4,19.8,19.8,0,0,1-1.46-6.79c0-.28-.05-.57-.07-.87-.32-4.23-.82-8.51-1.32-11.49a16.39,16.39,0,0,0-.91-3.78,9.16,9.16,0,0,1-.54-3.38V126l-2.13.2c-2.53.24-3.5-.66-4-3.71a3.23,3.23,0,0,0-2.08-2.91c-2-1-4.68-4-4.68-5.2s-1-1.89-3.22-2.35c-1.49-.32-1.91-.76-2.37-2.45s-1.15-2.41-3.51-3.82a19.77,19.77,0,0,0-5.48-2.17c-2.91-.47-4.36-1.12-5.77-2.59a3.46,3.46,0,0,0-2.07-1.05c-1.31,0-3.1-2.21-4-4.94-.78-2.38-1.34-2.88-2.82-2.49s-5.38,5.18-5.86,7.18a7.75,7.75,0,0,1-.92,2.32c-.35.45-.07,1,.86,1.57a4.47,4.47,0,0,1,1.73,2.74c.35,1.86,2.38,3.8,5.05,4.82a5.44,5.44,0,0,1,2.31,2.51c.86,1.81,1.17,2,3.27,2a8.89,8.89,0,0,1,3.72.83c.77.45,2.73,1.45,4.35,2.23l2.94,1.4v6.07c0,3.33.25,6.31.56,6.62s.43,2.5.2,5.67l-.36,5.11-2.3.36c-1.27.2-3.19.45-4.27.55l-2.57.25c-.34,0-.91.72-1.28,1.52-.57,1.25-.47,1.77.74,3.78.77,1.28,2.14,3.84,3.06,5.69,2.19,4.43,4.26,6.54,7.65,7.83A17.24,17.24,0,0,1,153,167.1c2.62,2.64,5,4,9.5,5.47,2.5.82,3,1.17,5.66,5.05l1.07,1.61c2.64,4,4.55,6.19,6.31,7.36a14.2,14.2,0,0,1,2.71,2.11.61.61,0,0,0,.29.37C179.1,188.19,180.32,188.18,180.56,188Z"/>

  <path data-tip="دماوند" id="IR-0807" d="M288.3,80.36a21.77,21.77,0,0,0-3.76.92c-3.8,1.2-6.3.71-9.34-1.84a19,19,0,0,0-3.82-2.56A89.55,89.55,0,0,0,255.69,73c-.85-.13-1.63-.22-2.26-.26a43.07,43.07,0,0,1-8.7-1.62C238.15,69,233.52,68,229.5,68c-3.4,0-4.29-.26-7.93-2.24-4.57-2.49-7.77-2.86-13.41-1.55l-3,.69v2.41a8.15,8.15,0,0,1-.83,3.69,3,3,0,0,0-.41,2.72c0,.15.08.31.13.48a17.3,17.3,0,0,1,.55,3.9,9.18,9.18,0,0,0,.85,3.57c1.31,2.52,1.08,6.15-.53,8a7.74,7.74,0,0,0-1.54,3.55c-.18,1.93-.19,1.94-3.52,2.22-3.86.32-4.08.66-4.18,6.51,0,2.31-.37,3.87-1,4.77a27,27,0,0,0-1.59,2.46,6.8,6.8,0,0,1-2.49,2.08,7.88,7.88,0,0,0-2.71,2.32,3.7,3.7,0,0,1-2.93,1.64,6.74,6.74,0,0,0-4,2.23,10.7,10.7,0,0,1-3.22,2.37c-3.12,1-5.5,6.53-4.06,9.45a22.93,22.93,0,0,1,1,4.22c.42,2.38.85,5.43,1.18,8.49.21,2,.93,3.27,2.27,3.74s3.73.11,7-1.21c.76-.31,1.57-.67,2.45-1.09a31.76,31.76,0,0,0,5.58-3.08c.2-.34,1.65-.61,3.2-.61h.54l.53,0a5.3,5.3,0,0,1,3.37,1.31,9,9,0,0,0,2.83,1.45,8.4,8.4,0,0,0,1.17.3c3.64.6,4.94,1.51,6.87,4.82,1.5,2.54,2.08,3.06,3.7,3.3a2.87,2.87,0,0,1,2.48,1.54c.31.69.76,1.26,1,1.26.94,0,4.89-2.29,4.89-2.84,0-1.17,21.09.85,26.8,2.57,5.21,1.57,5.36,1.91,4.9,11.13-.22,4.36-.63,8.17-.91,8.46-.74.77-.63,1.57.14,1.09.46-.28.54-.08.25.65s-.22.88,0,.65,1-.05,1.63.39a8.07,8.07,0,0,0,2.84,1,6.15,6.15,0,0,0,4-1,7.12,7.12,0,0,0,1.49-1.26c.87-.95,1.11-2.59,1.49-10,.48-9.44,1.61-14.06,4-16.18,1.93-1.75,3.22-4.32,4.48-9,1-3.78,1.65-4.92,4-7.38,1.85-2,2.74-3.4,2.74-4.38,0-2.1-2.66-7.45-3.89-7.84a17.44,17.44,0,0,1-3.34-2c-2.12-1.53-2.3-1.87-2.3-4.24,0-3.61,1.39-6.14,4.71-8.59a29,29,0,0,0,3.65-3.07c.63-.76,1.63-.93,4.89-.84,5.12.13,5.82-.37,5.82-4.15a10.55,10.55,0,0,1,1.68-5.81,13.49,13.49,0,0,0,1.68-4.13C294.36,85.71,289.54,80.36,288.3,80.36Z"/>

  <path data-tip="تهران" id="IR-0806" d="M184,85.81c-.32-3.27-3.74-7.6-8.25-10.43-2-1.24-3.61-2.52-3.61-2.84s-.48-.58-1.06-.58a1.5,1.5,0,0,1-1.36-.78c-.21-.54-1.58-.85-4.41-1-3.67-.19-4.76-.55-10.27-3.36-7.6-3.88-11.64-4.95-18.69-5A41.54,41.54,0,0,1,120.81,59c-4.52-1.64-8.49-1.28-15.4,1.42-5,1.95-5.55,2-9.4,1.69-2.77-.26-4.24-.56-5-1.44-.45-.52-.94-1.43-.77-3.68.42-5.67,3.93-6.42,5-12.27.47-2.49.11-3.81,1.33-5.83,1-1.69,2-2,2.33-3.5.42-1.81-.69-2.24-.83-4.84a12.78,12.78,0,0,1,.38-3.51c.21-.93.34-1.56,0-1.82s-.93.42-1.83.17-1-1.38-2.67-3.13c-.34-.36-.6-.9-1.12-1.06s-1.12-.61-1.12-.91-.78-.4-1.84-.2c-1.23.23-6.59-6.63-8.77-7.45-3.49-1.3.58-1.27,1.15-2.2.22-.36-.12-.42-.91-.16s-1.15.21-.84-.28.07-.58-.85-.28a18.68,18.68,0,0,1-2.17.55c-.5.09-.85.42-.78.75a12.62,12.62,0,0,1-1.26,3.57,4.13,4.13,0,0,1-.31.5c-2.2,3.2-14.34,17.48-14.35,18.11A5.59,5.59,0,0,1,59.46,36a9.67,9.67,0,0,0-1.68,3.09C57.32,41,56,42.4,54.57,42.4a7.73,7.73,0,0,0-3.27,2c-1.2,1.08-2.5,1.9-2.88,1.82s-.74.35-.8,1c-.18,1.76-.89,3.65-1.38,3.65-.24,0-.32.66-.16,1.48s.06,1.35-.22,1.18-.42,1.09-.31,2.86.25,6.11.33,9.71c.14,6.4,3.85,13.14,5.4,14.47,1.31,1.12,1.65,2,2,5.07a33.2,33.2,0,0,0,1.73,7c1.28,3.21,1.31,3.24,4.09,3.67a15.18,15.18,0,0,1,3.84,1c.8.46.94.44.61-.09s-.15-.59.5-.35.87.1.79-.32.59-.76,1.5-.87c2.17-.25,5.48.4,5.11,1-.16.26.15.36.71.21a3.09,3.09,0,0,1,2.38,1.12c4.5,4.5,5,5.2,4.75,6.53-.15.75-.08,1.5.15,1.67.87.65,2.35,4.08,2,4.64-.21.36-.1.44.29.2s.8,0,1,.52a3.21,3.21,0,0,0,1.71,1.43c.86.33,1.21.78,1,1.22s-.2.52,0,.29.79-.14,1.2.19c.82.68,6.17.16,6.67-.65a25.38,25.38,0,0,1,4.2-2.54c3-1.58,4.19-2.57,5.17-4.34s1.67-2.38,3.51-2.76a14.12,14.12,0,0,0,4.34-1.92c1.84-1.27,2.45-1.4,4.94-1.07s3,.23,3.89-.91a8,8,0,0,0,1.38-3A13.32,13.32,0,0,1,123.53,93c2.31-2.65,2.56-2.78,5.81-3l3.39-.25,1,2.55c.53,1.4.78,2.85.54,3.23s-.19.55.15.34,1,.14,1.57.75a3.35,3.35,0,0,0,1.94,1.11,4.2,4.2,0,0,1,2.23,1.38,8.32,8.32,0,0,0,4.45,2c4.17.8,5.83,1.53,5.33,2.33-.24.4-.15.49.25.24,1.51-.93,5.14,2.58,5.14,5,0,.42.82.94,1.82,1.16,2.19.46,3.23,1.22,3.23,2.35s2.7,4.24,4.68,5.2a3.22,3.22,0,0,1,2.07,2.82,9.84,9.84,0,0,0,.74,2.66h0c.62,1,.95.87,3-1.11a4.69,4.69,0,0,0,1.87-4.06,9.4,9.4,0,0,1,.79-3.67c.54-1,.68-2.55.47-5.35l-.3-4,2.33-3a17.08,17.08,0,0,0,2.62-4.45c.87-4.16,1.47-5.48,3-6.63.93-.69,1.7-1.64,1.7-2.11s.19-.74.43-.59S184.1,87.08,184,85.81Z"/>

  <path data-tip="بهارستان" id="IR-0802" d="M53.26,143.3a11.36,11.36,0,0,0-1.7-5.37,13.24,13.24,0,0,1-1.68-4.23,5.61,5.61,0,0,0-.54-2.26c-.91-1.71.31-4.66,2.5-6.08,1.09-.7,2-1.73,2-2.31,0-3.91,7.76-1.56,7.84,2.38a6,6,0,0,0,1.42,2.7c2.58,3.07,2.37,5.77-.46,6.18-.9.12-1.37.75-1.76,2.33a6.37,6.37,0,0,1-2.52,3.65,11.1,11.1,0,0,0-2.19,1.94,14.66,14.66,0,0,1-1.53,2l-1.32,1.51,0-2.4Z"/>

  <path data-tip="قرچک" id="IR-0813" d="M140.8,162.59a16.78,16.78,0,0,1-2.77-4.28,31.63,31.63,0,0,0-2.52-4.64,21,21,0,0,1-1.68-2.81c-.17-.48-.55-.4-1.34.3a4.2,4.2,0,0,1-2.36,1c-1.56,0-3.43,1-3.43,1.76,0,1-2.28,3.85-3.1,3.85-.43,0-1.94,1.13-3.36,2.51s-2.88,2.45-3.25,2.38-.59.2-.51.6a3.73,3.73,0,0,1-.54,2c-.79,1.44-1,4.89-.36,4.89.26,0,.47.73.47,1.62,0,1.78.79,2.3,3.48,2.3a16.45,16.45,0,0,1,3.88.65c1.84.55,2.32.51,3.19-.28,1.19-1.07,4.09-1.16,6.65-.2,1.67.63,5.79,4.94,5.79,6h0a.5.5,0,0,0,.49.51c.83,0,1.17-2.26,1.18-7.74,0-3.65.28-5.73.9-6.93C142.48,164.39,142.46,164.31,140.8,162.59Z"/>

  <path data-tip="پردیس" id="IR-0804" d="M203,66.77c0-1-3.71-6.59-4.35-6.59a3.89,3.89,0,0,0-1.32.9,4.56,4.56,0,0,1-2.38,1c-.76,0-1.29.18-1.17.3s-.39.68-1.13,1.26A5.52,5.52,0,0,0,191.47,65a5,5,0,0,0-.56,1.31,4.86,4.86,0,0,1-1.16,2.31c-.5.42-.81,1.71-.81,3.43a11.8,11.8,0,0,1-.9,4.51c-.5,1-1.24,4.66-1.65,8.21-.73,6.28-.81,6.52-2.71,8.26a6.68,6.68,0,0,0-2.3,4,15.69,15.69,0,0,1-3.6,7.34c-1.28,1.63-1.41,2.21-1.25,6,.12,3-.08,4.65-.75,5.94l-.91,1.77,1.68-.87a6.63,6.63,0,0,0,2.13-1.6,6.74,6.74,0,0,1,4.76-2.63,2.32,2.32,0,0,0,2.28-1.42,7,7,0,0,1,2.68-2.38,6.38,6.38,0,0,0,2.52-2.17,13.66,13.66,0,0,1,1.41-2.19c.45-.54,1-2.78,1.18-5,.58-6.44.42-6.18,4.18-6.5L201,93l.18-2a6.33,6.33,0,0,1,1.18-3.09c1.67-1.87,1.8-2.42,1-4.05a11.35,11.35,0,0,1-.86-3.94,15.05,15.05,0,0,0-.93-4.42,6.68,6.68,0,0,1-.7-3.91,6.17,6.17,0,0,1,1-2.18A6.62,6.62,0,0,0,203,66.77Z"/>

  <path data-tip="شمیرانات" id="IR-0810" d="M194,55.42,190.16,55l-4.22-4.43c-3.15-3.32-4.58-4.44-5.67-4.44a11.48,11.48,0,0,1-3.54-.87,41.44,41.44,0,0,0-6.61-1.67,26.19,26.19,0,0,1-9.78-3.37,8.72,8.72,0,0,0-3.55-.81c-2.91,0-5.4-1.53-5.48-3.35,0-.78-.11-1.8-.15-2.26-.14-1.28,1.33-6.2,2.27-7.64a3.07,3.07,0,0,0,.45-2.5c-.26-.82-.18-1.09.24-.83s.62,0,.62-.53-.25-.75-.56-.56-.34,0-.44-.29a3,3,0,0,1-.12-.95,6,6,0,0,0-.53-2c-4.53-.31-6.25-1.14-9.77-3.35h0c-3.08-1.93-12.61-6.37-21.17-9.87-2.25-.92-4.65-1.93-7.07-3l-2.65-1.15c-.89-.38-1.79-.77-2.66-1.16.07.69.08,1.41.09,2.29,0,3.86-.08,4.17-1.93,6.22-2.87,3.18-5.18,8.28-6.75,14.93-.41,1.74-.72,3.15-.94,4.32-.62,3.34-.45,4.62.4,5.76,1.28,1.69,1,3.18-1,4.8-1.57,1.31-1.83,1.94-2.17,5.24s-.75,4.28-2.74,7.11q-6.18,8.82,1.14,9.7c2.48.29,3.62.05,8-1.68a26.73,26.73,0,0,1,9.88-2.28c4.28-.24,5.31-.08,10.1,1.54,4.58,1.55,6.46,1.87,13.45,2.23,9.62.51,12.16,1.17,19.38,5,4,2.17,6.24,3,8.59,3.22a18.77,18.77,0,0,1,5.4,1.42c4.57,2.26,10.18,6,11.4,7.69h0c.69.94,1.56,1.7,1.94,1.7.93,0,3.2-6.69,3.2-9.43a4.49,4.49,0,0,1,.81-2.88,4.87,4.87,0,0,0,1.16-2.3,3.41,3.41,0,0,1,.21-.61c.68-1.51,2.55-3.28,3.62-3.28s4.86-3,4.86-4C197.91,56,197.22,55.74,194,55.42Z"/>

  <path data-tip="قدس" id="IR-0812" d="M52.06,92.65A24,24,0,0,1,51,87.08c0-1.69-.46-2.68-2.1-4.58l-2.1-2.41L43.71,74.2C40,80,35,87.14,31.32,92.61c1.24.19,3.43.38,6.73.66,5,.41,5.84.28,7.92.87,1.69.48,4,1.08,5,1.34S53,96,53,96,52.65,94.53,52.06,92.65Z"/>

  <path data-tip="رباط‌کریم" id="IR-0808" d="M49,139.64a16.12,16.12,0,0,1-2-5,2.49,2.49,0,0,0-.56-1.81c-.3-.19-.56-1.46-.56-2.82,0-1.81-.27-2.62-1-3s-1.17-.29-1.68.54c-.83,1.32-4.13,1.48-5.16.24a4.17,4.17,0,0,0-2.76-.84,4.94,4.94,0,0,1-2.67-.61,1,1,0,0,0-.84-.32c.25,2-.15,3.66-1.2,4.53A17.08,17.08,0,0,0,27.84,134a.35.35,0,0,1-.05.08c-.83,1.32,7.16,5.78,5.58,6.86-3.46,2.38-8.24,10.53-8.27,14.11,0,1.44-.52,2.7-1.18,3a3.42,3.42,0,0,0-1.27,1.87c.2-.09.36-.33.52-.73a2,2,0,0,1,2.81-.44c.59.6,7.05.65,7.42.07.74-1.2,4.82-3.27,6.44-3.27a4.7,4.7,0,0,0,3.23-1.45c2.4-2.34,6.83-5.84,7.4-5.84.29,0,.53-1.13.53-2.51C51,143.91,50.45,142.22,49,139.64Z"/>

  <path data-tip="شهریار" id="IR-0811" d="M59.19,116.31A10.89,10.89,0,0,0,57.45,112c-1.24-1.62-1.4-2.39-1.4-6.56,0-3.78-.2-4.89-1-5.6-1.4-1.26-17.63-4.38-24.94-5.22a19.13,19.13,0,0,0-3.12-.2c-1.91.16-2.19.42-3.75,3.54-1.38,2.75-2,3.47-3.64,4-2.43.78-3.86,3.37-3.9,7.06v.17c0,.51-.05,1-.11,1.43h0c0,.13,0,.27-.06.39v0a2.46,2.46,0,0,1-.07.29.29.29,0,0,1,0,.09l-.06.19a.54.54,0,0,1-.05.11.45.45,0,0,1-.13.2,5.16,5.16,0,0,0-.83,2.44,7.59,7.59,0,0,1-1.47,3.35,3.38,3.38,0,0,0-.31.37c-1.21,1.66-.25,3.34,2.53,4.26a27,27,0,0,0,3.44.61c.63.09,1.31.17,2,.25,3.77.44,8.1.75,8.6.44a4.89,4.89,0,0,1,1.89-.58c1.47-.18,3.11.07,3.65.73a5.6,5.6,0,0,0,3,1c1.28.12,2.64.25,3,.31a1.14,1.14,0,0,0,1-.46c.45-.73,4.59-.73,5,0s4.77-2.77,4.77-4c0-1.69,1.47-2.34,4.8-2.14l3.16.2Z"/>

  <path data-tip="ری" id="IR-0809" d="M42.17,199.24c-.84,2.14-1,2.25-3.32,2.25-3.05,0-5.2,1.37-8.72,5.54-2.21,2.63-2.49,3.21-1.75,3.63a4.53,4.53,0,0,0,3.07-.23,6,6,0,0,1,4.13-.12c1.5.46,2.06.44,2.38-.1.69-1.16,2.74-2,4.9-2,1.13,0,4.83,1.15,8.31,2.58,11.08,4.54,11.15,4.55,17.43,3,1.91-.47,5.06-.55,10.27-.27,7.38.39,7.57.44,9.95,2.25a25.88,25.88,0,0,0,6,3.1c4.17,1.47,5.53,2.77,5.53,5.29,0,2,2.12,4.78,3.61,4.78a6.11,6.11,0,0,1,2.64,2,6.71,6.71,0,0,0,2.48,2,7.27,7.27,0,0,1,2.6,1.82c1,1,2.46,2.26,3.14,2.8a3.39,3.39,0,0,1,1.23,2.28c0,1.39,1.59,3.14,3.93,4.33,1.49.76,7.55,6,11.41,9.89,2.77,2.78,3.23,2.94,2.58.88a55.5,55.5,0,0,1-1.1-5.74,26.79,26.79,0,0,0-1.43-5.8,10,10,0,0,1-.81-3.83,7.06,7.06,0,0,0-1.17-3.9,12.49,12.49,0,0,1-1.59-4.57,21,21,0,0,0-3-7.8,41.39,41.39,0,0,0-3.18-4.52c-2.39-3-2.79-3.8-2.79-5.92a7.43,7.43,0,0,0-1-3.95,10.46,10.46,0,0,1-1.39-3c-.26-1-1-1.73-2.61-2.38-2.07-.82-2.24-1.06-2.24-3a5,5,0,0,1,.64-2.78c1.12-1.12,1.3-8.65.26-10.66-1.21-2.35-1.14-4.4.33-9.4,1-3.56,1.13-4.47.56-6a11.94,11.94,0,0,1,.24-8.4c1-2.05,6.84-7.68,7.9-7.68.39,0,1.4-1.08,2.25-2.39,1.87-2.89,2.28-3.2,4.11-3.21,1.47,0,3.44-1.8,6.28-5.69,1.43-1.95,1.64-2,5.91-2.41l4.43-.39-.14-3.75c-.08-2.06-.17-6.35-.2-9.52l0-5.77-2.38-1.09c-1.31-.61-3.27-1.61-4.34-2.23a10.06,10.06,0,0,0-4.24-1.13c-2.07,0-2.38-.19-3.23-2a5.46,5.46,0,0,0-2.36-2.51c-2.72-1-4.74-3-5.09-4.86-.68-3.6-7.07-5.87-10.23-3.62a12.12,12.12,0,0,1-3.82,1.63c-1.74.36-2.41.89-3.41,2.71s-2.14,2.73-4.91,4.17c-3.31,1.74-3.65,2.08-3.65,3.67a6,6,0,0,0,1.12,3.18,6,6,0,0,1,1.12,3.15c0,1.41-.28,1.79-1.54,2.1-1.53.37-2.84,1.34-8.27,6.14-4.66,4.12-5,4.43-6.83,6.58-1.41,1.64-2.17,2.06-3.72,2.06-1.78,0-2,.17-2.32,2A4.52,4.52,0,0,1,74.52,145c-.76.47-1.09,1.31-1.09,2.69A4.16,4.16,0,0,1,72,151c-1.16,1.09-1.4,1.84-1.4,4.34,0,3.43-.27,4.06-3.73,8.61-2.07,2.72-2.39,3.46-1.9,4.38a5,5,0,0,1-.54,5.38,6.57,6.57,0,0,0-1.11,2.71,8.6,8.6,0,0,1-2,3.34A10.24,10.24,0,0,0,59,184.29c-.36,2.28-1.69,3.83-7.88,9.26-3.69,3.23-4,3.43-6.23,3.44l-.47,0C43.21,197.07,42.87,197.46,42.17,199.24Z"/>

  <path data-tip="ورامین" id="IR-0816" d="M203.52,291c0-4,.09-4.24,1.54-5,.85-.46,1.23-.85.84-.86-1.05,0-.85-3.27.42-6.62a19.71,19.71,0,0,0,1.13-7.18,33.59,33.59,0,0,1,.67-6.8c.32-1.44.71-2.32,1.07-2.1s.34-.06.17-.51a4.11,4.11,0,0,1,.57-2.52c.55-1.07.67-1.83.32-2.05s-.57-1.91-.58-3.82c0-4.05-.66-5.43-3.34-7.23-1.72-1.15-2-1.69-2.25-4.16a6.15,6.15,0,0,0-2.44-4.86c-1.18-1.11-2-2.24-1.84-2.52s0-.49-.37-.5c-1.07,0-6-3.58-5.72-4.11a.64.64,0,0,0-.3-.84,1.35,1.35,0,0,1-.25-1.44c.19-.6.09-1.08-.21-1.08s-1.14-1.52-1.86-3.38a19.71,19.71,0,0,0-4-6.18c-1.46-1.54-2.66-3.14-2.66-3.55a5.19,5.19,0,0,0-1.12-2.18,5.34,5.34,0,0,1-1.13-2,7.62,7.62,0,0,0-1.68-2.51,7.39,7.39,0,0,1-1.68-2.61c0-1.06-6.27-.36-9.67.88a8.21,8.21,0,0,0-1.31.58,10.91,10.91,0,0,1-3,1.34,6.43,6.43,0,0,0-2.3,1.2,4.44,4.44,0,0,1-3.94.89,7.54,7.54,0,0,1-3.35-1.23,7.35,7.35,0,0,0-2.58-1.34c-2.08-.56-3.88-4-3.83-7.37,0-1.92.55-9.15.89-12.29a1.6,1.6,0,0,0-1.22-2c-1.9-.61-2.8-2-2.8-4.2,0-1.89.33-2.43,2.81-4.51,4-3.37,4.32-4.12,2.52-6.48a12.76,12.76,0,0,0-3.63-3c-1.89-1-2.2-1-2.49-.24-.18.47-.53.74-.77.59-.57-.35-.65.23-1.15,8-.48,7.52-1.23,9.53-3.54,9.53-1.26,0-1.81-.43-2.68-2.1-2.53-4.84-6.46-7.52-8.3-5.68-.61.61-4.15.47-10-.4l-2.32-.33-1.09,3.55c-.94,3.08-1,3.77-.34,5.08.79,1.61,1.09,13.06.33,12.59-.24-.14-.44.6-.47,1.65s.23,1.91.63,1.91c1.1,0,3.62,2.25,3.63,3.26a5.23,5.23,0,0,0,1.11,2.34,6.67,6.67,0,0,1,1.11,4.25c0,2.31.28,3.1,1.43,4.18.78.73,1.29,1.67,1.13,2.09s-.08.62.18.46c1-.61,3.19,2.67,4.72,6.28a19.44,19.44,0,0,1,1.63,5.88c.1,1.71.41,3,.69,2.79s.35.11.15.65-.18.84.05.7.89.08,1.47.51c.85.62,1,1.23.73,3.14a4.7,4.7,0,0,0,.9,4.07c1,1.34,1.23,2.62,1.33,6a19.18,19.18,0,0,0,.71,5.44,9.7,9.7,0,0,1,.6,3.53V259l4.34,1.62c2.39.88,5.52,2,7,2.52a7.55,7.55,0,0,1,3.65,2.48c.59.9,2.71,2.38,5,3.49,3.69,1.81,4.07,1.88,6.32,1.25,2-.56,2.68-.52,4.21.27a12.89,12.89,0,0,0,2.89,1.1c.6.09,1.75,1.31,2.56,2.69,1.2,2.07,1.87,2.61,3.68,3,4.48,1,4.73,1.2,4.73,4.18a5.5,5.5,0,0,0,1.67,4.58c.91,1,1.5,2.12,1.31,2.43s-.07.39.32.15,1.61.32,2.61,1.07,1.84,1.69,1.59,2.1-.12.45.24.22,1.58.47,2.75,1.52l.79.68c.47.4.9.73,1.31,1a6.87,6.87,0,0,0,4.51,1.48c1.2,0,1.89.23,1.69.56h0c-.47.76,1.44,0,2.66-1,.69-.59.93-1.51,1-4.12,0-.34,0-.7,0-1.1Z"/>

  <path data-tip="اسلامشهر" id="IR-0801" d="M2.27,212.82l.43.44c1.56,1.59,1.82,2.24,1.64,3.74h0c-.17,1.45,0,1.83.56,1.61a9.9,9.9,0,0,1,2.68-.3c1.61,0,2.15-.36,3.42-2.28,1.76-2.67,3.18-3.49,7.76-4.5,2.88-.64,3.81-1.19,6.49-3.85,1.72-1.71,3.62-3.74,4.22-4.51a9.11,9.11,0,0,1,7.12-3.93c2.35,0,2.5-.1,3.35-2.24.12-.32.23-.58.34-.82.57-1.25,1-1.42,2.47-1.42,1.91,0,3-.63,7.13-4.2,4.67-4,6.56-6.31,6.89-8.39a11.92,11.92,0,0,1,2.33-4.52,9.22,9.22,0,0,0,2-3.35,5.58,5.58,0,0,1,.68-2.15,9.84,9.84,0,0,0,.52-4.14c-.18-3,.6-4.57,4-8.3,1.53-1.65,2-3.36,2-6.68,0-2.25.27-3.2,1.12-4A4,4,0,0,0,70.63,146c0-1.52.33-2.3,1.22-2.9a6,6,0,0,0,1.82-3.29c.6-2.46.62-2.48,3-2.48,2.24,0,2.57-.2,4.4-2.66A9.82,9.82,0,0,1,83.56,132a37.48,37.48,0,0,0,5.13-4.19c2.56-2.31,5.12-4.21,5.69-4.21.78,0,.93-.25.61-1a13.71,13.71,0,0,1-.68-3.12l-.26-2.13-4.28.37c-4.11.35-4.34.31-5.64-1.09a4.73,4.73,0,0,0-2-1.46c-1.08,0-4.3-5.5-4.62-7.9A5,5,0,0,0,76,104a12.44,12.44,0,0,1-2.21-2.48,10.07,10.07,0,0,0-3.44-2.7c-2.32-1.12-2.51-1.14-3.9-.23-1.12.74-2.17.88-4.65.62l-3.21-.33v4.6c0,3.93.19,4.87,1.32,6.45a10,10,0,0,1,1.58,5.33,25.12,25.12,0,0,0,4.26,11.2,9.14,9.14,0,0,1,1.53,7.69c-.49,1.84-.85,2.25-2,2.25-1.46,0-2.52,1.41-2.52,3.33,0,.72-.84,1.76-2.18,2.7a12.35,12.35,0,0,0-3.14,3.29,12.63,12.63,0,0,1-3.19,3.37,96.88,96.88,0,0,0-9,7.17,4.68,4.68,0,0,1-3.25,1.45c-1.12,0-3,.82-5.22,2.24-3.41,2.22-3.52,2.24-8.77,2.24a35,35,0,0,0-6.15.48,33.24,33.24,0,0,1-1.38,4.39,16.65,16.65,0,0,0-1.07,5.35c0,1.53-.35,3-.78,3.26s-7.46,1.24-9.59,5.08a18.2,18.2,0,0,0-.5,2.93c0,.19,0,.37,0,.55.42,8.43.39,10.57-3.64,11.1a2.44,2.44,0,0,1,0,.27c0,.6-.06,1.25-.1,2-.37,7.91-.88,9.81-2.43,9.21-.49-.18-.63-.06-.38.35s.09.53-.56.28-.82-.14-.65.15a.64.64,0,0,1-.25.87,1.21,1.21,0,0,0-.35.32C-.37,209.57.3,210.87,2.27,212.82Z"/>

  <path data-tip="فیروزکوه" id="IR-0814" d="M398.37,83.51c1.67-1.07,1.7-1.15,3.1-2,2.14-1.34,2.41-1.32,3-1.93a11.93,11.93,0,0,0,2.07-3.25,17,17,0,0,0,1.76-6.43s0-.09,0-.13c.28-4.42-1.22-8.62-4.29-11-1.43-1.09-2.11-1.41-5.33-1.63-1-.07-2.31-.13-4-.19-4.49-.19-7.29-.52-7.29-.88,0-1-2.38-3.18-3.46-3.18-.65,0-1.51,1-2.42,2.78-1.67,3.3-3.05,4.18-5.82,3.7a36.57,36.57,0,0,0-5.19-.3c-2.31,0-3.42-.22-4.15-.94A10.63,10.63,0,0,1,363.9,52c0-2.92-2.57-6.19-5.26-6.72-3.35-.65-4.26-1.46-5.17-4.57a8.91,8.91,0,0,0-1.5-3.36,8.55,8.55,0,0,0-3.18-.27c-3.73.19-11.29-1.41-12.93-2.73a40.69,40.69,0,0,0-5.58-3.15c-3-1.46-4-1.86-6.55-1.94-.86,0-1.88,0-3.21,0h-.31c-4.55.06-5.94-.16-9.44-1.44-2.62-.95-4.48-2-5-2.83l-.86-1.32L302.44,26c-2.23,2.05-4,2.66-5.24,1.86a2.71,2.71,0,0,1-.74-.7,4.66,4.66,0,0,0-1.83-1.47c-2,4.08-3.13,8.11-3.13,11.24,0,2.73-.71,4.57-1.93,5-1.06.4-3.29,3.43-5,6.73a35.19,35.19,0,0,1-6.6,8.55c-.07.84-.66,1.37-1.82,1.63-1.63,1.33-3.1,2.19-4.05,2.19-2.2,0-10.84,5.85-14.51,9.53l.28,0c3.94.56,14.09,3.31,16.27,4.41a19.28,19.28,0,0,1,3.74,2.68c1.56,1.48,2,1.64,3.92,1.3,1.18-.22,3.8-.52,5.82-.67l3.67-.28,2.59,2.77c2,2.16,2.68,3.34,3,5.35.34,2.28.15,3-1.63,6.5-1.54,3-2,4.58-2,6.73,0,3.88-1.4,4.82-6.39,4.31-2.93-.3-3.69-.2-4.33.57a30.6,30.6,0,0,1-3.77,3.15c-3.65,2.69-5.15,5.58-3.73,7.15a15.4,15.4,0,0,0,3.38,2.31c3.27,1.74,5.31,6,5.31,11.11,0,3.38-.07,3.54-2.74,6.38-2.32,2.46-2.93,3.6-4,7.38-1.26,4.64-2.55,7.21-4.49,9-2.28,2.06-3.5,6.79-3.88,15l-.35,7.71h3.84a29.29,29.29,0,0,1,7.75,1.19l.92.28,3,.9,1.59-1.53c.36-.33.64-.59.91-.79.94-.68,1.79-.64,5.12-.35a15.82,15.82,0,0,1,7.19,2c3.42,1.94,3.4,1.94,5.14.57a6.16,6.16,0,0,1,3.63-1.12,8.69,8.69,0,0,0,3.28-.58c2.24-1.19,3.52-5.53,2.65-8.94s-.07-8.1,1.65-10.15c1.23-1.47,1.35-1.9.8-3.1a11.83,11.83,0,0,1-.64-3.93c0-2.32.26-2.79,3.28-5.88a16.6,16.6,0,0,1,7.15-4.79l8.08-3,1.11-.41,3.69-1.38,1.64-.62c2.79-1.05,6-4.24,8.25-8.11a17,17,0,0,1,10.27-8,20.81,20.81,0,0,0,5-2.21,7.39,7.39,0,0,1,2.71-1.33,6.93,6.93,0,0,0,2.87-1.76,4.23,4.23,0,0,1,2.5-1.38c1.53,0,4-2.38,4-3.88a2.55,2.55,0,0,1,1.55-1.93,6.64,6.64,0,0,0,3.81-4.6c.27-1.34,0-2-1.39-3.29a4.47,4.47,0,0,1-1.72-3.54c0-2.47.88-4.07,2.25-4.07a3,3,0,0,0,2-1.4c.48-.72.54-.78.8-.9,1.4-.67,3.5,4.17,6.4,4.16a1.85,1.85,0,0,0,1.38-.63c.4-.36.93-.88,1.82-1.59a29.6,29.6,0,0,1,2.55-1.78C396.15,84.86,396.61,84.63,398.37,83.51Z"/>

  <path data-tip="پیشوا" id="IR-0805" d="M173.33,188.87c-1.86-1.2-3.63-3.21-6.16-7l-.9-1.32c-3-4.35-3.82-4.94-7.68-6.25L156,173.4l-4.09,3.91-4.1,3.91,2.09,1a4.56,4.56,0,0,1,2.4,2.24c.3,1.19.07,5.41-.66,12.06-.27,2.56-.12,3.59.84,5.47.75,1.46,1.57,2.31,2.23,2.31a4.76,4.76,0,0,1,2.37,1.1h0c1.6,1.33,2.91,1.44,3.85.3a2.39,2.39,0,0,1,1.56-.84,10.34,10.34,0,0,0,3.18-1.35,9.09,9.09,0,0,1,1.25-.62,21.79,21.79,0,0,1,6.37-1.21l5.3-.46-.72-6.23A10,10,0,0,0,173.33,188.87Z"/>

</svg>
